<svg width="1440" height="586" viewBox="0 0 1440 586" fill="none" xmlns="http://www.w3.org/2000/svg">
<g opacity="0.02">
<path d="M709.306 255.327C712.539 253.331 713.54 249.095 711.543 245.865C709.545 242.636 705.305 241.636 702.072 243.631C698.839 245.627 697.838 249.863 699.835 253.093C701.833 256.323 706.073 257.323 709.306 255.327Z" stroke="#7A7A7A" stroke-width="4.5561" stroke-miterlimit="10"/>
<path d="M1827.77 486.894H1490.94L1436.41 432.416H1128.19" stroke="#7A7A7A" stroke-width="4.5561" stroke-miterlimit="10"/>
<path d="M598 587L768.494 416.606V325.223L813.682 280.062H853.844L882.924 251H946.739L1013 317.222" stroke="#7A7A7A" stroke-width="4.5561" stroke-miterlimit="10"/>
<path d="M1853.6 434.427L1777.6 358.504H1491.41L1423.67 290.835H1117.91L1080.9 253.853H1023.42" stroke="#7A7A7A" stroke-width="4.5561" stroke-miterlimit="10"/>
<path d="M1827.77 450.257L1765.98 388.522H1479.79L1412.05 320.853H1305.31" stroke="#7A7A7A" stroke-width="4.5561" stroke-miterlimit="10"/>
<path d="M534 589L707.287 406.843V297.097L766 235.38V178" stroke="#7A7A7A" stroke-width="4.5561" stroke-miterlimit="10"/>
<path d="M14.0117 408.874H416.507L620.059 205.527" stroke="#7A7A7A" stroke-width="4.5561" stroke-miterlimit="10"/>
<path d="M397.193 558.491L326.865 488.226H216.219" stroke="#7A7A7A" stroke-width="4.5561" stroke-miterlimit="10"/>
<path d="M254.326 465.534H446.061L604.846 306.908" stroke="#7A7A7A" stroke-width="4.5561" stroke-miterlimit="10"/>
<path d="M523.982 551.299L672.162 403.263V269.873" stroke="#7A7A7A" stroke-width="4.5561" stroke-miterlimit="10"/>
<path d="M24.8936 -19.5576L265.203 220.517V292.289L198.684 358.743H24.8936" stroke="#7A7A7A" stroke-width="4.5561" stroke-miterlimit="10"/>
<path d="M14.0117 378.245H338.039L417.283 299.084H482.771" stroke="#7A7A7A" stroke-width="4.5561" stroke-miterlimit="10"/>
<path d="M30.8286 54.5396L98.803 122.453H129.722L232.201 224.832" stroke="#7A7A7A" stroke-width="4.5561" stroke-miterlimit="10"/>
<path d="M14.0117 338.667H190.045L233.487 295.267" stroke="#7A7A7A" stroke-width="4.5561" stroke-miterlimit="10"/>
<path d="M11.5623 299.291L76.5664 234.345H123.749L168.27 278.822V307.025H30.8287" stroke="#7A7A7A" stroke-width="4.5561" stroke-miterlimit="10"/>
<path d="M1360.19 207.676H1495.44L1619.69 331.809" stroke="#7A7A7A" stroke-width="4.5561" stroke-miterlimit="10"/>
<path d="M1340.02 224.833H1483.57L1588.49 329.654" stroke="#7A7A7A" stroke-width="4.5561" stroke-miterlimit="10"/>
<path d="M1324.84 242.748H1473.51L1557.39 326.544" stroke="#7A7A7A" stroke-width="4.5561" stroke-miterlimit="10"/>
<path d="M735.933 558.491L844.321 450.209H1007.4" stroke="#7A7A7A" stroke-width="4.5561" stroke-miterlimit="10"/>
<path d="M1022.94 329.744C1025.28 326.752 1024.75 322.432 1021.75 320.096C1018.76 317.759 1014.43 318.291 1012.1 321.283C1009.76 324.276 1010.29 328.596 1013.28 330.932C1016.28 333.268 1020.6 332.737 1022.94 329.744Z" stroke="#7A7A7A" stroke-width="4.5561" stroke-miterlimit="10"/>
<path d="M672.263 269.49C676.063 269.49 679.144 266.413 679.144 262.616C679.144 258.82 676.063 255.742 672.263 255.742C668.463 255.742 665.382 258.82 665.382 262.616C665.382 266.413 668.463 269.49 672.263 269.49Z" stroke="#7A7A7A" stroke-width="4.5561" stroke-miterlimit="10"/>
<path d="M609.113 308.485C612.913 308.485 615.994 305.407 615.994 301.61C615.994 297.814 612.913 294.736 609.113 294.736C605.313 294.736 602.232 297.814 602.232 301.61C602.232 305.407 605.313 308.485 609.113 308.485Z" stroke="#7A7A7A" stroke-width="4.5561" stroke-miterlimit="10"/>
<path d="M627.958 205.803C631.469 204.35 633.136 200.329 631.682 196.821C630.227 193.313 626.202 191.648 622.691 193.101C619.18 194.554 617.513 198.575 618.967 202.082C620.422 205.59 624.447 207.256 627.958 205.803Z" stroke="#7A7A7A" stroke-width="4.5561" stroke-miterlimit="10"/>
<path d="M496.994 301.712C498.535 298.242 496.969 294.181 493.495 292.641C490.021 291.102 485.956 292.667 484.415 296.137C482.874 299.608 484.441 303.669 487.914 305.208C491.388 306.748 495.453 305.183 496.994 301.712Z" stroke="#7A7A7A" stroke-width="4.5561" stroke-miterlimit="10"/>
<path d="M244.777 293.234C246.423 289.812 244.98 285.705 241.555 284.061C238.13 282.417 234.019 283.858 232.373 287.279C230.727 290.701 232.17 294.808 235.595 296.452C239.02 298.097 243.131 296.656 244.777 293.234Z" stroke="#7A7A7A" stroke-width="4.5561" stroke-miterlimit="10"/>
<path d="M213.815 492.784C216.688 490.299 217.001 485.958 214.514 483.087C212.026 480.216 207.681 479.904 204.808 482.389C201.934 484.873 201.621 489.215 204.108 492.085C206.596 494.956 210.941 495.268 213.815 492.784Z" stroke="#7A7A7A" stroke-width="4.5561" stroke-miterlimit="10"/>
<path d="M243.057 460.608C245.745 457.922 250.102 457.922 252.791 460.608C255.479 463.294 255.479 467.646 252.791 470.332C250.102 473.018 245.745 473.018 243.057 470.332C240.368 467.641 240.368 463.288 243.057 460.608Z" stroke="#7A7A7A" stroke-width="4.5561" stroke-miterlimit="10"/>
<path d="M232.366 224.742C235.055 222.057 239.412 222.057 242.1 224.742C244.789 227.428 244.789 231.781 242.1 234.467C239.412 237.153 235.055 237.153 232.366 234.467C229.677 231.781 229.677 227.423 232.366 224.742Z" stroke="#7A7A7A" stroke-width="4.5561" stroke-miterlimit="10"/>
<path d="M26.9605 56.7639C30.7607 56.7639 33.8414 53.6862 33.8414 49.8898C33.8414 46.0933 30.7607 43.0156 26.9605 43.0156C23.1603 43.0156 20.0797 46.0933 20.0797 49.8898C20.0797 53.6862 23.1603 56.7639 26.9605 56.7639Z" stroke="#7A7A7A" stroke-width="4.5561" stroke-miterlimit="10"/>
<path d="M7.13086 310.821C10.9311 310.821 14.0117 307.743 14.0117 303.946C14.0117 300.15 10.9311 297.072 7.13086 297.072C3.33067 297.072 0.25 300.15 0.25 303.946C0.25 307.743 3.33067 310.821 7.13086 310.821Z" stroke="#7A7A7A" stroke-width="4.5561" stroke-miterlimit="10"/>
<path d="M7.13086 345.541C10.9311 345.541 14.0117 342.464 14.0117 338.667C14.0117 334.871 10.9311 331.793 7.13086 331.793C3.33067 331.793 0.25 334.871 0.25 338.667C0.25 342.464 3.33067 345.541 7.13086 345.541Z" stroke="#7A7A7A" stroke-width="4.5561" stroke-miterlimit="10"/>
<path d="M2.26379 373.388C4.95238 370.703 9.30937 370.703 11.998 373.388C14.6865 376.074 14.6865 380.427 11.998 383.113C9.30937 385.799 4.95238 385.799 2.26379 383.113C-0.419475 380.427 -0.419475 376.069 2.26379 373.388Z" stroke="#7A7A7A" stroke-width="4.5561" stroke-miterlimit="10"/>
<path d="M1127.74 434.755C1128.84 431.122 1126.78 427.284 1123.15 426.184C1119.51 425.084 1115.67 427.138 1114.57 430.771C1113.47 434.405 1115.52 438.242 1119.16 439.343C1122.8 440.443 1126.64 438.389 1127.74 434.755Z" stroke="#7A7A7A" stroke-width="4.5561" stroke-miterlimit="10"/>
<path d="M1020.17 452.889C1021.62 449.382 1019.96 445.361 1016.45 443.908C1012.93 442.455 1008.91 444.12 1007.45 447.628C1006 451.136 1007.67 455.157 1011.18 456.61C1014.69 458.063 1018.71 456.397 1020.17 452.889Z" stroke="#7A7A7A" stroke-width="4.5561" stroke-miterlimit="10"/>
<path d="M1011.12 249.091C1013.81 246.405 1018.17 246.405 1020.85 249.091C1023.54 251.777 1023.54 256.13 1020.85 258.816C1018.17 261.502 1013.81 261.502 1011.12 258.816C1008.43 256.13 1008.43 251.777 1011.12 249.091Z" stroke="#7A7A7A" stroke-width="4.5561" stroke-miterlimit="10"/>
<path d="M1293.61 316.081C1296.3 313.395 1300.66 313.395 1303.35 316.081C1306.04 318.767 1306.04 323.12 1303.35 325.806C1300.66 328.491 1296.3 328.491 1293.61 325.806C1290.92 323.114 1290.92 318.762 1293.61 316.081Z" stroke="#7A7A7A" stroke-width="4.5561" stroke-miterlimit="10"/>
<path d="M1321.92 248.48C1325.16 246.484 1326.16 242.248 1324.16 239.018C1322.16 235.789 1317.92 234.788 1314.69 236.784C1311.46 238.78 1310.46 243.016 1312.45 246.246C1314.45 249.475 1318.69 250.476 1321.92 248.48Z" stroke="#7A7A7A" stroke-width="4.5561" stroke-miterlimit="10"/>
<path d="M1333.08 231.67C1336.88 231.67 1339.96 228.592 1339.96 224.796C1339.96 220.999 1336.88 217.921 1333.08 217.921C1329.28 217.921 1326.2 220.999 1326.2 224.796C1326.2 228.592 1329.28 231.67 1333.08 231.67Z" stroke="#7A7A7A" stroke-width="4.5561" stroke-miterlimit="10"/>
<path d="M1353.48 214.259C1357.28 214.259 1360.36 211.181 1360.36 207.384C1360.36 203.588 1357.28 200.51 1353.48 200.51C1349.68 200.51 1346.6 203.588 1346.6 207.384C1346.6 211.181 1349.68 214.259 1353.48 214.259Z" stroke="#7A7A7A" stroke-width="4.5561" stroke-miterlimit="10"/>
<path d="M761.309 136.257C763.998 133.571 768.355 133.571 771.044 136.257C773.732 138.943 773.732 143.295 771.044 145.981C768.355 148.667 763.998 148.667 761.309 145.981C758.621 143.295 758.621 138.943 761.309 136.257Z" stroke="#7A7A7A" stroke-width="4.5561" stroke-miterlimit="10"/>
<path d="M529.288 552.163C529.763 549.243 527.778 546.492 524.855 546.018C521.933 545.544 519.179 547.527 518.704 550.447C518.23 553.366 520.215 556.118 523.138 556.591C526.06 557.065 528.814 555.082 529.288 552.163Z" fill="#7A7A7A"/>
<path d="M400.977 562.278C403.071 560.187 403.071 556.796 400.977 554.704C398.884 552.612 395.489 552.612 393.396 554.704C391.302 556.796 391.302 560.187 393.396 562.278C395.489 564.37 398.884 564.37 400.977 562.278Z" fill="#7A7A7A"/>
<path d="M30.8286 312.264C33.7896 312.264 36.1899 309.866 36.1899 306.908C36.1899 303.95 33.7896 301.552 30.8286 301.552C27.8677 301.552 25.4674 303.95 25.4674 306.908C25.4674 309.866 27.8677 312.264 30.8286 312.264Z" fill="#7A7A7A"/>
<path d="M30.6942 359.979C31.3716 357.099 29.5842 354.216 26.7017 353.539C23.8192 352.862 20.9333 354.648 20.2559 357.528C19.5784 360.407 21.3659 363.29 24.2484 363.967C27.1309 364.644 30.0167 362.858 30.6942 359.979Z" fill="#7A7A7A"/>
<path d="M14.0117 414.23C16.9727 414.23 19.373 411.832 19.373 408.874C19.373 405.916 16.9727 403.518 14.0117 403.518C11.0508 403.518 8.65051 405.916 8.65051 408.874C8.65051 411.832 11.0508 414.23 14.0117 414.23Z" fill="#7A7A7A"/>
<path d="M738.01 563.439C740.746 562.307 742.045 559.174 740.912 556.441C739.778 553.708 736.642 552.411 733.907 553.543C731.171 554.675 729.872 557.808 731.005 560.541C732.138 563.274 735.275 564.571 738.01 563.439Z" fill="#7A7A7A"/>
<path d="M1248.57 404.175C1250.66 402.084 1250.66 398.693 1248.57 396.601C1246.47 394.509 1243.08 394.509 1240.98 396.601C1238.89 398.693 1238.89 402.084 1240.98 404.175C1243.08 406.267 1246.47 406.267 1248.57 404.175Z" fill="#7A7A7A"/>
<path d="M1080.49 404.174C1082.58 402.082 1082.58 398.691 1080.49 396.599C1078.4 394.508 1075 394.508 1072.91 396.6C1070.81 398.691 1070.81 402.082 1072.91 404.174C1075 406.266 1078.4 406.266 1080.49 404.174Z" fill="#7A7A7A"/>
<path d="M246.888 363.308C249.849 363.308 252.249 360.91 252.249 357.952C252.249 354.994 249.849 352.596 246.888 352.596C243.927 352.596 241.526 354.994 241.526 357.952C241.526 360.91 243.927 363.308 246.888 363.308Z" fill="#7A7A7A"/>
<path d="M296.406 234.811C298.5 232.719 298.5 229.328 296.406 227.236C294.313 225.145 290.918 225.145 288.825 227.236C286.731 229.328 286.731 232.719 288.825 234.811C290.918 236.902 294.313 236.902 296.406 234.811Z" fill="#7A7A7A"/>
<path d="M292.62 231.022V312.264L246.888 357.952" stroke="#7A7A7A" stroke-width="4.5561" stroke-miterlimit="10"/>
<path d="M1076.71 400.381H1244.79" stroke="#7A7A7A" stroke-width="4.5561" stroke-miterlimit="10"/>
</g>
</svg>
