<svg width="135" height="47" viewBox="0 0 135 47" fill="none" xmlns="http://www.w3.org/2000/svg">
<path d="M0 8C0 3.58172 3.58172 0 8 0H127C131.418 0 135 3.58172 135 8V39C135 43.4183 131.418 47 127 47H8C3.58172 47 0 43.4183 0 39V8Z" fill="url(#paint0_linear_1794_101565)"/>
<path d="M17.816 24.256C18.2213 24.32 18.5893 24.4853 18.92 24.752C19.2613 25.0187 19.528 25.3493 19.72 25.744C19.9227 26.1387 20.024 26.56 20.024 27.008C20.024 27.5733 19.88 28.0853 19.592 28.544C19.304 28.992 18.8827 29.3493 18.328 29.616C17.784 29.872 17.1387 30 16.392 30H12.232V18.848H16.232C16.9893 18.848 17.6347 18.976 18.168 19.232C18.7013 19.4773 19.1013 19.8133 19.368 20.24C19.6347 20.6667 19.768 21.1467 19.768 21.68C19.768 22.3413 19.5867 22.8907 19.224 23.328C18.872 23.7547 18.4027 24.064 17.816 24.256ZM13.688 23.664H16.136C16.8187 23.664 17.3467 23.504 17.72 23.184C18.0933 22.864 18.28 22.4213 18.28 21.856C18.28 21.2907 18.0933 20.848 17.72 20.528C17.3467 20.208 16.808 20.048 16.104 20.048H13.688V23.664ZM16.264 28.8C16.9893 28.8 17.5547 28.6293 17.96 28.288C18.3653 27.9467 18.568 27.472 18.568 26.864C18.568 26.2453 18.3547 25.76 17.928 25.408C17.5013 25.0453 16.9307 24.864 16.216 24.864H13.688V28.8H16.264ZM30.0445 25.28C30.0445 25.5573 30.0285 25.8507 29.9965 26.16H22.9885C23.0418 27.024 23.3352 27.7013 23.8685 28.192C24.4125 28.672 25.0685 28.912 25.8365 28.912C26.4658 28.912 26.9885 28.768 27.4045 28.48C27.8312 28.1813 28.1298 27.7867 28.3005 27.296H29.8685C29.6338 28.1387 29.1645 28.8267 28.4605 29.36C27.7565 29.8827 26.8818 30.144 25.8365 30.144C25.0045 30.144 24.2578 29.9573 23.5965 29.584C22.9458 29.2107 22.4338 28.6827 22.0605 28C21.6872 27.3067 21.5005 26.5067 21.5005 25.6C21.5005 24.6933 21.6818 23.8987 22.0445 23.216C22.4072 22.5333 22.9138 22.0107 23.5645 21.648C24.2258 21.2747 24.9832 21.088 25.8365 21.088C26.6685 21.088 27.4045 21.2693 28.0445 21.632C28.6845 21.9947 29.1752 22.496 29.5165 23.136C29.8685 23.7653 30.0445 24.48 30.0445 25.28ZM28.5405 24.976C28.5405 24.4213 28.4178 23.9467 28.1725 23.552C27.9272 23.1467 27.5912 22.8427 27.1645 22.64C26.7485 22.4267 26.2845 22.32 25.7725 22.32C25.0365 22.32 24.4072 22.5547 23.8845 23.024C23.3725 23.4933 23.0792 24.144 23.0045 24.976H28.5405ZM35.5824 21.088C36.3397 21.088 37.001 21.2533 37.5664 21.584C38.1424 21.9147 38.569 22.3307 38.8464 22.832V21.232H40.3184V30.192C40.3184 30.992 40.1477 31.7013 39.8064 32.32C39.465 32.9493 38.9744 33.44 38.3344 33.792C37.705 34.144 36.969 34.32 36.1264 34.32C34.9744 34.32 34.0144 34.048 33.2464 33.504C32.4784 32.96 32.025 32.2187 31.8864 31.28H33.3264C33.4864 31.8133 33.817 32.24 34.3184 32.56C34.8197 32.8907 35.4224 33.056 36.1264 33.056C36.9264 33.056 37.577 32.8053 38.0784 32.304C38.5904 31.8027 38.8464 31.0987 38.8464 30.192V28.352C38.5584 28.864 38.1317 29.2907 37.5664 29.632C37.001 29.9733 36.3397 30.144 35.5824 30.144C34.8037 30.144 34.0944 29.952 33.4544 29.568C32.825 29.184 32.329 28.6453 31.9664 27.952C31.6037 27.2587 31.4224 26.4693 31.4224 25.584C31.4224 24.688 31.6037 23.904 31.9664 23.232C32.329 22.5493 32.825 22.0213 33.4544 21.648C34.0944 21.2747 34.8037 21.088 35.5824 21.088ZM38.8464 25.6C38.8464 24.9387 38.713 24.3627 38.4464 23.872C38.1797 23.3813 37.817 23.008 37.3584 22.752C36.9104 22.4853 36.4144 22.352 35.8704 22.352C35.3264 22.352 34.8304 22.48 34.3824 22.736C33.9344 22.992 33.577 23.3653 33.3104 23.856C33.0437 24.3467 32.9104 24.9227 32.9104 25.584C32.9104 26.256 33.0437 26.8427 33.3104 27.344C33.577 27.8347 33.9344 28.2133 34.3824 28.48C34.8304 28.736 35.3264 28.864 35.8704 28.864C36.4144 28.864 36.9104 28.736 37.3584 28.48C37.817 28.2133 38.1797 27.8347 38.4464 27.344C38.713 26.8427 38.8464 26.2613 38.8464 25.6ZM43.5309 19.808C43.2535 19.808 43.0189 19.712 42.8269 19.52C42.6349 19.328 42.5389 19.0933 42.5389 18.816C42.5389 18.5387 42.6349 18.304 42.8269 18.112C43.0189 17.92 43.2535 17.824 43.5309 17.824C43.7975 17.824 44.0215 17.92 44.2029 18.112C44.3949 18.304 44.4909 18.5387 44.4909 18.816C44.4909 19.0933 44.3949 19.328 44.2029 19.52C44.0215 19.712 43.7975 19.808 43.5309 19.808ZM44.2349 21.232V30H42.7789V21.232H44.2349ZM50.9884 21.072C52.055 21.072 52.919 21.3973 53.5804 22.048C54.2417 22.688 54.5724 23.616 54.5724 24.832V30H53.1324V25.04C53.1324 24.1653 52.9137 23.4987 52.4764 23.04C52.039 22.5707 51.4417 22.336 50.6844 22.336C49.9164 22.336 49.303 22.576 48.8444 23.056C48.3964 23.536 48.1724 24.2347 48.1724 25.152V30H46.7164V21.232H48.1724V22.48C48.4604 22.032 48.8497 21.6853 49.3404 21.44C49.8417 21.1947 50.391 21.072 50.9884 21.072ZM69.9844 30H68.5284L62.6724 21.12V30H61.2164V18.832H62.6724L68.5284 27.696V18.832H69.9844V30ZM76.2904 30.144C75.469 30.144 74.7224 29.9573 74.0504 29.584C73.389 29.2107 72.8664 28.6827 72.4824 28C72.109 27.3067 71.9224 26.5067 71.9224 25.6C71.9224 24.704 72.1144 23.9147 72.4984 23.232C72.893 22.5387 73.4264 22.0107 74.0984 21.648C74.7704 21.2747 75.5224 21.088 76.3544 21.088C77.1864 21.088 77.9384 21.2747 78.6104 21.648C79.2824 22.0107 79.8104 22.5333 80.1944 23.216C80.589 23.8987 80.7864 24.6933 80.7864 25.6C80.7864 26.5067 80.5837 27.3067 80.1784 28C79.7837 28.6827 79.245 29.2107 78.5624 29.584C77.8797 29.9573 77.1224 30.144 76.2904 30.144ZM76.2904 28.864C76.813 28.864 77.3037 28.7413 77.7624 28.496C78.221 28.2507 78.589 27.8827 78.8664 27.392C79.1544 26.9013 79.2984 26.304 79.2984 25.6C79.2984 24.896 79.1597 24.2987 78.8824 23.808C78.605 23.3173 78.2424 22.9547 77.7944 22.72C77.3464 22.4747 76.861 22.352 76.3384 22.352C75.805 22.352 75.3144 22.4747 74.8664 22.72C74.429 22.9547 74.077 23.3173 73.8104 23.808C73.5437 24.2987 73.4104 24.896 73.4104 25.6C73.4104 26.3147 73.5384 26.9173 73.7944 27.408C74.061 27.8987 74.413 28.2667 74.8504 28.512C75.2877 28.7467 75.7677 28.864 76.2904 28.864ZM94.3808 21.232L91.6448 30H90.1408L88.0288 23.04L85.9168 30H84.4128L81.6608 21.232H83.1488L85.1648 28.592L87.3408 21.232H88.8288L90.9568 28.608L92.9408 21.232H94.3808Z" fill="white"/>
<path d="M115 16L113.59 17.41L119.17 23H107V25H119.17L113.59 30.59L115 32L123 24L115 16Z" fill="white"/>
<defs>
<linearGradient id="paint0_linear_1794_101565" x1="67.5" y1="0" x2="67.5" y2="47" gradientUnits="userSpaceOnUse">
<stop stop-color="#1964D6"/>
<stop offset="1" stop-color="#3783F5"/>
</linearGradient>
</defs>
</svg>
