<svg width="203" height="188" viewBox="0 0 203 188" fill="none" xmlns="http://www.w3.org/2000/svg">
<path d="M126.067 128.631L126.162 128.574L134.401 123.782L134.123 123.617L109.558 109.356C102.571 105.289 98.7166 99.8864 98.7166 94.1464C98.7166 88.4 102.564 83.0037 109.558 78.9373L117.759 74.1645L123.167 77.3082L129.542 62.4172L103.916 66.1209L109.426 69.3282L101.408 73.9927C92.1774 79.3636 87.0914 86.5228 87.0914 94.1591C87.0914 101.796 92.1774 108.955 101.408 114.326L126.067 128.631ZM133.655 123.788L126.067 128.198L101.598 113.988C92.487 108.687 87.4641 101.643 87.4641 94.1464C87.4641 86.65 92.4807 79.6055 101.598 74.3045L110.171 69.3154L105.035 66.3309L128.936 62.8754L122.991 76.7736L117.753 73.7318L109.363 78.6127C102.255 82.7491 98.3375 88.2664 98.3375 94.1464C98.3375 100.026 102.255 105.55 109.363 109.68L133.655 123.788Z" fill="#42E8E0"/>
<path d="M106.557 139.765L106.652 139.708L114.916 134.947L114.637 134.783L89.9967 120.612C70.9207 109.623 39.8793 109.623 20.8033 120.612L12.5771 125.355L7.14585 122.231L0.751236 137.04L1.0808 136.996L26.4564 133.36L20.93 130.179L28.9724 125.544C43.5424 117.154 67.2512 117.154 81.8213 125.544L106.557 139.765ZM114.168 134.953L106.557 139.335L82.0114 125.216C67.34 116.762 43.4601 116.762 28.7886 125.216L20.1885 130.173L25.341 133.139L1.35966 136.572L7.3233 122.762L12.5771 125.785L12.6722 125.728L20.9934 120.935C39.968 110.008 70.8383 110.008 89.8129 120.935L114.168 134.953Z" fill="#42E8E0"/>
<path d="M103.173 56.7737V63.9378L112.641 60.4854L103.173 56.7737Z" fill="url(#paint0_linear_2102_107340)"/>
<path d="M108.173 75.7685L116.494 70.9755L121.83 74.0486L128.009 59.7393L103.166 63.2992L108.509 66.3722L100.188 71.1652C93.2163 75.1804 88.8054 80.1251 86.9485 85.3101L85.9281 84.115V90.9187C85.8711 98.1587 90.6242 105.405 100.194 110.919L124.834 125.089L132.82 120.492L108.179 106.322C93.5522 97.8932 93.5522 84.1909 108.173 75.7685Z" fill="url(#paint1_linear_2102_107340)"/>
<path d="M108.173 99.7902C93.5522 91.3678 93.5522 77.6655 108.173 69.2431L116.494 64.4501L121.83 67.5232L128.009 53.2139L103.166 56.7738L108.509 59.8469L100.188 64.6398C81.1623 75.5978 81.1623 93.4291 100.188 104.387L124.828 118.557L132.813 113.96L108.173 99.7902Z" fill="url(#paint2_linear_2102_107340)"/>
<path d="M97.228 83.9507C97.4688 78.6076 101.107 73.3088 108.173 69.2367L116.494 64.4438L121.83 67.5168L128.01 53.2075L127.49 53.2834L121.83 66.3913L116.494 63.3182L108.173 68.1112C100.612 72.4678 96.9745 78.2346 97.228 83.9507Z" fill="white"/>
<path d="M124.828 117.438L100.188 103.268C90.9221 97.9312 86.1816 90.9631 85.9408 83.957C85.6873 91.3425 90.4278 98.7722 100.188 104.393L124.828 118.564L132.813 113.967L131.837 113.404L124.828 117.438Z" fill="white"/>
<path d="M128.016 53.2139V59.7394L121.837 74.0487V67.5232L128.016 53.2139Z" fill="url(#paint3_linear_2102_107340)"/>
<path d="M132.813 113.967V120.492L124.828 125.089V118.564L132.813 113.967Z" fill="url(#paint4_linear_2102_107340)"/>
<path d="M89.9018 116.8C85.5099 114.27 80.4778 112.329 75.1036 110.97L67.5746 106.866L44.4869 107.479L43.1053 109.49C34.9615 110.704 27.255 113.139 20.8921 116.806L12.5709 121.599L7.22835 118.526L1.04923 132.835L25.8925 129.275L20.5562 126.202L28.8774 121.409C43.4982 112.987 67.2894 112.987 81.9101 121.409L106.551 135.586L114.536 130.989L89.9018 116.8Z" fill="url(#paint5_linear_2102_107340)"/>
<path d="M20.8985 110.274L12.5773 115.067L7.2347 111.994L1.05558 126.303L25.8988 122.743L20.5626 119.67L28.8838 114.877C43.5045 106.455 67.2957 106.455 81.9165 114.877L106.557 129.054L114.542 124.457L89.9018 110.287C70.8765 99.316 39.9238 99.316 20.8985 110.274Z" fill="url(#paint6_linear_2102_107340)"/>
<path d="M1.55624 125.153L1.05557 126.303L25.8988 122.743L24.4031 121.884L1.55624 125.153Z" fill="white"/>
<path d="M106.557 127.973L81.9165 113.803C67.2957 105.38 43.5045 105.38 28.8838 113.803L19.6563 119.108L20.5626 119.671L28.8838 114.878C43.5045 106.455 67.2957 106.455 81.9165 114.878L106.557 129.054L114.542 124.457L113.604 123.92L106.557 127.973Z" fill="white"/>
<path d="M1.05557 126.303V132.829L25.8988 129.269V122.743L1.05557 126.303Z" fill="url(#paint7_linear_2102_107340)"/>
<path d="M114.542 124.45V130.976L106.557 135.573V129.047L114.542 124.45Z" fill="url(#paint8_linear_2102_107340)"/>
<path d="M142.893 188C143.828 188 144.81 187.774 145.574 187.331L201.776 154.954C202.556 154.503 203 153.897 203 153.282C203 152.753 202.68 152.287 202.104 151.952L146.26 119.583C145.036 118.883 142.901 118.961 141.498 119.77L85.2879 152.147C84.5084 152.598 84.0641 153.204 84.0641 153.819C84.0641 154.348 84.3837 154.814 84.9605 155.149L140.804 187.518C141.365 187.844 142.106 188 142.893 188ZM144.179 119.552C144.873 119.552 145.535 119.692 146.034 119.972L201.87 152.349C202.298 152.598 202.54 152.932 202.54 153.282C202.54 153.733 202.182 154.192 201.542 154.558L145.333 186.934C144.062 187.665 142.129 187.751 141.03 187.121L85.1865 154.752C84.7578 154.503 84.5162 154.169 84.5162 153.819C84.5162 153.368 84.8825 152.909 85.5139 152.543L141.724 120.167C142.425 119.762 143.329 119.552 144.179 119.552Z" fill="#42E8E0"/>
<path d="M140.757 179.383L87.0184 148.227C85.8882 147.574 86.0363 146.446 87.338 145.692L141.911 114.256C143.213 113.509 145.185 113.424 146.307 114.077L200.046 145.233C201.176 145.886 201.028 147.014 199.726 147.768L145.153 179.204C143.859 179.95 141.887 180.028 140.757 179.383Z" fill="url(#paint9_linear_2102_107340)"/>
<path d="M202.766 135.2L183.598 133.956L146.136 112.171C144.974 111.503 142.947 111.588 141.607 112.358L99.4125 136.662L84.2902 135.682V146.213H84.3058C84.3058 146.64 84.5474 147.045 85.0775 147.348L140.921 179.717C142.082 180.386 144.109 180.3 145.45 179.53L201.659 147.154C202.369 146.741 202.735 146.22 202.758 145.723H202.766V135.2Z" fill="url(#paint10_linear_2102_107340)"/>
<path d="M202.766 135.2L183.598 133.956L146.136 112.171C144.974 111.503 142.947 111.588 141.607 112.358L99.4125 136.662L84.2902 135.682V146.213H84.3058C84.3058 146.64 84.5474 147.045 85.0775 147.348L140.921 179.717C142.082 180.386 144.109 180.3 145.45 179.53L201.659 147.154C202.369 146.741 202.735 146.22 202.758 145.723H202.766V135.2Z" fill="url(#paint11_linear_2102_107340)"/>
<path d="M140.921 169.109L85.0775 136.74C83.916 136.071 84.0641 134.905 85.4048 134.127L141.615 101.75C142.955 100.98 144.982 100.894 146.143 101.563L201.987 133.932C203.148 134.601 203 135.768 201.659 136.546L145.45 168.922C144.109 169.692 142.082 169.778 140.921 169.109Z" fill="url(#paint12_linear_2102_107340)"/>
<path d="M140.921 169.109L85.0775 136.74C83.916 136.071 84.0641 134.905 85.4048 134.127L141.615 101.75C142.955 100.98 144.982 100.894 146.143 101.563L201.987 133.932C203.148 134.601 203 135.768 201.659 136.546L145.45 168.922C144.109 169.692 142.082 169.778 140.921 169.109Z" fill="url(#paint13_linear_2102_107340)"/>
<path d="M201.659 135.589L145.45 167.966C144.109 168.736 142.082 168.821 140.921 168.152L85.0775 135.783C84.7423 135.589 84.5318 135.356 84.4149 135.107C84.1421 135.698 84.3525 136.32 85.0775 136.74L140.921 169.109C142.082 169.778 144.109 169.692 145.45 168.922L201.659 136.545C202.618 135.993 202.953 135.239 202.649 134.609C202.486 134.959 202.158 135.301 201.659 135.589Z" fill="white"/>
<path opacity="0.3" d="M144.109 148.585C130.083 148.585 118.713 142.035 118.713 133.956C118.713 125.876 130.083 119.327 144.109 119.327C158.135 119.327 169.505 125.876 169.505 133.956C169.505 142.035 158.135 148.585 144.109 148.585Z" fill="#160A5B"/>
<path d="M141.973 133.077C141.973 133.077 139.525 133.326 137.171 133.139C134.817 132.952 128.394 133.341 128.488 135.433C128.581 137.541 131.847 140.932 136.049 141.865C140.266 142.798 145.73 142.355 148.497 142.736C151.273 143.117 153.19 140.878 152.138 138.404C151.093 135.97 141.973 133.077 141.973 133.077Z" fill="#160A5B"/>
<path d="M157.158 126.886C157.158 126.886 157.992 128.543 157.509 129.468C157.025 130.394 155.731 132.696 151.974 129.997C148.256 127.322 141.061 123.34 141.061 123.34C141.061 123.34 136.992 120.524 137.39 117.701C137.779 114.901 141.615 115.671 141.615 115.671L157.158 126.886Z" fill="#160A5B"/>
<path d="M134.677 84.9434C134.677 84.9434 135.184 102.971 138.193 110.173C141.279 117.569 141.521 130.806 142.121 133.411C142.721 136.04 144.826 139.952 148.412 141.088C152.013 142.231 152.738 139.579 152.637 137.938C152.535 136.305 151.654 133.614 151.725 131.871C151.795 130.145 152.2 129.367 152.294 128.582C152.294 128.582 156.37 130.293 157.158 126.878C157.158 126.878 156.869 125.836 156.838 125.315C156.807 124.794 157.766 112.421 157.937 110.943C158.101 109.473 157.719 101.431 156.768 97.426C155.833 93.4829 156.581 85.4023 156.581 85.4023L145.247 82.7502L134.677 84.9434Z" fill="#24126A"/>
<path d="M156.76 97.4416C155.825 93.4985 156.573 85.4179 156.573 85.4179L155.583 85.1846C155.49 86.2967 154.913 93.4051 155.77 97.0216C156.713 101.011 157.088 109.045 156.916 110.515C156.745 111.993 155.762 124.351 155.794 124.864C155.825 125.385 156.113 126.42 156.113 126.42C155.326 129.834 151.257 128.123 151.257 128.123C151.163 128.908 150.75 129.678 150.68 131.405C150.61 133.139 151.483 135.83 151.584 137.463C151.686 139.097 150.961 141.741 147.359 140.605C147.25 140.567 147.149 140.512 147.04 140.465C147.476 140.714 147.936 140.932 148.435 141.095C152.036 142.239 152.761 139.587 152.66 137.946C152.559 136.312 151.678 133.621 151.748 131.879C151.818 130.153 152.239 129.219 152.333 128.434C152.333 128.434 156.402 130.301 157.181 126.886C157.181 126.886 156.893 125.844 156.862 125.323C156.83 124.802 157.789 112.428 157.961 110.951C158.101 109.481 157.711 101.439 156.76 97.4416Z" fill="url(#paint14_linear_2102_107340)"/>
<path d="M153.12 86.4133C153.12 86.4133 152.941 89.182 151.725 91.4374C151.725 91.4374 151.273 100.996 150.103 105.802C150.103 105.802 151.117 115.842 151.92 119.086C152.73 122.36 152.301 128.597 152.301 128.597C152.301 128.597 152.761 128.831 153.44 128.924C154.11 129.017 154.734 116.682 153.814 114.435C152.894 112.203 152.582 102.714 153.097 99.899C153.611 97.1148 153.868 89.0886 154.43 87.7276C154.991 86.3744 153.907 85.5344 153.907 85.5344L153.12 86.4133Z" fill="#160A5B"/>
<path d="M146.876 24.2886C146.876 24.2886 143.563 26.3884 143.493 30.4404L145.894 30.0982C145.894 30.0982 145.442 25.5718 146.876 24.2886Z" fill="#160A5B"/>
<path d="M144.584 89.571C152.161 90.4731 156.433 87.2689 156.433 87.2689C156.503 86.149 156.565 85.4179 156.565 85.4179L145.231 82.7659L134.677 84.9435C134.677 84.9435 134.778 88.4666 135.152 93.0163C137 93.3896 139.105 88.7077 139.105 88.7077L144.28 89.501C144.28 89.5088 137.031 88.6766 144.584 89.571Z" fill="#160A5B"/>
<path d="M136.119 85.3323C136.119 85.3323 152.208 93.8795 160.821 81.0626C161.063 80.6971 161.188 80.246 161.196 79.7716L161.227 76.6529C161.234 76.2562 161.305 75.8752 161.437 75.5174C161.726 74.7552 161.819 73.8997 161.71 73.0598C161.25 69.5678 160.003 60.1573 159.738 57.5675C159.41 54.4254 161.546 42.2618 164.43 37.2066C167.26 32.2524 161.079 20.3065 161.079 20.3065C161.079 20.3065 159.574 17.5456 156.355 18.2222C156.355 18.2222 159.286 20.5787 157.516 22.7253C155.731 24.8874 150.633 26.3495 150.633 26.3495C150.633 26.3495 141.116 30.5337 137.592 36.2655C137.592 36.2655 136.306 39.2986 135.971 43.2573C135.62 47.2781 135.456 57.0775 135.207 58.4307C134.958 59.7918 133.866 69.21 133.897 69.6611C133.921 70.1044 136.119 85.3323 136.119 85.3323Z" fill="#453C9E"/>
<path d="M157.758 19.9644C158.039 19.3422 157.992 18.72 157.789 18.1601C157.353 18.1134 156.885 18.1056 156.355 18.2223C156.355 18.2223 157.259 18.9533 157.758 19.9644Z" fill="url(#paint15_linear_2102_107340)"/>
<path d="M141.007 87.2068C141.007 87.2068 152.068 60.8185 152.099 51.1436C152.13 41.8342 137.156 69.1557 137.156 69.1557L136.119 85.3324C136.119 85.3324 139.144 86.8023 141.007 87.2068Z" fill="#24126A"/>
<path d="M161.289 72.8264C161.157 73.1764 161.086 73.5575 161.079 73.9541L161.04 77.0417C161.032 77.5083 160.907 77.9594 160.666 78.3172C152.091 90.9941 136.088 82.5402 136.088 82.5402C136.088 82.5402 134.506 71.6287 134.022 68.1367C133.936 68.9689 133.882 69.5522 133.89 69.6533C133.913 70.1044 136.111 85.3245 136.111 85.3245C136.111 85.3245 152.2 93.8717 160.814 81.0548C161.055 80.6892 161.18 80.2382 161.188 79.7637L161.219 76.6451C161.227 76.2484 161.297 75.8673 161.429 75.5096C161.718 74.7474 161.811 73.8919 161.702 73.052C161.655 72.6864 161.593 72.2431 161.531 71.7609C161.492 72.1342 161.414 72.492 161.289 72.8264Z" fill="url(#paint16_linear_2102_107340)"/>
<path d="M164.275 34.8967C161.398 39.9052 159.27 51.9522 159.598 55.0631C159.629 55.3509 159.668 55.732 159.722 56.1675C159.909 51.7267 161.874 41.694 164.43 37.2065C165.226 35.8144 165.288 33.8467 164.992 31.7546C164.968 32.9446 164.766 34.0334 164.275 34.8967Z" fill="url(#paint17_linear_2102_107340)"/>
<path d="M137.709 54.8222C138.177 52.6912 138.512 50.5525 138.66 48.4059C138.925 44.6884 140.297 38.6299 146.759 40.1931C155.926 42.4097 151.288 55.5066 150.142 57.7853C148.989 60.0874 144.296 70.6023 144.047 71.2089C143.813 71.7766 136.485 84.998 133.944 88.1322C133.71 88.42 133.328 88.4356 133.079 88.1711C132.183 87.2301 130.179 85.0136 129.984 83.6992C129.735 82.0193 131.473 76.1786 131.473 76.1786C131.473 76.1786 136.033 61.7984 136.384 61.1451C136.641 60.6551 136.945 58.2831 137.709 54.8222Z" fill="#4846A5"/>
<path d="M147.016 24.5919C147.016 24.5919 146.385 22.8731 144.725 22.5776C143.064 22.282 142.145 21.7454 142.012 21.1076C141.88 20.4699 141.918 19.7155 141.568 18.7589C141.217 17.8101 141.014 15.5158 141.022 15.4613C141.03 15.4069 139.79 14.9325 139.767 14.3725C139.736 13.8126 140.508 11.8682 140.453 11.7127C140.391 11.5572 139.79 10.2895 139.939 9.35619C140.087 8.42291 140.289 7.06967 140.858 5.95752C141.427 4.84537 145.317 -1.85864 154.203 2.34109C163.269 6.61859 155.848 13.9059 156.518 19.0622C156.518 19.0622 157.298 20.1977 155.684 21.9243C154.063 23.6586 149.62 23.7364 147.016 24.5919Z" fill="url(#paint18_linear_2102_107340)"/>
<path d="M155.684 21.9243C157.298 20.1978 156.519 19.0623 156.519 19.0623C156.425 18.3468 156.495 17.5846 156.651 16.7913L152.972 17.2268C152.972 17.2268 147.866 12.0472 148.1 14.637C148.342 17.258 147.016 17.6079 147.016 17.6079L148.038 19.1012C148.303 19.4823 148.108 19.9022 147.858 20.2833C146.175 22.842 142.495 21.7688 142.488 21.7688C142.932 22.111 143.68 22.391 144.725 22.5776C146.385 22.8731 147.016 24.5919 147.016 24.5919C149.62 23.7364 154.063 23.6587 155.684 21.9243Z" fill="#24126A"/>
<path d="M140.625 3.27433C140.625 3.27433 139.876 5.09421 140.858 5.94971C141.841 6.81299 142.729 7.62182 142.729 7.62182L142.589 10.0017C142.565 10.3439 142.643 10.6861 142.815 10.9894L144 13.097C144.226 13.5092 144.343 13.9759 144.312 14.4425L144.265 15.4224C144.249 15.7102 144.444 15.9668 144.725 16.0213L145.068 16.0835C145.372 16.1379 145.652 15.9357 145.707 15.6246L145.925 14.2714C145.925 14.2714 146.673 13.2292 148.108 14.6369L149.433 15.2902C149.799 15.4769 150.08 15.8035 150.205 16.2079C150.532 17.289 151.234 19.4277 151.826 19.8244C152.629 20.3532 155.903 18.9222 156.363 18.2145C156.823 17.5145 158.132 12.7159 158.904 10.4528C159.668 8.2129 159.551 2.55104 152.831 0.653388C146.167 -1.22093 141.677 1.32223 140.625 3.27433Z" fill="#453C9E"/>
<path opacity="0.3" d="M156.355 18.2222C156.815 17.5223 158.124 12.7237 158.896 10.4605C158.896 10.4605 156.168 12.0393 152.715 12.3193C149.254 12.5992 142.698 8.25952 142.698 8.25952L142.589 10.0016C142.565 10.3438 142.643 10.686 142.815 10.9893L144 13.097C144.226 13.5092 144.343 13.9758 144.312 14.4425L144.265 15.4224C144.249 15.7101 144.444 15.9668 144.725 16.0212L145.068 16.0835C145.372 16.1379 145.652 15.9357 145.707 15.6246L145.925 14.2714C145.925 14.2714 146.673 13.2292 148.108 14.6369L150.025 15.5857C150.025 15.5857 151.031 19.2955 151.826 19.8243C152.621 20.3532 155.887 18.9222 156.355 18.2222Z" fill="#160A5B"/>
<path d="M156.48 18.4634C156.48 18.4634 159.075 20.3144 157.625 22.5776C156.168 24.8641 146.229 28.3872 145.715 28.986C145.715 28.986 145.528 25.3929 146.884 24.2886C146.884 24.2886 154.391 23.3708 155.638 21.5354C156.869 19.7233 156.48 18.4634 156.48 18.4634Z" fill="#F0F6FF"/>
<path d="M157.922 26.155C157.922 26.155 153.463 28.356 151.288 29.3359C149.106 30.3236 146.712 31.6691 146.712 31.6691L145.949 30.7825L144.857 32.8901C144.857 32.8901 141.412 34.6789 139.752 36.2655C138.083 37.8598 136.758 40.0219 136.563 40.5196C136.563 40.5196 141.069 35.2389 144.436 33.8312L145.341 33.4423L145.933 31.7547L146.689 32.6802C146.689 32.6879 156.534 27.5549 157.922 26.155Z" fill="#24126A"/>
<path d="M142.449 103.632C142.332 103.181 142.137 102.777 141.895 102.528L124.388 84.3604C123.936 83.8859 123.444 84.1737 123.289 85.0059L119.796 104.084C119.633 104.978 119.882 106.113 120.35 106.627L135.16 122.78L134.264 128.543L139.167 126.606V126.599C139.393 126.474 139.564 126.155 139.635 125.65L142.55 105.056C142.62 104.605 142.573 104.091 142.449 103.632Z" fill="url(#paint19_linear_2102_107340)"/>
<path d="M119.259 85.8067L123.733 84.189L123.873 84.1346C124.037 84.1112 124.208 84.1735 124.38 84.3523L141.887 102.52C142.129 102.769 142.316 103.173 142.441 103.617L141.755 103.904L137.834 105.538L122.509 89.2598L119.259 85.8067Z" fill="#453C9E"/>
<path d="M115.618 108.408L133.625 128.31C134.124 128.862 134.654 128.527 134.794 127.555L137.889 106.829C138.021 105.934 137.74 104.791 137.257 104.286L119.851 86.0012C119.399 85.5268 118.908 85.8146 118.744 86.6467L115.073 105.841C114.917 106.751 115.151 107.894 115.618 108.408Z" fill="#24126A"/>
<path d="M137.281 126.544L140.282 105.888C140.414 104.993 140.126 103.858 139.635 103.352L122.182 85.13C122.041 84.9822 121.901 84.9122 121.761 84.9044C121.94 84.8422 122.143 84.9044 122.338 85.1067L139.798 103.329C140.282 103.834 140.57 104.97 140.445 105.864L137.452 126.521C137.359 127.189 137.093 127.578 136.758 127.563C137.016 127.469 137.203 127.096 137.281 126.544Z" fill="#160A5B"/>
<path d="M132.237 95.4894L133.235 95.0616C133.461 94.9605 133.671 94.945 133.843 94.9994L133.921 95.0227C134.014 95.0538 134.061 95.1705 134.038 95.326L134.007 95.5127L131.185 96.726L131.216 96.5393C131.239 96.3838 131.333 96.2127 131.45 96.0882L131.543 95.9871C131.769 95.7616 132.011 95.5905 132.237 95.4894Z" fill="#160A5B"/>
<path d="M132.424 98.0248L131.185 96.7338L134.014 95.0928L135.238 96.3605L132.424 98.0248Z" fill="#160A5B"/>
<path d="M133.477 96.7882L134.482 96.3526C134.708 96.2515 134.919 96.236 135.098 96.2904L135.176 96.3137C135.269 96.3449 135.316 96.4615 135.293 96.6171L135.262 96.8037L132.432 98.0248L132.463 97.8381C132.487 97.6826 132.58 97.5037 132.697 97.3792L132.798 97.2781C133.009 97.0526 133.243 96.8815 133.477 96.7882Z" fill="url(#paint20_linear_2102_107340)"/>
<path d="M134.022 97.3326L134.162 96.4849L134.077 96.5238L133.936 97.3715L134.022 97.3326Z" fill="#160A5B"/>
<path d="M134.162 96.4928L132.884 95.2173L132.806 95.2484L134.077 96.5239L134.162 96.4928Z" fill="#160A5B"/>
<path d="M126.695 89.7262L127.693 89.3062C127.919 89.2129 128.129 89.1896 128.301 89.244L128.378 89.2673C128.472 89.2985 128.511 89.4073 128.488 89.5629L128.456 89.7418L125.65 90.9317L125.681 90.745C125.705 90.5895 125.798 90.4184 125.923 90.3017L126.017 90.2006C126.235 89.9829 126.469 89.8195 126.695 89.7262Z" fill="#160A5B"/>
<path d="M126.859 92.2072L125.65 90.9317L128.457 89.3374L129.657 90.574L126.859 92.2072Z" fill="#160A5B"/>
<path d="M127.911 90.9862L128.909 90.5662C129.135 90.4729 129.345 90.4496 129.517 90.504L129.595 90.5274C129.688 90.5585 129.727 90.6751 129.704 90.8229L129.673 91.0095L126.866 92.2072L126.898 92.0206C126.921 91.865 127.014 91.6939 127.139 91.5773L127.233 91.4762C127.451 91.2506 127.685 91.0795 127.911 90.9862Z" fill="url(#paint21_linear_2102_107340)"/>
<path d="M128.449 91.5229L128.589 90.6985L128.503 90.7296L128.363 91.5618L128.449 91.5229Z" fill="#160A5B"/>
<path d="M128.589 90.6985L127.342 89.4541L127.264 89.4774L128.503 90.7296L128.589 90.6985Z" fill="#160A5B"/>
<path d="M134.926 92.495L134.357 96.0648L133.531 95.2015L134.085 91.7406C134.162 91.2351 133.968 90.5585 133.648 90.2318L130.101 86.5765C129.79 86.2499 129.462 86.3899 129.376 86.8798L128.792 90.2785L127.981 89.4308L128.581 85.9466C128.768 84.8578 129.486 84.5622 130.179 85.2699L133.96 89.1586C134.669 89.8896 135.106 91.3751 134.926 92.495Z" fill="#453C9E"/>
<path d="M128.807 86.2189L130.366 86.1877L134.568 91.0019L134.591 93.7706L134.357 96.0649L133.313 96.516L133.461 93.6384L133.523 91.6785L132.681 90.1853C132.681 90.1853 131.091 88.5987 131.076 88.5598C131.068 88.5132 128.807 86.2189 128.807 86.2189Z" fill="#453C9E"/>
<path d="M127.763 90.7139L128.8 90.2706L129.228 87.7664H128.269L127.981 87.7975L127.763 90.7139Z" fill="#453C9E"/>
<path d="M128.145 85.3787L129.252 84.9121C129.252 84.9121 128.932 85.5032 128.924 85.5032C128.917 85.4954 128.566 85.6043 128.558 85.6043L128.145 85.3787Z" fill="#453C9E"/>
<path d="M133.89 92.9384L133.313 96.516L132.487 95.6527L133.048 92.184C133.134 91.6785 132.939 91.0019 132.619 90.6752L129.072 87.0121C128.761 86.6855 128.433 86.8255 128.347 87.3154L127.763 90.7219L126.952 89.8742L127.56 86.3899C127.747 85.3011 128.464 84.9978 129.158 85.7133L132.939 89.6097C133.64 90.3252 134.069 91.8185 133.89 92.9384Z" fill="#160A5B"/>
<path d="M130.257 83.5747C130.257 83.5747 129.4 86.9967 129.524 87.8833C129.649 88.7777 131.115 90.6054 132.042 90.9942C132.97 91.3909 132.658 90.1543 132.923 89.4154C133.18 88.6766 133.25 87.0356 133.25 87.0356L130.257 83.5747Z" fill="#453C9E"/>
<path d="M133.243 87.0434L130.257 83.5747C130.257 83.5747 130.086 84.2747 129.899 85.1224C129.899 85.1302 130.92 87.8133 133.024 89.0266C133.196 88.2255 133.243 87.0434 133.243 87.0434Z" fill="#24126A"/>
<path d="M130 83.8158C130 83.8158 130.889 87.6578 133.71 88.2566L133.001 84.0724C133.001 84.0724 130.655 83.1547 130.585 83.1392C130.507 83.1236 130 83.8158 130 83.8158Z" fill="#4846A5"/>
<path d="M150.696 42.5884C152.863 50.8478 145.707 63.0271 144.569 66.6979C143.407 70.4232 132.378 87.4088 132.378 87.4166C132.378 87.4244 132.385 87.4244 132.385 87.4244C132.323 87.5255 132.276 87.5955 132.276 87.5955C132.479 87.7821 132.713 87.9921 132.9 88.1243C133.157 88.2565 133.04 88.2332 133.336 88.3421C133.547 88.4043 133.765 88.3343 133.929 88.1399C136.47 85.0056 143.797 71.7843 144.031 71.2165C144.28 70.6177 148.973 60.1028 150.127 57.7929C151.054 55.9497 154.242 47.0992 150.696 42.5884Z" fill="url(#paint22_linear_2102_107340)"/>
<defs>
<linearGradient id="paint0_linear_2102_107340" x1="103.171" y1="60.3548" x2="136.516" y2="60.3548" gradientUnits="userSpaceOnUse">
<stop stop-color="#2FD3C7"/>
<stop offset="0.0881" stop-color="#31B6BD"/>
<stop offset="0.2288" stop-color="#338DB0"/>
<stop offset="0.3734" stop-color="#356BA5"/>
<stop offset="0.5206" stop-color="#37519C"/>
<stop offset="0.6715" stop-color="#383F96"/>
<stop offset="0.8281" stop-color="#393492"/>
<stop offset="1" stop-color="#393091"/>
</linearGradient>
<linearGradient id="paint1_linear_2102_107340" x1="63.4554" y1="92.413" x2="110.344" y2="92.413" gradientUnits="userSpaceOnUse">
<stop stop-color="#2FD3C7"/>
<stop offset="0.0881" stop-color="#31B6BD"/>
<stop offset="0.2288" stop-color="#338DB0"/>
<stop offset="0.3734" stop-color="#356BA5"/>
<stop offset="0.5206" stop-color="#37519C"/>
<stop offset="0.6715" stop-color="#383F96"/>
<stop offset="0.8281" stop-color="#393492"/>
<stop offset="1" stop-color="#393091"/>
</linearGradient>
<linearGradient id="paint2_linear_2102_107340" x1="109.083" y1="114.424" x2="110.618" y2="31.464" gradientUnits="userSpaceOnUse">
<stop stop-color="#2FD3C7"/>
<stop offset="0.0881" stop-color="#31B6BD"/>
<stop offset="0.2288" stop-color="#338DB0"/>
<stop offset="0.3734" stop-color="#356BA5"/>
<stop offset="0.5206" stop-color="#37519C"/>
<stop offset="0.6715" stop-color="#383F96"/>
<stop offset="0.8281" stop-color="#393492"/>
<stop offset="1" stop-color="#393091"/>
</linearGradient>
<linearGradient id="paint3_linear_2102_107340" x1="121.835" y1="63.6303" x2="128.014" y2="63.6303" gradientUnits="userSpaceOnUse">
<stop stop-color="#2FD3C7"/>
<stop offset="0.0881" stop-color="#31B6BD"/>
<stop offset="0.2288" stop-color="#338DB0"/>
<stop offset="0.3734" stop-color="#356BA5"/>
<stop offset="0.5206" stop-color="#37519C"/>
<stop offset="0.6715" stop-color="#383F96"/>
<stop offset="0.8281" stop-color="#393492"/>
<stop offset="1" stop-color="#393091"/>
</linearGradient>
<linearGradient id="paint4_linear_2102_107340" x1="124.829" y1="119.527" x2="132.813" y2="119.527" gradientUnits="userSpaceOnUse">
<stop stop-color="#2FD3C7"/>
<stop offset="0.0881" stop-color="#31B6BD"/>
<stop offset="0.2288" stop-color="#338DB0"/>
<stop offset="0.3734" stop-color="#356BA5"/>
<stop offset="0.5206" stop-color="#37519C"/>
<stop offset="0.6715" stop-color="#383F96"/>
<stop offset="0.8281" stop-color="#393492"/>
<stop offset="1" stop-color="#393091"/>
</linearGradient>
<linearGradient id="paint5_linear_2102_107340" x1="53.2555" y1="122.116" x2="1.81013" y2="10.8566" gradientUnits="userSpaceOnUse">
<stop stop-color="#2FD3C7"/>
<stop offset="0.0881" stop-color="#31B6BD"/>
<stop offset="0.2288" stop-color="#338DB0"/>
<stop offset="0.3734" stop-color="#356BA5"/>
<stop offset="0.5206" stop-color="#37519C"/>
<stop offset="0.6715" stop-color="#383F96"/>
<stop offset="0.8281" stop-color="#393492"/>
<stop offset="1" stop-color="#393091"/>
</linearGradient>
<linearGradient id="paint6_linear_2102_107340" x1="108.967" y1="121.16" x2="-46.4409" y2="107.342" gradientUnits="userSpaceOnUse">
<stop stop-color="#2FD3C7"/>
<stop offset="0.0881" stop-color="#31B6BD"/>
<stop offset="0.2288" stop-color="#338DB0"/>
<stop offset="0.3734" stop-color="#356BA5"/>
<stop offset="0.5206" stop-color="#37519C"/>
<stop offset="0.6715" stop-color="#383F96"/>
<stop offset="0.8281" stop-color="#393492"/>
<stop offset="1" stop-color="#393091"/>
</linearGradient>
<linearGradient id="paint7_linear_2102_107340" x1="2.95443" y1="132.244" x2="51.3239" y2="111.67" gradientUnits="userSpaceOnUse">
<stop stop-color="#2FD3C7"/>
<stop offset="0.0881" stop-color="#31B6BD"/>
<stop offset="0.2288" stop-color="#338DB0"/>
<stop offset="0.3734" stop-color="#356BA5"/>
<stop offset="0.5206" stop-color="#37519C"/>
<stop offset="0.6715" stop-color="#383F96"/>
<stop offset="0.8281" stop-color="#393492"/>
<stop offset="1" stop-color="#393091"/>
</linearGradient>
<linearGradient id="paint8_linear_2102_107340" x1="106.558" y1="130.011" x2="114.543" y2="130.011" gradientUnits="userSpaceOnUse">
<stop stop-color="#2FD3C7"/>
<stop offset="0.0881" stop-color="#31B6BD"/>
<stop offset="0.2288" stop-color="#338DB0"/>
<stop offset="0.3734" stop-color="#356BA5"/>
<stop offset="0.5206" stop-color="#37519C"/>
<stop offset="0.6715" stop-color="#383F96"/>
<stop offset="0.8281" stop-color="#393492"/>
<stop offset="1" stop-color="#393091"/>
</linearGradient>
<linearGradient id="paint9_linear_2102_107340" x1="114.534" y1="130.022" x2="143.435" y2="180.192" gradientUnits="userSpaceOnUse">
<stop stop-color="#C0BFF6"/>
<stop offset="0.2938" stop-color="#C5C4F7"/>
<stop offset="0.6399" stop-color="#D3D2F9"/>
<stop offset="1" stop-color="#E9E9FD"/>
</linearGradient>
<linearGradient id="paint10_linear_2102_107340" x1="96.3593" y1="145.947" x2="157.603" y2="145.947" gradientUnits="userSpaceOnUse">
<stop offset="0.3548" stop-color="#BCBEFF"/>
<stop offset="0.4436" stop-color="#B5B8FC"/>
<stop offset="0.5695" stop-color="#A3A7F5"/>
<stop offset="0.7175" stop-color="#848BE9"/>
<stop offset="0.8814" stop-color="#5A64D8"/>
<stop offset="0.8925" stop-color="#5761D7"/>
</linearGradient>
<linearGradient id="paint11_linear_2102_107340" x1="77.4423" y1="145.947" x2="156.703" y2="145.947" gradientUnits="userSpaceOnUse">
<stop stop-color="#2FD3C7"/>
<stop offset="0.0881" stop-color="#31B6BD"/>
<stop offset="0.2288" stop-color="#338DB0"/>
<stop offset="0.3734" stop-color="#356BA5"/>
<stop offset="0.5206" stop-color="#37519C"/>
<stop offset="0.6715" stop-color="#383F96"/>
<stop offset="0.8281" stop-color="#393492"/>
<stop offset="1" stop-color="#393091"/>
</linearGradient>
<linearGradient id="paint12_linear_2102_107340" x1="113.419" y1="117.991" x2="143.431" y2="170.089" gradientUnits="userSpaceOnUse">
<stop stop-color="#E9E9FD"/>
<stop offset="0.3601" stop-color="#D3D2F9"/>
<stop offset="0.7062" stop-color="#C5C4F7"/>
<stop offset="1" stop-color="#C0BFF6"/>
</linearGradient>
<linearGradient id="paint13_linear_2102_107340" x1="113.419" y1="117.991" x2="143.431" y2="170.089" gradientUnits="userSpaceOnUse">
<stop stop-color="#2FD3C7"/>
<stop offset="0.0881" stop-color="#31B6BD"/>
<stop offset="0.2288" stop-color="#338DB0"/>
<stop offset="0.3734" stop-color="#356BA5"/>
<stop offset="0.5206" stop-color="#37519C"/>
<stop offset="0.6715" stop-color="#383F96"/>
<stop offset="0.8281" stop-color="#393492"/>
<stop offset="1" stop-color="#393091"/>
</linearGradient>
<linearGradient id="paint14_linear_2102_107340" x1="146.516" y1="113.395" x2="158.038" y2="113.18" gradientUnits="userSpaceOnUse">
<stop stop-color="#5761D7"/>
<stop offset="0.0726" stop-color="#5472D8"/>
<stop offset="0.2791" stop-color="#4E9CDB"/>
<stop offset="0.4801" stop-color="#49BDDD"/>
<stop offset="0.6715" stop-color="#45D5DF"/>
<stop offset="0.8493" stop-color="#43E3E0"/>
<stop offset="1" stop-color="#42E8E0"/>
</linearGradient>
<linearGradient id="paint15_linear_2102_107340" x1="156.368" y1="19.0677" x2="157.955" y2="19.0381" gradientUnits="userSpaceOnUse">
<stop stop-color="#5761D7"/>
<stop offset="0.0726" stop-color="#5472D8"/>
<stop offset="0.2791" stop-color="#4E9CDB"/>
<stop offset="0.4801" stop-color="#49BDDD"/>
<stop offset="0.6715" stop-color="#45D5DF"/>
<stop offset="0.8493" stop-color="#43E3E0"/>
<stop offset="1" stop-color="#42E8E0"/>
</linearGradient>
<linearGradient id="paint16_linear_2102_107340" x1="134.055" y1="78.2542" x2="161.83" y2="77.7363" gradientUnits="userSpaceOnUse">
<stop stop-color="#5761D7"/>
<stop offset="0.0726" stop-color="#5472D8"/>
<stop offset="0.2791" stop-color="#4E9CDB"/>
<stop offset="0.4801" stop-color="#49BDDD"/>
<stop offset="0.6715" stop-color="#45D5DF"/>
<stop offset="0.8493" stop-color="#43E3E0"/>
<stop offset="1" stop-color="#42E8E0"/>
</linearGradient>
<linearGradient id="paint17_linear_2102_107340" x1="159.368" y1="44.0138" x2="165.344" y2="43.9024" gradientUnits="userSpaceOnUse">
<stop stop-color="#5761D7"/>
<stop offset="0.0726" stop-color="#5472D8"/>
<stop offset="0.2791" stop-color="#4E9CDB"/>
<stop offset="0.4801" stop-color="#49BDDD"/>
<stop offset="0.6715" stop-color="#45D5DF"/>
<stop offset="0.8493" stop-color="#43E3E0"/>
<stop offset="1" stop-color="#42E8E0"/>
</linearGradient>
<linearGradient id="paint18_linear_2102_107340" x1="139.742" y1="12.9334" x2="158.824" y2="12.5776" gradientUnits="userSpaceOnUse">
<stop stop-color="#2FD3C7"/>
<stop offset="0.0881" stop-color="#31B6BD"/>
<stop offset="0.2288" stop-color="#338DB0"/>
<stop offset="0.3734" stop-color="#356BA5"/>
<stop offset="0.5206" stop-color="#37519C"/>
<stop offset="0.6715" stop-color="#383F96"/>
<stop offset="0.8281" stop-color="#393492"/>
<stop offset="1" stop-color="#393091"/>
</linearGradient>
<linearGradient id="paint19_linear_2102_107340" x1="119.787" y1="106.513" x2="142.611" y2="106.087" gradientUnits="userSpaceOnUse">
<stop stop-color="#5761D7"/>
<stop offset="0.0726" stop-color="#5472D8"/>
<stop offset="0.2791" stop-color="#4E9CDB"/>
<stop offset="0.4801" stop-color="#49BDDD"/>
<stop offset="0.6715" stop-color="#45D5DF"/>
<stop offset="0.8493" stop-color="#43E3E0"/>
<stop offset="1" stop-color="#42E8E0"/>
</linearGradient>
<linearGradient id="paint20_linear_2102_107340" x1="132.408" y1="97.1663" x2="135.298" y2="97.1124" gradientUnits="userSpaceOnUse">
<stop stop-color="#5761D7"/>
<stop offset="0.0726" stop-color="#5472D8"/>
<stop offset="0.2791" stop-color="#4E9CDB"/>
<stop offset="0.4801" stop-color="#49BDDD"/>
<stop offset="0.6715" stop-color="#45D5DF"/>
<stop offset="0.8493" stop-color="#43E3E0"/>
<stop offset="1" stop-color="#42E8E0"/>
</linearGradient>
<linearGradient id="paint21_linear_2102_107340" x1="126.843" y1="91.3606" x2="129.715" y2="91.3071" gradientUnits="userSpaceOnUse">
<stop stop-color="#5761D7"/>
<stop offset="0.0726" stop-color="#5472D8"/>
<stop offset="0.2791" stop-color="#4E9CDB"/>
<stop offset="0.4801" stop-color="#49BDDD"/>
<stop offset="0.6715" stop-color="#45D5DF"/>
<stop offset="0.8493" stop-color="#43E3E0"/>
<stop offset="1" stop-color="#42E8E0"/>
</linearGradient>
<linearGradient id="paint22_linear_2102_107340" x1="131.867" y1="65.6605" x2="152.653" y2="65.273" gradientUnits="userSpaceOnUse">
<stop stop-color="#5761D7"/>
<stop offset="0.0726" stop-color="#5472D8"/>
<stop offset="0.2791" stop-color="#4E9CDB"/>
<stop offset="0.4801" stop-color="#49BDDD"/>
<stop offset="0.6715" stop-color="#45D5DF"/>
<stop offset="0.8493" stop-color="#43E3E0"/>
<stop offset="1" stop-color="#42E8E0"/>
</linearGradient>
</defs>
</svg>
