<svg width="125" height="180" viewBox="0 0 125 180" fill="none" xmlns="http://www.w3.org/2000/svg">
<g opacity="0.9" clip-path="url(#clip0_2088_176230)">
<g opacity="0.11">
<path d="M69.1522 131.943C71.2077 130.759 73.7318 130.759 75.7874 131.943L115.334 154.656C115.954 155.018 115.954 155.907 115.334 156.269L75.4625 179.224C73.6487 180.264 71.4193 180.264 69.6056 179.224L29.6733 156.284C29.0536 155.922 29.0536 155.033 29.6733 154.671L69.1522 131.943Z" fill="url(#paint0_linear_2088_176230)"/>
</g>
<g opacity="0.11">
<path d="M69.1522 125.296C71.2077 124.113 73.7318 124.113 75.7874 125.296L115.334 148.01C115.954 148.371 115.954 149.261 115.334 149.622L75.4625 172.577C73.6487 173.617 71.4193 173.617 69.6056 172.577L29.6733 149.645C29.0536 149.283 29.0536 148.394 29.6733 148.032L69.1522 125.296Z" fill="url(#paint1_linear_2088_176230)"/>
</g>
<g opacity="0.11">
<path d="M69.1522 118.656C71.2077 117.473 73.7318 117.473 75.7874 118.656L115.334 141.37C115.954 141.732 115.954 142.621 115.334 142.983L75.4625 165.938C73.6487 166.978 71.4193 166.978 69.6056 165.938L29.6733 142.998C29.0536 142.636 29.0536 141.747 29.6733 141.385L69.1522 118.656Z" fill="url(#paint2_linear_2088_176230)"/>
</g>
<g opacity="0.11">
<path d="M69.1523 112.01C71.2078 110.827 73.7319 110.827 75.7875 112.01L115.334 134.723C115.954 135.085 115.954 135.974 115.334 136.336L75.4625 159.291C73.6488 160.331 71.4194 160.331 69.6057 159.291L29.6734 136.359C29.0537 135.997 29.0537 135.108 29.6734 134.746L69.1523 112.01Z" fill="url(#paint3_linear_2088_176230)"/>
</g>
<path opacity="0.11" d="M29.6733 134.746L69.1597 112.017C71.2153 110.834 73.7394 110.834 75.795 112.017L115.342 134.731C115.652 134.912 115.81 135.221 115.81 135.538V155.463C115.81 155.779 115.652 156.088 115.342 156.269L75.47 179.224C73.6563 180.264 71.4269 180.264 69.6132 179.224L29.6733 156.284C29.3634 156.104 29.2047 155.795 29.2047 155.478V135.553C29.2047 135.236 29.3559 134.927 29.6733 134.746Z" fill="url(#paint4_linear_2088_176230)"/>
<g opacity="0.11">
<path d="M68.4418 95.7242C70.9281 94.2924 73.9963 94.2924 76.4902 95.7167L124.441 123.261C125.196 123.698 125.196 124.783 124.441 125.22L76.0897 153.059C73.8905 154.325 71.1851 154.325 68.9935 153.059L20.5744 125.251C19.8186 124.813 19.8186 123.728 20.5744 123.291L68.4418 95.7242Z" fill="url(#paint5_linear_2088_176230)"/>
</g>
<g opacity="0.11">
<path d="M68.4418 87.6681C70.9281 86.2362 73.9963 86.2362 76.4902 87.6606L124.441 115.205C125.196 115.642 125.196 116.727 124.441 117.164L76.0897 145.003C73.8905 146.269 71.1851 146.269 68.9935 145.003L20.5744 117.194C19.8186 116.757 19.8186 115.672 20.5744 115.235L68.4418 87.6681Z" fill="url(#paint6_linear_2088_176230)"/>
</g>
<g opacity="0.11">
<path d="M68.4418 79.6122C70.9281 78.1803 73.9963 78.1803 76.4902 79.6047L124.441 107.149C125.196 107.586 125.196 108.671 124.441 109.101L76.0897 136.939C73.8905 138.205 71.1851 138.205 68.9935 136.939L20.5744 109.131C19.8186 108.694 19.8186 107.609 20.5744 107.172L68.4418 79.6122Z" fill="url(#paint7_linear_2088_176230)"/>
</g>
<g opacity="0.11">
<path d="M68.4418 71.556C70.9281 70.1242 73.9963 70.1242 76.4902 71.5485L124.441 99.0929C125.196 99.53 125.196 100.615 124.441 101.045L76.0897 128.883C73.8905 130.149 71.1851 130.149 68.9935 128.883L20.5744 101.075C19.8186 100.638 19.8186 99.5526 20.5744 99.1155L68.4418 71.556Z" fill="url(#paint8_linear_2088_176230)"/>
</g>
<path opacity="0.5" d="M20.5668 99.123L68.4418 71.556C70.9281 70.1242 73.9963 70.1242 76.4902 71.5485L124.441 99.0929C124.819 99.3114 125.008 99.6882 125.008 100.073V124.241C125.008 124.618 124.819 125.002 124.441 125.22L76.0897 153.059C73.8905 154.325 71.1851 154.325 68.9935 153.059L20.5744 125.251C20.1965 125.032 20.0076 124.655 20.0076 124.271V100.103C20 99.7184 20.1889 99.3415 20.5668 99.123Z" fill="url(#paint9_linear_2088_176230)"/>
<g opacity="0.11">
<path d="M68.4418 71.556C70.9281 70.1242 73.9963 70.1242 76.4902 71.5485L124.441 99.0929C125.196 99.53 125.196 100.615 124.441 101.045L76.0897 128.883C73.8905 130.149 71.1851 130.149 68.9935 128.883L20.5744 101.075C19.8186 100.638 19.8186 99.5526 20.5744 99.1155L68.4418 71.556Z" fill="url(#paint10_linear_2088_176230)"/>
</g>
<path d="M20.5668 99.9671L68.9859 127.775C71.1851 129.041 73.8905 129.041 76.0821 127.775L124.433 99.9369C124.622 99.8314 124.758 99.6807 124.856 99.5149C125.144 100.027 125.008 100.721 124.433 101.052L76.0821 128.891C73.883 130.157 71.1775 130.157 68.9859 128.891L20.5668 101.082C20 100.758 19.8564 100.057 20.1436 99.545C20.2418 99.7108 20.3779 99.8616 20.5668 99.9671Z" fill="url(#paint11_linear_2088_176230)"/>
<path opacity="0.2" d="M72.5 115.363C87.0789 115.363 98.8974 108.558 98.8974 100.163C98.8974 91.768 87.0789 84.9626 72.5 84.9626C57.9211 84.9626 46.1026 91.768 46.1026 100.163C46.1026 108.558 57.9211 115.363 72.5 115.363Z" fill="#180D5B"/>
<path d="M39.679 77.3665C36.2858 80.8255 27.3456 85.4452 24.5797 82.7397C21.8062 80.0343 26.2574 71.0286 29.6506 67.5696C33.0438 64.1105 38.0391 63.5076 40.8126 66.2131C43.5785 68.9185 43.0797 73.9074 39.679 77.3665Z" fill="url(#paint12_radial_2088_176230)"/>
<path d="M39.679 77.3665C36.2858 80.8255 27.3456 85.4452 24.5797 82.7397C21.8062 80.0343 26.2574 71.0286 29.6506 67.5696C33.0438 64.1105 38.0391 63.5076 40.8126 66.2131C43.5785 68.9185 43.0797 73.9074 39.679 77.3665Z" fill="url(#paint13_linear_2088_176230)"/>
<path d="M40.0795 67.984C39.8679 67.984 39.6563 67.9463 39.4523 67.8559C38.621 67.5092 38.228 66.5597 38.5756 65.7307L43.6163 53.7182C43.9639 52.8892 44.9161 52.4974 45.7474 52.844C46.5787 53.1907 46.9717 54.1402 46.6241 54.9692L41.5834 66.9817C41.3189 67.6072 40.7143 67.984 40.0795 67.984Z" fill="#42E8E0"/>
<path d="M104.124 63.591L101.097 64.8125L111.546 90.5557L114.573 89.3342L104.124 63.591Z" fill="#42E8E0"/>
<path d="M48.4454 58.3001C54.0423 58.3001 58.5796 53.7756 58.5796 48.1943C58.5796 42.6129 54.0423 38.0884 48.4454 38.0884C42.8484 38.0884 38.3111 42.6129 38.3111 48.1943C38.3111 53.7756 42.8484 58.3001 48.4454 58.3001Z" fill="url(#paint14_radial_2088_176230)"/>
<path d="M48.4454 58.3001C54.0423 58.3001 58.5796 53.7756 58.5796 48.1943C58.5796 42.6129 54.0423 38.0884 48.4454 38.0884C42.8484 38.0884 38.3111 42.6129 38.3111 48.1943C38.3111 53.7756 42.8484 58.3001 48.4454 58.3001Z" fill="url(#paint15_linear_2088_176230)"/>
<path d="M98.9956 66.5521C98.9956 86.1761 87.2743 102.077 72.8249 102.077C58.368 102.077 46.6543 86.1685 46.6543 66.5521C46.6543 46.9282 58.3755 41.05 72.8249 41.05C87.2819 41.05 98.9956 46.9282 98.9956 66.5521Z" fill="url(#paint16_radial_2088_176230)"/>
<path d="M98.9956 66.5521C98.9956 86.1761 87.2743 102.077 72.8249 102.077C58.368 102.077 46.6543 86.1685 46.6543 66.5521C46.6543 46.9282 58.3755 41.05 72.8249 41.05C87.2819 41.05 98.9956 46.9282 98.9956 66.5521Z" fill="url(#paint17_linear_2088_176230)"/>
<path d="M72.825 61.8874C82.6917 61.8874 90.6902 57.2819 90.6902 51.6007C90.6902 45.9195 82.6917 41.314 72.825 41.314C62.9582 41.314 54.9597 45.9195 54.9597 51.6007C54.9597 57.2819 62.9582 61.8874 72.825 61.8874Z" fill="#393091"/>
<path d="M60.1968 47.064C67.1722 43.0473 78.4853 43.0473 85.4606 47.064C88.3399 48.722 90.0327 50.8095 90.5315 52.9648C91.2419 49.8976 89.5566 46.6797 85.4606 44.3209C78.4853 40.3042 67.1722 40.3042 60.1968 44.3209C56.1008 46.6797 54.4156 49.8976 55.126 52.9648C55.6247 50.8095 57.3175 48.722 60.1968 47.064Z" fill="#42E8E0"/>
<path d="M52.2088 27.1612L55.4433 21.6071C57.3478 19.6402 58.8668 17.0327 59.6376 14.4026L62.9099 8.78072L58.2017 6.0828C58.0506 5.9773 57.8919 5.88686 57.7256 5.8115C56.388 5.17847 54.612 5.35181 52.6547 6.47468C48.4907 8.87115 45.1202 14.6965 45.1202 19.4895C45.1202 21.886 45.959 23.5665 47.3269 24.3503L52.2088 27.1612Z" fill="url(#paint18_radial_2088_176230)"/>
<path d="M62.8222 21.0061C65.7647 15.924 65.765 10.4309 62.8228 8.73691C59.8806 7.04295 55.1102 9.78961 52.1677 14.8717C49.2252 19.9539 49.2249 25.447 52.1671 27.1409C55.1093 28.8349 59.8797 26.0882 62.8222 21.0061Z" fill="#BCBEFF"/>
<path d="M73.8678 53.6731C88.6095 53.6731 100.56 41.756 100.56 27.0556C100.56 12.3553 88.6095 0.438232 73.8678 0.438232C59.1262 0.438232 47.1758 12.3553 47.1758 27.0556C47.1758 41.756 59.1262 53.6731 73.8678 53.6731Z" fill="url(#paint19_radial_2088_176230)"/>
<path d="M73.8678 53.6731C88.6095 53.6731 100.56 41.756 100.56 27.0556C100.56 12.3553 88.6095 0.438232 73.8678 0.438232C59.1262 0.438232 47.1758 12.3553 47.1758 27.0556C47.1758 41.756 59.1262 53.6731 73.8678 53.6731Z" fill="url(#paint20_linear_2088_176230)"/>
<path d="M88.8009 45.0518L92.0354 39.4977C93.9398 37.5308 95.4588 34.9233 96.2297 32.2933L99.5019 26.6713L94.7938 23.9734C94.6426 23.8679 94.4839 23.7775 94.3177 23.7021C92.9801 23.0691 91.2041 23.2424 89.2468 24.3653C85.0828 26.7618 81.7122 32.5872 81.7122 37.3801C81.7122 39.7766 82.5511 41.4571 83.919 42.2409L88.8009 45.0518Z" fill="url(#paint21_radial_2088_176230)"/>
<path d="M88.8009 45.0518L92.0354 39.4977C93.9398 37.5308 95.4588 34.9233 96.2297 32.2933L99.5019 26.6713L94.7938 23.9734C94.6426 23.8679 94.4839 23.7775 94.3177 23.7021C92.9801 23.0691 91.2041 23.2424 89.2468 24.3653C85.0828 26.7618 81.7122 32.5872 81.7122 37.3801C81.7122 39.7766 82.5511 41.4571 83.919 42.2409L88.8009 45.0518Z" fill="url(#paint22_linear_2088_176230)"/>
<path d="M101.625 31.4943C101.625 36.2873 98.255 42.1127 94.0909 44.5092C89.9269 46.9056 86.5564 44.9613 86.5564 40.1684C86.5564 35.3754 89.9269 29.55 94.0909 27.1536C98.255 24.7646 101.625 26.7089 101.625 31.4943Z" fill="#BCBEFF"/>
<path d="M86.904 40.2363C86.904 35.4433 90.2745 29.618 94.4386 27.2215C95.882 26.3925 97.2272 26.0835 98.3683 26.2343C97.1516 25.963 95.678 26.2493 94.0909 27.1612C89.9269 29.5577 86.5564 35.3831 86.5564 40.176C86.5564 43.3035 87.9998 45.2176 90.1536 45.504C88.1963 45.0669 86.904 43.1904 86.904 40.2363Z" fill="white"/>
<path d="M97.9 38.03C100.004 34.3968 100.004 30.4697 97.8999 29.2585C95.7963 28.0473 92.3857 30.0108 90.2822 33.644C88.1786 37.2771 88.1786 41.2043 90.2823 42.4154C92.3859 43.6266 95.7965 41.6631 97.9 38.03Z" fill="#393091"/>
<path d="M97.1894 28.9773C97.7487 29.6329 98.0736 30.6126 98.0736 31.8711C98.0736 35.2925 95.6629 39.46 92.6853 41.1707C91.5366 41.8338 90.4635 42.0298 89.5944 41.8263C90.5542 42.9567 92.2168 43.1225 94.0985 42.0373C97.0761 40.3266 99.4868 36.1592 99.4868 32.7378C99.4793 30.6352 98.5724 29.3013 97.1894 28.9773Z" fill="#453C9E"/>
<path d="M62.4316 44.6571C65.888 43.2224 66.6705 37.2218 64.1796 31.2546C61.6886 25.2873 56.8674 21.613 53.4111 23.0477C49.9548 24.4824 49.1722 30.4829 51.6631 36.4502C54.1541 42.4175 58.9753 46.0918 62.4316 44.6571Z" fill="#393091"/>
<path d="M62.0635 35.1267C61.8141 37.0258 60.3782 37.6287 58.8441 36.4606C57.3175 35.2925 56.2747 32.8056 56.524 30.9065C56.7734 29.0075 58.2093 28.4046 59.7434 29.5727C61.2775 30.7408 62.3129 33.2277 62.0635 35.1267Z" fill="#42E8E0"/>
<path d="M58.7081 42.5726C54.5062 39.3698 51.6496 32.527 52.3298 27.2894C52.6094 25.1567 53.4331 23.6194 54.5969 22.7603C52.3978 22.9637 50.7352 24.8251 50.312 28.0506C49.6318 33.2881 52.4885 40.1309 56.6903 43.3337C59.1842 45.2328 61.5874 45.4288 63.2726 44.1853C61.9048 44.3134 60.3253 43.801 58.7081 42.5726Z" fill="#453C9E"/>
<path d="M57.053 43.1604C52.8512 39.9576 49.9946 33.1148 50.6747 27.8773C50.9921 25.4506 52.0124 23.8002 53.4331 23.0466C51.8234 23.7098 50.6596 25.428 50.312 28.0506C49.6318 33.2882 52.4885 40.1309 56.6903 43.3337C58.9499 45.052 61.1339 45.376 62.7814 44.4943C61.1793 45.1499 59.1464 44.7581 57.053 43.1604Z" fill="#42E8E0"/>
<path d="M112.546 66.1679C111.457 71.6466 106.122 75.2036 100.636 74.1184C95.1414 73.0333 91.5744 67.7128 92.6626 62.2416C93.7509 56.7629 99.0863 53.2058 104.573 54.291C110.067 55.3687 113.634 60.6892 112.546 66.1679Z" fill="url(#paint23_radial_2088_176230)"/>
<path d="M112.546 66.1679C111.457 71.6466 106.122 75.2036 100.636 74.1184C95.1414 73.0333 91.5744 67.7128 92.6626 62.2416C93.7509 56.7629 99.0863 53.2058 104.573 54.291C110.067 55.3687 113.634 60.6892 112.546 66.1679Z" fill="url(#paint24_linear_2088_176230)"/>
<path d="M118.773 97.6914C118.199 102.492 113.944 111.595 110.097 111.136C106.251 110.676 104.255 100.834 104.837 96.0334C105.412 91.233 109.001 87.7061 112.848 88.1658C116.695 88.6255 119.347 92.8909 118.773 97.6914Z" fill="url(#paint25_radial_2088_176230)"/>
<path d="M118.773 97.6914C118.199 102.492 113.944 111.595 110.097 111.136C106.251 110.676 104.255 100.834 104.837 96.0334C105.412 91.233 109.001 87.7061 112.848 88.1658C116.695 88.6255 119.347 92.8909 118.773 97.6914Z" fill="url(#paint26_linear_2088_176230)"/>
<g opacity="0.2" clip-path="url(#clip1_2088_176230)">
<path d="M60.8 33.8L8.26001 3.47001C7.29001 2.91001 6.41001 2.87001 5.72001 3.25001L3.51001 4.52001L4.59001 4.76001C4.42001 5.23001 4.33001 5.79001 4.33001 6.44001V30.96C4.33001 33.85 6.09001 37.21 8.26001 38.47L29.55 50.76L33.74 62.87L32.19 66.47L34.52 65.14L39.5 56.52L60.8 68.8C60.94 68.88 61.08 68.95 61.22 69.01L60.89 70.41L63.21 69.08H63.2C64.13 68.66 64.73 67.51 64.73 65.82V41.31C64.73 38.42 62.97 35.06 60.8 33.8Z" fill="#25BFEC"/>
<path d="M58.47 35.1399L5.93 4.79995C3.76 3.54995 2 4.87995 2 7.76995V32.2999C2 35.1899 3.76 38.5499 5.93 39.8099L27.22 52.0999L32.2 66.4699L37.18 57.8499L58.47 70.1399C60.64 71.3899 62.4 70.0599 62.4 67.1699V42.6399C62.4 39.7499 60.64 36.3899 58.47 35.1399Z" fill="#05A4C9"/>
<path d="M30.33 41.8301V38.2801C32.97 37.2001 34.29 35.4301 34.29 32.9801C34.29 32.8801 34.29 32.7801 34.28 32.6701C34.26 32.0201 34.1 31.4501 33.81 30.9601C33.52 30.4701 33.15 30.0901 32.71 29.8301C32.27 29.5801 31.93 29.5501 31.7 29.7501C31.5 29.9201 31.39 30.2301 31.39 30.6701C31.39 30.7401 31.39 30.8201 31.4 30.8901C31.4 31.2701 31.47 31.7501 31.61 32.3401L28.31 31.2601C28.11 30.2401 28 29.5101 28 29.0801C27.98 28.8001 27.96 28.5401 27.96 28.2901C27.97 26.9701 28.3 26.0701 28.96 25.5801C29.74 25.0001 30.97 25.1901 32.64 26.1601C34.32 27.1301 35.62 28.3801 36.52 29.9101C37.42 31.4401 37.88 33.1001 37.88 34.9101C37.88 36.5301 37.48 37.8501 36.68 38.8801C35.88 39.9101 34.86 40.6301 33.63 41.0401V43.7301L30.33 41.8301ZM30.23 47.6201V43.5901L33.79 45.6501V49.6801L30.23 47.6201Z" fill="white"/>
</g>
</g>
<defs>
<linearGradient id="paint0_linear_2088_176230" x1="115.799" y1="155.529" x2="29.2032" y2="155.529" gradientUnits="userSpaceOnUse">
<stop stop-color="#5761D7"/>
<stop offset="0.0726" stop-color="#5472D8"/>
<stop offset="0.2791" stop-color="#4E9CDB"/>
<stop offset="0.4801" stop-color="#49BDDD"/>
<stop offset="0.6715" stop-color="#45D5DF"/>
<stop offset="0.8493" stop-color="#43E3E0"/>
<stop offset="1" stop-color="#42E8E0"/>
</linearGradient>
<linearGradient id="paint1_linear_2088_176230" x1="115.799" y1="148.886" x2="29.2032" y2="148.886" gradientUnits="userSpaceOnUse">
<stop stop-color="#5761D7"/>
<stop offset="0.0726" stop-color="#5472D8"/>
<stop offset="0.2791" stop-color="#4E9CDB"/>
<stop offset="0.4801" stop-color="#49BDDD"/>
<stop offset="0.6715" stop-color="#45D5DF"/>
<stop offset="0.8493" stop-color="#43E3E0"/>
<stop offset="1" stop-color="#42E8E0"/>
</linearGradient>
<linearGradient id="paint2_linear_2088_176230" x1="115.799" y1="142.243" x2="29.2032" y2="142.243" gradientUnits="userSpaceOnUse">
<stop stop-color="#5761D7"/>
<stop offset="0.0726" stop-color="#5472D8"/>
<stop offset="0.2791" stop-color="#4E9CDB"/>
<stop offset="0.4801" stop-color="#49BDDD"/>
<stop offset="0.6715" stop-color="#45D5DF"/>
<stop offset="0.8493" stop-color="#43E3E0"/>
<stop offset="1" stop-color="#42E8E0"/>
</linearGradient>
<linearGradient id="paint3_linear_2088_176230" x1="115.799" y1="135.6" x2="29.2033" y2="135.6" gradientUnits="userSpaceOnUse">
<stop stop-color="#5761D7"/>
<stop offset="0.0726" stop-color="#5472D8"/>
<stop offset="0.2791" stop-color="#4E9CDB"/>
<stop offset="0.4801" stop-color="#49BDDD"/>
<stop offset="0.6715" stop-color="#45D5DF"/>
<stop offset="0.8493" stop-color="#43E3E0"/>
<stop offset="1" stop-color="#42E8E0"/>
</linearGradient>
<linearGradient id="paint4_linear_2088_176230" x1="115.799" y1="145.565" x2="29.2032" y2="145.565" gradientUnits="userSpaceOnUse">
<stop stop-color="#5761D7"/>
<stop offset="0.0726" stop-color="#5472D8"/>
<stop offset="0.2791" stop-color="#4E9CDB"/>
<stop offset="0.4801" stop-color="#49BDDD"/>
<stop offset="0.6715" stop-color="#45D5DF"/>
<stop offset="0.8493" stop-color="#43E3E0"/>
<stop offset="1" stop-color="#42E8E0"/>
</linearGradient>
<linearGradient id="paint5_linear_2088_176230" x1="125.003" y1="124.325" x2="20" y2="124.325" gradientUnits="userSpaceOnUse">
<stop stop-color="#5761D7"/>
<stop offset="0.0726" stop-color="#5472D8"/>
<stop offset="0.2791" stop-color="#4E9CDB"/>
<stop offset="0.4801" stop-color="#49BDDD"/>
<stop offset="0.6715" stop-color="#45D5DF"/>
<stop offset="0.8493" stop-color="#43E3E0"/>
<stop offset="1" stop-color="#42E8E0"/>
</linearGradient>
<linearGradient id="paint6_linear_2088_176230" x1="125.003" y1="116.27" x2="20" y2="116.27" gradientUnits="userSpaceOnUse">
<stop stop-color="#5761D7"/>
<stop offset="0.0726" stop-color="#5472D8"/>
<stop offset="0.2791" stop-color="#4E9CDB"/>
<stop offset="0.4801" stop-color="#49BDDD"/>
<stop offset="0.6715" stop-color="#45D5DF"/>
<stop offset="0.8493" stop-color="#43E3E0"/>
<stop offset="1" stop-color="#42E8E0"/>
</linearGradient>
<linearGradient id="paint7_linear_2088_176230" x1="125.003" y1="108.215" x2="20" y2="108.215" gradientUnits="userSpaceOnUse">
<stop stop-color="#5761D7"/>
<stop offset="0.0726" stop-color="#5472D8"/>
<stop offset="0.2791" stop-color="#4E9CDB"/>
<stop offset="0.4801" stop-color="#49BDDD"/>
<stop offset="0.6715" stop-color="#45D5DF"/>
<stop offset="0.8493" stop-color="#43E3E0"/>
<stop offset="1" stop-color="#42E8E0"/>
</linearGradient>
<linearGradient id="paint8_linear_2088_176230" x1="125.003" y1="100.16" x2="20" y2="100.16" gradientUnits="userSpaceOnUse">
<stop stop-color="#5761D7"/>
<stop offset="0.0726" stop-color="#5472D8"/>
<stop offset="0.2791" stop-color="#4E9CDB"/>
<stop offset="0.4801" stop-color="#49BDDD"/>
<stop offset="0.6715" stop-color="#45D5DF"/>
<stop offset="0.8493" stop-color="#43E3E0"/>
<stop offset="1" stop-color="#42E8E0"/>
</linearGradient>
<linearGradient id="paint9_linear_2088_176230" x1="125.003" y1="112.243" x2="20" y2="112.243" gradientUnits="userSpaceOnUse">
<stop stop-color="#5761D7"/>
<stop offset="0.0726" stop-color="#5472D8"/>
<stop offset="0.2791" stop-color="#4E9CDB"/>
<stop offset="0.4801" stop-color="#49BDDD"/>
<stop offset="0.6715" stop-color="#45D5DF"/>
<stop offset="0.8493" stop-color="#43E3E0"/>
<stop offset="1" stop-color="#42E8E0"/>
</linearGradient>
<linearGradient id="paint10_linear_2088_176230" x1="125.003" y1="100.16" x2="20" y2="100.16" gradientUnits="userSpaceOnUse">
<stop stop-color="#5761D7"/>
<stop offset="0.0726" stop-color="#5472D8"/>
<stop offset="0.2791" stop-color="#4E9CDB"/>
<stop offset="0.4801" stop-color="#49BDDD"/>
<stop offset="0.6715" stop-color="#45D5DF"/>
<stop offset="0.8493" stop-color="#43E3E0"/>
<stop offset="1" stop-color="#42E8E0"/>
</linearGradient>
<linearGradient id="paint11_linear_2088_176230" x1="125.002" y1="114.678" x2="20.0006" y2="114.678" gradientUnits="userSpaceOnUse">
<stop stop-color="#5761D7"/>
<stop offset="0.0726" stop-color="#5472D8"/>
<stop offset="0.2791" stop-color="#4E9CDB"/>
<stop offset="0.4801" stop-color="#49BDDD"/>
<stop offset="0.6715" stop-color="#45D5DF"/>
<stop offset="0.8493" stop-color="#43E3E0"/>
<stop offset="1" stop-color="#42E8E0"/>
</linearGradient>
<radialGradient id="paint12_radial_2088_176230" cx="0" cy="0" r="1" gradientUnits="userSpaceOnUse" gradientTransform="translate(48.1436 62.1836) rotate(44.3237) scale(17.954 29.5738)">
<stop stop-color="#C0BFF6"/>
<stop offset="1" stop-color="#393091"/>
</radialGradient>
<linearGradient id="paint13_linear_2088_176230" x1="42.2019" y1="71.3019" x2="26.201" y2="71.9932" gradientUnits="userSpaceOnUse">
<stop stop-color="#42E8E0"/>
<stop offset="0.00467455" stop-color="#42E6DF"/>
<stop offset="0.1358" stop-color="#40B6CB"/>
<stop offset="0.2707" stop-color="#3E8DB9"/>
<stop offset="0.4074" stop-color="#3C6BAA"/>
<stop offset="0.5467" stop-color="#3B519F"/>
<stop offset="0.6893" stop-color="#3A3F97"/>
<stop offset="0.8375" stop-color="#393493"/>
<stop offset="1" stop-color="#393091"/>
</linearGradient>
<radialGradient id="paint14_radial_2088_176230" cx="0" cy="0" r="1" gradientUnits="userSpaceOnUse" gradientTransform="translate(96.9313 15.9009) rotate(11.167) scale(58.5079 58.3565)">
<stop stop-color="#C0BFF6"/>
<stop offset="1" stop-color="#393091"/>
</radialGradient>
<linearGradient id="paint15_linear_2088_176230" x1="43.0017" y1="56.7216" x2="53.8497" y2="39.6425" gradientUnits="userSpaceOnUse">
<stop stop-color="#42E8E0"/>
<stop offset="0.00467455" stop-color="#42E6DF"/>
<stop offset="0.1358" stop-color="#40B6CB"/>
<stop offset="0.2707" stop-color="#3E8DB9"/>
<stop offset="0.4074" stop-color="#3C6BAA"/>
<stop offset="0.5467" stop-color="#3B519F"/>
<stop offset="0.6893" stop-color="#3A3F97"/>
<stop offset="0.8375" stop-color="#393493"/>
<stop offset="1" stop-color="#393091"/>
</linearGradient>
<radialGradient id="paint16_radial_2088_176230" cx="0" cy="0" r="1" gradientUnits="userSpaceOnUse" gradientTransform="translate(88.2686 61.2272) scale(44.9783 61.0561)">
<stop stop-color="#C0BFF6"/>
<stop offset="1" stop-color="#393091"/>
</radialGradient>
<linearGradient id="paint17_linear_2088_176230" x1="72.8264" y1="102.08" x2="72.8264" y2="41.0494" gradientUnits="userSpaceOnUse">
<stop stop-color="#42E8E0"/>
<stop offset="0.00467455" stop-color="#42E6DF"/>
<stop offset="0.1358" stop-color="#40B6CB"/>
<stop offset="0.2707" stop-color="#3E8DB9"/>
<stop offset="0.4074" stop-color="#3C6BAA"/>
<stop offset="0.5467" stop-color="#3B519F"/>
<stop offset="0.6893" stop-color="#3A3F97"/>
<stop offset="0.8375" stop-color="#393493"/>
<stop offset="1" stop-color="#393091"/>
</linearGradient>
<radialGradient id="paint18_radial_2088_176230" cx="0" cy="0" r="1" gradientUnits="userSpaceOnUse" gradientTransform="translate(46.4744 -14.2647) scale(31.674 31.5854)">
<stop stop-color="#C0BFF6"/>
<stop offset="1" stop-color="#393091"/>
</radialGradient>
<radialGradient id="paint19_radial_2088_176230" cx="0" cy="0" r="1" gradientUnits="userSpaceOnUse" gradientTransform="translate(90.5228 23.1098) scale(45.1161 44.9899)">
<stop stop-color="#C0BFF6"/>
<stop offset="1" stop-color="#393091"/>
</radialGradient>
<linearGradient id="paint20_linear_2088_176230" x1="70.149" y1="53.4159" x2="77.5391" y2="0.68506" gradientUnits="userSpaceOnUse">
<stop stop-color="#42E8E0"/>
<stop offset="0.00467455" stop-color="#42E6DF"/>
<stop offset="0.1358" stop-color="#40B6CB"/>
<stop offset="0.2707" stop-color="#3E8DB9"/>
<stop offset="0.4074" stop-color="#3C6BAA"/>
<stop offset="0.5467" stop-color="#3B519F"/>
<stop offset="0.6893" stop-color="#3A3F97"/>
<stop offset="0.8375" stop-color="#393493"/>
<stop offset="1" stop-color="#393091"/>
</linearGradient>
<radialGradient id="paint21_radial_2088_176230" cx="0" cy="0" r="1" gradientUnits="userSpaceOnUse" gradientTransform="translate(90.1617 22.6313) scale(21.4259 21.366)">
<stop stop-color="#C0BFF6"/>
<stop offset="1" stop-color="#393091"/>
</radialGradient>
<linearGradient id="paint22_linear_2088_176230" x1="85.8479" y1="43.9827" x2="93.3398" y2="23.3412" gradientUnits="userSpaceOnUse">
<stop stop-color="#42E8E0"/>
<stop offset="0.00467455" stop-color="#42E6DF"/>
<stop offset="0.1358" stop-color="#40B6CB"/>
<stop offset="0.2707" stop-color="#3E8DB9"/>
<stop offset="0.4074" stop-color="#3C6BAA"/>
<stop offset="0.5467" stop-color="#3B519F"/>
<stop offset="0.6893" stop-color="#3A3F97"/>
<stop offset="0.8375" stop-color="#393493"/>
<stop offset="1" stop-color="#393091"/>
</linearGradient>
<radialGradient id="paint23_radial_2088_176230" cx="0" cy="0" r="1" gradientUnits="userSpaceOnUse" gradientTransform="translate(108.612 57.6039) rotate(11.167) scale(21.1461 21.0914)">
<stop stop-color="#C0BFF6"/>
<stop offset="1" stop-color="#393091"/>
</radialGradient>
<linearGradient id="paint24_linear_2088_176230" x1="94.4049" y1="70.1429" x2="110.774" y2="58.2156" gradientUnits="userSpaceOnUse">
<stop stop-color="#42E8E0"/>
<stop offset="0.00467455" stop-color="#42E6DF"/>
<stop offset="0.1358" stop-color="#40B6CB"/>
<stop offset="0.2707" stop-color="#3E8DB9"/>
<stop offset="0.4074" stop-color="#3C6BAA"/>
<stop offset="0.5467" stop-color="#3B519F"/>
<stop offset="0.6893" stop-color="#3A3F97"/>
<stop offset="0.8375" stop-color="#393493"/>
<stop offset="1" stop-color="#393091"/>
</linearGradient>
<radialGradient id="paint25_radial_2088_176230" cx="0" cy="0" r="1" gradientUnits="userSpaceOnUse" gradientTransform="translate(121.398 89.7183) rotate(6.784) scale(17.9778 29.5341)">
<stop stop-color="#C0BFF6"/>
<stop offset="1" stop-color="#393091"/>
</radialGradient>
<linearGradient id="paint26_linear_2088_176230" x1="104.497" y1="98.8216" x2="118.438" y2="100.49" gradientUnits="userSpaceOnUse">
<stop stop-color="#42E8E0"/>
<stop offset="0.00467455" stop-color="#42E6DF"/>
<stop offset="0.1358" stop-color="#40B6CB"/>
<stop offset="0.2707" stop-color="#3E8DB9"/>
<stop offset="0.4074" stop-color="#3C6BAA"/>
<stop offset="0.5467" stop-color="#3B519F"/>
<stop offset="0.6893" stop-color="#3A3F97"/>
<stop offset="0.8375" stop-color="#393493"/>
<stop offset="1" stop-color="#393091"/>
</linearGradient>
<clipPath id="clip0_2088_176230">
<rect width="125" height="180" fill="white"/>
</clipPath>
<clipPath id="clip1_2088_176230">
<rect width="62.73" height="67.61" fill="white" transform="translate(2 3)"/>
</clipPath>
</defs>
</svg>
