<svg width="264" height="293" viewBox="0 0 264 293" fill="none" xmlns="http://www.w3.org/2000/svg">
<g filter="url(#filter0_dd_1812_103904)">
<circle cx="132" cy="153" r="116" fill="#3783F5"/>
<path d="M248 150C248 119.235 235.779 89.7298 214.024 67.9756C192.27 46.2214 162.765 34 132 34C101.235 34 71.7298 46.2214 49.9756 67.9756C28.2214 89.7298 16 119.235 16 150L132 150H248Z" fill="#0FCABF"/>
<path d="M88.7405 182.04C90.2071 182.04 91.4938 182.327 92.6005 182.9C93.7205 183.473 94.5805 184.293 95.1805 185.36C95.7938 186.413 96.1005 187.64 96.1005 189.04C96.1005 190.44 95.7938 191.667 95.1805 192.72C94.5805 193.76 93.7205 194.567 92.6005 195.14C91.4938 195.713 90.2071 196 88.7405 196H83.8605V182.04H88.7405ZM88.6405 193.62C90.1071 193.62 91.2405 193.22 92.0405 192.42C92.8405 191.62 93.2405 190.493 93.2405 189.04C93.2405 187.587 92.8405 186.453 92.0405 185.64C91.2405 184.813 90.1071 184.4 88.6405 184.4H86.6605V193.62H88.6405ZM108.496 190.22C108.496 190.62 108.47 190.98 108.416 191.3H100.316C100.383 192.1 100.663 192.727 101.156 193.18C101.65 193.633 102.256 193.86 102.976 193.86C104.016 193.86 104.756 193.413 105.196 192.52H108.216C107.896 193.587 107.283 194.467 106.376 195.16C105.47 195.84 104.356 196.18 103.036 196.18C101.97 196.18 101.01 195.947 100.156 195.48C99.3164 195 98.6564 194.327 98.1764 193.46C97.7097 192.593 97.4764 191.593 97.4764 190.46C97.4764 189.313 97.7097 188.307 98.1764 187.44C98.6431 186.573 99.2964 185.907 100.136 185.44C100.976 184.973 101.943 184.74 103.036 184.74C104.09 184.74 105.03 184.967 105.856 185.42C106.696 185.873 107.343 186.52 107.796 187.36C108.263 188.187 108.496 189.14 108.496 190.22ZM105.596 189.42C105.583 188.7 105.323 188.127 104.816 187.7C104.31 187.26 103.69 187.04 102.956 187.04C102.263 187.04 101.676 187.253 101.196 187.68C100.73 188.093 100.443 188.673 100.336 189.42H105.596ZM109.82 190.42C109.82 189.3 110.04 188.307 110.48 187.44C110.933 186.573 111.547 185.907 112.32 185.44C113.093 184.973 113.953 184.74 114.9 184.74C115.62 184.74 116.307 184.9 116.96 185.22C117.613 185.527 118.133 185.94 118.52 186.46V181.2H121.36V196H118.52V194.36C118.173 194.907 117.687 195.347 117.06 195.68C116.433 196.013 115.707 196.18 114.88 196.18C113.947 196.18 113.093 195.94 112.32 195.46C111.547 194.98 110.933 194.307 110.48 193.44C110.04 192.56 109.82 191.553 109.82 190.42ZM118.54 190.46C118.54 189.78 118.407 189.2 118.14 188.72C117.873 188.227 117.513 187.853 117.06 187.6C116.607 187.333 116.12 187.2 115.6 187.2C115.08 187.2 114.6 187.327 114.16 187.58C113.72 187.833 113.36 188.207 113.08 188.7C112.813 189.18 112.68 189.753 112.68 190.42C112.68 191.087 112.813 191.673 113.08 192.18C113.36 192.673 113.72 193.053 114.16 193.32C114.613 193.587 115.093 193.72 115.6 193.72C116.12 193.72 116.607 193.593 117.06 193.34C117.513 193.073 117.873 192.7 118.14 192.22C118.407 191.727 118.54 191.14 118.54 190.46ZM125.515 183.6C125.022 183.6 124.608 183.447 124.275 183.14C123.955 182.82 123.795 182.427 123.795 181.96C123.795 181.493 123.955 181.107 124.275 180.8C124.608 180.48 125.022 180.32 125.515 180.32C126.008 180.32 126.415 180.48 126.735 180.8C127.068 181.107 127.235 181.493 127.235 181.96C127.235 182.427 127.068 182.82 126.735 183.14C126.415 183.447 126.008 183.6 125.515 183.6ZM126.895 184.92V196H124.095V184.92H126.895ZM128.941 190.46C128.941 189.313 129.175 188.313 129.641 187.46C130.108 186.593 130.755 185.927 131.581 185.46C132.408 184.98 133.355 184.74 134.421 184.74C135.795 184.74 136.928 185.087 137.821 185.78C138.728 186.46 139.335 187.42 139.641 188.66H136.621C136.461 188.18 136.188 187.807 135.801 187.54C135.428 187.26 134.961 187.12 134.401 187.12C133.601 187.12 132.968 187.413 132.501 188C132.035 188.573 131.801 189.393 131.801 190.46C131.801 191.513 132.035 192.333 132.501 192.92C132.968 193.493 133.601 193.78 134.401 193.78C135.535 193.78 136.275 193.273 136.621 192.26H139.641C139.335 193.46 138.728 194.413 137.821 195.12C136.915 195.827 135.781 196.18 134.421 196.18C133.355 196.18 132.408 195.947 131.581 195.48C130.755 195 130.108 194.333 129.641 193.48C129.175 192.613 128.941 191.607 128.941 190.46ZM140.972 190.42C140.972 189.3 141.192 188.307 141.632 187.44C142.086 186.573 142.693 185.907 143.453 185.44C144.226 184.973 145.086 184.74 146.033 184.74C146.859 184.74 147.579 184.907 148.193 185.24C148.819 185.573 149.319 185.993 149.693 186.5V184.92H152.513V196H149.693V194.38C149.333 194.9 148.833 195.333 148.193 195.68C147.566 196.013 146.839 196.18 146.013 196.18C145.079 196.18 144.226 195.94 143.453 195.46C142.693 194.98 142.086 194.307 141.632 193.44C141.192 192.56 140.972 191.553 140.972 190.42ZM149.693 190.46C149.693 189.78 149.559 189.2 149.293 188.72C149.026 188.227 148.666 187.853 148.213 187.6C147.759 187.333 147.273 187.2 146.753 187.2C146.233 187.2 145.753 187.327 145.312 187.58C144.873 187.833 144.513 188.207 144.233 188.7C143.966 189.18 143.833 189.753 143.833 190.42C143.833 191.087 143.966 191.673 144.233 192.18C144.513 192.673 144.873 193.053 145.312 193.32C145.766 193.587 146.246 193.72 146.753 193.72C147.273 193.72 147.759 193.593 148.213 193.34C148.666 193.073 149.026 192.7 149.293 192.22C149.559 191.727 149.693 191.14 149.693 190.46ZM158.507 187.22V192.58C158.507 192.953 158.594 193.227 158.767 193.4C158.954 193.56 159.261 193.64 159.687 193.64H160.987V196H159.227C156.867 196 155.687 194.853 155.687 192.56V187.22H154.367V184.92H155.687V182.18H158.507V184.92H160.987V187.22H158.507ZM173.301 190.22C173.301 190.62 173.274 190.98 173.221 191.3H165.121C165.188 192.1 165.468 192.727 165.961 193.18C166.454 193.633 167.061 193.86 167.781 193.86C168.821 193.86 169.561 193.413 170.001 192.52H173.021C172.701 193.587 172.088 194.467 171.181 195.16C170.274 195.84 169.161 196.18 167.841 196.18C166.774 196.18 165.814 195.947 164.961 195.48C164.121 195 163.461 194.327 162.981 193.46C162.514 192.593 162.281 191.593 162.281 190.46C162.281 189.313 162.514 188.307 162.981 187.44C163.448 186.573 164.101 185.907 164.941 185.44C165.781 184.973 166.748 184.74 167.841 184.74C168.894 184.74 169.834 184.967 170.661 185.42C171.501 185.873 172.148 186.52 172.601 187.36C173.068 188.187 173.301 189.14 173.301 190.22ZM170.401 189.42C170.388 188.7 170.128 188.127 169.621 187.7C169.114 187.26 168.494 187.04 167.761 187.04C167.068 187.04 166.481 187.253 166.001 187.68C165.534 188.093 165.248 188.673 165.141 189.42H170.401ZM174.625 190.42C174.625 189.3 174.845 188.307 175.285 187.44C175.738 186.573 176.352 185.907 177.125 185.44C177.898 184.973 178.758 184.74 179.705 184.74C180.425 184.74 181.112 184.9 181.765 185.22C182.418 185.527 182.938 185.94 183.325 186.46V181.2H186.165V196H183.325V194.36C182.978 194.907 182.492 195.347 181.865 195.68C181.238 196.013 180.512 196.18 179.685 196.18C178.752 196.18 177.898 195.94 177.125 195.46C176.352 194.98 175.738 194.307 175.285 193.44C174.845 192.56 174.625 191.553 174.625 190.42ZM183.345 190.46C183.345 189.78 183.212 189.2 182.945 188.72C182.678 188.227 182.318 187.853 181.865 187.6C181.412 187.333 180.925 187.2 180.405 187.2C179.885 187.2 179.405 187.327 178.965 187.58C178.525 187.833 178.165 188.207 177.885 188.7C177.618 189.18 177.485 189.753 177.485 190.42C177.485 191.087 177.618 191.673 177.885 192.18C178.165 192.673 178.525 193.053 178.965 193.32C179.418 193.587 179.898 193.72 180.405 193.72C180.925 193.72 181.412 193.593 181.865 193.34C182.318 193.073 182.678 192.7 182.945 192.22C183.212 191.727 183.345 191.14 183.345 190.46ZM120.694 210.04V224H117.894V218.06H111.914V224H109.114V210.04H111.914V215.78H117.894V210.04H120.694ZM128.37 224.18C127.304 224.18 126.344 223.947 125.49 223.48C124.637 223 123.964 222.327 123.47 221.46C122.99 220.593 122.75 219.593 122.75 218.46C122.75 217.327 122.997 216.327 123.49 215.46C123.997 214.593 124.684 213.927 125.55 213.46C126.417 212.98 127.384 212.74 128.45 212.74C129.517 212.74 130.484 212.98 131.35 213.46C132.217 213.927 132.897 214.593 133.39 215.46C133.897 216.327 134.15 217.327 134.15 218.46C134.15 219.593 133.89 220.593 133.37 221.46C132.864 222.327 132.17 223 131.29 223.48C130.424 223.947 129.45 224.18 128.37 224.18ZM128.37 221.74C128.877 221.74 129.35 221.62 129.79 221.38C130.244 221.127 130.604 220.753 130.87 220.26C131.137 219.767 131.27 219.167 131.27 218.46C131.27 217.407 130.99 216.6 130.43 216.04C129.884 215.467 129.21 215.18 128.41 215.18C127.61 215.18 126.937 215.467 126.39 216.04C125.857 216.6 125.59 217.407 125.59 218.46C125.59 219.513 125.85 220.327 126.37 220.9C126.904 221.46 127.57 221.74 128.37 221.74ZM146.664 212.92V224H143.844V222.6C143.484 223.08 143.011 223.46 142.424 223.74C141.851 224.007 141.224 224.14 140.544 224.14C139.678 224.14 138.911 223.96 138.244 223.6C137.578 223.227 137.051 222.687 136.664 221.98C136.291 221.26 136.104 220.407 136.104 219.42V212.92H138.904V219.02C138.904 219.9 139.124 220.58 139.564 221.06C140.004 221.527 140.604 221.76 141.364 221.76C142.138 221.76 142.744 221.527 143.184 221.06C143.624 220.58 143.844 219.9 143.844 219.02V212.92H146.664ZM152.227 214.64C152.587 214.053 153.054 213.593 153.627 213.26C154.214 212.927 154.88 212.76 155.627 212.76V215.7H154.887C154.007 215.7 153.34 215.907 152.887 216.32C152.447 216.733 152.227 217.453 152.227 218.48V224H149.427V212.92H152.227V214.64ZM161.753 224.18C160.846 224.18 160.033 224.02 159.313 223.7C158.593 223.367 158.019 222.92 157.593 222.36C157.179 221.8 156.953 221.18 156.913 220.5H159.733C159.786 220.927 159.993 221.28 160.353 221.56C160.726 221.84 161.186 221.98 161.733 221.98C162.266 221.98 162.679 221.873 162.973 221.66C163.279 221.447 163.433 221.173 163.433 220.84C163.433 220.48 163.246 220.213 162.873 220.04C162.513 219.853 161.933 219.653 161.133 219.44C160.306 219.24 159.626 219.033 159.093 218.82C158.573 218.607 158.119 218.28 157.733 217.84C157.359 217.4 157.173 216.807 157.173 216.06C157.173 215.447 157.346 214.887 157.693 214.38C158.053 213.873 158.559 213.473 159.213 213.18C159.879 212.887 160.659 212.74 161.553 212.74C162.873 212.74 163.926 213.073 164.713 213.74C165.499 214.393 165.933 215.28 166.013 216.4H163.333C163.293 215.96 163.106 215.613 162.773 215.36C162.453 215.093 162.019 214.96 161.473 214.96C160.966 214.96 160.573 215.053 160.293 215.24C160.026 215.427 159.893 215.687 159.893 216.02C159.893 216.393 160.079 216.68 160.453 216.88C160.826 217.067 161.406 217.26 162.193 217.46C162.993 217.66 163.653 217.867 164.173 218.08C164.693 218.293 165.139 218.627 165.513 219.08C165.899 219.52 166.099 220.107 166.113 220.84C166.113 221.48 165.933 222.053 165.573 222.56C165.226 223.067 164.719 223.467 164.053 223.76C163.399 224.04 162.633 224.18 161.753 224.18Z" fill="white"/>
<path d="M73.4838 98.224C73.6438 95.024 74.7638 92.56 76.8438 90.832C78.9558 89.072 81.7238 88.192 85.1478 88.192C87.4838 88.192 89.4838 88.608 91.1478 89.44C92.8118 90.24 94.0598 91.344 94.8918 92.752C95.7558 94.128 96.1877 95.696 96.1877 97.456C96.1877 99.472 95.6598 101.184 94.6038 102.592C93.5798 103.968 92.3478 104.896 90.9078 105.376V105.568C92.7638 106.144 94.2038 107.168 95.2278 108.64C96.2838 110.112 96.8118 112 96.8118 114.304C96.8118 116.224 96.3638 117.936 95.4678 119.44C94.6038 120.944 93.3078 122.128 91.5798 122.992C89.8838 123.824 87.8358 124.24 85.4358 124.24C81.8198 124.24 78.8758 123.328 76.6038 121.504C74.3318 119.68 73.1318 116.992 73.0038 113.44H79.5318C79.5958 115.008 80.1238 116.272 81.1158 117.232C82.1398 118.16 83.5318 118.624 85.2918 118.624C86.9238 118.624 88.1718 118.176 89.0358 117.28C89.9318 116.352 90.3798 115.168 90.3798 113.728C90.3798 111.808 89.7718 110.432 88.5558 109.6C87.3398 108.768 85.4518 108.352 82.8918 108.352H81.4998V102.832H82.8918C87.4358 102.832 89.7078 101.312 89.7078 98.272C89.7078 96.896 89.2918 95.824 88.4598 95.056C87.6598 94.288 86.4918 93.904 84.9557 93.904C83.4518 93.904 82.2838 94.32 81.4518 95.152C80.6518 95.952 80.1878 96.976 80.0598 98.224H73.4838ZM107.978 105.472C104.778 103.808 103.178 101.232 103.178 97.744C103.178 96.016 103.61 94.448 104.474 93.04C105.37 91.6 106.698 90.464 108.458 89.632C110.25 88.768 112.426 88.336 114.986 88.336C117.546 88.336 119.706 88.768 121.466 89.632C123.258 90.464 124.586 91.6 125.45 93.04C126.346 94.448 126.794 96.016 126.794 97.744C126.794 99.504 126.362 101.056 125.498 102.4C124.634 103.712 123.482 104.736 122.042 105.472C123.802 106.24 125.178 107.36 126.17 108.832C127.162 110.304 127.658 112.048 127.658 114.064C127.658 116.24 127.098 118.144 125.978 119.776C124.89 121.376 123.386 122.608 121.466 123.472C119.546 124.336 117.386 124.768 114.986 124.768C112.586 124.768 110.426 124.336 108.506 123.472C106.618 122.608 105.114 121.376 103.994 119.776C102.906 118.144 102.362 116.24 102.362 114.064C102.362 112.048 102.858 110.304 103.85 108.832C104.842 107.328 106.218 106.208 107.978 105.472ZM120.266 98.704C120.266 97.136 119.786 95.92 118.826 95.056C117.898 94.192 116.618 93.76 114.986 93.76C113.386 93.76 112.106 94.192 111.146 95.056C110.218 95.92 109.754 97.152 109.754 98.752C109.754 100.192 110.234 101.344 111.194 102.208C112.186 103.072 113.45 103.504 114.986 103.504C116.522 103.504 117.786 103.072 118.778 102.208C119.77 101.312 120.266 100.144 120.266 98.704ZM114.986 108.4C113.162 108.4 111.674 108.864 110.522 109.792C109.402 110.72 108.842 112.048 108.842 113.776C108.842 115.376 109.386 116.688 110.474 117.712C111.594 118.704 113.098 119.2 114.986 119.2C116.874 119.2 118.362 118.688 119.45 117.664C120.538 116.64 121.082 115.344 121.082 113.776C121.082 112.08 120.522 110.768 119.402 109.84C118.282 108.88 116.81 108.4 114.986 108.4ZM151.11 97.744C150.79 96.4 150.23 95.392 149.43 94.72C148.662 94.048 147.542 93.712 146.07 93.712C143.862 93.712 142.23 94.608 141.174 96.4C140.15 98.16 139.622 101.04 139.59 105.04C140.358 103.76 141.478 102.768 142.95 102.064C144.422 101.328 146.022 100.96 147.75 100.96C149.83 100.96 151.67 101.408 153.27 102.304C154.87 103.2 156.118 104.512 157.014 106.24C157.91 107.936 158.358 109.984 158.358 112.384C158.358 114.656 157.894 116.688 156.966 118.48C156.07 120.24 154.742 121.616 152.982 122.608C151.222 123.6 149.126 124.096 146.694 124.096C143.366 124.096 140.742 123.36 138.822 121.888C136.934 120.416 135.606 118.368 134.838 115.744C134.102 113.088 133.734 109.824 133.734 105.952C133.734 100.096 134.742 95.68 136.758 92.704C138.774 89.696 141.958 88.192 146.31 88.192C149.67 88.192 152.278 89.104 154.134 90.928C155.99 92.752 157.062 95.024 157.35 97.744H151.11ZM146.214 106.48C144.518 106.48 143.094 106.976 141.942 107.968C140.79 108.96 140.214 110.4 140.214 112.288C140.214 114.176 140.742 115.664 141.798 116.752C142.886 117.84 144.406 118.384 146.358 118.384C148.086 118.384 149.446 117.856 150.438 116.8C151.462 115.744 151.974 114.32 151.974 112.528C151.974 110.672 151.478 109.2 150.486 108.112C149.526 107.024 148.102 106.48 146.214 106.48ZM163.669 106.048C163.669 100.512 164.661 96.176 166.645 93.04C168.661 89.904 171.989 88.336 176.629 88.336C181.269 88.336 184.581 89.904 186.565 93.04C188.581 96.176 189.589 100.512 189.589 106.048C189.589 111.616 188.581 115.984 186.565 119.152C184.581 122.32 181.269 123.904 176.629 123.904C171.989 123.904 168.661 122.32 166.645 119.152C164.661 115.984 163.669 111.616 163.669 106.048ZM182.965 106.048C182.965 103.68 182.805 101.696 182.485 100.096C182.197 98.464 181.589 97.136 180.661 96.112C179.765 95.088 178.421 94.576 176.629 94.576C174.837 94.576 173.477 95.088 172.549 96.112C171.653 97.136 171.045 98.464 170.725 100.096C170.437 101.696 170.293 103.68 170.293 106.048C170.293 108.48 170.437 110.528 170.725 112.192C171.013 113.824 171.621 115.152 172.549 116.176C173.477 117.168 174.837 117.664 176.629 117.664C178.421 117.664 179.781 117.168 180.709 116.176C181.637 115.152 182.245 113.824 182.533 112.192C182.821 110.528 182.965 108.48 182.965 106.048Z" fill="white"/>
<path d="M183.215 40.7845C210.102 52.6333 232.049 73.4383 245.316 99.6545C258.583 125.871 262.35 155.876 255.974 184.558C249.598 213.24 233.475 238.824 210.35 256.951C187.226 275.078 158.532 284.626 129.158 283.968C99.7828 283.311 71.5448 272.488 49.255 253.344C26.9652 234.201 12.0027 207.921 6.91694 178.982C1.83119 150.044 6.93685 120.237 21.364 94.6408C35.7911 69.0446 58.6471 49.2426 86.0374 38.6089L94.8995 61.436C72.7903 70.0194 54.3412 86.0033 42.6958 106.664C31.0503 127.325 26.9291 151.385 31.0343 174.744C35.1394 198.103 47.217 219.316 65.2091 234.768C83.2012 250.221 105.995 258.957 129.706 259.487C153.417 260.018 176.578 252.311 195.244 237.679C213.909 223.048 226.924 202.396 232.07 179.245C237.217 156.093 234.177 131.873 223.467 110.711C212.758 89.5498 195.043 72.7563 173.34 63.1921L183.215 40.7845Z" fill="#4249B3"/>
<circle cx="135" cy="37" r="36" fill="#F3F6FC"/>
<path d="M134.983 20.3334C125.783 20.3334 118.333 27.8 118.333 37C118.333 46.2 125.783 53.6667 134.983 53.6667C144.2 53.6667 151.667 46.2 151.667 37C151.667 27.8 144.2 20.3334 134.983 20.3334ZM135 50.3334C127.633 50.3334 121.667 44.3667 121.667 37C121.667 29.6334 127.633 23.6667 135 23.6667C142.367 23.6667 148.333 29.6334 148.333 37C148.333 44.3667 142.367 50.3334 135 50.3334ZM135.833 28.6667H133.333V38.6667L142.083 43.9167L143.333 41.8667L135.833 37.4167V28.6667Z" fill="#022A62"/>
</g>
<defs>
<filter id="filter0_dd_1812_103904" x="-0.000213623" y="0" width="264" height="293" filterUnits="userSpaceOnUse" color-interpolation-filters="sRGB">
<feFlood flood-opacity="0" result="BackgroundImageFix"/>
<feColorMatrix in="SourceAlpha" type="matrix" values="0 0 0 0 0 0 0 0 0 0 0 0 0 0 0 0 0 0 127 0" result="hardAlpha"/>
<feMorphology radius="2" operator="erode" in="SourceAlpha" result="effect1_dropShadow_1812_103904"/>
<feOffset dy="2"/>
<feGaussianBlur stdDeviation="2"/>
<feComposite in2="hardAlpha" operator="out"/>
<feColorMatrix type="matrix" values="0 0 0 0 0 0 0 0 0 0 0 0 0 0 0 0 0 0 0.1 0"/>
<feBlend mode="normal" in2="BackgroundImageFix" result="effect1_dropShadow_1812_103904"/>
<feColorMatrix in="SourceAlpha" type="matrix" values="0 0 0 0 0 0 0 0 0 0 0 0 0 0 0 0 0 0 127 0" result="hardAlpha"/>
<feMorphology radius="1" operator="erode" in="SourceAlpha" result="effect2_dropShadow_1812_103904"/>
<feOffset dy="4"/>
<feGaussianBlur stdDeviation="3"/>
<feComposite in2="hardAlpha" operator="out"/>
<feColorMatrix type="matrix" values="0 0 0 0 0 0 0 0 0 0 0 0 0 0 0 0 0 0 0.1 0"/>
<feBlend mode="normal" in2="effect1_dropShadow_1812_103904" result="effect2_dropShadow_1812_103904"/>
<feBlend mode="normal" in="SourceGraphic" in2="effect2_dropShadow_1812_103904" result="shape"/>
</filter>
</defs>
</svg>
