<svg width="50" height="50" viewBox="0 0 50 50" fill="none" xmlns="http://www.w3.org/2000/svg">
<path d="M24.4186 0C22.1112 0 20.2035 1.96188 20.2035 4.33483C20.2035 6.70777 22.1112 8.66966 24.4186 8.66966C26.726 8.66966 28.6337 6.70777 28.6337 4.33483C28.6337 1.96188 26.726 0 24.4186 0Z" fill="white"/>
<path d="M9.52035 6.27802C7.21294 6.27802 5.37791 8.16516 5.37791 10.5381C5.37791 12.9111 7.21294 14.8729 9.52035 14.8729C11.8278 14.8729 13.7355 12.9111 13.7355 10.5381C13.7355 8.16516 11.8278 6.27802 9.52035 6.27802Z" fill="#05F3DB"/>
<path d="M39.3169 6.27802C37.0094 6.27802 35.1017 8.16516 35.1017 10.5381C35.1017 12.9111 37.0094 14.8729 39.3169 14.8729C41.6243 14.8729 43.4593 12.9111 43.4593 10.5381C43.4593 8.16516 41.6243 6.27802 39.3169 6.27802Z" fill="#05F3DB"/>
<path d="M45.3488 21.0762C42.778 21.0762 40.6977 23.2156 40.6977 25.8595C40.6977 28.5034 42.778 30.6427 45.3488 30.6427C47.9197 30.6427 50 28.5034 50 25.8595C50 23.2156 47.9197 21.0762 45.3488 21.0762Z" fill="white"/>
<path d="M3.48837 22.272C1.5625 22.272 0 23.8789 0 25.8595C0 27.84 1.5625 29.4469 3.48837 29.4469C5.41424 29.4469 6.97674 27.84 6.97674 25.8595C6.97674 23.8789 5.41424 22.272 3.48837 22.272Z" fill="white"/>
<path d="M39.3169 35.2018C36.1101 35.2018 33.5029 37.883 33.5029 41.1809C33.5029 44.4787 36.1101 47.1599 39.3169 47.1599C42.5236 47.1599 45.1308 44.4787 45.1308 41.1809C45.1308 37.883 42.5236 35.2018 39.3169 35.2018Z" fill="#05F3DB"/>
<path d="M9.52035 38.2661C7.97602 38.2661 6.75872 39.5927 6.75872 41.1809C6.75872 42.769 7.97602 44.0209 9.52035 44.0209C11.0647 44.0209 12.3547 42.769 12.3547 41.1809C12.3547 39.5927 11.0647 38.2661 9.52035 38.2661Z" fill="#05F3DB"/>
<path d="M23.6919 45.2167C22.411 45.2167 21.3663 46.2911 21.3663 47.6084C21.3663 48.9256 22.411 50 23.6919 50C24.9727 50 26.0174 48.9256 26.0174 47.6084C26.0174 46.2911 24.9727 45.2167 23.6919 45.2167Z" fill="white"/>
</svg>
