<svg width="142" height="149" viewBox="0 0 142 149" fill="none" xmlns="http://www.w3.org/2000/svg">
<path d="M80.8833 148.155C80.2711 148.155 79.6239 148.003 79.1107 147.705L1.01162 102.564C0.475176 102.255 0.166138 101.823 0.166138 101.379C0.166138 100.994 0.393542 100.65 0.807536 100.41L47.414 73.4703C48.2419 72.9917 49.6355 73.0442 50.5801 73.5929L128.685 118.734C129.222 119.043 129.531 119.475 129.531 119.919C129.531 120.304 129.303 120.649 128.889 120.888L82.2828 147.828C81.8979 148.044 81.4023 148.155 80.8833 148.155ZM1.2915 102.08L79.3965 147.221C80.1603 147.665 81.3557 147.717 82.0029 147.343L128.609 120.404C128.773 120.31 128.971 120.147 128.971 119.919C128.971 119.686 128.761 119.423 128.405 119.219L50.3003 74.0774C49.5364 73.6338 48.3411 73.5812 47.688 73.9548L1.08159 100.895C0.918324 100.988 0.720074 101.152 0.720074 101.379C0.720074 101.613 0.935817 101.875 1.2915 102.08Z" fill="#42E8E0"/>
<path d="M50.5451 59.7582L60.4226 1.12088L59.6296 0.788141L60.825 0.105157V0.110995C61.0582 -0.0407792 61.3847 -0.0349417 61.7463 0.175207L140.65 45.7833C141.297 46.1569 141.787 47.1201 141.676 47.7914L131.723 106.896C131.67 107.205 131.519 107.409 131.309 107.497L130.143 108.174L129.945 107.083L130.009 107.1L51.583 61.7721C50.9241 61.3927 50.4343 60.4295 50.5451 59.7582Z" fill="url(#paint0_linear_2101_1091)"/>
<path d="M140.201 47.377L141.496 46.8049C141.641 47.1377 141.711 47.4879 141.665 47.7798L131.711 106.884C131.659 107.194 131.507 107.398 131.297 107.485L130.131 108.163L129.933 107.071L129.997 107.088L126.026 104.794L140.201 47.377Z" fill="url(#paint1_linear_2101_1091)"/>
<path d="M50.3352 62.4785L129.239 108.087C129.845 108.437 130.37 108.233 130.475 107.602L140.428 48.492C140.545 47.8207 140.049 46.8575 139.402 46.4839L60.4984 0.881617C59.892 0.531369 59.3672 0.73568 59.2623 1.36613L49.3089 60.4705C49.1981 61.1418 49.6879 62.0991 50.3352 62.4785Z" fill="#24126A"/>
<g opacity="0.51">
<path d="M60.236 1.979L139.507 47.7798L129.495 107.036L50.271 61.2643L60.236 1.979Z" fill="#453C9E"/>
</g>
<path d="M0.737549 90.4575L5.04076 92.7107L48.2186 67.7556C48.9416 67.3353 50.2011 67.3878 51.0349 67.8723L125.507 110.912C126.219 110.515 129.466 108.951 129.466 108.951L127.892 111.513L127.886 111.507C127.822 111.688 127.682 111.863 127.443 111.998L81.9679 138.284C81.2448 138.704 79.9854 138.652 79.1516 138.167L2.94163 94.1176C2.59761 93.9191 2.38769 93.6798 2.30023 93.4346L2.2944 93.4404L0.737549 90.4575Z" fill="url(#paint2_linear_2101_1091)"/>
<path d="M1.40224 91.1696L79.5072 136.311C80.3643 136.807 81.653 136.859 82.3935 136.433L129 109.493C129.74 109.067 129.647 108.32 128.79 107.824L50.6909 62.6827C49.8337 62.1866 48.5451 62.134 47.8046 62.5602L1.19816 89.5001C0.451804 89.9262 0.545098 90.6734 1.40224 91.1696Z" fill="url(#paint3_linear_2101_1091)"/>
<path d="M1.40219 90.8194L79.5072 135.96C80.3643 136.457 81.6529 136.509 82.3934 136.083L129 109.143C129.262 108.991 129.414 108.799 129.472 108.594C129.554 108.927 129.408 109.254 129 109.493L82.3934 136.433C81.6529 136.859 80.3585 136.807 79.5072 136.311L1.40219 91.1696C0.848258 90.8486 0.620853 90.4224 0.725809 90.0488C0.789949 90.3174 1.01152 90.5917 1.40219 90.8194Z" fill="white"/>
<g opacity="0.15">
<mask id="mask0_2101_1091" style="mask-type:luminance" maskUnits="userSpaceOnUse" x="50" y="1" width="90" height="107">
<path d="M139.507 47.7798L60.236 1.979L50.271 61.2643L129.495 107.036L139.507 47.7798Z" fill="white"/>
</mask>
<g mask="url(#mask0_2101_1091)">
<path d="M50.2361 62.0932L54.5393 64.3465L97.7171 39.3913C98.4402 38.971 99.6996 39.0236 100.533 39.5081L175.006 82.5535C175.717 82.1566 178.965 80.5921 178.965 80.5921L177.391 83.1548L177.385 83.149C177.321 83.3299 177.181 83.505 176.942 83.6393L131.466 109.925C130.743 110.346 129.484 110.293 128.65 109.809L52.4402 65.7591C52.0961 65.5607 51.8862 65.3213 51.7988 65.0762L51.7929 65.082L50.2361 62.0932Z" fill="url(#paint4_linear_2101_1091)"/>
<path d="M50.9066 62.8053L129.012 107.946C129.869 108.443 131.157 108.495 131.898 108.069L178.504 81.1291C179.245 80.703 179.152 79.9558 178.294 79.4596L100.189 34.3185C99.3323 33.8223 98.0436 33.7698 97.3031 34.1959L50.6967 61.1358C49.9562 61.5619 50.0495 62.3091 50.9066 62.8053Z" fill="url(#paint5_linear_2101_1091)"/>
<path d="M178.294 79.4596L100.189 34.3185C99.6413 34.0033 98.9066 33.869 98.2594 33.9274C98.7375 33.9624 99.2215 34.0967 99.6122 34.3185L177.717 79.4596C178.574 79.9558 178.668 80.703 177.927 81.1291L131.321 108.069C131.058 108.221 130.72 108.308 130.364 108.343C130.93 108.39 131.496 108.303 131.898 108.069L178.504 81.1291C179.239 80.703 179.146 79.9558 178.294 79.4596Z" fill="white"/>
<g opacity="0.5">
<path d="M91.8162 55.0299L89.3148 53.5822C89.1165 53.4654 88.7725 53.4771 88.5567 53.6055L85.7754 55.2342C85.5597 55.3626 85.5422 55.5611 85.7462 55.6778L88.2477 57.1255C88.446 57.2423 88.79 57.2306 89.0057 57.1022L91.7871 55.4735C92.0028 55.3451 92.0145 55.1466 91.8162 55.0299Z" fill="#24126A"/>
<path d="M95.6822 57.2657L93.1807 55.818C92.9825 55.7013 92.6385 55.713 92.4227 55.8414L89.6414 57.47C89.4256 57.5985 89.4081 57.7969 89.6122 57.9137L92.1137 59.3614C92.3119 59.4781 92.6559 59.4665 92.8717 59.338L95.653 57.7094C95.8688 57.581 95.8804 57.3825 95.6822 57.2657Z" fill="#24126A"/>
<path d="M99.548 59.5013L97.0466 58.0536C96.8483 57.9369 96.5043 57.9486 96.2886 58.077L93.5072 59.7056C93.2915 59.8341 93.274 60.0325 93.4781 60.1493L95.9795 61.597C96.1778 61.7137 96.5218 61.7021 96.7375 61.5736L99.5189 59.945C99.7346 59.8166 99.7463 59.6181 99.548 59.5013Z" fill="#24126A"/>
<path d="M96.6034 62.4784L94.102 61.0307C93.9037 60.9139 93.5597 60.9256 93.3439 61.054L91.0057 62.42C90.79 62.5484 90.7725 62.7469 90.9766 62.8637L93.478 64.3113C93.6763 64.4281 94.0203 64.4164 94.2361 64.288L96.5743 62.922C96.79 62.7878 96.8017 62.5951 96.6034 62.4784Z" fill="#24126A"/>
<path d="M100.469 64.7084L97.9678 63.2607C97.7695 63.1439 97.4255 63.1556 97.2098 63.284L94.8716 64.65C94.6558 64.7784 94.6384 64.9769 94.8424 65.0936L97.3439 66.5413C97.5421 66.6581 97.8862 66.6464 98.1019 66.518L100.44 65.152C100.656 65.0236 100.668 64.8251 100.469 64.7084Z" fill="#24126A"/>
<path d="M104.335 66.9442L101.834 65.4965C101.636 65.3798 101.291 65.3914 101.076 65.5199L98.7376 66.8858C98.5218 67.0142 98.5043 67.2127 98.7084 67.3295L101.21 68.7772C101.408 68.8939 101.752 68.8822 101.968 68.7538L104.306 67.3878C104.522 67.2594 104.533 67.0609 104.335 66.9442Z" fill="#24126A"/>
<path d="M108.201 69.1798L105.7 67.7321C105.501 67.6154 105.157 67.627 104.942 67.7555L102.603 69.1214C102.388 69.2498 102.37 69.4483 102.574 69.5651L105.076 71.0128C105.274 71.1295 105.618 71.1178 105.834 70.9894L108.172 69.6234C108.388 69.495 108.405 69.2965 108.201 69.1798Z" fill="#24126A"/>
<path d="M112.067 71.4156L109.566 69.9679C109.367 69.8512 109.023 69.8629 108.808 69.9913L106.469 71.3573C106.254 71.4857 106.236 71.6842 106.44 71.8009L108.942 73.2486C109.14 73.3653 109.484 73.3537 109.7 73.2252L112.038 71.8593C112.254 71.7309 112.271 71.5324 112.067 71.4156Z" fill="#24126A"/>
<path d="M115.933 73.6515L113.431 72.2038C113.233 72.087 112.889 72.0987 112.673 72.2271L110.335 73.5931C110.119 73.7215 110.102 73.92 110.306 74.0367L112.808 75.4844C113.006 75.6012 113.35 75.5895 113.566 75.4611L115.904 74.0951C116.119 73.9609 116.137 73.7682 115.933 73.6515Z" fill="#24126A"/>
<path d="M119.799 75.8871L117.297 74.4394C117.099 74.3226 116.755 74.3343 116.539 74.4627L114.201 75.8287C113.985 75.9571 113.968 76.1556 114.172 76.2723L116.673 77.72C116.872 77.8368 117.216 77.8251 117.431 77.6967L119.77 76.3307C119.985 76.1965 120.003 75.998 119.799 75.8871Z" fill="#24126A"/>
<path d="M123.665 78.1171L121.163 76.6694C120.965 76.5526 120.621 76.5643 120.405 76.6927L118.067 78.0587C117.851 78.1871 117.834 78.3856 118.038 78.5023L120.539 79.95C120.738 80.0668 121.082 80.0551 121.297 79.9267L123.636 78.5607C123.851 78.4323 123.869 78.2338 123.665 78.1171Z" fill="#24126A"/>
<path d="M127.531 80.3529L125.029 78.9052C124.831 78.7884 124.487 78.8001 124.271 78.9285L121.933 80.2945C121.717 80.4229 121.7 80.6214 121.904 80.7382L124.405 82.1858C124.603 82.3026 124.947 82.2909 125.163 82.1625L127.501 80.7965C127.717 80.6681 127.735 80.4696 127.531 80.3529Z" fill="#24126A"/>
<path d="M131.396 82.5885L128.895 81.1408C128.697 81.024 128.353 81.0357 128.137 81.1641L125.799 82.5301C125.583 82.6585 125.565 82.857 125.77 82.9738L128.271 84.4214C128.469 84.5382 128.813 84.5265 129.029 84.3981L131.367 83.0321C131.583 82.9037 131.6 82.7052 131.396 82.5885Z" fill="#24126A"/>
<path d="M94.994 65.6656L92.4926 64.2179C92.2943 64.1012 91.9503 64.1129 91.7346 64.2413L89.3964 65.6073C89.1806 65.7357 89.1631 65.9342 89.3672 66.0509L91.8687 67.4986C92.0669 67.6153 92.411 67.6037 92.6267 67.4752L94.9649 66.1093C95.1806 65.9809 95.1923 65.7824 94.994 65.6656Z" fill="#24126A"/>
<path d="M91.0699 63.4007L88.5684 61.953C88.3701 61.8363 88.0261 61.848 87.8104 61.9764L85.4722 63.3424C85.2564 63.4708 85.2389 63.6693 85.443 63.786L87.9445 65.2337C88.1427 65.3505 88.4868 65.3388 88.7025 65.2104L91.0407 63.8444C91.2564 63.7101 91.2681 63.5117 91.0699 63.4007Z" fill="#24126A"/>
<path d="M87.1398 61.1242L81.7462 58.007C81.548 57.8903 81.204 57.9019 80.9882 58.0304L78.65 59.3963C78.4343 59.5247 78.4168 59.7232 78.6209 59.84L84.0145 62.9572C84.2127 63.0739 84.5567 63.0622 84.7725 62.9338L87.1107 61.5679C87.3264 61.4394 87.3381 61.241 87.1398 61.1242Z" fill="#24126A"/>
<path d="M82.5801 62.6128L78.2069 60.0851C78.0087 59.9684 77.6647 59.9801 77.4489 60.1085L75.1107 61.4744C74.895 61.6029 74.8775 61.8013 75.0816 61.9181L79.4548 64.4457C79.653 64.5625 79.997 64.5508 80.2128 64.4224L82.551 63.0564C82.7667 62.928 82.7784 62.7295 82.5801 62.6128Z" fill="#24126A"/>
<path d="M98.86 67.9015L96.3586 66.4538C96.1603 66.337 95.8163 66.3487 95.6005 66.4771L93.2623 67.8431C93.0466 67.9715 93.0291 68.17 93.2332 68.2867L95.7346 69.7344C95.9329 69.8512 96.2769 69.8395 96.4927 69.7111L98.8309 68.3451C99.0466 68.2167 99.0583 68.0182 98.86 67.9015Z" fill="#24126A"/>
<path d="M102.726 70.1373L100.224 68.6896C100.026 68.5729 99.6821 68.5845 99.4664 68.713L97.1282 70.0789C96.9124 70.2074 96.8949 70.4058 97.099 70.5226L99.6005 71.9703C99.7987 72.087 100.143 72.0754 100.359 71.9469L102.697 70.581C102.912 70.4525 102.924 70.2541 102.726 70.1373Z" fill="#24126A"/>
<path d="M106.592 72.3729L104.09 70.9252C103.892 70.8085 103.548 70.8201 103.332 70.9486L100.994 72.3145C100.778 72.443 100.761 72.6414 100.965 72.7582L103.466 74.2059C103.665 74.3226 104.009 74.3109 104.224 74.1825L106.563 72.8166C106.778 72.6823 106.79 72.4838 106.592 72.3729Z" fill="#24126A"/>
<path d="M110.458 74.6029L107.956 73.1552C107.758 73.0384 107.414 73.0501 107.198 73.1785L104.86 74.5445C104.644 74.6729 104.627 74.8714 104.831 74.9882L107.332 76.4359C107.531 76.5526 107.875 76.5409 108.09 76.4125L110.429 75.0465C110.644 74.9181 110.656 74.7196 110.458 74.6029Z" fill="#24126A"/>
<path d="M114.324 76.8387L111.822 75.391C111.624 75.2743 111.28 75.286 111.064 75.4144L108.726 76.7804C108.51 76.9088 108.493 77.1072 108.697 77.224L111.198 78.6717C111.396 78.7884 111.74 78.7768 111.956 78.6483L114.294 77.2824C114.51 77.154 114.522 76.9555 114.324 76.8387Z" fill="#24126A"/>
<path d="M118.189 79.0743L115.688 77.6266C115.49 77.5099 115.146 77.5216 114.93 77.65L112.592 79.0159C112.376 79.1444 112.359 79.3428 112.563 79.4596L115.064 80.9073C115.262 81.024 115.606 81.0124 115.822 80.8839L118.16 79.518C118.376 79.3895 118.388 79.1911 118.189 79.0743Z" fill="#24126A"/>
<path d="M122.055 81.3102L119.554 79.8625C119.356 79.7457 119.012 79.7574 118.796 79.8858L116.458 81.2518C116.242 81.3802 116.224 81.5787 116.428 81.6954L118.93 83.1431C119.128 83.2599 119.472 83.2482 119.688 83.1198L122.026 81.7538C122.242 81.6254 122.259 81.4269 122.055 81.3102Z" fill="#24126A"/>
<path d="M125.921 83.546L123.42 82.0983C123.221 81.9816 122.877 81.9932 122.662 82.1217L120.323 83.4876C120.108 83.6161 120.09 83.8145 120.294 83.9313L122.796 85.379C122.994 85.4957 123.338 85.484 123.554 85.3556L125.892 83.9897C126.108 83.8554 126.125 83.6628 125.921 83.546Z" fill="#24126A"/>
<path d="M129.787 85.7757L127.286 84.328C127.087 84.2113 126.743 84.223 126.528 84.3514L124.189 85.7174C123.974 85.8458 123.956 86.0443 124.16 86.161L126.662 87.6087C126.86 87.7255 127.204 87.7138 127.42 87.5853L129.758 86.2194C129.974 86.091 129.991 85.8925 129.787 85.7757Z" fill="#24126A"/>
<path d="M136.662 89.751L131.198 86.5929C131 86.4762 130.656 86.4879 130.44 86.6163L128.102 87.9823C127.886 88.1107 127.869 88.3092 128.073 88.4259L133.536 91.584C133.735 91.7007 134.079 91.6891 134.294 91.5606L136.633 90.1947C136.848 90.0662 136.86 89.8678 136.662 89.751Z" fill="#24126A"/>
<path d="M129.571 93.8957L124.959 91.2279C124.761 91.1112 124.417 91.1229 124.201 91.2513L121.863 92.6173C121.647 92.7457 121.63 92.9442 121.834 93.0609L126.446 95.7286C126.644 95.8454 126.988 95.8337 127.204 95.7053L129.542 94.3393C129.758 94.2109 129.775 94.0124 129.571 93.8957Z" fill="#24126A"/>
<path d="M98.3235 71.7135L95.8221 70.2658C95.6238 70.149 95.2798 70.1607 95.064 70.2891L92.7258 71.6551C92.5101 71.7835 92.4926 71.982 92.6967 72.0988L95.1981 73.5464C95.3964 73.6632 95.7404 73.6515 95.9562 73.5231L98.2944 72.1571C98.5101 72.0287 98.5218 71.8302 98.3235 71.7135Z" fill="#24126A"/>
<path d="M94.3585 69.4193L91.8571 67.9716C91.6588 67.8549 91.3148 67.8665 91.0991 67.995L88.7609 69.3609C88.5451 69.4893 88.5276 69.6878 88.7317 69.8046L91.2332 71.2523C91.4314 71.369 91.7755 71.3573 91.9912 71.2289L94.3294 69.8629C94.5451 69.7345 94.5626 69.536 94.3585 69.4193Z" fill="#24126A"/>
<path d="M90.3993 67.131L87.8979 65.6833C87.6996 65.5665 87.3556 65.5782 87.1398 65.7066L84.8016 67.0726C84.5859 67.201 84.5684 67.3995 84.7725 67.5162L87.2739 68.9639C87.4722 69.0807 87.8162 69.069 88.032 68.9406L90.3702 67.5746C90.5859 67.4462 90.5976 67.2477 90.3993 67.131Z" fill="#24126A"/>
<path d="M86.4343 64.8426L83.9329 63.3949C83.7346 63.2782 83.3906 63.2899 83.1749 63.4183L80.8367 64.7843C80.6209 64.9127 80.6034 65.1112 80.8075 65.2279L83.309 66.6756C83.5072 66.7923 83.8513 66.7807 84.067 66.6522L86.4052 65.2863C86.6209 65.1579 86.6384 64.9594 86.4343 64.8426Z" fill="#24126A"/>
<path d="M102.189 73.9491L99.688 72.5014C99.4898 72.3846 99.1457 72.3963 98.93 72.5247L96.5918 73.8907C96.3761 74.0191 96.3586 74.2176 96.5627 74.3344L99.0641 75.782C99.2624 75.8988 99.6064 75.8871 99.8221 75.7587L102.16 74.3927C102.376 74.2585 102.388 74.06 102.189 73.9491Z" fill="#24126A"/>
<path d="M106.055 76.1791L103.554 74.7314C103.356 74.6146 103.012 74.6263 102.796 74.7547L100.458 76.1207C100.242 76.2491 100.224 76.4476 100.428 76.5643L102.93 78.012C103.128 78.1288 103.472 78.1171 103.688 77.9887L106.026 76.6227C106.242 76.4943 106.254 76.2958 106.055 76.1791Z" fill="#24126A"/>
<path d="M109.921 78.4149L107.42 76.9672C107.221 76.8505 106.877 76.8621 106.662 76.9906L104.323 78.3565C104.108 78.4849 104.09 78.6834 104.294 78.8002L106.796 80.2479C106.994 80.3646 107.338 80.3529 107.554 80.2245L109.892 78.8585C110.108 78.7301 110.119 78.5316 109.921 78.4149Z" fill="#24126A"/>
<path d="M113.787 80.6505L111.286 79.2028C111.087 79.0861 110.743 79.0977 110.528 79.2262L108.189 80.5921C107.974 80.7205 107.956 80.919 108.16 81.0358L110.662 82.4835C110.86 82.6002 111.204 82.5885 111.42 82.4601L113.758 81.0941C113.974 80.9657 113.985 80.7672 113.787 80.6505Z" fill="#24126A"/>
<path d="M117.653 82.8863L115.152 81.4386C114.953 81.3219 114.609 81.3336 114.394 81.462L112.055 82.828C111.84 82.9564 111.822 83.1549 112.026 83.2716L114.528 84.7193C114.726 84.8361 115.07 84.8244 115.286 84.6959L117.624 83.33C117.84 83.2016 117.851 83.0031 117.653 82.8863Z" fill="#24126A"/>
<path d="M121.519 85.1219L119.017 83.6742C118.819 83.5575 118.475 83.5692 118.259 83.6976L115.921 85.0636C115.705 85.192 115.688 85.3905 115.892 85.5072L118.393 86.9549C118.592 87.0716 118.936 87.06 119.151 86.9315L121.49 85.5656C121.705 85.4313 121.717 85.2387 121.519 85.1219Z" fill="#24126A"/>
<path d="M125.385 87.3519L122.883 85.9042C122.685 85.7875 122.341 85.7991 122.125 85.9276L119.787 87.2935C119.571 87.422 119.554 87.6204 119.758 87.7372L122.259 89.1849C122.458 89.3016 122.802 89.29 123.017 89.1615L125.356 87.7956C125.571 87.6671 125.589 87.4687 125.385 87.3519Z" fill="#24126A"/>
<path d="M129.251 89.5878L126.749 88.1401C126.551 88.0233 126.207 88.035 125.991 88.1634L123.653 89.5294C123.437 89.6578 123.42 89.8563 123.624 89.973L126.125 91.4207C126.324 91.5375 126.668 91.5258 126.883 91.3974L129.221 90.0314C129.437 89.903 129.455 89.7045 129.251 89.5878Z" fill="#24126A"/>
<path d="M133.117 91.8233L130.615 90.3757C130.417 90.2589 130.073 90.2706 129.857 90.399L127.519 91.765C127.303 91.8934 127.286 92.0919 127.49 92.2086L129.991 93.6563C130.189 93.7731 130.534 93.7614 130.749 93.633L133.087 92.267C133.303 92.1386 133.321 91.9401 133.117 91.8233Z" fill="#24126A"/>
<path d="M88.9766 70.4349L86.4751 68.9872C86.2769 68.8705 85.9329 68.8822 85.7171 69.0106L83.3789 70.3765C83.1632 70.505 83.1457 70.7034 83.3498 70.8202L85.8512 72.2679C86.0495 72.3846 86.3935 72.373 86.6092 72.2445L88.9474 70.8786C89.1632 70.7443 89.1807 70.5458 88.9766 70.4349Z" fill="#24126A"/>
<path d="M85.1341 68.2108L82.6326 66.7631C82.4343 66.6464 82.0903 66.658 81.8746 66.7865L79.5364 68.1524C79.3206 68.2808 79.3032 68.4793 79.5072 68.5961L82.0087 70.0438C82.2069 70.1605 82.551 70.1488 82.7667 70.0204L85.1049 68.6544C85.3206 68.5202 85.3323 68.3275 85.1341 68.2108Z" fill="#24126A"/>
<path d="M81.2857 65.9869L78.7842 64.5392C78.586 64.4225 78.2419 64.4342 78.0262 64.5626L75.688 65.9285C75.4723 66.057 75.4548 66.2554 75.6588 66.3722L78.1603 67.8199C78.3586 67.9366 78.7026 67.925 78.9183 67.7965L81.2565 66.4306C81.4723 66.3021 81.4839 66.1037 81.2857 65.9869Z" fill="#24126A"/>
<path d="M77.4373 63.7628L74.9358 62.3151C74.7376 62.1984 74.3935 62.21 74.1778 62.3385L71.8396 63.7044C71.6239 63.8328 71.6064 64.0313 71.8105 64.1481L74.3119 65.5958C74.5102 65.7125 74.8542 65.7008 75.0699 65.5724L77.4081 64.2064C77.6239 64.078 77.6414 63.8796 77.4373 63.7628Z" fill="#24126A"/>
<path d="M73.7113 65.94L71.2098 64.4924C71.0116 64.3756 70.6676 64.3873 70.4518 64.5157L69.6821 64.9652C69.4664 65.0936 69.4489 65.2921 69.653 65.4088L72.1544 66.8565C72.3527 66.9733 72.6967 66.9616 72.9125 66.8332L73.6821 66.3837C73.8979 66.2553 73.9154 66.0568 73.7113 65.94Z" fill="#24126A"/>
<path d="M78.7317 68.8414L76.2302 67.3937C76.032 67.277 75.688 67.2886 75.4722 67.4171L74.7025 67.8666C74.4868 67.995 74.4693 68.1935 74.6734 68.3102L77.1748 69.7579C77.3731 69.8746 77.7171 69.863 77.9329 69.7345L78.7025 69.2851C78.9183 69.1566 78.9358 68.9582 78.7317 68.8414Z" fill="#24126A"/>
<path d="M82.5626 71.0538L80.0612 69.6061C79.8629 69.4894 79.5189 69.5011 79.3031 69.6295L78.5335 70.079C78.3177 70.2074 78.3002 70.4059 78.5043 70.5226L81.0058 71.9703C81.204 72.087 81.548 72.0754 81.7638 71.9469L82.5335 71.4975C82.7492 71.369 82.7667 71.1706 82.5626 71.0538Z" fill="#24126A"/>
<path d="M86.3935 73.2721L83.8921 71.8244C83.6938 71.7076 83.3498 71.7193 83.1341 71.8477L82.3644 72.2972C82.1486 72.4256 82.1312 72.6241 82.3352 72.7409L84.8367 74.1886C85.035 74.3053 85.379 74.2936 85.5947 74.1652L86.3644 73.7157C86.5801 73.5873 86.5976 73.3888 86.3935 73.2721Z" fill="#24126A"/>
<path d="M90.2245 75.4845L87.723 74.0368C87.5248 73.92 87.1807 73.9317 86.965 74.0601L86.1953 74.5096C85.9796 74.638 85.9621 74.8365 86.1662 74.9533L88.6676 76.401C88.8659 76.5177 89.2099 76.506 89.4256 76.3776L90.1953 75.9281C90.4111 75.7997 90.4286 75.6012 90.2245 75.4845Z" fill="#24126A"/>
<path d="M111.612 87.848L109.111 86.4003C108.912 86.2836 108.568 86.2952 108.353 86.4237L107.583 86.8732C107.367 87.0016 107.35 87.2 107.554 87.3168L110.055 88.7645C110.254 88.8812 110.598 88.8696 110.813 88.7411L111.583 88.2917C111.799 88.1632 111.816 87.9648 111.612 87.848Z" fill="#24126A"/>
<path d="M115.443 90.0604L112.942 88.6127C112.743 88.496 112.399 88.5076 112.184 88.6361L111.414 89.0856C111.198 89.214 111.181 89.4124 111.385 89.5292L113.886 90.9769C114.085 91.0936 114.429 91.082 114.644 90.9535L115.414 90.5041C115.63 90.3756 115.647 90.1772 115.443 90.0604Z" fill="#24126A"/>
<path d="M119.274 92.2728L116.772 90.8251C116.574 90.7084 116.23 90.72 116.014 90.8485L115.245 91.2979C115.029 91.4264 115.012 91.6249 115.216 91.7416L117.717 93.1893C117.915 93.306 118.259 93.2944 118.475 93.1659L119.245 92.7165C119.461 92.588 119.478 92.3896 119.274 92.2728Z" fill="#24126A"/>
<path d="M123.105 94.4911L120.603 93.0434C120.405 92.9266 120.061 92.9383 119.845 93.0667L119.076 93.5162C118.86 93.6446 118.842 93.8431 119.047 93.9599L121.548 95.4076C121.746 95.5243 122.09 95.5126 122.306 95.3842L123.076 94.9347C123.291 94.8063 123.309 94.6078 123.105 94.4911Z" fill="#24126A"/>
<path d="M92.8426 72.6649L90.3411 71.2172C90.1428 71.1005 89.7988 71.1121 89.5831 71.2406L87.2449 72.6065C87.0291 72.7349 87.0117 72.9334 87.2157 73.0502L89.7172 74.4979C89.9154 74.6146 90.2595 74.6029 90.4752 74.4745L92.8134 73.1085C93.0291 72.9801 93.0466 72.7817 92.8426 72.6649Z" fill="#24126A"/>
<path d="M96.7084 74.9007L94.2069 73.453C94.0087 73.3363 93.6647 73.348 93.4489 73.4764L91.1107 74.8424C90.895 74.9708 90.8775 75.1693 91.0816 75.286L93.583 76.7337C93.7813 76.8505 94.1253 76.8388 94.3411 76.7104L96.6792 75.3444C96.9008 75.216 96.9125 75.0175 96.7084 74.9007Z" fill="#24126A"/>
<path d="M100.58 77.1363L98.0786 75.6886C97.8804 75.5719 97.5364 75.5836 97.3206 75.712L94.9824 77.078C94.7667 77.2064 94.7492 77.4049 94.9533 77.5216L97.4547 78.9693C97.653 79.086 97.997 79.0744 98.2128 78.946L100.551 77.58C100.767 77.4516 100.778 77.2531 100.58 77.1363Z" fill="#24126A"/>
<path d="M104.446 79.3722L101.944 77.9245C101.746 77.8077 101.402 77.8194 101.186 77.9478L98.8483 79.3138C98.6325 79.4422 98.615 79.6407 98.8191 79.7574L101.321 81.2051C101.519 81.3219 101.863 81.3102 102.079 81.1818L104.417 79.8158C104.633 79.6874 104.644 79.4889 104.446 79.3722Z" fill="#24126A"/>
<path d="M108.312 81.6078L105.81 80.1601C105.612 80.0433 105.268 80.055 105.052 80.1834L102.714 81.5494C102.499 81.6778 102.481 81.8763 102.685 81.993L105.187 83.4407C105.385 83.5575 105.729 83.5458 105.945 83.4174L108.283 82.0514C108.498 81.9172 108.51 81.7245 108.312 81.6078Z" fill="#24126A"/>
<path d="M112.178 83.8378L109.676 82.3901C109.478 82.2733 109.134 82.285 108.918 82.4134L106.58 83.7794C106.364 83.9078 106.347 84.1063 106.551 84.223L109.052 85.6707C109.251 85.7875 109.595 85.7758 109.81 85.6474L112.149 84.2814C112.364 84.153 112.376 83.9545 112.178 83.8378Z" fill="#24126A"/>
<path d="M116.044 86.0736L113.542 84.6259C113.344 84.5092 113 84.5208 112.784 84.6492L110.446 86.0152C110.23 86.1436 110.213 86.3421 110.417 86.4589L112.918 87.9066C113.116 88.0233 113.461 88.0116 113.676 87.8832L116.014 86.5172C116.23 86.3888 116.242 86.1903 116.044 86.0736Z" fill="#24126A"/>
<path d="M119.91 88.3092L117.408 86.8615C117.21 86.7447 116.866 86.7564 116.65 86.8848L114.312 88.2508C114.096 88.3792 114.079 88.5777 114.283 88.6945L116.784 90.1421C116.982 90.2589 117.326 90.2472 117.542 90.1188L119.88 88.7528C120.096 88.6244 120.108 88.4259 119.91 88.3092Z" fill="#24126A"/>
<path d="M123.775 90.545L121.274 89.0973C121.076 88.9806 120.732 88.9923 120.516 89.1207L118.178 90.4866C117.962 90.6151 117.945 90.8136 118.149 90.9303L120.65 92.378C120.848 92.4947 121.192 92.4831 121.408 92.3546L123.746 90.9887C123.962 90.8602 123.974 90.6618 123.775 90.545Z" fill="#24126A"/>
<path d="M92.6618 60.2019L85.2915 55.9406C85.0933 55.8238 84.7493 55.8355 84.5335 55.9639L82.1953 57.3299C81.9796 57.4583 81.9621 57.6568 82.1662 57.7736L89.5423 62.0349C89.7405 62.1517 90.0845 62.14 90.3003 62.0116L92.6385 60.6456C92.8484 60.5113 92.8659 60.3129 92.6618 60.2019Z" fill="#24126A"/>
<path d="M140.16 87.6497L132.79 83.3884C132.592 83.2716 132.248 83.2833 132.032 83.4117L129.694 84.7777C129.478 84.9061 129.461 85.1046 129.665 85.2213L137.035 89.4827C137.233 89.5994 137.577 89.5877 137.793 89.4593L140.131 88.0933C140.347 87.9649 140.359 87.7664 140.16 87.6497Z" fill="#24126A"/>
<path d="M132.988 78.8351L130.487 77.3874C130.289 77.2706 129.944 77.2823 129.729 77.4107L126.947 79.0394C126.732 79.1678 126.714 79.3663 126.918 79.483L129.42 80.9307C129.618 81.0475 129.962 81.0358 130.178 80.9074L132.959 79.2787C133.175 79.1444 133.192 78.946 132.988 78.8351Z" fill="#24126A"/>
<path d="M104.913 62.6011L100.907 60.2895C100.708 60.1727 100.364 60.1844 100.149 60.3128L97.3673 61.9415C97.1516 62.0699 97.1341 62.2684 97.3382 62.3851L101.344 64.6968C101.542 64.8135 101.886 64.8018 102.102 64.6734L104.883 63.0448C105.099 62.9163 105.117 62.7179 104.913 62.6011Z" fill="#24126A"/>
<path d="M129.262 76.6809L125.257 74.3693C125.058 74.2526 124.714 74.2642 124.499 74.3927L121.717 76.0213C121.501 76.1497 121.484 76.3482 121.688 76.465L125.694 78.7766C125.892 78.8933 126.236 78.8817 126.452 78.7532L129.233 77.1246C129.449 76.9903 129.466 76.7977 129.262 76.6809Z" fill="#24126A"/>
<path d="M110.493 65.8291L106.487 63.5175C106.289 63.4008 105.944 63.4124 105.729 63.5409L102.947 65.1695C102.732 65.2979 102.714 65.4964 102.918 65.6132L106.924 67.9248C107.122 68.0415 107.466 68.0299 107.682 67.9014L110.463 66.2728C110.679 66.1444 110.691 65.9459 110.493 65.8291Z" fill="#24126A"/>
<path d="M102.942 65.6191L120.347 75.6829C120.563 75.8055 120.901 75.8113 121.105 75.6946L123.945 74.0367C124.149 73.92 124.137 73.7215 123.921 73.5931L106.516 63.5293L102.942 65.6191Z" fill="#24126A"/>
<path d="M136.213 82.7754L139 84.3865C139.163 84.4799 139.443 84.4741 139.624 84.369L140.761 83.7035C140.942 83.5985 140.953 83.435 140.784 83.3416L137.997 81.7305C137.834 81.6371 137.554 81.6429 137.373 81.748L136.236 82.4135C136.061 82.5127 136.05 82.6762 136.213 82.7754Z" fill="#24126A"/>
<path d="M132.347 80.5395L135.134 82.1507C135.297 82.2441 135.577 82.2382 135.758 82.1332L136.895 81.4677C137.076 81.3626 137.087 81.1992 136.918 81.1058L134.131 79.4946C133.968 79.4012 133.688 79.4071 133.507 79.5122L132.37 80.1776C132.189 80.2827 132.178 80.4403 132.347 80.5395Z" fill="#24126A"/>
<path d="M134.201 83.9487L136.988 85.5599C137.152 85.6533 137.431 85.6474 137.612 85.5423L138.749 84.8769C138.93 84.7718 138.942 84.6084 138.773 84.515L135.985 82.9038C135.822 82.8104 135.542 82.8163 135.361 82.9213L134.224 83.5868C134.049 83.6919 134.038 83.8553 134.201 83.9487Z" fill="#24126A"/>
</g>
</g>
</g>
<g opacity="0.8">
<path d="M37.3265 86.1669L34.8483 84.7309C34.6501 84.6142 34.6734 84.4157 34.9066 84.2814L37.8338 82.5886C38.0612 82.4543 38.411 82.4426 38.6093 82.5535L41.0874 83.9896C41.2856 84.1063 41.2623 84.3048 41.0291 84.439L38.102 86.1319C37.8746 86.272 37.5247 86.2837 37.3265 86.1669Z" fill="#24126A"/>
<path d="M41.1574 88.3793L38.6793 86.9433C38.481 86.8266 38.5043 86.6281 38.7376 86.4938L41.6647 84.801C41.8921 84.6667 42.2419 84.655 42.4402 84.7659L44.9183 86.2019C45.1166 86.3187 45.0933 86.5172 44.86 86.6514L41.9329 88.3443C41.7055 88.4844 41.3557 88.4961 41.1574 88.3793Z" fill="#24126A"/>
<path d="M44.9825 90.5976L42.5043 89.1616C42.3061 89.0448 42.3294 88.8463 42.5627 88.7121L45.4898 87.0192C45.7172 86.885 46.067 86.8733 46.2653 86.9842L48.7434 88.4202C48.9417 88.537 48.9183 88.7354 48.6851 88.8697L45.758 90.5626C45.5306 90.6968 45.1866 90.7085 44.9825 90.5976Z" fill="#24126A"/>
<path d="M50.2828 88.7644L47.8046 87.3342C47.6064 87.2175 47.6297 87.019 47.8629 86.8847L50.3178 85.4662C50.5452 85.332 50.895 85.3203 51.0933 85.4312L53.5714 86.8672C53.7696 86.984 53.7463 87.1825 53.5131 87.3167L51.0583 88.7352C50.825 88.8695 50.481 88.8812 50.2828 88.7644Z" fill="#24126A"/>
<path d="M54.1078 90.9827L51.6297 89.5525C51.4315 89.4357 51.4548 89.2373 51.688 89.103L54.1428 87.6845C54.3702 87.5502 54.7201 87.5386 54.9183 87.6495L57.3965 89.0855C57.5947 89.2022 57.5714 89.4007 57.3382 89.535L54.8833 90.9535C54.6559 91.0819 54.3061 91.0936 54.1078 90.9827Z" fill="#24126A"/>
<path d="M57.9386 93.1951L55.4605 91.7649C55.2623 91.6481 55.2856 91.4497 55.5188 91.3154L57.9736 89.8969C58.201 89.7626 58.5509 89.751 58.7491 89.8619L61.2273 91.2921C61.4255 91.4088 61.4022 91.6073 61.169 91.7415L58.7142 93.16C58.4868 93.2943 58.1369 93.306 57.9386 93.1951Z" fill="#24126A"/>
<path d="M61.7696 95.4075L59.2915 93.9714C59.0932 93.8547 59.1165 93.6562 59.3498 93.522L61.8046 92.1034C62.032 91.9692 62.3818 91.9575 62.5801 92.0684L65.0582 93.4986C65.2565 93.6154 65.2331 93.8138 64.9999 93.9481L62.5451 95.3666C62.3119 95.5067 61.9678 95.5242 61.7696 95.4075Z" fill="#24126A"/>
<path d="M65.5947 97.6199L63.1165 96.1838C62.9183 96.0671 62.9416 95.8686 63.1748 95.7344L65.6296 94.3159C65.857 94.1816 66.2069 94.1699 66.4052 94.2808L68.8833 95.7168C69.0815 95.8336 69.0582 96.0321 68.825 96.1663L66.3702 97.5848C66.1428 97.7191 65.7929 97.7366 65.5947 97.6199Z" fill="#24126A"/>
<path d="M69.4256 99.8323L66.9475 98.3962C66.7492 98.2795 66.7725 98.081 67.0058 97.9468L69.4606 96.5283C69.688 96.394 70.0378 96.3823 70.2361 96.4932L72.7142 97.9292C72.9125 98.046 72.8891 98.2445 72.6559 98.3787L70.2011 99.7972C69.9737 99.9315 69.6238 99.949 69.4256 99.8323Z" fill="#24126A"/>
<path d="M73.2565 102.045L70.7784 100.609C70.5801 100.492 70.6035 100.293 70.8367 100.159L73.2915 98.7407C73.5189 98.6064 73.8688 98.5947 74.067 98.7056L76.5452 100.136C76.7434 100.253 76.7201 100.451 76.4868 100.585L74.032 102.004C73.7988 102.144 73.4548 102.161 73.2565 102.045Z" fill="#24126A"/>
<path d="M77.0816 104.257L74.6035 102.821C74.4052 102.704 74.4285 102.506 74.6618 102.372L77.1166 100.953C77.344 100.819 77.6938 100.807 77.8921 100.918L80.3702 102.354C80.5685 102.471 80.5451 102.669 80.3119 102.804L77.8571 104.222C77.6297 104.362 77.2798 104.374 77.0816 104.257Z" fill="#24126A"/>
<path d="M80.9125 106.469L78.4344 105.039C78.2361 104.923 78.2595 104.724 78.4927 104.59L80.9475 103.171C81.1749 103.037 81.5248 103.025 81.723 103.136L84.2012 104.572C84.3994 104.689 84.3761 104.888 84.1429 105.022L81.688 106.44C81.4606 106.575 81.1108 106.586 80.9125 106.469Z" fill="#24126A"/>
<path d="M84.7433 108.688L82.2652 107.252C82.067 107.135 82.0903 106.936 82.3235 106.802L84.7783 105.384C85.0057 105.249 85.3556 105.238 85.5538 105.349L88.032 106.785C88.2302 106.901 88.2069 107.1 87.9737 107.234L85.5188 108.653C85.2856 108.787 84.9416 108.799 84.7433 108.688Z" fill="#24126A"/>
<path d="M55.9212 87.7197L53.4431 86.2837C53.2448 86.1669 53.2681 85.9685 53.5014 85.8342L55.9562 84.4157C56.1836 84.2814 56.5334 84.2698 56.7317 84.3807L59.2098 85.8167C59.4081 85.9334 59.3847 86.1319 59.1515 86.2662L56.6967 87.6847C56.4693 87.819 56.1194 87.8365 55.9212 87.7197Z" fill="#24126A"/>
<path d="M52.0379 85.4722L49.5598 84.0361C49.3615 83.9194 49.3848 83.7209 49.6181 83.5867L52.0729 82.1681C52.3003 82.0339 52.6501 82.0222 52.8484 82.1331L55.3265 83.5691C55.5248 83.6859 55.5014 83.8844 55.2682 84.0186L52.8134 85.4371C52.5802 85.5714 52.2361 85.5889 52.0379 85.4722Z" fill="#24126A"/>
<path d="M48.1428 83.2247L42.8017 80.1367C42.6035 80.02 42.6268 79.8215 42.86 79.6872L45.3148 78.2687C45.5422 78.1345 45.8921 78.1228 46.0903 78.2337L51.4314 81.3217C51.6297 81.4385 51.6064 81.637 51.3731 81.7712L48.9183 83.1897C48.6909 83.324 48.3411 83.3415 48.1428 83.2247Z" fill="#24126A"/>
<path d="M50.8659 80.4869L46.5335 77.9827C46.3353 77.8659 46.3586 77.6675 46.5918 77.5332L49.0466 76.1147C49.274 75.9804 49.6239 75.9687 49.8221 76.0797L54.1545 78.5839C54.3527 78.7007 54.3294 78.8992 54.0962 79.0334L51.6414 80.4519C51.414 80.5862 51.0641 80.6037 50.8659 80.4869Z" fill="#24126A"/>
<path d="M59.7521 89.9321L57.274 88.4961C57.0757 88.3794 57.0991 88.1809 57.3323 88.0466L59.7871 86.6281C60.0145 86.4938 60.3644 86.4822 60.5626 86.5931L63.0408 88.0233C63.239 88.14 63.2157 88.3385 62.9824 88.4727L60.5276 89.8913C60.3002 90.0314 59.9504 90.0489 59.7521 89.9321Z" fill="#24126A"/>
<path d="M63.5831 92.1445L61.1049 90.7085C60.9067 90.5917 60.93 90.3933 61.1632 90.259L63.618 88.8405C63.8455 88.7062 64.1953 88.6946 64.3936 88.8055L66.8717 90.2415C67.0699 90.3582 67.0466 90.5567 66.8134 90.691L64.3586 92.1095C64.1253 92.2437 63.7813 92.2613 63.5831 92.1445Z" fill="#24126A"/>
<path d="M67.4081 94.3567L64.93 92.9265C64.7317 92.8098 64.7551 92.6113 64.9883 92.477L67.4431 91.0585C67.6705 90.9243 68.0204 90.9126 68.2186 91.0235L70.6968 92.4595C70.895 92.5763 70.8717 92.7747 70.6385 92.909L68.1836 94.3275C67.9562 94.4618 67.6064 94.4734 67.4081 94.3567Z" fill="#24126A"/>
<path d="M71.2389 96.5693L68.7608 95.1333C68.5626 95.0166 68.5859 94.8181 68.8191 94.6838L71.2739 93.2653C71.5013 93.1311 71.8512 93.1194 72.0494 93.2303L74.5276 94.6663C74.7258 94.7831 74.7025 94.9815 74.4693 95.1158L72.0145 96.5343C71.787 96.6744 71.4372 96.6861 71.2389 96.5693Z" fill="#24126A"/>
<path d="M75.064 98.7873L72.5859 97.3513C72.3876 97.2346 72.411 97.0361 72.6442 96.9018L75.099 95.4833C75.3264 95.3491 75.6763 95.3374 75.8745 95.4483L78.3526 96.8843C78.5509 97.0011 78.5276 97.1996 78.2943 97.3338L75.8395 98.7523C75.6121 98.8866 75.2681 98.8982 75.064 98.7873Z" fill="#24126A"/>
<path d="M78.8949 101L76.4168 99.5637C76.2186 99.447 76.2419 99.2485 76.4751 99.1142L78.9299 97.6957C79.1573 97.5615 79.5072 97.5498 79.7054 97.6607L82.1836 99.0967C82.3818 99.2135 82.3585 99.4119 82.1253 99.5462L79.6705 100.965C79.4431 101.099 79.0932 101.111 78.8949 101Z" fill="#24126A"/>
<path d="M82.7259 103.212L80.2477 101.782C80.0495 101.665 80.0728 101.467 80.3061 101.332L82.7609 99.914C82.9883 99.7797 83.3381 99.7681 83.5364 99.879L86.0145 101.315C86.2128 101.432 86.1894 101.63 85.9562 101.764L83.5014 103.183C83.274 103.311 82.9241 103.329 82.7259 103.212Z" fill="#24126A"/>
<path d="M86.551 105.425L84.0728 103.989C83.8746 103.872 83.8979 103.673 84.1311 103.539L86.5859 102.121C86.8133 101.986 87.1632 101.975 87.3615 102.086L89.8396 103.516C90.0378 103.632 90.0145 103.831 89.7813 103.965L87.3265 105.384C87.0991 105.524 86.755 105.541 86.551 105.425Z" fill="#24126A"/>
<path d="M90.3819 107.637L87.9038 106.201C87.7055 106.084 87.7288 105.886 87.9621 105.751L90.4169 104.333C90.6443 104.199 90.9941 104.187 91.1924 104.298L93.6705 105.728C93.8688 105.845 93.8454 106.043 93.6122 106.178L91.1574 107.596C90.93 107.736 90.5801 107.754 90.3819 107.637Z" fill="#24126A"/>
<path d="M97.1924 111.572L91.7813 108.443C91.5831 108.326 91.6064 108.127 91.8396 107.993L94.2944 106.575C94.5218 106.44 94.8717 106.429 95.0699 106.54L100.481 109.668C100.679 109.785 100.656 109.984 100.423 110.118L97.9679 111.536C97.7347 111.671 97.3906 111.688 97.1924 111.572Z" fill="#24126A"/>
<path d="M104.644 107.264L100.079 104.625C99.8804 104.508 99.9037 104.31 100.137 104.176L102.592 102.757C102.819 102.623 103.169 102.611 103.367 102.722L107.933 105.361C108.131 105.477 108.108 105.676 107.875 105.81L105.42 107.229C105.192 107.363 104.843 107.38 104.644 107.264Z" fill="#24126A"/>
<path d="M66.4577 89.5L63.9796 88.064C63.7813 87.9472 63.8046 87.7487 64.0379 87.6145L66.4927 86.196C66.7201 86.0617 67.0699 86.05 67.2682 86.161L69.7463 87.597C69.9446 87.7137 69.9212 87.9122 69.688 88.0465L67.2332 89.465C67.0058 89.5992 66.6559 89.6167 66.4577 89.5Z" fill="#24126A"/>
<path d="M62.5335 87.2292L60.0554 85.7932C59.8571 85.6765 59.8804 85.478 60.1137 85.3437L62.5685 83.9252C62.7959 83.791 63.1457 83.7793 63.344 83.8902L65.8221 85.3204C66.0204 85.4371 65.9971 85.6356 65.7638 85.7699L63.309 87.1884C63.0816 87.3343 62.7318 87.346 62.5335 87.2292Z" fill="#24126A"/>
<path d="M58.6093 84.9644L56.1312 83.5342C55.9329 83.4174 55.9562 83.219 56.1895 83.0847L58.6443 81.6662C58.8717 81.5319 59.2216 81.5203 59.4198 81.6312L61.8979 83.0672C62.0962 83.1839 62.0729 83.3824 61.8396 83.5167L59.3848 84.9352C59.1574 85.0636 58.8076 85.0811 58.6093 84.9644Z" fill="#24126A"/>
<path d="M54.6851 82.6936L52.207 81.2634C52.0087 81.1467 52.0321 80.9482 52.2653 80.814L54.7201 79.3954C54.9475 79.2612 55.2974 79.2495 55.4956 79.3604L57.9737 80.7964C58.172 80.9132 58.1487 81.1117 57.9154 81.2459L55.4606 82.6644C55.2332 82.7987 54.8834 82.8104 54.6851 82.6936Z" fill="#24126A"/>
<path d="M70.2828 91.7124L67.8046 90.2764C67.6064 90.1596 67.6297 89.9612 67.8629 89.8269L70.3177 88.4084C70.5452 88.2741 70.895 88.2624 71.0933 88.3734L73.5714 89.8094C73.7696 89.9261 73.7463 90.1246 73.5131 90.2589L71.0583 91.6774C70.8309 91.8116 70.4868 91.8291 70.2828 91.7124Z" fill="#24126A"/>
<path d="M74.1137 93.9248L71.6356 92.4946C71.4373 92.3779 71.4606 92.1794 71.6939 92.0451L74.1487 90.6266C74.3761 90.4924 74.7259 90.4807 74.9242 90.5916L77.4023 92.0276C77.6006 92.1444 77.5773 92.3429 77.344 92.4771L74.8892 93.8956C74.6618 94.0241 74.312 94.0416 74.1137 93.9248Z" fill="#24126A"/>
<path d="M77.9445 96.1372L75.4664 94.7012C75.2681 94.5844 75.2915 94.386 75.5247 94.2517L77.9795 92.8332C78.2069 92.6989 78.5568 92.6873 78.755 92.7982L81.2331 94.2342C81.4314 94.3509 81.4081 94.5494 81.1748 94.6837L78.72 96.1022C78.4926 96.2423 78.1428 96.2539 77.9445 96.1372Z" fill="#24126A"/>
<path d="M81.7696 98.3496L79.2914 96.9136C79.0932 96.7968 79.1165 96.5984 79.3498 96.4641L81.8046 95.0456C82.032 94.9113 82.3818 94.8996 82.5801 95.0106L85.0582 96.4466C85.2565 96.5633 85.2331 96.7618 84.9999 96.8961L82.5451 98.3146C82.3177 98.4547 81.9737 98.4663 81.7696 98.3496Z" fill="#24126A"/>
<path d="M85.6005 100.568L83.1224 99.1318C82.9241 99.0151 82.9475 98.8166 83.1807 98.6824L85.6355 97.2639C85.8629 97.1296 86.2128 97.1179 86.411 97.2288L88.8891 98.659C89.0874 98.7758 89.0641 98.9742 88.8308 99.1085L86.376 100.527C86.1486 100.667 85.7988 100.679 85.6005 100.568Z" fill="#24126A"/>
<path d="M89.4314 102.78L86.9533 101.344C86.7551 101.227 86.7784 101.029 87.0116 100.895L89.4664 99.4763C89.6938 99.342 90.0437 99.3303 90.2419 99.4412L92.7201 100.877C92.9183 100.994 92.895 101.192 92.6618 101.327L90.207 102.745C89.9796 102.879 89.6297 102.891 89.4314 102.78Z" fill="#24126A"/>
<path d="M93.2565 104.993L90.7784 103.557C90.5801 103.44 90.6035 103.241 90.8367 103.107L93.2915 101.689C93.5189 101.554 93.8688 101.543 94.067 101.654L96.5452 103.09C96.7434 103.206 96.7201 103.405 96.4868 103.539L94.032 104.958C93.8046 105.092 93.4606 105.109 93.2565 104.993Z" fill="#24126A"/>
<path d="M97.0875 107.205L94.6093 105.769C94.4111 105.652 94.4344 105.454 94.6676 105.32L97.1224 103.901C97.3498 103.767 97.6997 103.755 97.8979 103.866L100.376 105.296C100.574 105.413 100.551 105.611 100.318 105.746L97.863 107.164C97.6356 107.304 97.2857 107.322 97.0875 107.205Z" fill="#24126A"/>
<path d="M100.918 109.417L98.4401 107.981C98.2419 107.865 98.2652 107.666 98.4984 107.532L100.953 106.113C101.181 105.979 101.531 105.968 101.729 106.078L104.207 107.514C104.405 107.631 104.382 107.83 104.149 107.964L101.694 109.382C101.466 109.517 101.117 109.534 100.918 109.417Z" fill="#24126A"/>
<path d="M64.4401 84.0244L61.962 82.5884C61.7637 82.4716 61.7871 82.2732 62.0203 82.1389L64.4751 80.7204C64.7025 80.5861 65.0524 80.5745 65.2506 80.6854L67.7288 82.1214C67.927 82.2381 67.9037 82.4366 67.6704 82.5709L65.2156 83.9894C64.9882 84.1236 64.6384 84.1411 64.4401 84.0244Z" fill="#24126A"/>
<path d="M60.6326 81.8237L58.1545 80.3877C57.9562 80.271 57.9796 80.0725 58.2128 79.9382L60.6676 78.5197C60.895 78.3854 61.2449 78.3738 61.4431 78.4847L63.9212 79.9207C64.1195 80.0375 64.0962 80.2359 63.8629 80.3702L61.4081 81.7887C61.1749 81.923 60.8309 81.9405 60.6326 81.8237Z" fill="#24126A"/>
<path d="M56.8191 79.623L54.341 78.1929C54.1428 78.0761 54.1661 77.8776 54.3993 77.7434L56.8541 76.3249C57.0815 76.1906 57.4314 76.1789 57.6296 76.2899L60.1078 77.7259C60.306 77.8426 60.2827 78.0411 60.0495 78.1754L57.5947 79.5939C57.3672 79.7223 57.0174 79.734 56.8191 79.623Z" fill="#24126A"/>
<path d="M53.0117 77.4165L50.5335 75.9863C50.3353 75.8696 50.3586 75.6711 50.5918 75.5368L53.0466 74.1183C53.274 73.9841 53.6239 73.9724 53.8221 74.0833L56.3003 75.5135C56.4985 75.6302 56.4752 75.8287 56.242 75.963L53.7872 77.3815C53.5598 77.5216 53.2099 77.5333 53.0117 77.4165Z" fill="#24126A"/>
<path d="M56.93 75.1574L54.4519 73.7272C54.2536 73.6105 54.2769 73.412 54.5102 73.2777L55.3206 72.8107C55.5481 72.6765 55.8979 72.6648 56.0962 72.7757L58.5743 74.2117C58.7725 74.3285 58.7492 74.5269 58.516 74.6612L57.7055 75.1282C57.4781 75.2566 57.1282 75.2683 56.93 75.1574Z" fill="#24126A"/>
<path d="M61.8979 78.0294L59.4197 76.5934C59.2215 76.4767 59.2448 76.2782 59.4781 76.1439L60.2885 75.6769C60.516 75.5427 60.8658 75.531 61.0641 75.6419L63.5422 77.0779C63.7404 77.1947 63.7171 77.3931 63.4839 77.5274L62.6734 77.9944C62.446 78.1287 62.102 78.1462 61.8979 78.0294Z" fill="#24126A"/>
<path d="M65.6938 80.2243L63.2156 78.7941C63.0174 78.6773 63.0407 78.4789 63.2739 78.3446L64.0845 77.8776C64.3119 77.7434 64.6617 77.7317 64.86 77.8426L67.3381 79.2786C67.5363 79.3954 67.513 79.5938 67.2798 79.7281L66.4693 80.1951C66.2419 80.3235 65.892 80.3352 65.6938 80.2243Z" fill="#24126A"/>
<path d="M69.4897 82.4135L67.0115 80.9775C66.8133 80.8607 66.8366 80.6622 67.0699 80.528L67.8803 80.061C68.1078 79.9267 68.4576 79.915 68.6559 80.0259L71.134 81.462C71.3322 81.5787 71.3089 81.7772 71.0757 81.9115L70.2652 82.3784C70.0378 82.5127 69.6879 82.5302 69.4897 82.4135Z" fill="#24126A"/>
<path d="M73.2798 84.6083L70.8017 83.1781C70.6034 83.0614 70.6268 82.8629 70.86 82.7287L71.6705 82.2617C71.8979 82.1274 72.2478 82.1157 72.446 82.2266L74.9242 83.6626C75.1224 83.7794 75.0991 83.9779 74.8658 84.1121L74.0553 84.5791C73.8279 84.7076 73.4839 84.7251 73.2798 84.6083Z" fill="#24126A"/>
<path d="M94.4634 96.8495L91.9853 95.4135C91.787 95.2967 91.8104 95.0983 92.0436 94.964L92.8541 94.497C93.0815 94.3627 93.4314 94.3511 93.6296 94.462L96.1077 95.898C96.306 96.0147 96.2827 96.2132 96.0494 96.3475L95.2389 96.8145C95.0115 96.9487 94.6617 96.9663 94.4634 96.8495Z" fill="#24126A"/>
<path d="M98.2594 99.0443L95.7813 97.6083C95.5831 97.4916 95.6064 97.2931 95.8396 97.1588L96.6501 96.6918C96.8775 96.5576 97.2274 96.5459 97.4256 96.6568L99.9038 98.0928C100.102 98.2096 100.079 98.408 99.8455 98.5423L99.035 99.0093C98.8017 99.1436 98.4577 99.1611 98.2594 99.0443Z" fill="#24126A"/>
<path d="M102.049 101.233L99.5714 99.7973C99.3731 99.6805 99.3964 99.4821 99.6297 99.3478L100.44 98.8808C100.668 98.7465 101.017 98.7349 101.216 98.8458L103.694 100.282C103.892 100.399 103.869 100.597 103.635 100.731L102.825 101.198C102.598 101.338 102.248 101.35 102.049 101.233Z" fill="#24126A"/>
<path d="M105.845 103.428L103.367 101.998C103.169 101.881 103.192 101.683 103.426 101.548L104.236 101.081C104.463 100.947 104.813 100.936 105.012 101.046L107.49 102.482C107.688 102.599 107.665 102.798 107.431 102.932L106.621 103.399C106.393 103.527 106.044 103.545 105.845 103.428Z" fill="#24126A"/>
<path d="M68.271 86.2368L65.7929 84.8008C65.5947 84.684 65.618 84.4856 65.8512 84.3513L68.306 82.9328C68.5334 82.7985 68.8833 82.7869 69.0815 82.8978L71.5597 84.3338C71.7579 84.4505 71.7346 84.649 71.5014 84.7833L69.0466 86.2018C68.8133 86.3419 68.4693 86.3535 68.271 86.2368Z" fill="#24126A"/>
<path d="M72.0961 88.4492L69.618 87.0132C69.4197 86.8964 69.4431 86.698 69.6763 86.5637L72.1311 85.1452C72.3585 85.0109 72.7084 84.9993 72.9066 85.1102L75.3847 86.5404C75.583 86.6571 75.5597 86.8556 75.3264 86.9898L72.8716 88.4083C72.6442 88.5543 72.2944 88.566 72.0961 88.4492Z" fill="#24126A"/>
<path d="M75.9271 90.6675L73.4489 89.2314C73.2507 89.1147 73.274 88.9162 73.5072 88.782L75.962 87.3635C76.1894 87.2292 76.5393 87.2175 76.7376 87.3284L79.2157 88.7644C79.4139 88.8812 79.3906 89.0797 79.1574 89.2139L76.7026 90.6324C76.4752 90.7667 76.1253 90.7784 75.9271 90.6675Z" fill="#24126A"/>
<path d="M79.758 92.8799L77.2799 91.4497C77.0816 91.333 77.1049 91.1345 77.3382 91.0002L79.793 89.5817C80.0204 89.4475 80.3702 89.4358 80.5685 89.5467L83.0466 90.9827C83.2449 91.0995 83.2215 91.2979 82.9883 91.4322L80.5335 92.8507C80.3003 92.9791 79.9562 92.9908 79.758 92.8799Z" fill="#24126A"/>
<path d="M83.5831 95.0923L81.1049 93.6621C80.9067 93.5454 80.93 93.3469 81.1632 93.2126L83.6181 91.7941C83.8455 91.6599 84.1953 91.6482 84.3936 91.7591L86.8717 93.1951C87.0699 93.3119 87.0466 93.5103 86.8134 93.6446L84.3586 95.0631C84.1312 95.1915 83.7813 95.209 83.5831 95.0923Z" fill="#24126A"/>
<path d="M87.414 97.3047L84.9359 95.8687C84.7376 95.7519 84.7609 95.5534 84.9942 95.4192L87.449 94.0007C87.6764 93.8664 88.0262 93.8547 88.2245 93.9656L90.7026 95.3958C90.9009 95.5126 90.8775 95.711 90.6443 95.8453L88.1895 97.2638C87.9621 97.4039 87.6122 97.4214 87.414 97.3047Z" fill="#24126A"/>
<path d="M91.2448 99.5171L88.7667 98.0869C88.5684 97.9702 88.5917 97.7717 88.825 97.6374L91.2798 96.2189C91.5072 96.0847 91.857 96.073 92.0553 96.1839L94.5334 97.6199C94.7317 97.7367 94.7084 97.9351 94.4751 98.0694L92.0203 99.4879C91.7871 99.6163 91.4431 99.6338 91.2448 99.5171Z" fill="#24126A"/>
<path d="M95.0699 101.729L92.5917 100.293C92.3935 100.177 92.4168 99.9782 92.65 99.844L95.1049 98.4255C95.3323 98.2912 95.6821 98.2795 95.8804 98.3904L98.3585 99.8265C98.5568 99.9432 98.5334 100.142 98.3002 100.276L95.8454 101.694C95.618 101.829 95.2681 101.846 95.0699 101.729Z" fill="#24126A"/>
<path d="M98.9008 103.942L96.4227 102.506C96.2244 102.389 96.2477 102.191 96.481 102.056L98.9358 100.638C99.1632 100.504 99.5131 100.492 99.7113 100.603L102.189 102.039C102.388 102.156 102.364 102.354 102.131 102.488L99.6763 103.907C99.4489 104.047 99.0991 104.059 98.9008 103.942Z" fill="#24126A"/>
<path d="M46.376 86.5113L39.0758 82.2908C38.8775 82.174 38.9008 81.9755 39.1341 81.8413L41.5889 80.4228C41.8163 80.2885 42.1661 80.2769 42.3644 80.3878L49.6647 84.6082C49.8629 84.725 49.8396 84.9235 49.6064 85.0577L47.1516 86.4762C46.9241 86.6105 46.5801 86.628 46.376 86.5113Z" fill="#24126A"/>
<path d="M93.4197 113.702L86.1194 109.482C85.9212 109.365 85.9445 109.166 86.1778 109.032L88.6326 107.614C88.86 107.479 89.2098 107.468 89.4081 107.579L96.7084 111.799C96.9066 111.916 96.8833 112.114 96.6501 112.249L94.1953 113.667C93.962 113.801 93.618 113.813 93.4197 113.702Z" fill="#24126A"/>
<path d="M78.1078 109.738L75.6297 108.302C75.4315 108.186 75.4548 107.987 75.688 107.853L78.6151 106.16C78.8425 106.026 79.1924 106.014 79.3906 106.125L81.8688 107.555C82.067 107.672 82.0437 107.87 81.8105 108.005L78.8833 109.698C78.6501 109.838 78.3061 109.855 78.1078 109.738Z" fill="#24126A"/>
<path d="M50.3003 93.6681L46.3353 91.374C46.137 91.2572 46.1603 91.0587 46.3936 90.9245L49.3207 89.2316C49.5481 89.0974 49.898 89.0857 50.0962 89.1966L54.0612 91.4907C54.2595 91.6075 54.2361 91.8059 54.0029 91.9402L51.0758 93.6331C50.8484 93.7673 50.4985 93.7849 50.3003 93.6681Z" fill="#24126A"/>
<path d="M74.4169 107.608L70.4519 105.314C70.2536 105.197 70.2769 104.998 70.5102 104.864L73.4373 103.171C73.6647 103.037 74.0145 103.025 74.2128 103.136L78.1778 105.43C78.376 105.547 78.3527 105.746 78.1195 105.88L75.1924 107.573C74.965 107.707 74.6151 107.719 74.4169 107.608Z" fill="#24126A"/>
<path d="M55.8221 96.861L51.8571 94.5668C51.6589 94.4501 51.6822 94.2516 51.9154 94.1174L54.8425 92.4245C55.0699 92.2902 55.4198 92.2786 55.6181 92.3895L59.5831 94.6836C59.7813 94.8003 59.758 94.9988 59.5248 95.1331L56.5976 96.8259C56.3702 96.9602 56.0204 96.9777 55.8221 96.861Z" fill="#24126A"/>
<path d="M55.6472 92.4128L72.8892 102.377C73.1049 102.5 73.1049 102.704 72.8892 102.827L69.9037 104.549C69.688 104.672 69.344 104.672 69.1282 104.549L51.8862 94.5844L55.6472 92.4128Z" fill="#24126A"/>
<path d="M88.8075 113.749L91.5714 115.342C91.7346 115.436 91.7113 115.599 91.5247 115.71L90.3294 116.405C90.1428 116.516 89.8571 116.527 89.6938 116.434L86.93 114.84C86.7667 114.747 86.79 114.584 86.9766 114.473L88.172 113.778C88.3586 113.667 88.6443 113.655 88.8075 113.749Z" fill="#24126A"/>
<path d="M84.9474 111.519L87.7113 113.112C87.8745 113.206 87.8512 113.369 87.6646 113.48L86.4693 114.175C86.2827 114.286 85.997 114.297 85.8337 114.204L83.0699 112.61C82.9066 112.517 82.9299 112.354 83.1165 112.243L84.3119 111.548C84.4984 111.437 84.7842 111.425 84.9474 111.519Z" fill="#24126A"/>
<path d="M81.1166 109.306L83.8805 110.9C84.0437 110.993 84.0204 111.157 83.8338 111.268L82.6385 111.962C82.4519 112.073 82.1662 112.085 82.0029 111.992L79.2391 110.398C79.0758 110.305 79.0991 110.141 79.2857 110.03L80.481 109.336C80.6676 109.225 80.9533 109.213 81.1166 109.306Z" fill="#24126A"/>
<path d="M87.0583 110.299L89.8221 111.892C89.9854 111.986 89.9621 112.149 89.7755 112.26L88.5801 112.955C88.3935 113.066 88.1078 113.078 87.9446 112.984L85.1807 111.39C85.0174 111.297 85.0408 111.134 85.2274 111.023L86.4227 110.328C86.6151 110.217 86.895 110.205 87.0583 110.299Z" fill="#24126A"/>
</g>
<path d="M126.125 50.6577C125.939 50.6577 125.74 50.5993 125.548 50.4943C124.965 50.1557 124.598 49.391 124.738 48.7839C124.808 48.492 124.977 48.276 125.222 48.1651C125.49 48.0484 125.828 48.0834 126.143 48.2643C126.726 48.6029 127.093 49.3735 126.953 49.9747C126.883 50.2666 126.714 50.4826 126.469 50.5935C126.359 50.6343 126.242 50.6577 126.125 50.6577ZM125.566 48.3577C125.484 48.3577 125.402 48.3753 125.326 48.4044C125.157 48.4745 125.041 48.6321 124.994 48.8364C124.877 49.3326 125.187 49.9689 125.676 50.2549C125.915 50.395 126.16 50.4242 126.359 50.3366C126.528 50.2666 126.644 50.109 126.691 49.9047C126.808 49.4085 126.498 48.7664 126.009 48.4862C125.857 48.4044 125.705 48.3577 125.566 48.3577Z" fill="#42E8E0"/>
<path d="M129.28 52.479C129.093 52.479 128.895 52.4206 128.703 52.3155C128.119 51.977 127.752 51.2123 127.892 50.6052C127.962 50.3133 128.131 50.0973 128.376 49.9864C128.644 49.8696 128.982 49.9047 129.297 50.0856C129.88 50.4242 130.248 51.1948 130.108 51.796C130.038 52.0879 129.869 52.3039 129.624 52.4148C129.513 52.4615 129.402 52.479 129.28 52.479ZM128.72 50.1849C128.638 50.1849 128.557 50.2024 128.481 50.2316C128.312 50.3016 128.195 50.4592 128.149 50.6635C128.032 51.1597 128.341 51.796 128.831 52.082C129.07 52.2221 129.315 52.2513 129.513 52.1638C129.682 52.0937 129.799 51.9361 129.845 51.7318C129.962 51.2356 129.653 50.5935 129.163 50.3133C129.017 50.2316 128.86 50.1849 128.72 50.1849Z" fill="#42E8E0"/>
<path d="M133.134 53.5881C133.006 54.1426 132.464 54.3352 131.927 54.0259C131.385 53.7165 131.052 53.016 131.181 52.4614C131.309 51.9069 131.851 51.7142 132.388 52.0236C132.93 52.3388 133.262 53.0393 133.134 53.5881Z" fill="#42E8E0"/>
<path d="M72.5976 18.7151L70.9125 17.7402L71.0408 16.958L72.7317 17.9329L72.5976 18.7151Z" fill="#42E8E0"/>
<path d="M75.0524 20.1335L73.3673 19.1587L73.4956 18.3765L75.1865 19.3513L75.0524 20.1335Z" fill="#42E8E0"/>
<path d="M70.172 17.314L66.4694 15.1716L66.5976 14.3894L70.3003 16.5318L70.172 17.314Z" fill="#42E8E0"/>
<path d="M70.6384 32.0595L67.8104 30.425L67.9212 29.7712L70.7492 31.4057L70.6384 32.0595Z" fill="#42E8E0"/>
<path d="M73.0466 33.4547L71.6355 32.6374L71.7463 31.9836L73.1574 32.8009L73.0466 33.4547Z" fill="#42E8E0"/>
<path d="M71.2157 34.0736L70.0087 33.3789L70.1195 32.7251L71.3265 33.4198L71.2157 34.0736Z" fill="#42E8E0"/>
<path d="M73.2332 35.2411L71.8163 34.4238L71.9271 33.77L73.3382 34.5873L73.2332 35.2411Z" fill="#42E8E0"/>
<path d="M75.3091 38.1247L69.7522 34.9141L69.863 34.2603L75.414 37.4709L75.3091 38.1247Z" fill="#42E8E0"/>
<path d="M70.4927 50.9613L64.9417 47.7507L65.0524 47.0969L70.6035 50.3075L70.4927 50.9613Z" fill="#42E8E0"/>
<path d="M72.6268 52.193L71.2157 51.3757L71.3265 50.7219L72.7376 51.5392L72.6268 52.193Z" fill="#42E8E0"/>
<path d="M70.7026 37.1438L69.4956 36.4433L69.6064 35.7896L70.8134 36.49L70.7026 37.1438Z" fill="#42E8E0"/>
<path d="M72.7201 38.3055L71.3032 37.4883L71.414 36.8345L72.8251 37.6517L72.7201 38.3055Z" fill="#42E8E0"/>
<path d="M72.2944 39.7417L69.239 37.9787L69.3498 37.325L72.4052 39.0879L72.2944 39.7417Z" fill="#42E8E0"/>
<path d="M74.3353 40.9266L72.9242 40.1094L73.035 39.4556L74.4461 40.2728L74.3353 40.9266Z" fill="#42E8E0"/>
<path d="M76.3878 42.1117L74.9767 41.2944L75.0875 40.6406L76.4986 41.4579L76.3878 42.1117Z" fill="#42E8E0"/>
<path d="M79.7056 44.0264L77.0292 42.4853L77.14 41.8257L79.8163 43.3726L79.7056 44.0264Z" fill="#42E8E0"/>
<path d="M77.5889 46.1688L76.1779 45.3516L76.2828 44.6978L77.6997 45.515L77.5889 46.1688Z" fill="#42E8E0"/>
<path d="M80.9008 48.0833L78.2302 46.5364L78.341 45.8826L81.0116 47.4295L80.9008 48.0833Z" fill="#42E8E0"/>
<path d="M70.137 41.8607L68.726 41.0434L68.8367 40.3896L70.2478 41.2069L70.137 41.8607Z" fill="#42E8E0"/>
<path d="M72.1953 43.0514L70.7784 42.2341L70.8892 41.5803L72.3003 42.3976L72.1953 43.0514Z" fill="#42E8E0"/>
<path d="M75.5072 44.9661L72.8367 43.4192L72.9416 42.7654L75.618 44.3123L75.5072 44.9661Z" fill="#42E8E0"/>
<path d="M79.8513 45.795L78.4402 44.9778L78.551 44.324L79.9621 45.1412L79.8513 45.795Z" fill="#42E8E0"/>
<path d="M81.9038 46.9801L80.4927 46.1628L80.6035 45.509L82.0145 46.3263L81.9038 46.9801Z" fill="#42E8E0"/>
<path d="M85.2216 48.9007L82.5452 47.3537L82.656 46.7L85.3323 48.241L85.2216 48.9007Z" fill="#42E8E0"/>
<path d="M74.8367 53.4713L73.4257 52.654L73.5364 52.0002L74.9475 52.8175L74.8367 53.4713Z" fill="#42E8E0"/>
<path d="M78.1545 55.386L75.4781 53.8391L75.5889 53.1853L78.2653 54.7322L78.1545 55.386Z" fill="#42E8E0"/>
<path d="M69.6239 44.9312L68.2128 44.114L68.3236 43.4602L69.7346 44.2775L69.6239 44.9312Z" fill="#42E8E0"/>
<path d="M72.9416 46.8457L70.2653 45.2988L70.376 44.645L73.0524 46.1919L72.9416 46.8457Z" fill="#42E8E0"/>
<path d="M76.376 56.0399L74.965 55.2285L75.0758 54.5688L76.4868 55.3861L76.376 56.0399Z" fill="#42E8E0"/>
<path d="M79.6938 57.9602L77.0175 56.4133L77.1282 55.7595L79.8046 57.3065L79.6938 57.9602Z" fill="#42E8E0"/>
<path d="M79.5306 40.5648L78.1195 39.7475L78.2245 39.0938L79.6414 39.911L79.5306 40.5648Z" fill="#42E8E0"/>
<path d="M77.3965 39.3272L75.9796 38.51L76.0904 37.8562L77.5015 38.6734L77.3965 39.3272Z" fill="#42E8E0"/>
<path d="M82.8426 42.4793L80.172 40.9324L80.2828 40.2786L82.9533 41.8255L82.8426 42.4793Z" fill="#42E8E0"/>
<path d="M70.2594 40.2494L68.9824 39.5139L69.0932 38.8601L70.3702 39.5956L70.2594 40.2494Z" fill="#42E8E0"/>
<path d="M74.0379 42.4327L70.9417 40.6464L71.0466 39.9868L74.1486 41.7789L74.0379 42.4327Z" fill="#42E8E0"/>
<path d="M77.8163 44.6217L74.7201 42.8296L74.8309 42.1758L77.9271 43.9679L77.8163 44.6217Z" fill="#42E8E0"/>
<path d="M84.8075 43.612L83.5364 42.8764L83.6413 42.2227L84.9183 42.9582L84.8075 43.612Z" fill="#42E8E0"/>
<path d="M88.5918 45.8009L85.4897 44.0088L85.6005 43.355L88.6967 45.1471L88.5918 45.8009Z" fill="#42E8E0"/>
<path d="M92.3703 47.9842L89.274 46.1921L89.379 45.5383L92.481 47.3304L92.3703 47.9842Z" fill="#42E8E0"/>
<path d="M71.5947 44.3883L68.4985 42.5962L68.6093 41.9424L71.7055 43.7345L71.5947 44.3883Z" fill="#42E8E0"/>
<path d="M73.2274 45.328L72.277 44.7793L72.3878 44.1255L73.3382 44.6742L73.2274 45.328Z" fill="#42E8E0"/>
<path d="M74.8658 46.2796L73.9154 45.7251L74.0262 45.0713L74.9766 45.62L74.8658 46.2796Z" fill="#42E8E0"/>
<path d="M77.8921 48.0249L75.554 46.6706L75.6589 46.0168L78.0029 47.3711L77.8921 48.0249Z" fill="#42E8E0"/>
<path d="M81.2856 44.9427L80.3352 44.394L80.4402 43.7344L81.3964 44.2889L81.2856 44.9427Z" fill="#42E8E0"/>
<path d="M84.3119 46.6883L81.9679 45.3398L82.0787 44.686L84.4227 46.0345L84.3119 46.6883Z" fill="#42E8E0"/>
<path d="M84.9475 47.056L82.6093 45.7075L82.7142 45.0537L85.0582 46.4022L84.9475 47.056Z" fill="#42E8E0"/>
<path d="M72.481 55.4736L69.4314 53.7107L69.5422 53.0569L72.5917 54.8198L72.481 55.4736Z" fill="#42E8E0"/>
<path d="M74.5276 56.6527L73.1107 55.8354L73.2215 55.1816L74.6384 55.9989L74.5276 56.6527Z" fill="#42E8E0"/>
<path d="M76.5801 57.8436L75.1691 57.0264L75.2799 56.3726L76.6909 57.1898L76.5801 57.8436Z" fill="#42E8E0"/>
<path d="M79.8979 59.7583L77.2216 58.2114L77.3323 57.5576L80.0029 59.1045L79.8979 59.7583Z" fill="#42E8E0"/>
<path d="M82.0146 60.9842L80.6035 60.167L80.7143 59.5132L82.1254 60.3304L82.0146 60.9842Z" fill="#42E8E0"/>
<path d="M85.3323 62.899L82.6559 61.352L82.7667 60.6982L85.4372 62.2452L85.3323 62.899Z" fill="#42E8E0"/>
<path d="M75.1633 60.3829L73.7463 59.5657L73.8571 58.9119L75.274 59.7291L75.1633 60.3829Z" fill="#42E8E0"/>
<path d="M78.4751 62.3035L75.8046 60.7566L75.9154 60.1028L78.5859 61.6497L78.4751 62.3035Z" fill="#42E8E0"/>
<path d="M67.7813 56.1217L66.3702 55.3044L66.481 54.6506L67.8921 55.4679L67.7813 56.1217Z" fill="#42E8E0"/>
<path d="M69.8338 57.3065L68.4227 56.4892L68.5335 55.8354L69.9446 56.6527L69.8338 57.3065Z" fill="#42E8E0"/>
<path d="M73.1516 59.2212L70.4752 57.6743L70.586 57.0205L73.2624 58.5674L73.1516 59.2212Z" fill="#42E8E0"/>
<path d="M70.4461 55.9816L69.1749 55.2402L69.2857 54.5864L70.5568 55.3278L70.4461 55.9816Z" fill="#42E8E0"/>
<path d="M74.2303 58.1646L71.1283 56.3725L71.2391 55.7188L74.3411 57.5109L74.2303 58.1646Z" fill="#42E8E0"/>
<path d="M78.0087 60.348L74.9125 58.5559L75.0174 57.9021L78.1195 59.6942L78.0087 60.348Z" fill="#42E8E0"/>
<path d="M66.7376 57.1957L63.6414 55.4094L63.7521 54.7556L66.8484 56.5419L66.7376 57.1957Z" fill="#42E8E0"/>
<path d="M68.3702 58.1412L67.4198 57.5925L67.5306 56.9387L68.481 57.4874L68.3702 58.1412Z" fill="#42E8E0"/>
<path d="M70.0087 59.087L69.0582 58.5383L69.169 57.8845L70.1194 58.4332L70.0087 59.087Z" fill="#42E8E0"/>
<path d="M73.035 60.8382L70.6968 59.4839L70.8017 58.8301L73.1458 60.1844L73.035 60.8382Z" fill="#42E8E0"/>
<path d="M73.6705 61.2061L71.3323 59.8518L71.4372 59.198L73.7813 60.5523L73.6705 61.2061Z" fill="#42E8E0"/>
<path d="M68.1369 51.2765L67.1807 50.7278L67.2915 50.074L68.2419 50.6227L68.1369 51.2765Z" fill="#42E8E0"/>
<path d="M71.1632 53.0276L68.8192 51.6733L68.93 51.0195L71.2682 52.3738L71.1632 53.0276Z" fill="#42E8E0"/>
<path d="M74.2536 54.814L71.9095 53.4597L72.0203 52.8059L74.3644 54.1602L74.2536 54.814Z" fill="#42E8E0"/>
<path d="M86.1662 65.0645L84.7551 64.2473L84.8659 63.5935L86.277 64.4107L86.1662 65.0645Z" fill="#42E8E0"/>
<path d="M89.4839 66.9793L86.8075 65.4382L86.9183 64.7844L89.5947 66.3255L89.4839 66.9793Z" fill="#42E8E0"/>
<path d="M80.9533 62.0467L78.6093 60.6982L78.72 60.0444L81.0582 61.3929L80.9533 62.0467Z" fill="#42E8E0"/>
<path d="M84.0437 63.8387L81.6997 62.4844L81.8105 61.8306L84.1545 63.1849L84.0437 63.8387Z" fill="#42E8E0"/>
<path d="M66.481 44.7911L65.5248 44.2424L65.6356 43.5886L66.586 44.1373L66.481 44.7911Z" fill="#42E8E0"/>
<path d="M69.5072 46.5423L67.1632 45.188L67.274 44.5342L69.618 45.8885L69.5072 46.5423Z" fill="#42E8E0"/>
<path d="M72.5977 48.3286L70.2537 46.9744L70.3645 46.3206L72.7085 47.6748L72.5977 48.3286Z" fill="#42E8E0"/>
<path d="M119.315 72.1688C119.099 72.1688 118.878 72.1046 118.662 71.9762L99.7347 61.0368C98.965 60.5932 98.4635 59.4607 98.621 58.5209L99.8338 51.2941C99.9154 50.8037 100.172 50.4243 100.528 50.255C100.86 50.0974 101.251 50.1324 101.624 50.3484L120.551 61.2878C121.321 61.7315 121.822 62.8639 121.665 63.8038L120.452 71.0305C120.37 71.5209 120.114 71.9003 119.758 72.0696C119.612 72.1338 119.466 72.1688 119.315 72.1688ZM100.965 50.4243C100.848 50.4243 100.743 50.4476 100.638 50.4943C100.359 50.6286 100.16 50.9322 100.09 51.3349L98.8775 58.5617C98.7376 59.4023 99.1807 60.4122 99.8629 60.8033L118.79 71.7427C119.087 71.912 119.385 71.9412 119.636 71.8244C119.915 71.6902 120.114 71.3866 120.184 70.978L121.396 63.7512C121.536 62.9106 121.093 61.9007 120.411 61.5096L101.484 50.5702C101.309 50.471 101.134 50.4243 100.965 50.4243Z" fill="#42E8E0"/>
<path d="M117.233 84.591C117.017 84.591 116.796 84.5268 116.58 84.4042L97.653 73.4648C96.8833 73.0211 96.3819 71.8887 96.5393 70.9488L97.7521 63.7221C97.8338 63.2317 98.0845 62.8523 98.446 62.683C98.7784 62.5254 99.169 62.5604 99.5422 62.7764L118.469 73.7158C119.239 74.1594 119.74 75.2919 119.583 76.2317L118.37 83.4585C118.289 83.9489 118.032 84.3283 117.676 84.4976C117.531 84.556 117.385 84.591 117.233 84.591ZM116.708 84.1707C117.006 84.34 117.303 84.3692 117.554 84.2524C117.834 84.1182 118.032 83.8146 118.102 83.406L119.315 76.1792C119.455 75.3386 119.012 74.3287 118.329 73.9376L99.4023 62.9982C99.1049 62.8289 98.8017 62.7997 98.551 62.9165C98.2711 63.0507 98.0728 63.3543 98.0087 63.7571L96.7959 70.9839C96.6559 71.8245 97.0991 72.8343 97.7813 73.2254L116.708 84.1707Z" fill="#42E8E0"/>
<path opacity="0.5" d="M101.431 60.2604C101.764 60.4531 102.067 60.383 102.178 60.0795L104.382 54.0435C104.633 53.3547 105.665 53.9793 105.88 54.9483L107.239 61.0251C107.338 61.4688 107.647 61.9124 107.997 62.1109L108.324 62.2977C108.638 62.4787 108.924 62.4261 109.047 62.1634L109.496 61.2119C109.775 60.6224 110.703 61.1769 110.953 62.0876C111.07 62.5079 111.361 62.9106 111.688 63.0974L111.974 63.2609C112.318 63.4594 112.621 63.3776 112.726 63.0566L113.134 61.7957C113.367 61.0835 114.399 61.6789 114.633 62.6538L115.991 68.2753C116.096 68.7189 116.405 69.1509 116.755 69.3435L101.431 60.2604Z" fill="url(#paint6_linear_2101_1091)"/>
<path d="M114.364 81.7305C113.985 81.5204 113.653 81.0534 113.536 80.5747L112.178 74.9532C112.032 74.3578 111.548 73.8967 111.21 73.8792C111.076 73.8733 110.982 73.9434 110.93 74.101L110.522 75.3619C110.463 75.5428 110.353 75.6654 110.195 75.7296C110.014 75.7997 109.799 75.7705 109.577 75.6421L109.291 75.4786C108.936 75.2743 108.621 74.8423 108.493 74.387C108.329 73.8091 107.88 73.3946 107.56 73.3655C107.431 73.3538 107.338 73.4063 107.28 73.5347L106.831 74.4863C106.761 74.6322 106.65 74.7314 106.51 74.7781C106.335 74.8307 106.131 74.8015 105.921 74.6789L105.595 74.4921C105.21 74.2703 104.883 73.7974 104.778 73.3188L103.42 67.242C103.286 66.6407 102.802 66.1679 102.458 66.1445C102.324 66.1387 102.23 66.2029 102.172 66.3488L99.962 72.3848C99.8979 72.5541 99.7871 72.6708 99.6355 72.7292C99.4605 72.7934 99.2448 72.7584 99.0291 72.6358L99.1632 72.4081C99.3089 72.4898 99.443 72.519 99.548 72.484C99.6238 72.4548 99.6821 72.3964 99.7171 72.2972L101.927 66.2613C102.02 66.0044 102.224 65.8585 102.475 65.8818C102.924 65.911 103.513 66.4422 103.682 67.1836L105.041 73.2604C105.134 73.669 105.414 74.0776 105.735 74.2644L106.061 74.4512C106.201 74.533 106.335 74.5563 106.434 74.5271C106.504 74.5038 106.563 74.4512 106.598 74.3753L107.047 73.4238C107.152 73.202 107.35 73.0794 107.589 73.1086C108.067 73.1495 108.58 73.6807 108.755 74.3228C108.86 74.7081 109.134 75.0817 109.431 75.2568L109.717 75.4202C109.863 75.5078 110.003 75.5312 110.108 75.4903C110.184 75.4611 110.242 75.3911 110.277 75.2918L110.685 74.0309C110.767 73.7741 110.959 73.6281 111.204 73.6281C111.21 73.6281 111.221 73.6281 111.227 73.6281C111.67 73.6457 112.265 74.1594 112.44 74.9007L113.799 80.5222C113.898 80.925 114.184 81.3336 114.498 81.5087L114.364 81.7305Z" fill="#42E8E0"/>
<path d="M106.773 44.2656C106.498 44.2656 106.213 44.1838 105.945 44.0321L91.1457 35.4802C90.2303 34.9548 89.723 33.6764 90.0087 32.6432C90.1545 32.1178 90.4693 31.7325 90.9067 31.5516C91.3323 31.3764 91.8104 31.4231 92.2594 31.6858L107.058 40.2377C107.974 40.7689 108.481 42.0415 108.195 43.0747C108.05 43.6001 107.729 43.9854 107.297 44.1663C107.128 44.2305 106.953 44.2656 106.773 44.2656ZM91.4314 31.715C91.2857 31.715 91.1399 31.7442 91.0058 31.7967C90.6501 31.9427 90.3819 32.2696 90.2653 32.7074C90.0087 33.6355 90.4635 34.7738 91.2798 35.2467L106.079 43.7986C106.458 44.0146 106.854 44.0613 107.198 43.9153C107.554 43.7694 107.822 43.4425 107.939 43.0047C108.195 42.0765 107.74 40.9382 106.924 40.4654L92.1253 31.9135C91.8979 31.7792 91.6647 31.715 91.4314 31.715Z" fill="#42E8E0"/>
<defs>
<linearGradient id="paint0_linear_2101_1091" x1="141.683" y1="54.0832" x2="50.5315" y2="54.0832" gradientUnits="userSpaceOnUse">
<stop stop-color="#C0BFF6"/>
<stop offset="0.2938" stop-color="#C5C4F7"/>
<stop offset="0.6399" stop-color="#D3D2F9"/>
<stop offset="1" stop-color="#E9E9FD"/>
</linearGradient>
<linearGradient id="paint1_linear_2101_1091" x1="141.682" y1="77.4858" x2="126.031" y2="77.4858" gradientUnits="userSpaceOnUse">
<stop stop-color="#5761D7"/>
<stop offset="0.1779" stop-color="#5C66D9"/>
<stop offset="0.3876" stop-color="#6A73DF"/>
<stop offset="0.6134" stop-color="#8289E8"/>
<stop offset="0.849" stop-color="#A3A7F5"/>
<stop offset="1" stop-color="#BCBEFF"/>
</linearGradient>
<linearGradient id="paint2_linear_2101_1091" x1="129.471" y1="103.019" x2="0.735216" y2="103.019" gradientUnits="userSpaceOnUse">
<stop stop-color="#5761D7"/>
<stop offset="0.1779" stop-color="#5C66D9"/>
<stop offset="0.3876" stop-color="#6A73DF"/>
<stop offset="0.6134" stop-color="#8289E8"/>
<stop offset="0.849" stop-color="#A3A7F5"/>
<stop offset="1" stop-color="#BCBEFF"/>
</linearGradient>
<linearGradient id="paint3_linear_2101_1091" x1="186.663" y1="99.4954" x2="-3.03332" y2="99.4954" gradientUnits="userSpaceOnUse">
<stop stop-color="#C0BFF6"/>
<stop offset="0.2938" stop-color="#C5C4F7"/>
<stop offset="0.6399" stop-color="#D3D2F9"/>
<stop offset="1" stop-color="#E9E9FD"/>
</linearGradient>
<linearGradient id="paint4_linear_2101_1091" x1="178.973" y1="74.6556" x2="50.2381" y2="74.6556" gradientUnits="userSpaceOnUse">
<stop stop-color="#5761D7"/>
<stop offset="0.1779" stop-color="#5C66D9"/>
<stop offset="0.3876" stop-color="#6A73DF"/>
<stop offset="0.6134" stop-color="#8289E8"/>
<stop offset="0.849" stop-color="#A3A7F5"/>
<stop offset="1" stop-color="#BCBEFF"/>
</linearGradient>
<linearGradient id="paint5_linear_2101_1091" x1="135.718" y1="71.1315" x2="6.91384" y2="71.1315" gradientUnits="userSpaceOnUse">
<stop stop-color="#C0BFF6"/>
<stop offset="0.2938" stop-color="#C5C4F7"/>
<stop offset="0.6399" stop-color="#D3D2F9"/>
<stop offset="1" stop-color="#E9E9FD"/>
</linearGradient>
<linearGradient id="paint6_linear_2101_1091" x1="102.887" y1="58.1551" x2="130.087" y2="69.7787" gradientUnits="userSpaceOnUse">
<stop stop-color="#42E8E0"/>
<stop offset="0.1055" stop-color="#37B6BF"/>
<stop offset="0.2197" stop-color="#2C87A1"/>
<stop offset="0.338" stop-color="#235F87"/>
<stop offset="0.4587" stop-color="#1C3F72"/>
<stop offset="0.5824" stop-color="#162561"/>
<stop offset="0.7105" stop-color="#121355"/>
<stop offset="0.8458" stop-color="#10084E"/>
<stop offset="1" stop-color="#0F054C"/>
</linearGradient>
</defs>
</svg>
