<svg width="179" height="96" viewBox="0 0 179 96" fill="none" xmlns="http://www.w3.org/2000/svg">
<path d="M23.1697 36.0608C23.1697 34.0903 22.3261 32.2005 20.8245 30.8071C19.3228 29.4137 17.2862 28.6309 15.1626 28.6309C13.039 28.6309 11.0024 29.4137 9.50074 30.8071C7.99912 32.2005 7.15552 34.0903 7.15552 36.0608L23.1697 36.0608Z" fill="#07B1A7"/>
<path d="M11.8399 16.2595C8.6763 16.7566 5.65845 17.9575 3 19.7772L7.05466 25.9488C7.39051 25.7094 7.73977 25.4852 8.10243 25.2763C10.2731 24.0454 12.7538 23.4299 15.5447 23.4299C18.2321 23.4299 20.6267 24.0278 22.7285 25.2235C24.8302 26.4193 26.4668 28.1073 27.6383 30.2878C28.8097 32.433 29.3955 34.9124 29.3955 37.7259C29.3955 38.8161 29.3428 39.6396 29.205 40.5188H23.8976L22.6538 44.32H28.6202C27.7589 46.9927 26.1912 49.1908 23.9172 50.914C22.388 52.0667 20.6017 52.8258 18.5585 53.1914L20.1101 60C23.2278 59.2598 26.1478 57.829 28.6636 55.8091C31.1794 53.7892 33.2294 51.2294 34.6685 48.3111C36.1076 45.3928 36.9005 42.1872 36.9912 38.9214C37.0819 35.6555 36.4681 32.4093 35.1933 29.4124C33.9185 26.4155 32.0138 23.7414 29.6142 21.5792C27.2145 19.4171 24.3785 17.8198 21.307 16.9005C18.2354 15.9813 15.0035 15.7624 11.8399 16.2595Z" fill="white"/>
<path d="M7.15549 40.5188C7.15549 42.6864 8.03743 44.7652 9.60731 46.2979C11.1772 47.8307 13.3064 48.6917 15.5265 48.6917C17.7467 48.6917 19.8759 47.8307 21.4457 46.2979C23.0156 44.7652 23.8976 42.6864 23.8976 40.5188H7.15549Z" fill="white"/>
<path d="M52.54 52.34H66.34V59H44.14V17.12H52.54V52.34ZM75.9391 21.8C74.4591 21.8 73.2191 21.34 72.2191 20.42C71.2591 19.46 70.7791 18.28 70.7791 16.88C70.7791 15.48 71.2591 14.32 72.2191 13.4C73.2191 12.44 74.4591 11.96 75.9391 11.96C77.4191 11.96 78.6391 12.44 79.5991 13.4C80.5991 14.32 81.0991 15.48 81.0991 16.88C81.0991 18.28 80.5991 19.46 79.5991 20.42C78.6391 21.34 77.4191 21.8 75.9391 21.8ZM80.0791 25.76V59H71.6791V25.76H80.0791ZM103.618 32.66H97.7983V59H89.2783V32.66H85.4983V25.76H89.2783V24.08C89.2783 20 90.4383 17 92.7583 15.08C95.0783 13.16 98.5783 12.26 103.258 12.38V19.46C101.218 19.42 99.7983 19.76 98.9983 20.48C98.1983 21.2 97.7983 22.5 97.7983 24.38V25.76H103.618V32.66ZM139.962 41.66C139.962 42.86 139.882 43.94 139.722 44.9H115.422C115.622 47.3 116.462 49.18 117.942 50.54C119.422 51.9 121.242 52.58 123.402 52.58C126.522 52.58 128.742 51.24 130.062 48.56H139.122C138.162 51.76 136.322 54.4 133.602 56.48C130.882 58.52 127.542 59.54 123.582 59.54C120.382 59.54 117.502 58.84 114.942 57.44C112.422 56 110.442 53.98 109.002 51.38C107.602 48.78 106.902 45.78 106.902 42.38C106.902 38.94 107.602 35.92 109.002 33.32C110.402 30.72 112.362 28.72 114.882 27.32C117.402 25.92 120.302 25.22 123.582 25.22C126.742 25.22 129.562 25.9 132.042 27.26C134.562 28.62 136.502 30.56 137.862 33.08C139.262 35.56 139.962 38.42 139.962 41.66ZM131.262 39.26C131.222 37.1 130.442 35.38 128.922 34.1C127.402 32.78 125.542 32.12 123.342 32.12C121.262 32.12 119.502 32.76 118.062 34.04C116.662 35.28 115.802 37.02 115.482 39.26H131.262Z" fill="white"/>
<path d="M71.946 76.606H66.942L66.114 79H63.468L67.986 66.418H70.92L75.438 79H72.774L71.946 76.606ZM71.262 74.59L69.444 69.334L67.626 74.59H71.262ZM89.5108 68.884C90.7348 68.884 91.7188 69.262 92.4628 70.018C93.2188 70.762 93.5968 71.806 93.5968 73.15V79H91.0768V73.492C91.0768 72.712 90.8788 72.118 90.4828 71.71C90.0868 71.29 89.5468 71.08 88.8628 71.08C88.1788 71.08 87.6328 71.29 87.2248 71.71C86.8288 72.118 86.6308 72.712 86.6308 73.492V79H84.1108V73.492C84.1108 72.712 83.9128 72.118 83.5168 71.71C83.1208 71.29 82.5808 71.08 81.8968 71.08C81.2008 71.08 80.6488 71.29 80.2408 71.71C79.8448 72.118 79.6468 72.712 79.6468 73.492V79H77.1268V69.028H79.6468V70.234C79.9708 69.814 80.3848 69.484 80.8888 69.244C81.4048 69.004 81.9688 68.884 82.5808 68.884C83.3608 68.884 84.0568 69.052 84.6688 69.388C85.2808 69.712 85.7548 70.18 86.0908 70.792C86.4148 70.216 86.8828 69.754 87.4948 69.406C88.1188 69.058 88.7908 68.884 89.5108 68.884ZM105.258 73.798C105.258 74.158 105.234 74.482 105.186 74.77H97.8961C97.9561 75.49 98.2081 76.054 98.6521 76.462C99.0961 76.87 99.6421 77.074 100.29 77.074C101.226 77.074 101.892 76.672 102.288 75.868H105.006C104.718 76.828 104.166 77.62 103.35 78.244C102.534 78.856 101.532 79.162 100.344 79.162C99.3841 79.162 98.5201 78.952 97.7521 78.532C96.9961 78.1 96.4021 77.494 95.9701 76.714C95.5501 75.934 95.3401 75.034 95.3401 74.014C95.3401 72.982 95.5501 72.076 95.9701 71.296C96.3901 70.516 96.9781 69.916 97.7341 69.496C98.4901 69.076 99.3601 68.866 100.344 68.866C101.292 68.866 102.138 69.07 102.882 69.478C103.638 69.886 104.22 70.468 104.628 71.224C105.048 71.968 105.258 72.826 105.258 73.798ZM102.648 73.078C102.636 72.43 102.402 71.914 101.946 71.53C101.49 71.134 100.932 70.936 100.272 70.936C99.6481 70.936 99.1201 71.128 98.6881 71.512C98.2681 71.884 98.0101 72.406 97.9141 73.078H102.648ZM109.617 70.576C109.941 70.048 110.361 69.634 110.877 69.334C111.405 69.034 112.005 68.884 112.677 68.884V71.53H112.011C111.219 71.53 110.619 71.716 110.211 72.088C109.815 72.46 109.617 73.108 109.617 74.032V79H107.097V69.028H109.617V70.576ZM115.653 67.84C115.209 67.84 114.837 67.702 114.537 67.426C114.249 67.138 114.105 66.784 114.105 66.364C114.105 65.944 114.249 65.596 114.537 65.32C114.837 65.032 115.209 64.888 115.653 64.888C116.097 64.888 116.463 65.032 116.751 65.32C117.051 65.596 117.201 65.944 117.201 66.364C117.201 66.784 117.051 67.138 116.751 67.426C116.463 67.702 116.097 67.84 115.653 67.84ZM116.895 69.028V79H114.375V69.028H116.895ZM118.737 74.014C118.737 72.982 118.947 72.082 119.367 71.314C119.787 70.534 120.369 69.934 121.113 69.514C121.857 69.082 122.709 68.866 123.669 68.866C124.905 68.866 125.925 69.178 126.729 69.802C127.545 70.414 128.091 71.278 128.367 72.394H125.649C125.505 71.962 125.259 71.626 124.911 71.386C124.575 71.134 124.155 71.008 123.651 71.008C122.931 71.008 122.361 71.272 121.941 71.8C121.521 72.316 121.311 73.054 121.311 74.014C121.311 74.962 121.521 75.7 121.941 76.228C122.361 76.744 122.931 77.002 123.651 77.002C124.671 77.002 125.337 76.546 125.649 75.634H128.367C128.091 76.714 127.545 77.572 126.729 78.208C125.913 78.844 124.893 79.162 123.669 79.162C122.709 79.162 121.857 78.952 121.113 78.532C120.369 78.1 119.787 77.5 119.367 76.732C118.947 75.952 118.737 75.046 118.737 74.014ZM129.565 73.978C129.565 72.97 129.763 72.076 130.159 71.296C130.567 70.516 131.113 69.916 131.797 69.496C132.493 69.076 133.267 68.866 134.119 68.866C134.863 68.866 135.511 69.016 136.063 69.316C136.627 69.616 137.077 69.994 137.413 70.45V69.028H139.951V79H137.413V77.542C137.089 78.01 136.639 78.4 136.063 78.712C135.499 79.012 134.845 79.162 134.101 79.162C133.261 79.162 132.493 78.946 131.797 78.514C131.113 78.082 130.567 77.476 130.159 76.696C129.763 75.904 129.565 74.998 129.565 73.978ZM137.413 74.014C137.413 73.402 137.293 72.88 137.053 72.448C136.813 72.004 136.489 71.668 136.081 71.44C135.673 71.2 135.235 71.08 134.767 71.08C134.299 71.08 133.867 71.194 133.471 71.422C133.075 71.65 132.751 71.986 132.499 72.43C132.259 72.862 132.139 73.378 132.139 73.978C132.139 74.578 132.259 75.106 132.499 75.562C132.751 76.006 133.075 76.348 133.471 76.588C133.879 76.828 134.311 76.948 134.767 76.948C135.235 76.948 135.673 76.834 136.081 76.606C136.489 76.366 136.813 76.03 137.053 75.598C137.293 75.154 137.413 74.626 137.413 74.014Z" fill="#07B1A7"/>
<path d="M7.293 85.656C7.293 86.1153 7.18467 86.5487 6.968 86.956C6.75133 87.3633 6.40467 87.697 5.928 87.957C5.45133 88.2083 4.84033 88.334 4.095 88.334H2.457V92H0.975V82.965H4.095C4.78833 82.965 5.37333 83.0863 5.85 83.329C6.33533 83.563 6.695 83.8837 6.929 84.291C7.17167 84.6983 7.293 85.1533 7.293 85.656ZM4.095 87.125C4.65833 87.125 5.07867 86.9993 5.356 86.748C5.63333 86.488 5.772 86.124 5.772 85.656C5.772 84.668 5.213 84.174 4.095 84.174H2.457V87.125H4.095ZM11.8134 92.117C11.1374 92.117 10.5264 91.9653 9.98045 91.662C9.43445 91.35 9.00545 90.9167 8.69345 90.362C8.38145 89.7987 8.22545 89.1487 8.22545 88.412C8.22545 87.684 8.38578 87.0383 8.70645 86.475C9.02711 85.9117 9.46478 85.4783 10.0194 85.175C10.5741 84.8717 11.1938 84.72 11.8784 84.72C12.5631 84.72 13.1828 84.8717 13.7374 85.175C14.2921 85.4783 14.7298 85.9117 15.0504 86.475C15.3711 87.0383 15.5314 87.684 15.5314 88.412C15.5314 89.14 15.3668 89.7857 15.0374 90.349C14.7081 90.9123 14.2574 91.35 13.6854 91.662C13.1221 91.9653 12.4981 92.117 11.8134 92.117ZM11.8134 90.83C12.1948 90.83 12.5501 90.739 12.8794 90.557C13.2174 90.375 13.4904 90.102 13.6984 89.738C13.9064 89.374 14.0104 88.932 14.0104 88.412C14.0104 87.892 13.9108 87.4543 13.7114 87.099C13.5121 86.735 13.2478 86.462 12.9184 86.28C12.5891 86.098 12.2338 86.007 11.8524 86.007C11.4711 86.007 11.1158 86.098 10.7864 86.28C10.4658 86.462 10.2101 86.735 10.0194 87.099C9.82878 87.4543 9.73345 87.892 9.73345 88.412C9.73345 89.1833 9.92845 89.7813 10.3184 90.206C10.7171 90.622 11.2154 90.83 11.8134 90.83ZM26.6165 84.837L24.3935 92H22.8335L21.3905 86.709L19.9475 92H18.3875L16.1515 84.837H17.6595L19.1545 90.596L20.6755 84.837H22.2225L23.6785 90.57L25.1605 84.837H26.6165ZM34.289 88.243C34.289 88.5117 34.2717 88.7543 34.237 88.971H28.764C28.8074 89.543 29.0197 90.0023 29.401 90.349C29.7824 90.6957 30.2504 90.869 30.805 90.869C31.6024 90.869 32.1657 90.5353 32.495 89.868H34.094C33.8774 90.5267 33.483 91.0683 32.911 91.493C32.3477 91.909 31.6457 92.117 30.805 92.117C30.1204 92.117 29.505 91.9653 28.959 91.662C28.4217 91.35 27.997 90.9167 27.685 90.362C27.3817 89.7987 27.23 89.1487 27.23 88.412C27.23 87.6753 27.3774 87.0297 27.672 86.475C27.9754 85.9117 28.3957 85.4783 28.933 85.175C29.479 84.8717 30.103 84.72 30.805 84.72C31.481 84.72 32.0834 84.8673 32.612 85.162C33.1407 85.4567 33.5524 85.8727 33.847 86.41C34.1417 86.9387 34.289 87.5497 34.289 88.243ZM32.742 87.775C32.7334 87.229 32.5384 86.7913 32.157 86.462C31.7757 86.1327 31.3034 85.968 30.74 85.968C30.2287 85.968 29.791 86.1327 29.427 86.462C29.063 86.7827 28.8464 87.2203 28.777 87.775H32.742ZM37.2295 85.877C37.4461 85.513 37.7321 85.2313 38.0875 85.032C38.4515 84.824 38.8805 84.72 39.3745 84.72V86.254H38.9975C38.4168 86.254 37.9748 86.4013 37.6715 86.696C37.3768 86.9907 37.2295 87.502 37.2295 88.23V92H35.7475V84.837H37.2295V85.877ZM47.3017 88.243C47.3017 88.5117 47.2844 88.7543 47.2497 88.971H41.7767C41.8201 89.543 42.0324 90.0023 42.4137 90.349C42.7951 90.6957 43.2631 90.869 43.8177 90.869C44.6151 90.869 45.1784 90.5353 45.5077 89.868H47.1067C46.8901 90.5267 46.4957 91.0683 45.9237 91.493C45.3604 91.909 44.6584 92.117 43.8177 92.117C43.1331 92.117 42.5177 91.9653 41.9717 91.662C41.4344 91.35 41.0097 90.9167 40.6977 90.362C40.3944 89.7987 40.2427 89.1487 40.2427 88.412C40.2427 87.6753 40.3901 87.0297 40.6847 86.475C40.9881 85.9117 41.4084 85.4783 41.9457 85.175C42.4917 84.8717 43.1157 84.72 43.8177 84.72C44.4937 84.72 45.0961 84.8673 45.6247 85.162C46.1534 85.4567 46.5651 85.8727 46.8597 86.41C47.1544 86.9387 47.3017 87.5497 47.3017 88.243ZM45.7547 87.775C45.7461 87.229 45.5511 86.7913 45.1697 86.462C44.7884 86.1327 44.3161 85.968 43.7527 85.968C43.2414 85.968 42.8037 86.1327 42.4397 86.462C42.0757 86.7827 41.8591 87.2203 41.7897 87.775H45.7547ZM48.2662 88.386C48.2662 87.6667 48.4135 87.0297 48.7082 86.475C49.0115 85.9203 49.4188 85.4913 49.9302 85.188C50.4502 84.876 51.0265 84.72 51.6592 84.72C52.1272 84.72 52.5865 84.824 53.0372 85.032C53.4965 85.2313 53.8605 85.5 54.1292 85.838V82.38H55.6242V92H54.1292V90.921C53.8865 91.2677 53.5485 91.5537 53.1152 91.779C52.6905 92.0043 52.2008 92.117 51.6462 92.117C51.0222 92.117 50.4502 91.961 49.9302 91.649C49.4188 91.3283 49.0115 90.8863 48.7082 90.323C48.4135 89.751 48.2662 89.1053 48.2662 88.386ZM54.1292 88.412C54.1292 87.918 54.0252 87.489 53.8172 87.125C53.6178 86.761 53.3535 86.4837 53.0242 86.293C52.6948 86.1023 52.3395 86.007 51.9582 86.007C51.5768 86.007 51.2215 86.1023 50.8922 86.293C50.5628 86.475 50.2942 86.748 50.0862 87.112C49.8868 87.4673 49.7872 87.892 49.7872 88.386C49.7872 88.88 49.8868 89.3133 50.0862 89.686C50.2942 90.0587 50.5628 90.3447 50.8922 90.544C51.2302 90.7347 51.5855 90.83 51.9582 90.83C52.3395 90.83 52.6948 90.7347 53.0242 90.544C53.3535 90.3533 53.6178 90.076 53.8172 89.712C54.0252 89.3393 54.1292 88.906 54.1292 88.412ZM62.4297 85.903C62.681 85.5563 63.0233 85.2747 63.4567 85.058C63.8987 84.8327 64.3883 84.72 64.9257 84.72C65.5583 84.72 66.1303 84.8717 66.6417 85.175C67.153 85.4783 67.556 85.9117 67.8507 86.475C68.1453 87.0297 68.2927 87.6667 68.2927 88.386C68.2927 89.1053 68.1453 89.751 67.8507 90.323C67.556 90.8863 67.1487 91.3283 66.6287 91.649C66.1173 91.961 65.5497 92.117 64.9257 92.117C64.371 92.117 63.877 92.0087 63.4437 91.792C63.019 91.5753 62.681 91.298 62.4297 90.96V92H60.9477V82.38H62.4297V85.903ZM66.7847 88.386C66.7847 87.892 66.6807 87.4673 66.4727 87.112C66.2733 86.748 66.0047 86.475 65.6667 86.293C65.3373 86.1023 64.982 86.007 64.6007 86.007C64.228 86.007 63.8727 86.1023 63.5347 86.293C63.2053 86.4837 62.9367 86.761 62.7287 87.125C62.5293 87.489 62.4297 87.918 62.4297 88.412C62.4297 88.906 62.5293 89.3393 62.7287 89.712C62.9367 90.076 63.2053 90.3533 63.5347 90.544C63.8727 90.7347 64.228 90.83 64.6007 90.83C64.982 90.83 65.3373 90.7347 65.6667 90.544C66.0047 90.3447 66.2733 90.0587 66.4727 89.686C66.6807 89.3133 66.7847 88.88 66.7847 88.386ZM76.2062 84.837L71.8122 95.367H70.2782L71.7342 91.883L68.9132 84.837H70.5642L72.5792 90.297L74.6722 84.837H76.2062ZM90.2176 82.965V92H88.7356V85.812L85.9796 92H84.9526L82.1836 85.812V92H80.7016V82.965H82.3006L85.4726 90.05L88.6316 82.965H90.2176ZM98.7304 88.243C98.7304 88.5117 98.7131 88.7543 98.6784 88.971H93.2054C93.2488 89.543 93.4611 90.0023 93.8424 90.349C94.2238 90.6957 94.6918 90.869 95.2464 90.869C96.0438 90.869 96.6071 90.5353 96.9364 89.868H98.5354C98.3188 90.5267 97.9244 91.0683 97.3524 91.493C96.7891 91.909 96.0871 92.117 95.2464 92.117C94.5618 92.117 93.9464 91.9653 93.4004 91.662C92.8631 91.35 92.4384 90.9167 92.1264 90.362C91.8231 89.7987 91.6714 89.1487 91.6714 88.412C91.6714 87.6753 91.8188 87.0297 92.1134 86.475C92.4168 85.9117 92.8371 85.4783 93.3744 85.175C93.9204 84.8717 94.5444 84.72 95.2464 84.72C95.9224 84.72 96.5248 84.8673 97.0534 85.162C97.5821 85.4567 97.9938 85.8727 98.2884 86.41C98.5831 86.9387 98.7304 87.5497 98.7304 88.243ZM97.1834 87.775C97.1748 87.229 96.9798 86.7913 96.5984 86.462C96.2171 86.1327 95.7448 85.968 95.1814 85.968C94.6701 85.968 94.2324 86.1327 93.8684 86.462C93.5044 86.7827 93.2878 87.2203 93.2184 87.775H97.1834ZM99.6949 88.386C99.6949 87.6667 99.8422 87.0297 100.137 86.475C100.44 85.9203 100.848 85.4913 101.359 85.188C101.879 84.876 102.455 84.72 103.088 84.72C103.556 84.72 104.015 84.824 104.466 85.032C104.925 85.2313 105.289 85.5 105.558 85.838V82.38H107.053V92H105.558V90.921C105.315 91.2677 104.977 91.5537 104.544 91.779C104.119 92.0043 103.63 92.117 103.075 92.117C102.451 92.117 101.879 91.961 101.359 91.649C100.848 91.3283 100.44 90.8863 100.137 90.323C99.8422 89.751 99.6949 89.1053 99.6949 88.386ZM105.558 88.412C105.558 87.918 105.454 87.489 105.246 87.125C105.047 86.761 104.782 86.4837 104.453 86.293C104.124 86.1023 103.768 86.007 103.387 86.007C103.006 86.007 102.65 86.1023 102.321 86.293C101.992 86.475 101.723 86.748 101.515 87.112C101.316 87.4673 101.216 87.892 101.216 88.386C101.216 88.88 101.316 89.3133 101.515 89.686C101.723 90.0587 101.992 90.3447 102.321 90.544C102.659 90.7347 103.014 90.83 103.387 90.83C103.768 90.83 104.124 90.7347 104.453 90.544C104.782 90.3533 105.047 90.076 105.246 89.712C105.454 89.3393 105.558 88.906 105.558 88.412ZM109.753 83.888C109.485 83.888 109.259 83.797 109.077 83.615C108.895 83.433 108.804 83.2077 108.804 82.939C108.804 82.6703 108.895 82.445 109.077 82.263C109.259 82.081 109.485 81.99 109.753 81.99C110.013 81.99 110.234 82.081 110.416 82.263C110.598 82.445 110.689 82.6703 110.689 82.939C110.689 83.2077 110.598 83.433 110.416 83.615C110.234 83.797 110.013 83.888 109.753 83.888ZM110.481 84.837V92H108.999V84.837H110.481ZM118.264 82.965V84.174H115.859V92H114.377V84.174H111.959V82.965H118.264ZM126.33 88.243C126.33 88.5117 126.313 88.7543 126.278 88.971H120.805C120.848 89.543 121.061 90.0023 121.442 90.349C121.823 90.6957 122.291 90.869 122.846 90.869C123.643 90.869 124.207 90.5353 124.536 89.868H126.135C125.918 90.5267 125.524 91.0683 124.952 91.493C124.389 91.909 123.687 92.117 122.846 92.117C122.161 92.117 121.546 91.9653 121 91.662C120.463 91.35 120.038 90.9167 119.726 90.362C119.423 89.7987 119.271 89.1487 119.271 88.412C119.271 87.6753 119.418 87.0297 119.713 86.475C120.016 85.9117 120.437 85.4783 120.974 85.175C121.52 84.8717 122.144 84.72 122.846 84.72C123.522 84.72 124.124 84.8673 124.653 85.162C125.182 85.4567 125.593 85.8727 125.888 86.41C126.183 86.9387 126.33 87.5497 126.33 88.243ZM124.783 87.775C124.774 87.229 124.579 86.7913 124.198 86.462C123.817 86.1327 123.344 85.968 122.781 85.968C122.27 85.968 121.832 86.1327 121.468 86.462C121.104 86.7827 120.887 87.2203 120.818 87.775H124.783ZM127.294 88.412C127.294 87.6753 127.442 87.0297 127.736 86.475C128.04 85.9117 128.456 85.4783 128.984 85.175C129.513 84.8717 130.12 84.72 130.804 84.72C131.671 84.72 132.386 84.928 132.949 85.344C133.521 85.7513 133.907 86.3363 134.106 87.099H132.507C132.377 86.7437 132.169 86.4663 131.883 86.267C131.597 86.0677 131.238 85.968 130.804 85.968C130.198 85.968 129.712 86.1847 129.348 86.618C128.993 87.0427 128.815 87.6407 128.815 88.412C128.815 89.1833 128.993 89.7857 129.348 90.219C129.712 90.6523 130.198 90.869 130.804 90.869C131.662 90.869 132.23 90.492 132.507 89.738H134.106C133.898 90.466 133.508 91.0467 132.936 91.48C132.364 91.9047 131.654 92.117 130.804 92.117C130.12 92.117 129.513 91.9653 128.984 91.662C128.456 91.35 128.04 90.9167 127.736 90.362C127.442 89.7987 127.294 89.1487 127.294 88.412ZM139.288 84.72C139.834 84.72 140.32 84.837 140.744 85.071C141.178 85.305 141.516 85.6517 141.758 86.111C142.01 86.5703 142.135 87.125 142.135 87.775V92H140.666V87.996C140.666 87.3547 140.506 86.865 140.185 86.527C139.865 86.1803 139.427 86.007 138.872 86.007C138.318 86.007 137.876 86.1803 137.546 86.527C137.226 86.865 137.065 87.3547 137.065 87.996V92H135.583V82.38H137.065V85.669C137.317 85.3657 137.633 85.1317 138.014 84.967C138.404 84.8023 138.829 84.72 139.288 84.72ZM150.354 82.965C151.316 82.965 152.156 83.1513 152.876 83.524C153.604 83.888 154.163 84.4167 154.553 85.11C154.951 85.7947 155.151 86.5963 155.151 87.515C155.151 88.4337 154.951 89.231 154.553 89.907C154.163 90.583 153.604 91.103 152.876 91.467C152.156 91.8223 151.316 92 150.354 92H147.403V82.965H150.354ZM150.354 90.791C151.411 90.791 152.221 90.505 152.785 89.933C153.348 89.361 153.63 88.555 153.63 87.515C153.63 86.4663 153.348 85.6473 152.785 85.058C152.221 84.4687 151.411 84.174 150.354 84.174H148.885V90.791H150.354ZM156.126 88.386C156.126 87.6667 156.273 87.0297 156.568 86.475C156.871 85.9203 157.278 85.4913 157.79 85.188C158.31 84.876 158.882 84.72 159.506 84.72C160.069 84.72 160.559 84.8327 160.975 85.058C161.399 85.2747 161.737 85.5477 161.989 85.877V84.837H163.484V92H161.989V90.934C161.737 91.272 161.395 91.5537 160.962 91.779C160.528 92.0043 160.034 92.117 159.48 92.117C158.864 92.117 158.301 91.961 157.79 91.649C157.278 91.3283 156.871 90.8863 156.568 90.323C156.273 89.751 156.126 89.1053 156.126 88.386ZM161.989 88.412C161.989 87.918 161.885 87.489 161.677 87.125C161.477 86.761 161.213 86.4837 160.884 86.293C160.554 86.1023 160.199 86.007 159.818 86.007C159.436 86.007 159.081 86.1023 158.752 86.293C158.422 86.475 158.154 86.748 157.946 87.112C157.746 87.4673 157.647 87.892 157.647 88.386C157.647 88.88 157.746 89.3133 157.946 89.686C158.154 90.0587 158.422 90.3447 158.752 90.544C159.09 90.7347 159.445 90.83 159.818 90.83C160.199 90.83 160.554 90.7347 160.884 90.544C161.213 90.3533 161.477 90.076 161.677 89.712C161.885 89.3393 161.989 88.906 161.989 88.412ZM167.159 86.046V90.011C167.159 90.2797 167.22 90.4747 167.341 90.596C167.471 90.7087 167.688 90.765 167.991 90.765H168.901V92H167.731C167.064 92 166.552 91.844 166.197 91.532C165.842 91.22 165.664 90.713 165.664 90.011V86.046H164.819V84.837H165.664V83.056H167.159V84.837H168.901V86.046H167.159ZM169.773 88.386C169.773 87.6667 169.92 87.0297 170.215 86.475C170.518 85.9203 170.926 85.4913 171.437 85.188C171.957 84.876 172.529 84.72 173.153 84.72C173.716 84.72 174.206 84.8327 174.622 85.058C175.047 85.2747 175.385 85.5477 175.636 85.877V84.837H177.131V92H175.636V90.934C175.385 91.272 175.042 91.5537 174.609 91.779C174.176 92.0043 173.682 92.117 173.127 92.117C172.512 92.117 171.948 91.961 171.437 91.649C170.926 91.3283 170.518 90.8863 170.215 90.323C169.92 89.751 169.773 89.1053 169.773 88.386ZM175.636 88.412C175.636 87.918 175.532 87.489 175.324 87.125C175.125 86.761 174.86 86.4837 174.531 86.293C174.202 86.1023 173.846 86.007 173.465 86.007C173.084 86.007 172.728 86.1023 172.399 86.293C172.07 86.475 171.801 86.748 171.593 87.112C171.394 87.4673 171.294 87.892 171.294 88.386C171.294 88.88 171.394 89.3133 171.593 89.686C171.801 90.0587 172.07 90.3447 172.399 90.544C172.737 90.7347 173.092 90.83 173.465 90.83C173.846 90.83 174.202 90.7347 174.531 90.544C174.86 90.3533 175.125 90.076 175.324 89.712C175.532 89.3393 175.636 88.906 175.636 88.412Z" fill="white"/>
</svg>
