<svg width="47" height="47" viewBox="0 0 47 47" fill="none" xmlns="http://www.w3.org/2000/svg">
<circle cx="23.5" cy="23.5" r="23.5" fill="#F3F6FC"/>
<path d="M28.9832 22.693C28.9832 20.8568 28.1893 19.0959 26.776 17.7975C25.3627 16.4991 23.4458 15.7697 21.4472 15.7697C19.4485 15.7697 17.5316 16.4991 16.1183 17.7975C14.705 19.0959 13.9111 20.8568 13.9111 22.693L28.9832 22.693Z" fill="#07B1A7"/>
<path d="M18.3199 4.24182C15.3424 4.70503 12.5021 5.82404 10 7.51963L13.8161 13.2705C14.1322 13.0474 14.461 12.8385 14.8023 12.6438C16.8453 11.4968 19.1801 10.9234 21.8067 10.9234C24.3361 10.9234 26.5899 11.4805 28.568 12.5946C30.5461 13.7088 32.0864 15.2818 33.189 17.3136C34.2915 19.3126 34.8428 21.6229 34.8428 24.2446C34.8428 25.2605 34.7932 26.0278 34.6635 26.8471H29.6683L28.4976 30.389H34.1131C33.3024 32.8796 31.827 34.9278 29.6867 36.5335C28.2475 37.6076 26.5663 38.3149 24.6433 38.6556L26.1037 45C29.0379 44.3102 31.7862 42.9771 34.154 41.0949C36.5218 39.2126 38.4512 36.8274 39.8057 34.1081C41.1601 31.3887 41.9064 28.4017 41.9917 25.3585C42.0771 22.3154 41.4994 19.2904 40.2996 16.4979C39.0998 13.7054 37.3071 11.2136 35.0486 9.19884C32.7901 7.18411 30.121 5.69575 27.2301 4.83914C24.3392 3.98253 21.2974 3.77861 18.3199 4.24182Z" fill="#4249B3"/>
<path d="M13.911 26.8471C13.911 28.8669 14.7411 30.804 16.2186 32.2322C17.6962 33.6604 19.7001 34.4628 21.7897 34.4628C23.8792 34.4628 25.8832 33.6604 27.3607 32.2322C28.8382 30.804 29.6683 28.8669 29.6683 26.8471H13.911Z" fill="#4249B3"/>
</svg>
