<svg width="571" height="598" viewBox="0 0 571 598" fill="none" xmlns="http://www.w3.org/2000/svg">
<g filter="url(#filter0_dd_2380_8352)">
<circle cx="132" cy="153" r="116" fill="#4249B3"/>
<path d="M248 150C248 119.235 235.779 89.7298 214.024 67.9756C192.27 46.2214 162.765 34 132 34C101.235 34 71.7298 46.2214 49.9756 67.9756C28.2214 89.7298 16 119.235 16 150L132 150H248Z" fill="#0FCABF"/>
<path d="M100.127 177.04V179.3H94.307V182.88H98.767V185.1H94.307V191H91.507V177.04H100.127ZM103.532 178.6C103.039 178.6 102.626 178.447 102.292 178.14C101.972 177.82 101.812 177.427 101.812 176.96C101.812 176.493 101.972 176.107 102.292 175.8C102.626 175.48 103.039 175.32 103.532 175.32C104.026 175.32 104.432 175.48 104.752 175.8C105.086 176.107 105.252 176.493 105.252 176.96C105.252 177.427 105.086 177.82 104.752 178.14C104.432 178.447 104.026 178.6 103.532 178.6ZM104.912 179.92V191H102.112V179.92H104.912ZM113.819 179.76C115.139 179.76 116.205 180.18 117.019 181.02C117.832 181.847 118.239 183.007 118.239 184.5V191H115.439V184.88C115.439 184 115.219 183.327 114.779 182.86C114.339 182.38 113.739 182.14 112.979 182.14C112.205 182.14 111.592 182.38 111.139 182.86C110.699 183.327 110.479 184 110.479 184.88V191H107.679V179.92H110.479V181.3C110.852 180.82 111.325 180.447 111.899 180.18C112.485 179.9 113.125 179.76 113.819 179.76ZM122.321 178.6C121.828 178.6 121.415 178.447 121.081 178.14C120.761 177.82 120.601 177.427 120.601 176.96C120.601 176.493 120.761 176.107 121.081 175.8C121.415 175.48 121.828 175.32 122.321 175.32C122.815 175.32 123.221 175.48 123.541 175.8C123.875 176.107 124.041 176.493 124.041 176.96C124.041 177.427 123.875 177.82 123.541 178.14C123.221 178.447 122.815 178.6 122.321 178.6ZM123.701 179.92V191H120.901V179.92H123.701ZM130.708 191.18C129.801 191.18 128.988 191.02 128.268 190.7C127.548 190.367 126.975 189.92 126.548 189.36C126.135 188.8 125.908 188.18 125.868 187.5H128.688C128.741 187.927 128.948 188.28 129.308 188.56C129.681 188.84 130.141 188.98 130.688 188.98C131.221 188.98 131.635 188.873 131.928 188.66C132.235 188.447 132.388 188.173 132.388 187.84C132.388 187.48 132.201 187.213 131.828 187.04C131.468 186.853 130.888 186.653 130.088 186.44C129.261 186.24 128.581 186.033 128.048 185.82C127.528 185.607 127.075 185.28 126.688 184.84C126.315 184.4 126.128 183.807 126.128 183.06C126.128 182.447 126.301 181.887 126.648 181.38C127.008 180.873 127.515 180.473 128.168 180.18C128.835 179.887 129.615 179.74 130.508 179.74C131.828 179.74 132.881 180.073 133.668 180.74C134.455 181.393 134.888 182.28 134.968 183.4H132.288C132.248 182.96 132.061 182.613 131.728 182.36C131.408 182.093 130.975 181.96 130.428 181.96C129.921 181.96 129.528 182.053 129.248 182.24C128.981 182.427 128.848 182.687 128.848 183.02C128.848 183.393 129.035 183.68 129.408 183.88C129.781 184.067 130.361 184.26 131.148 184.46C131.948 184.66 132.608 184.867 133.128 185.08C133.648 185.293 134.095 185.627 134.468 186.08C134.855 186.52 135.055 187.107 135.068 187.84C135.068 188.48 134.888 189.053 134.528 189.56C134.181 190.067 133.675 190.467 133.008 190.76C132.355 191.04 131.588 191.18 130.708 191.18ZM143.606 179.76C144.446 179.76 145.193 179.947 145.846 180.32C146.5 180.68 147.006 181.22 147.366 181.94C147.74 182.647 147.926 183.5 147.926 184.5V191H145.126V184.88C145.126 184 144.906 183.327 144.466 182.86C144.026 182.38 143.426 182.14 142.666 182.14C141.893 182.14 141.28 182.38 140.826 182.86C140.386 183.327 140.166 184 140.166 184.88V191H137.366V176.2H140.166V181.3C140.526 180.82 141.006 180.447 141.606 180.18C142.206 179.9 142.873 179.76 143.606 179.76ZM160.889 185.22C160.889 185.62 160.862 185.98 160.809 186.3H152.709C152.776 187.1 153.056 187.727 153.549 188.18C154.042 188.633 154.649 188.86 155.369 188.86C156.409 188.86 157.149 188.413 157.589 187.52H160.609C160.289 188.587 159.676 189.467 158.769 190.16C157.862 190.84 156.749 191.18 155.429 191.18C154.362 191.18 153.402 190.947 152.549 190.48C151.709 190 151.049 189.327 150.569 188.46C150.102 187.593 149.869 186.593 149.869 185.46C149.869 184.313 150.102 183.307 150.569 182.44C151.036 181.573 151.689 180.907 152.529 180.44C153.369 179.973 154.336 179.74 155.429 179.74C156.482 179.74 157.422 179.967 158.249 180.42C159.089 180.873 159.736 181.52 160.189 182.36C160.656 183.187 160.889 184.14 160.889 185.22ZM157.989 184.42C157.976 183.7 157.716 183.127 157.209 182.7C156.702 182.26 156.082 182.04 155.349 182.04C154.656 182.04 154.069 182.253 153.589 182.68C153.122 183.093 152.836 183.673 152.729 184.42H157.989ZM162.213 185.42C162.213 184.3 162.433 183.307 162.873 182.44C163.326 181.573 163.939 180.907 164.713 180.44C165.486 179.973 166.346 179.74 167.293 179.74C168.013 179.74 168.699 179.9 169.353 180.22C170.006 180.527 170.526 180.94 170.913 181.46V176.2H173.753V191H170.913V189.36C170.566 189.907 170.079 190.347 169.453 190.68C168.826 191.013 168.099 191.18 167.273 191.18C166.339 191.18 165.486 190.94 164.713 190.46C163.939 189.98 163.326 189.307 162.873 188.44C162.433 187.56 162.213 186.553 162.213 185.42ZM170.933 185.46C170.933 184.78 170.799 184.2 170.533 183.72C170.266 183.227 169.906 182.853 169.453 182.6C168.999 182.333 168.513 182.2 167.993 182.2C167.473 182.2 166.993 182.327 166.553 182.58C166.113 182.833 165.753 183.207 165.473 183.7C165.206 184.18 165.073 184.753 165.073 185.42C165.073 186.087 165.206 186.673 165.473 187.18C165.753 187.673 166.113 188.053 166.553 188.32C167.006 188.587 167.486 188.72 167.993 188.72C168.513 188.72 168.999 188.593 169.453 188.34C169.906 188.073 170.266 187.7 170.533 187.22C170.799 186.727 170.933 186.14 170.933 185.46ZM105.759 209.36C105.759 210.107 105.579 210.807 105.219 211.46C104.873 212.113 104.319 212.64 103.559 213.04C102.813 213.44 101.866 213.64 100.719 213.64H98.3792V219H95.5792V205.04H100.719C101.799 205.04 102.719 205.227 103.479 205.6C104.239 205.973 104.806 206.487 105.179 207.14C105.566 207.793 105.759 208.533 105.759 209.36ZM100.599 211.38C101.373 211.38 101.946 211.207 102.319 210.86C102.693 210.5 102.879 210 102.879 209.36C102.879 208 102.119 207.32 100.599 207.32H98.3792V211.38H100.599ZM110.547 209.64C110.907 209.053 111.374 208.593 111.947 208.26C112.534 207.927 113.201 207.76 113.947 207.76V210.7H113.207C112.327 210.7 111.661 210.907 111.207 211.32C110.767 211.733 110.547 212.453 110.547 213.48V219H107.747V207.92H110.547V209.64ZM120.753 219.18C119.686 219.18 118.726 218.947 117.873 218.48C117.02 218 116.346 217.327 115.853 216.46C115.373 215.593 115.133 214.593 115.133 213.46C115.133 212.327 115.38 211.327 115.873 210.46C116.38 209.593 117.066 208.927 117.933 208.46C118.8 207.98 119.766 207.74 120.833 207.74C121.9 207.74 122.866 207.98 123.733 208.46C124.6 208.927 125.28 209.593 125.773 210.46C126.28 211.327 126.533 212.327 126.533 213.46C126.533 214.593 126.273 215.593 125.753 216.46C125.246 217.327 124.553 218 123.673 218.48C122.806 218.947 121.833 219.18 120.753 219.18ZM120.753 216.74C121.26 216.74 121.733 216.62 122.173 216.38C122.626 216.127 122.986 215.753 123.253 215.26C123.52 214.767 123.653 214.167 123.653 213.46C123.653 212.407 123.373 211.6 122.813 211.04C122.266 210.467 121.593 210.18 120.793 210.18C119.993 210.18 119.32 210.467 118.773 211.04C118.24 211.6 117.973 212.407 117.973 213.46C117.973 214.513 118.233 215.327 118.753 215.9C119.286 216.46 119.953 216.74 120.753 216.74ZM130.007 206.6C129.5 206.6 129.08 206.447 128.747 206.14C128.427 205.82 128.267 205.427 128.267 204.96C128.267 204.493 128.427 204.107 128.747 203.8C129.08 203.48 129.5 203.32 130.007 203.32C130.5 203.32 130.907 203.48 131.227 203.8C131.547 204.107 131.707 204.493 131.707 204.96C131.707 205.427 131.547 205.82 131.227 206.14C130.907 206.447 130.5 206.6 130.007 206.6ZM131.387 220.82C131.387 222.047 131.08 222.927 130.467 223.46C129.867 224.007 129 224.28 127.867 224.28H126.627V221.9H127.427C127.854 221.9 128.154 221.813 128.327 221.64C128.5 221.48 128.587 221.213 128.587 220.84V207.92H131.387V220.82ZM144.453 213.22C144.453 213.62 144.427 213.98 144.373 214.3H136.273C136.34 215.1 136.62 215.727 137.113 216.18C137.607 216.633 138.213 216.86 138.933 216.86C139.973 216.86 140.713 216.413 141.153 215.52H144.173C143.853 216.587 143.24 217.467 142.333 218.16C141.427 218.84 140.313 219.18 138.993 219.18C137.927 219.18 136.967 218.947 136.113 218.48C135.273 218 134.613 217.327 134.133 216.46C133.667 215.593 133.433 214.593 133.433 213.46C133.433 212.313 133.667 211.307 134.133 210.44C134.6 209.573 135.253 208.907 136.093 208.44C136.933 207.973 137.9 207.74 138.993 207.74C140.047 207.74 140.987 207.967 141.813 208.42C142.653 208.873 143.3 209.52 143.753 210.36C144.22 211.187 144.453 212.14 144.453 213.22ZM141.553 212.42C141.54 211.7 141.28 211.127 140.773 210.7C140.267 210.26 139.647 210.04 138.913 210.04C138.22 210.04 137.633 210.253 137.153 210.68C136.687 211.093 136.4 211.673 136.293 212.42H141.553ZM145.777 213.46C145.777 212.313 146.011 211.313 146.477 210.46C146.944 209.593 147.591 208.927 148.417 208.46C149.244 207.98 150.191 207.74 151.257 207.74C152.631 207.74 153.764 208.087 154.657 208.78C155.564 209.46 156.171 210.42 156.477 211.66H153.457C153.297 211.18 153.024 210.807 152.637 210.54C152.264 210.26 151.797 210.12 151.237 210.12C150.437 210.12 149.804 210.413 149.337 211C148.871 211.573 148.637 212.393 148.637 213.46C148.637 214.513 148.871 215.333 149.337 215.92C149.804 216.493 150.437 216.78 151.237 216.78C152.371 216.78 153.111 216.273 153.457 215.26H156.477C156.171 216.46 155.564 217.413 154.657 218.12C153.751 218.827 152.617 219.18 151.257 219.18C150.191 219.18 149.244 218.947 148.417 218.48C147.591 218 146.944 217.333 146.477 216.48C146.011 215.613 145.777 214.607 145.777 213.46ZM161.788 210.22V215.58C161.788 215.953 161.875 216.227 162.048 216.4C162.235 216.56 162.542 216.64 162.968 216.64H164.268V219H162.508C160.148 219 158.968 217.853 158.968 215.56V210.22H157.648V207.92H158.968V205.18H161.788V207.92H164.268V210.22H161.788ZM170.522 219.18C169.616 219.18 168.802 219.02 168.082 218.7C167.362 218.367 166.789 217.92 166.362 217.36C165.949 216.8 165.722 216.18 165.682 215.5H168.502C168.556 215.927 168.762 216.28 169.122 216.56C169.496 216.84 169.956 216.98 170.502 216.98C171.036 216.98 171.449 216.873 171.742 216.66C172.049 216.447 172.202 216.173 172.202 215.84C172.202 215.48 172.016 215.213 171.642 215.04C171.282 214.853 170.702 214.653 169.902 214.44C169.076 214.24 168.396 214.033 167.862 213.82C167.342 213.607 166.889 213.28 166.502 212.84C166.129 212.4 165.942 211.807 165.942 211.06C165.942 210.447 166.116 209.887 166.462 209.38C166.822 208.873 167.329 208.473 167.982 208.18C168.649 207.887 169.429 207.74 170.322 207.74C171.642 207.74 172.696 208.073 173.482 208.74C174.269 209.393 174.702 210.28 174.782 211.4H172.102C172.062 210.96 171.876 210.613 171.542 210.36C171.222 210.093 170.789 209.96 170.242 209.96C169.736 209.96 169.342 210.053 169.062 210.24C168.796 210.427 168.662 210.687 168.662 211.02C168.662 211.393 168.849 211.68 169.222 211.88C169.596 212.067 170.176 212.26 170.962 212.46C171.762 212.66 172.422 212.867 172.942 213.08C173.462 213.293 173.909 213.627 174.282 214.08C174.669 214.52 174.869 215.107 174.882 215.84C174.882 216.48 174.702 217.053 174.342 217.56C173.996 218.067 173.489 218.467 172.822 218.76C172.169 219.04 171.402 219.18 170.522 219.18Z" fill="white"/>
<path d="M98.3452 95.2V89.008H109.913V124H103.001V95.2H98.3452ZM116.552 106.048C116.552 100.512 117.544 96.176 119.528 93.04C121.544 89.904 124.872 88.336 129.512 88.336C134.152 88.336 137.464 89.904 139.448 93.04C141.464 96.176 142.472 100.512 142.472 106.048C142.472 111.616 141.464 115.984 139.448 119.152C137.464 122.32 134.152 123.904 129.512 123.904C124.872 123.904 121.544 122.32 119.528 119.152C117.544 115.984 116.552 111.616 116.552 106.048ZM135.848 106.048C135.848 103.68 135.688 101.696 135.368 100.096C135.08 98.464 134.472 97.136 133.544 96.112C132.648 95.088 131.304 94.576 129.512 94.576C127.72 94.576 126.36 95.088 125.432 96.112C124.536 97.136 123.928 98.464 123.608 100.096C123.32 101.696 123.176 103.68 123.176 106.048C123.176 108.48 123.32 110.528 123.608 112.192C123.896 113.824 124.504 115.152 125.432 116.176C126.36 117.168 127.72 117.664 129.512 117.664C131.304 117.664 132.664 117.168 133.592 116.176C134.52 115.152 135.128 113.824 135.416 112.192C135.704 110.528 135.848 108.48 135.848 106.048ZM173.455 109.84H164.383V119.152H158.047V109.84H148.975V103.984H158.047V94.672H164.383V103.984H173.455V109.84Z" fill="white"/>
<path d="M183.215 40.7845C210.102 52.6333 232.049 73.4383 245.316 99.6545C258.583 125.871 262.35 155.876 255.974 184.558C249.598 213.24 233.475 238.824 210.35 256.951C187.226 275.078 158.532 284.626 129.158 283.968C99.7828 283.311 71.5448 272.488 49.255 253.344C26.9652 234.201 12.0027 207.921 6.91694 178.982C1.83119 150.044 6.93685 120.237 21.364 94.6408C35.7911 69.0446 58.647 49.2426 86.0374 38.6089L94.8995 61.436C72.7903 70.0194 54.3412 86.0033 42.6958 106.664C31.0503 127.325 26.9291 151.385 31.0343 174.744C35.1394 198.103 47.217 219.316 65.2091 234.768C83.2012 250.221 105.995 258.957 129.706 259.487C153.417 260.018 176.578 252.311 195.244 237.679C213.909 223.048 226.924 202.396 232.07 179.245C237.217 156.093 234.177 131.873 223.467 110.711C212.758 89.5498 195.043 72.7563 173.34 63.192L183.215 40.7845Z" fill="#EBF1FD"/>
<circle cx="135" cy="37" r="36" fill="white"/>
<path d="M133.333 28H130V24.6666H133.333V28ZM140 24.6666H136.667V28H140V24.6666ZM130 41.3333H133.333V38H130V41.3333ZM146.667 34.6666V31.3333H143.333V34.6666H146.667ZM146.667 41.3333V38H143.333V41.3333H146.667ZM136.667 41.3333H140V38H136.667V41.3333ZM146.667 24.6666H143.333V28H146.667V24.6666ZM136.667 31.3333V28H133.333V31.3333H136.667ZM126.667 34.6666V31.3333H130V28H126.667V24.6666H123.333V51.3333H126.667V38H130V34.6666H126.667ZM140 38H143.333V34.6666H140V38ZM133.333 34.6666V38H136.667V34.6666H133.333ZM130 31.3333V34.6666H133.333V31.3333H130ZM136.667 34.6666H140V31.3333H136.667V34.6666ZM140 28V31.3333H143.333V28H140Z" fill="#022A62"/>
</g>
<g filter="url(#filter1_dd_2380_8352)">
<circle cx="439" cy="153" r="116" fill="#4249B3"/>
<path d="M555 150C555 119.235 542.779 89.7298 521.024 67.9756C499.27 46.2214 469.765 34 439 34C408.235 34 378.73 46.2214 356.976 67.9756C335.221 89.7298 323 119.235 323 150L439 150H555Z" fill="#0FCABF"/>
<path d="M401.657 191.14C400.684 191.14 399.804 190.973 399.017 190.64C398.244 190.307 397.63 189.827 397.177 189.2C396.724 188.573 396.49 187.833 396.477 186.98H399.477C399.517 187.553 399.717 188.007 400.077 188.34C400.45 188.673 400.957 188.84 401.597 188.84C402.25 188.84 402.764 188.687 403.137 188.38C403.51 188.06 403.697 187.647 403.697 187.14C403.697 186.727 403.57 186.387 403.317 186.12C403.064 185.853 402.744 185.647 402.357 185.5C401.984 185.34 401.464 185.167 400.797 184.98C399.89 184.713 399.15 184.453 398.577 184.2C398.017 183.933 397.53 183.54 397.117 183.02C396.717 182.487 396.517 181.78 396.517 180.9C396.517 180.073 396.724 179.353 397.137 178.74C397.55 178.127 398.13 177.66 398.877 177.34C399.624 177.007 400.477 176.84 401.437 176.84C402.877 176.84 404.044 177.193 404.937 177.9C405.844 178.593 406.344 179.567 406.437 180.82H403.357C403.33 180.34 403.124 179.947 402.737 179.64C402.364 179.32 401.864 179.16 401.237 179.16C400.69 179.16 400.25 179.3 399.917 179.58C399.597 179.86 399.437 180.267 399.437 180.8C399.437 181.173 399.557 181.487 399.797 181.74C400.05 181.98 400.357 182.18 400.717 182.34C401.09 182.487 401.61 182.66 402.277 182.86C403.184 183.127 403.924 183.393 404.497 183.66C405.07 183.927 405.564 184.327 405.977 184.86C406.39 185.393 406.597 186.093 406.597 186.96C406.597 187.707 406.404 188.4 406.017 189.04C405.63 189.68 405.064 190.193 404.317 190.58C403.57 190.953 402.684 191.14 401.657 191.14ZM408.305 185.42C408.305 184.3 408.525 183.307 408.965 182.44C409.418 181.573 410.025 180.907 410.785 180.44C411.558 179.973 412.418 179.74 413.365 179.74C414.191 179.74 414.911 179.907 415.525 180.24C416.151 180.573 416.651 180.993 417.025 181.5V179.92H419.845V191H417.025V189.38C416.665 189.9 416.165 190.333 415.525 190.68C414.898 191.013 414.171 191.18 413.345 191.18C412.411 191.18 411.558 190.94 410.785 190.46C410.025 189.98 409.418 189.307 408.965 188.44C408.525 187.56 408.305 186.553 408.305 185.42ZM417.025 185.46C417.025 184.78 416.891 184.2 416.625 183.72C416.358 183.227 415.998 182.853 415.545 182.6C415.091 182.333 414.605 182.2 414.085 182.2C413.565 182.2 413.085 182.327 412.645 182.58C412.205 182.833 411.845 183.207 411.565 183.7C411.298 184.18 411.165 184.753 411.165 185.42C411.165 186.087 411.298 186.673 411.565 187.18C411.845 187.673 412.205 188.053 412.645 188.32C413.098 188.587 413.578 188.72 414.085 188.72C414.605 188.72 415.091 188.593 415.545 188.34C415.998 188.073 416.358 187.7 416.625 187.22C416.891 186.727 417.025 186.14 417.025 185.46ZM425.839 182.22V187.58C425.839 187.953 425.926 188.227 426.099 188.4C426.286 188.56 426.593 188.64 427.019 188.64H428.319V191H426.559C424.199 191 423.019 189.853 423.019 187.56V182.22H421.699V179.92H423.019V177.18H425.839V179.92H428.319V182.22H425.839ZM431.753 178.6C431.26 178.6 430.846 178.447 430.513 178.14C430.193 177.82 430.033 177.427 430.033 176.96C430.033 176.493 430.193 176.107 430.513 175.8C430.846 175.48 431.26 175.32 431.753 175.32C432.246 175.32 432.653 175.48 432.973 175.8C433.306 176.107 433.473 176.493 433.473 176.96C433.473 177.427 433.306 177.82 432.973 178.14C432.653 178.447 432.246 178.6 431.753 178.6ZM433.133 179.92V191H430.333V179.92H433.133ZM440.14 191.18C439.233 191.18 438.42 191.02 437.7 190.7C436.98 190.367 436.406 189.92 435.98 189.36C435.566 188.8 435.34 188.18 435.3 187.5H438.12C438.173 187.927 438.38 188.28 438.74 188.56C439.113 188.84 439.573 188.98 440.12 188.98C440.653 188.98 441.066 188.873 441.36 188.66C441.666 188.447 441.82 188.173 441.82 187.84C441.82 187.48 441.633 187.213 441.26 187.04C440.9 186.853 440.32 186.653 439.52 186.44C438.693 186.24 438.013 186.033 437.48 185.82C436.96 185.607 436.506 185.28 436.12 184.84C435.746 184.4 435.56 183.807 435.56 183.06C435.56 182.447 435.733 181.887 436.08 181.38C436.44 180.873 436.946 180.473 437.6 180.18C438.266 179.887 439.046 179.74 439.94 179.74C441.26 179.74 442.313 180.073 443.1 180.74C443.886 181.393 444.32 182.28 444.4 183.4H441.72C441.68 182.96 441.493 182.613 441.16 182.36C440.84 182.093 440.406 181.96 439.86 181.96C439.353 181.96 438.96 182.053 438.68 182.24C438.413 182.427 438.28 182.687 438.28 183.02C438.28 183.393 438.466 183.68 438.84 183.88C439.213 184.067 439.793 184.26 440.58 184.46C441.38 184.66 442.04 184.867 442.56 185.08C443.08 185.293 443.526 185.627 443.9 186.08C444.286 186.52 444.486 187.107 444.5 187.84C444.5 188.48 444.32 189.053 443.96 189.56C443.613 190.067 443.106 190.467 442.44 190.76C441.786 191.04 441.02 191.18 440.14 191.18ZM451.878 182.22H449.938V191H447.098V182.22H445.838V179.92H447.098V179.36C447.098 178 447.485 177 448.258 176.36C449.031 175.72 450.198 175.42 451.758 175.46V177.82C451.078 177.807 450.605 177.92 450.338 178.16C450.071 178.4 449.938 178.833 449.938 179.46V179.92H451.878V182.22ZM455.113 178.6C454.619 178.6 454.206 178.447 453.873 178.14C453.553 177.82 453.393 177.427 453.393 176.96C453.393 176.493 453.553 176.107 453.873 175.8C454.206 175.48 454.619 175.32 455.113 175.32C455.606 175.32 456.013 175.48 456.333 175.8C456.666 176.107 456.833 176.493 456.833 176.96C456.833 177.427 456.666 177.82 456.333 178.14C456.013 178.447 455.606 178.6 455.113 178.6ZM456.493 179.92V191H453.693V179.92H456.493ZM469.559 185.22C469.559 185.62 469.532 185.98 469.479 186.3H461.379C461.446 187.1 461.726 187.727 462.219 188.18C462.712 188.633 463.319 188.86 464.039 188.86C465.079 188.86 465.819 188.413 466.259 187.52H469.279C468.959 188.587 468.346 189.467 467.439 190.16C466.532 190.84 465.419 191.18 464.099 191.18C463.032 191.18 462.072 190.947 461.219 190.48C460.379 190 459.719 189.327 459.239 188.46C458.772 187.593 458.539 186.593 458.539 185.46C458.539 184.313 458.772 183.307 459.239 182.44C459.706 181.573 460.359 180.907 461.199 180.44C462.039 179.973 463.006 179.74 464.099 179.74C465.152 179.74 466.092 179.967 466.919 180.42C467.759 180.873 468.406 181.52 468.859 182.36C469.326 183.187 469.559 184.14 469.559 185.22ZM466.659 184.42C466.646 183.7 466.386 183.127 465.879 182.7C465.372 182.26 464.752 182.04 464.019 182.04C463.326 182.04 462.739 182.253 462.259 182.68C461.792 183.093 461.506 183.673 461.399 184.42H466.659ZM470.883 185.42C470.883 184.3 471.103 183.307 471.543 182.44C471.996 181.573 472.609 180.907 473.383 180.44C474.156 179.973 475.016 179.74 475.963 179.74C476.683 179.74 477.369 179.9 478.023 180.22C478.676 180.527 479.196 180.94 479.583 181.46V176.2H482.423V191H479.583V189.36C479.236 189.907 478.749 190.347 478.123 190.68C477.496 191.013 476.769 191.18 475.943 191.18C475.009 191.18 474.156 190.94 473.383 190.46C472.609 189.98 471.996 189.307 471.543 188.44C471.103 187.56 470.883 186.553 470.883 185.42ZM479.603 185.46C479.603 184.78 479.469 184.2 479.203 183.72C478.936 183.227 478.576 182.853 478.123 182.6C477.669 182.333 477.183 182.2 476.663 182.2C476.143 182.2 475.663 182.327 475.223 182.58C474.783 182.833 474.423 183.207 474.143 183.7C473.876 184.18 473.743 184.753 473.743 185.42C473.743 186.087 473.876 186.673 474.143 187.18C474.423 187.673 474.783 188.053 475.223 188.32C475.676 188.587 476.156 188.72 476.663 188.72C477.183 188.72 477.669 188.593 478.123 188.34C478.576 188.073 478.936 187.7 479.203 187.22C479.469 186.727 479.603 186.14 479.603 185.46ZM407.348 212C407.348 210.627 407.655 209.4 408.268 208.32C408.895 207.227 409.742 206.38 410.808 205.78C411.888 205.167 413.095 204.86 414.428 204.86C415.988 204.86 417.355 205.26 418.528 206.06C419.702 206.86 420.522 207.967 420.988 209.38H417.768C417.448 208.713 416.995 208.213 416.408 207.88C415.835 207.547 415.168 207.38 414.408 207.38C413.595 207.38 412.868 207.573 412.228 207.96C411.602 208.333 411.108 208.867 410.748 209.56C410.402 210.253 410.228 211.067 410.228 212C410.228 212.92 410.402 213.733 410.748 214.44C411.108 215.133 411.602 215.673 412.228 216.06C412.868 216.433 413.595 216.62 414.408 216.62C415.168 216.62 415.835 216.453 416.408 216.12C416.995 215.773 417.448 215.267 417.768 214.6H420.988C420.522 216.027 419.702 217.14 418.528 217.94C417.368 218.727 416.002 219.12 414.428 219.12C413.095 219.12 411.888 218.82 410.808 218.22C409.742 217.607 408.895 216.76 408.268 215.68C407.655 214.6 407.348 213.373 407.348 212ZM426.18 204.2V219H423.38V204.2H426.18ZM430.366 206.6C429.873 206.6 429.46 206.447 429.126 206.14C428.806 205.82 428.646 205.427 428.646 204.96C428.646 204.493 428.806 204.107 429.126 203.8C429.46 203.48 429.873 203.32 430.366 203.32C430.86 203.32 431.266 203.48 431.586 203.8C431.92 204.107 432.086 204.493 432.086 204.96C432.086 205.427 431.92 205.82 431.586 206.14C431.266 206.447 430.86 206.6 430.366 206.6ZM431.746 207.92V219H428.946V207.92H431.746ZM444.813 213.22C444.813 213.62 444.786 213.98 444.733 214.3H436.633C436.699 215.1 436.979 215.727 437.473 216.18C437.966 216.633 438.573 216.86 439.293 216.86C440.333 216.86 441.073 216.413 441.513 215.52H444.533C444.213 216.587 443.599 217.467 442.693 218.16C441.786 218.84 440.673 219.18 439.353 219.18C438.286 219.18 437.326 218.947 436.473 218.48C435.633 218 434.973 217.327 434.493 216.46C434.026 215.593 433.793 214.593 433.793 213.46C433.793 212.313 434.026 211.307 434.493 210.44C434.959 209.573 435.613 208.907 436.453 208.44C437.293 207.973 438.259 207.74 439.353 207.74C440.406 207.74 441.346 207.967 442.173 208.42C443.013 208.873 443.659 209.52 444.113 210.36C444.579 211.187 444.813 212.14 444.813 213.22ZM441.913 212.42C441.899 211.7 441.639 211.127 441.133 210.7C440.626 210.26 440.006 210.04 439.273 210.04C438.579 210.04 437.993 210.253 437.513 210.68C437.046 211.093 436.759 211.673 436.653 212.42H441.913ZM452.997 207.76C454.317 207.76 455.383 208.18 456.197 209.02C457.01 209.847 457.417 211.007 457.417 212.5V219H454.617V212.88C454.617 212 454.397 211.327 453.957 210.86C453.517 210.38 452.917 210.14 452.157 210.14C451.383 210.14 450.77 210.38 450.317 210.86C449.877 211.327 449.657 212 449.657 212.88V219H446.857V207.92H449.657V209.3C450.03 208.82 450.503 208.447 451.077 208.18C451.663 207.9 452.303 207.76 452.997 207.76ZM463.339 210.22V215.58C463.339 215.953 463.426 216.227 463.599 216.4C463.786 216.56 464.093 216.64 464.519 216.64H465.819V219H464.059C461.699 219 460.519 217.853 460.519 215.56V210.22H459.199V207.92H460.519V205.18H463.339V207.92H465.819V210.22H463.339ZM472.073 219.18C471.166 219.18 470.353 219.02 469.633 218.7C468.913 218.367 468.34 217.92 467.913 217.36C467.5 216.8 467.273 216.18 467.233 215.5H470.053C470.106 215.927 470.313 216.28 470.673 216.56C471.046 216.84 471.506 216.98 472.053 216.98C472.586 216.98 473 216.873 473.293 216.66C473.6 216.447 473.753 216.173 473.753 215.84C473.753 215.48 473.566 215.213 473.193 215.04C472.833 214.853 472.253 214.653 471.453 214.44C470.626 214.24 469.946 214.033 469.413 213.82C468.893 213.607 468.44 213.28 468.053 212.84C467.68 212.4 467.493 211.807 467.493 211.06C467.493 210.447 467.666 209.887 468.013 209.38C468.373 208.873 468.88 208.473 469.533 208.18C470.2 207.887 470.98 207.74 471.873 207.74C473.193 207.74 474.246 208.073 475.033 208.74C475.82 209.393 476.253 210.28 476.333 211.4H473.653C473.613 210.96 473.426 210.613 473.093 210.36C472.773 210.093 472.34 209.96 471.793 209.96C471.286 209.96 470.893 210.053 470.613 210.24C470.346 210.427 470.213 210.687 470.213 211.02C470.213 211.393 470.4 211.68 470.773 211.88C471.146 212.067 471.726 212.26 472.513 212.46C473.313 212.66 473.973 212.867 474.493 213.08C475.013 213.293 475.46 213.627 475.833 214.08C476.22 214.52 476.42 215.107 476.433 215.84C476.433 216.48 476.253 217.053 475.893 217.56C475.546 218.067 475.04 218.467 474.373 218.76C473.72 219.04 472.953 219.18 472.073 219.18Z" fill="white"/>
<path d="M392.531 116.416C395.603 113.856 398.051 111.728 399.875 110.032C401.699 108.304 403.219 106.512 404.435 104.656C405.651 102.8 406.259 100.976 406.259 99.184C406.259 97.552 405.875 96.272 405.107 95.344C404.339 94.416 403.155 93.952 401.555 93.952C399.955 93.952 398.723 94.496 397.859 95.584C396.995 96.64 396.547 98.096 396.515 99.952H389.987C390.115 96.112 391.251 93.2 393.395 91.216C395.571 89.232 398.323 88.24 401.651 88.24C405.299 88.24 408.099 89.216 410.051 91.168C412.003 93.088 412.979 95.632 412.979 98.8C412.979 101.296 412.307 103.68 410.963 105.952C409.619 108.224 408.083 110.208 406.355 111.904C404.627 113.568 402.371 115.584 399.587 117.952H413.747V123.52H390.035V118.528L392.531 116.416ZM425.758 114.16C426.014 115.568 426.59 116.656 427.486 117.424C428.414 118.16 429.646 118.528 431.182 118.528C433.166 118.528 434.606 117.712 435.502 116.08C436.398 114.416 436.846 111.632 436.846 107.728C436.11 108.752 435.07 109.552 433.726 110.128C432.414 110.704 430.99 110.992 429.454 110.992C427.406 110.992 425.55 110.576 423.886 109.744C422.254 108.88 420.958 107.616 419.998 105.952C419.038 104.256 418.558 102.208 418.558 99.808C418.558 96.256 419.614 93.44 421.726 91.36C423.838 89.248 426.718 88.192 430.366 88.192C434.91 88.192 438.11 89.648 439.966 92.56C441.854 95.472 442.798 99.856 442.798 105.712C442.798 109.872 442.43 113.28 441.694 115.936C440.99 118.592 439.758 120.608 437.998 121.984C436.27 123.36 433.902 124.048 430.894 124.048C428.526 124.048 426.51 123.6 424.846 122.704C423.182 121.776 421.902 120.576 421.006 119.104C420.142 117.6 419.646 115.952 419.518 114.16H425.758ZM430.846 105.52C432.51 105.52 433.822 105.008 434.782 103.984C435.742 102.96 436.222 101.584 436.222 99.856C436.222 97.968 435.71 96.512 434.686 95.488C433.694 94.432 432.334 93.904 430.606 93.904C428.878 93.904 427.502 94.448 426.478 95.536C425.486 96.592 424.99 98 424.99 99.76C424.99 101.456 425.47 102.848 426.43 103.936C427.422 104.992 428.894 105.52 430.846 105.52ZM470.3 94.096L457.532 124H450.716L463.58 94.864H447.164V89.104H470.3V94.096ZM500.197 109.84H491.125V119.152H484.789V109.84H475.717V103.984H484.789V94.672H491.125V103.984H500.197V109.84Z" fill="white"/>
<path d="M490.215 40.7845C517.102 52.6333 539.049 73.4383 552.316 99.6545C565.583 125.871 569.35 155.876 562.974 184.558C556.598 213.24 540.475 238.824 517.35 256.951C494.226 275.078 465.532 284.626 436.158 283.968C406.783 283.311 378.545 272.488 356.255 253.344C333.965 234.201 319.003 207.921 313.917 178.982C308.831 150.044 313.937 120.237 328.364 94.6408C342.791 69.0446 365.647 49.2426 393.037 38.6089L401.9 61.436C379.79 70.0194 361.341 86.0033 349.696 106.664C338.05 127.325 333.929 151.385 338.034 174.744C342.139 198.103 354.217 219.316 372.209 234.768C390.201 250.221 412.995 258.957 436.706 259.487C460.417 260.018 483.578 252.311 502.244 237.679C520.909 223.048 533.924 202.396 539.07 179.245C544.217 156.093 541.177 131.873 530.467 110.711C519.758 89.5498 502.043 72.7563 480.34 63.192L490.215 40.7845Z" fill="#EBF1FD"/>
<circle cx="442" cy="37" r="36" fill="#F3F6FC"/>
<path d="M457 31.3333H446.483L448.067 23.7166L448.117 23.1833C448.117 22.5 447.833 21.8666 447.383 21.4166L445.617 19.6666L434.65 30.65C434.033 31.25 433.667 32.0833 433.667 33V49.6666C433.667 51.5 435.167 53 437 53H452C453.383 53 454.567 52.1666 455.067 50.9666L460.1 39.2166C460.25 38.8333 460.333 38.4333 460.333 38V34.6666C460.333 32.8333 458.833 31.3333 457 31.3333ZM457 38L452 49.6666H437V33L444.233 25.7666L442.383 34.6666H457V38ZM423.667 33H430.333V53H423.667V33Z" fill="#022A62"/>
</g>
<g filter="url(#filter2_dd_2380_8352)">
<circle cx="132" cy="458" r="116" fill="#4249B3"/>
<path d="M248 455C248 424.235 235.779 394.73 214.024 372.976C192.27 351.221 162.765 339 132 339C101.235 339 71.7298 351.221 49.9756 372.976C28.2214 394.73 16 424.235 16 455L132 455H248Z" fill="#0FCABF"/>
<path d="M106.759 486.36C106.759 487.107 106.579 487.807 106.219 488.46C105.873 489.113 105.319 489.64 104.559 490.04C103.813 490.44 102.866 490.64 101.719 490.64H99.3792V496H96.5792V482.04H101.719C102.799 482.04 103.719 482.227 104.479 482.6C105.239 482.973 105.806 483.487 106.179 484.14C106.566 484.793 106.759 485.533 106.759 486.36ZM101.599 488.38C102.373 488.38 102.946 488.207 103.319 487.86C103.693 487.5 103.879 487 103.879 486.36C103.879 485 103.119 484.32 101.599 484.32H99.3792V488.38H101.599ZM111.547 486.64C111.907 486.053 112.374 485.593 112.947 485.26C113.534 484.927 114.201 484.76 114.947 484.76V487.7H114.207C113.327 487.7 112.661 487.907 112.207 488.32C111.767 488.733 111.547 489.453 111.547 490.48V496H108.747V484.92H111.547V486.64ZM121.753 496.18C120.686 496.18 119.726 495.947 118.873 495.48C118.02 495 117.346 494.327 116.853 493.46C116.373 492.593 116.133 491.593 116.133 490.46C116.133 489.327 116.38 488.327 116.873 487.46C117.38 486.593 118.066 485.927 118.933 485.46C119.8 484.98 120.766 484.74 121.833 484.74C122.9 484.74 123.866 484.98 124.733 485.46C125.6 485.927 126.28 486.593 126.773 487.46C127.28 488.327 127.533 489.327 127.533 490.46C127.533 491.593 127.273 492.593 126.753 493.46C126.246 494.327 125.553 495 124.673 495.48C123.806 495.947 122.833 496.18 121.753 496.18ZM121.753 493.74C122.26 493.74 122.733 493.62 123.173 493.38C123.626 493.127 123.986 492.753 124.253 492.26C124.52 491.767 124.653 491.167 124.653 490.46C124.653 489.407 124.373 488.6 123.813 488.04C123.266 487.467 122.593 487.18 121.793 487.18C120.993 487.18 120.32 487.467 119.773 488.04C119.24 488.6 118.973 489.407 118.973 490.46C118.973 491.513 119.233 492.327 119.753 492.9C120.286 493.46 120.953 493.74 121.753 493.74ZM131.007 483.6C130.5 483.6 130.08 483.447 129.747 483.14C129.427 482.82 129.267 482.427 129.267 481.96C129.267 481.493 129.427 481.107 129.747 480.8C130.08 480.48 130.5 480.32 131.007 480.32C131.5 480.32 131.907 480.48 132.227 480.8C132.547 481.107 132.707 481.493 132.707 481.96C132.707 482.427 132.547 482.82 132.227 483.14C131.907 483.447 131.5 483.6 131.007 483.6ZM132.387 497.82C132.387 499.047 132.08 499.927 131.467 500.46C130.867 501.007 130 501.28 128.867 501.28H127.627V498.9H128.427C128.854 498.9 129.154 498.813 129.327 498.64C129.5 498.48 129.587 498.213 129.587 497.84V484.92H132.387V497.82ZM145.453 490.22C145.453 490.62 145.427 490.98 145.373 491.3H137.273C137.34 492.1 137.62 492.727 138.113 493.18C138.607 493.633 139.213 493.86 139.933 493.86C140.973 493.86 141.713 493.413 142.153 492.52H145.173C144.853 493.587 144.24 494.467 143.333 495.16C142.427 495.84 141.313 496.18 139.993 496.18C138.927 496.18 137.967 495.947 137.113 495.48C136.273 495 135.613 494.327 135.133 493.46C134.667 492.593 134.433 491.593 134.433 490.46C134.433 489.313 134.667 488.307 135.133 487.44C135.6 486.573 136.253 485.907 137.093 485.44C137.933 484.973 138.9 484.74 139.993 484.74C141.047 484.74 141.987 484.967 142.813 485.42C143.653 485.873 144.3 486.52 144.753 487.36C145.22 488.187 145.453 489.14 145.453 490.22ZM142.553 489.42C142.54 488.7 142.28 488.127 141.773 487.7C141.267 487.26 140.647 487.04 139.913 487.04C139.22 487.04 138.633 487.253 138.153 487.68C137.687 488.093 137.4 488.673 137.293 489.42H142.553ZM146.777 490.46C146.777 489.313 147.011 488.313 147.477 487.46C147.944 486.593 148.591 485.927 149.417 485.46C150.244 484.98 151.191 484.74 152.257 484.74C153.631 484.74 154.764 485.087 155.657 485.78C156.564 486.46 157.171 487.42 157.477 488.66H154.457C154.297 488.18 154.024 487.807 153.637 487.54C153.264 487.26 152.797 487.12 152.237 487.12C151.437 487.12 150.804 487.413 150.337 488C149.871 488.573 149.637 489.393 149.637 490.46C149.637 491.513 149.871 492.333 150.337 492.92C150.804 493.493 151.437 493.78 152.237 493.78C153.371 493.78 154.111 493.273 154.457 492.26H157.477C157.171 493.46 156.564 494.413 155.657 495.12C154.751 495.827 153.617 496.18 152.257 496.18C151.191 496.18 150.244 495.947 149.417 495.48C148.591 495 147.944 494.333 147.477 493.48C147.011 492.613 146.777 491.607 146.777 490.46ZM162.788 487.22V492.58C162.788 492.953 162.875 493.227 163.048 493.4C163.235 493.56 163.542 493.64 163.968 493.64H165.268V496H163.508C161.148 496 159.968 494.853 159.968 492.56V487.22H158.648V484.92H159.968V482.18H162.788V484.92H165.268V487.22H162.788ZM171.522 496.18C170.616 496.18 169.802 496.02 169.082 495.7C168.362 495.367 167.789 494.92 167.362 494.36C166.949 493.8 166.722 493.18 166.682 492.5H169.502C169.556 492.927 169.762 493.28 170.122 493.56C170.496 493.84 170.956 493.98 171.502 493.98C172.036 493.98 172.449 493.873 172.742 493.66C173.049 493.447 173.202 493.173 173.202 492.84C173.202 492.48 173.016 492.213 172.642 492.04C172.282 491.853 171.702 491.653 170.902 491.44C170.076 491.24 169.396 491.033 168.862 490.82C168.342 490.607 167.889 490.28 167.502 489.84C167.129 489.4 166.942 488.807 166.942 488.06C166.942 487.447 167.116 486.887 167.462 486.38C167.822 485.873 168.329 485.473 168.982 485.18C169.649 484.887 170.429 484.74 171.322 484.74C172.642 484.74 173.696 485.073 174.482 485.74C175.269 486.393 175.702 487.28 175.782 488.4H173.102C173.062 487.96 172.876 487.613 172.542 487.36C172.222 487.093 171.789 486.96 171.242 486.96C170.736 486.96 170.342 487.053 170.062 487.24C169.796 487.427 169.662 487.687 169.662 488.02C169.662 488.393 169.849 488.68 170.222 488.88C170.596 489.067 171.176 489.26 171.962 489.46C172.762 489.66 173.422 489.867 173.942 490.08C174.462 490.293 174.909 490.627 175.282 491.08C175.669 491.52 175.869 492.107 175.882 492.84C175.882 493.48 175.702 494.053 175.342 494.56C174.996 495.067 174.489 495.467 173.822 495.76C173.169 496.04 172.402 496.18 171.522 496.18ZM84.0081 510.04V524H81.2081V510.04H84.0081ZM92.9145 512.76C94.2345 512.76 95.3012 513.18 96.1145 514.02C96.9279 514.847 97.3345 516.007 97.3345 517.5V524H94.5345V517.88C94.5345 517 94.3145 516.327 93.8745 515.86C93.4345 515.38 92.8345 515.14 92.0745 515.14C91.3012 515.14 90.6879 515.38 90.2345 515.86C89.7945 516.327 89.5745 517 89.5745 517.88V524H86.7745V512.92H89.5745V514.3C89.9479 513.82 90.4212 513.447 90.9945 513.18C91.5812 512.9 92.2212 512.76 92.9145 512.76ZM114.943 514.36C114.943 515.107 114.763 515.807 114.403 516.46C114.056 517.113 113.503 517.64 112.743 518.04C111.996 518.44 111.049 518.64 109.903 518.64H107.563V524H104.763V510.04H109.903C110.983 510.04 111.903 510.227 112.663 510.6C113.423 510.973 113.989 511.487 114.363 512.14C114.749 512.793 114.943 513.533 114.943 514.36ZM109.783 516.38C110.556 516.38 111.129 516.207 111.503 515.86C111.876 515.5 112.063 515 112.063 514.36C112.063 513 111.303 512.32 109.783 512.32H107.563V516.38H109.783ZM119.731 514.64C120.091 514.053 120.557 513.593 121.131 513.26C121.717 512.927 122.384 512.76 123.131 512.76V515.7H122.391C121.511 515.7 120.844 515.907 120.391 516.32C119.951 516.733 119.731 517.453 119.731 518.48V524H116.931V512.92H119.731V514.64ZM129.937 524.18C128.87 524.18 127.91 523.947 127.057 523.48C126.203 523 125.53 522.327 125.037 521.46C124.557 520.593 124.317 519.593 124.317 518.46C124.317 517.327 124.563 516.327 125.057 515.46C125.563 514.593 126.25 513.927 127.117 513.46C127.983 512.98 128.95 512.74 130.017 512.74C131.083 512.74 132.05 512.98 132.917 513.46C133.783 513.927 134.463 514.593 134.957 515.46C135.463 516.327 135.717 517.327 135.717 518.46C135.717 519.593 135.457 520.593 134.937 521.46C134.43 522.327 133.737 523 132.857 523.48C131.99 523.947 131.017 524.18 129.937 524.18ZM129.937 521.74C130.443 521.74 130.917 521.62 131.357 521.38C131.81 521.127 132.17 520.753 132.437 520.26C132.703 519.767 132.837 519.167 132.837 518.46C132.837 517.407 132.557 516.6 131.997 516.04C131.45 515.467 130.777 515.18 129.977 515.18C129.177 515.18 128.503 515.467 127.957 516.04C127.423 516.6 127.157 517.407 127.157 518.46C127.157 519.513 127.417 520.327 127.937 520.9C128.47 521.46 129.137 521.74 129.937 521.74ZM142.111 512.74C142.937 512.74 143.664 512.907 144.291 513.24C144.917 513.56 145.411 513.98 145.771 514.5V512.92H148.591V524.08C148.591 525.107 148.384 526.02 147.971 526.82C147.557 527.633 146.937 528.273 146.111 528.74C145.284 529.22 144.284 529.46 143.111 529.46C141.537 529.46 140.244 529.093 139.231 528.36C138.231 527.627 137.664 526.627 137.531 525.36H140.311C140.457 525.867 140.771 526.267 141.251 526.56C141.744 526.867 142.337 527.02 143.031 527.02C143.844 527.02 144.504 526.773 145.011 526.28C145.517 525.8 145.771 525.067 145.771 524.08V522.36C145.411 522.88 144.911 523.313 144.271 523.66C143.644 524.007 142.924 524.18 142.111 524.18C141.177 524.18 140.324 523.94 139.551 523.46C138.777 522.98 138.164 522.307 137.711 521.44C137.271 520.56 137.051 519.553 137.051 518.42C137.051 517.3 137.271 516.307 137.711 515.44C138.164 514.573 138.771 513.907 139.531 513.44C140.304 512.973 141.164 512.74 142.111 512.74ZM145.771 518.46C145.771 517.78 145.637 517.2 145.371 516.72C145.104 516.227 144.744 515.853 144.291 515.6C143.837 515.333 143.351 515.2 142.831 515.2C142.311 515.2 141.831 515.327 141.391 515.58C140.951 515.833 140.591 516.207 140.311 516.7C140.044 517.18 139.911 517.753 139.911 518.42C139.911 519.087 140.044 519.673 140.311 520.18C140.591 520.673 140.951 521.053 141.391 521.32C141.844 521.587 142.324 521.72 142.831 521.72C143.351 521.72 143.837 521.593 144.291 521.34C144.744 521.073 145.104 520.7 145.371 520.22C145.637 519.727 145.771 519.14 145.771 518.46ZM154.125 514.64C154.485 514.053 154.952 513.593 155.525 513.26C156.112 512.927 156.779 512.76 157.525 512.76V515.7H156.785C155.905 515.7 155.239 515.907 154.785 516.32C154.345 516.733 154.125 517.453 154.125 518.48V524H151.325V512.92H154.125V514.64ZM169.711 518.22C169.711 518.62 169.685 518.98 169.631 519.3H161.531C161.598 520.1 161.878 520.727 162.371 521.18C162.865 521.633 163.471 521.86 164.191 521.86C165.231 521.86 165.971 521.413 166.411 520.52H169.431C169.111 521.587 168.498 522.467 167.591 523.16C166.685 523.84 165.571 524.18 164.251 524.18C163.185 524.18 162.225 523.947 161.371 523.48C160.531 523 159.871 522.327 159.391 521.46C158.925 520.593 158.691 519.593 158.691 518.46C158.691 517.313 158.925 516.307 159.391 515.44C159.858 514.573 160.511 513.907 161.351 513.44C162.191 512.973 163.158 512.74 164.251 512.74C165.305 512.74 166.245 512.967 167.071 513.42C167.911 513.873 168.558 514.52 169.011 515.36C169.478 516.187 169.711 517.14 169.711 518.22ZM166.811 517.42C166.798 516.7 166.538 516.127 166.031 515.7C165.525 515.26 164.905 515.04 164.171 515.04C163.478 515.04 162.891 515.253 162.411 515.68C161.945 516.093 161.658 516.673 161.551 517.42H166.811ZM175.995 524.18C175.088 524.18 174.275 524.02 173.555 523.7C172.835 523.367 172.262 522.92 171.835 522.36C171.422 521.8 171.195 521.18 171.155 520.5H173.975C174.028 520.927 174.235 521.28 174.595 521.56C174.968 521.84 175.428 521.98 175.975 521.98C176.508 521.98 176.922 521.873 177.215 521.66C177.522 521.447 177.675 521.173 177.675 520.84C177.675 520.48 177.488 520.213 177.115 520.04C176.755 519.853 176.175 519.653 175.375 519.44C174.548 519.24 173.868 519.033 173.335 518.82C172.815 518.607 172.362 518.28 171.975 517.84C171.602 517.4 171.415 516.807 171.415 516.06C171.415 515.447 171.588 514.887 171.935 514.38C172.295 513.873 172.802 513.473 173.455 513.18C174.122 512.887 174.902 512.74 175.795 512.74C177.115 512.74 178.168 513.073 178.955 513.74C179.742 514.393 180.175 515.28 180.255 516.4H177.575C177.535 515.96 177.348 515.613 177.015 515.36C176.695 515.093 176.262 514.96 175.715 514.96C175.208 514.96 174.815 515.053 174.535 515.24C174.268 515.427 174.135 515.687 174.135 516.02C174.135 516.393 174.322 516.68 174.695 516.88C175.068 517.067 175.648 517.26 176.435 517.46C177.235 517.66 177.895 517.867 178.415 518.08C178.935 518.293 179.382 518.627 179.755 519.08C180.142 519.52 180.342 520.107 180.355 520.84C180.355 521.48 180.175 522.053 179.815 522.56C179.468 523.067 178.962 523.467 178.295 523.76C177.642 524.04 176.875 524.18 175.995 524.18ZM186.893 524.18C185.987 524.18 185.173 524.02 184.453 523.7C183.733 523.367 183.16 522.92 182.733 522.36C182.32 521.8 182.093 521.18 182.053 520.5H184.873C184.927 520.927 185.133 521.28 185.493 521.56C185.867 521.84 186.327 521.98 186.873 521.98C187.407 521.98 187.82 521.873 188.113 521.66C188.42 521.447 188.573 521.173 188.573 520.84C188.573 520.48 188.387 520.213 188.013 520.04C187.653 519.853 187.073 519.653 186.273 519.44C185.447 519.24 184.767 519.033 184.233 518.82C183.713 518.607 183.26 518.28 182.873 517.84C182.5 517.4 182.313 516.807 182.313 516.06C182.313 515.447 182.487 514.887 182.833 514.38C183.193 513.873 183.7 513.473 184.353 513.18C185.02 512.887 185.8 512.74 186.693 512.74C188.013 512.74 189.067 513.073 189.853 513.74C190.64 514.393 191.073 515.28 191.153 516.4H188.473C188.433 515.96 188.247 515.613 187.913 515.36C187.593 515.093 187.16 514.96 186.613 514.96C186.107 514.96 185.713 515.053 185.433 515.24C185.167 515.427 185.033 515.687 185.033 516.02C185.033 516.393 185.22 516.68 185.593 516.88C185.967 517.067 186.547 517.26 187.333 517.46C188.133 517.66 188.793 517.867 189.313 518.08C189.833 518.293 190.28 518.627 190.653 519.08C191.04 519.52 191.24 520.107 191.253 520.84C191.253 521.48 191.073 522.053 190.713 522.56C190.367 523.067 189.86 523.467 189.193 523.76C188.54 524.04 187.773 524.18 186.893 524.18Z" fill="white"/>
<path d="M108.101 403.224C108.261 400.024 109.381 397.56 111.461 395.832C113.573 394.072 116.341 393.192 119.765 393.192C122.101 393.192 124.101 393.608 125.765 394.44C127.429 395.24 128.677 396.344 129.509 397.752C130.373 399.128 130.805 400.696 130.805 402.456C130.805 404.472 130.277 406.184 129.221 407.592C128.197 408.968 126.965 409.896 125.525 410.376V410.568C127.381 411.144 128.821 412.168 129.845 413.64C130.901 415.112 131.429 417 131.429 419.304C131.429 421.224 130.981 422.936 130.085 424.44C129.221 425.944 127.925 427.128 126.197 427.992C124.501 428.824 122.453 429.24 120.053 429.24C116.437 429.24 113.493 428.328 111.221 426.504C108.949 424.68 107.749 421.992 107.621 418.44H114.149C114.213 420.008 114.741 421.272 115.733 422.232C116.757 423.16 118.149 423.624 119.909 423.624C121.541 423.624 122.789 423.176 123.653 422.28C124.549 421.352 124.997 420.168 124.997 418.728C124.997 416.808 124.389 415.432 123.173 414.6C121.957 413.768 120.069 413.352 117.509 413.352H116.117V407.832H117.509C122.053 407.832 124.325 406.312 124.325 403.272C124.325 401.896 123.909 400.824 123.077 400.056C122.277 399.288 121.109 398.904 119.573 398.904C118.069 398.904 116.901 399.32 116.069 400.152C115.269 400.952 114.805 401.976 114.677 403.224H108.101ZM162.611 414.84H153.539V424.152H147.203V414.84H138.131V408.984H147.203V399.672H153.539V408.984H162.611V414.84Z" fill="white"/>
<path d="M183.215 345.784C210.102 357.633 232.049 378.438 245.316 404.654C258.583 430.871 262.35 460.876 255.974 489.558C249.598 518.24 233.475 543.824 210.35 561.951C187.226 580.078 158.532 589.626 129.158 588.968C99.7828 588.311 71.5448 577.488 49.255 558.344C26.9652 539.201 12.0027 512.921 6.91694 483.982C1.83119 455.044 6.93685 425.237 21.364 399.641C35.7911 374.045 58.647 354.243 86.0374 343.609L94.8995 366.436C72.7903 375.019 54.3412 391.003 42.6958 411.664C31.0503 432.325 26.9291 456.385 31.0343 479.744C35.1394 503.103 47.217 524.316 65.2091 539.768C83.2012 555.221 105.995 563.957 129.706 564.487C153.417 565.018 176.578 557.311 195.244 542.679C213.909 528.048 226.924 507.396 232.07 484.245C237.217 461.093 234.177 436.873 223.467 415.711C212.758 394.55 195.043 377.756 173.34 368.192L183.215 345.784Z" fill="#EBF1FD"/>
<circle cx="136" cy="342" r="36" fill="#F3F6FC"/>
<path d="M143.067 334.917C142.14 333.986 141.039 333.248 139.826 332.744C138.614 332.241 137.313 331.982 136 331.983V341.983L128.933 349.05C132.833 352.95 139.167 352.95 143.083 349.05C144.011 348.122 144.747 347.019 145.249 345.806C145.751 344.593 146.008 343.293 146.006 341.98C146.005 340.667 145.744 339.367 145.24 338.155C144.736 336.943 143.997 335.843 143.067 334.917ZM136 325.317C126.8 325.317 119.333 332.783 119.333 341.983C119.333 351.183 126.8 358.65 136 358.65C145.2 358.65 152.667 351.183 152.667 341.983C152.667 332.783 145.2 325.317 136 325.317ZM136 355.317C128.633 355.317 122.667 349.35 122.667 341.983C122.667 334.617 128.633 328.65 136 328.65C143.367 328.65 149.333 334.617 149.333 341.983C149.333 349.35 143.367 355.317 136 355.317Z" fill="#022A62"/>
</g>
<g filter="url(#filter3_dd_2380_8352)">
<circle cx="439" cy="458" r="116" fill="#4249B3"/>
<path d="M555 455C555 424.235 542.779 394.73 521.024 372.976C499.27 351.221 469.765 339 439 339C408.235 339 378.73 351.221 356.976 372.976C335.221 394.73 323 424.235 323 455L439 455H555Z" fill="#0FCABF"/>
<path d="M395.74 487.04C397.207 487.04 398.494 487.327 399.6 487.9C400.72 488.473 401.58 489.293 402.18 490.36C402.794 491.413 403.1 492.64 403.1 494.04C403.1 495.44 402.794 496.667 402.18 497.72C401.58 498.76 400.72 499.567 399.6 500.14C398.494 500.713 397.207 501 395.74 501H390.86V487.04H395.74ZM395.64 498.62C397.107 498.62 398.24 498.22 399.04 497.42C399.84 496.62 400.24 495.493 400.24 494.04C400.24 492.587 399.84 491.453 399.04 490.64C398.24 489.813 397.107 489.4 395.64 489.4H393.66V498.62H395.64ZM415.496 495.22C415.496 495.62 415.47 495.98 415.416 496.3H407.316C407.383 497.1 407.663 497.727 408.156 498.18C408.65 498.633 409.256 498.86 409.976 498.86C411.016 498.86 411.756 498.413 412.196 497.52H415.216C414.896 498.587 414.283 499.467 413.376 500.16C412.47 500.84 411.356 501.18 410.036 501.18C408.97 501.18 408.01 500.947 407.156 500.48C406.316 500 405.656 499.327 405.176 498.46C404.71 497.593 404.476 496.593 404.476 495.46C404.476 494.313 404.71 493.307 405.176 492.44C405.643 491.573 406.296 490.907 407.136 490.44C407.976 489.973 408.943 489.74 410.036 489.74C411.09 489.74 412.03 489.967 412.856 490.42C413.696 490.873 414.343 491.52 414.796 492.36C415.263 493.187 415.496 494.14 415.496 495.22ZM412.596 494.42C412.583 493.7 412.323 493.127 411.816 492.7C411.31 492.26 410.69 492.04 409.956 492.04C409.263 492.04 408.676 492.253 408.196 492.68C407.73 493.093 407.443 493.673 407.336 494.42H412.596ZM416.82 495.42C416.82 494.3 417.04 493.307 417.48 492.44C417.933 491.573 418.547 490.907 419.32 490.44C420.093 489.973 420.953 489.74 421.9 489.74C422.62 489.74 423.307 489.9 423.96 490.22C424.613 490.527 425.133 490.94 425.52 491.46V486.2H428.36V501H425.52V499.36C425.173 499.907 424.687 500.347 424.06 500.68C423.433 501.013 422.707 501.18 421.88 501.18C420.947 501.18 420.093 500.94 419.32 500.46C418.547 499.98 417.933 499.307 417.48 498.44C417.04 497.56 416.82 496.553 416.82 495.42ZM425.54 495.46C425.54 494.78 425.407 494.2 425.14 493.72C424.873 493.227 424.513 492.853 424.06 492.6C423.607 492.333 423.12 492.2 422.6 492.2C422.08 492.2 421.6 492.327 421.16 492.58C420.72 492.833 420.36 493.207 420.08 493.7C419.813 494.18 419.68 494.753 419.68 495.42C419.68 496.087 419.813 496.673 420.08 497.18C420.36 497.673 420.72 498.053 421.16 498.32C421.613 498.587 422.093 498.72 422.6 498.72C423.12 498.72 423.607 498.593 424.06 498.34C424.513 498.073 424.873 497.7 425.14 497.22C425.407 496.727 425.54 496.14 425.54 495.46ZM432.515 488.6C432.022 488.6 431.608 488.447 431.275 488.14C430.955 487.82 430.795 487.427 430.795 486.96C430.795 486.493 430.955 486.107 431.275 485.8C431.608 485.48 432.022 485.32 432.515 485.32C433.008 485.32 433.415 485.48 433.735 485.8C434.068 486.107 434.235 486.493 434.235 486.96C434.235 487.427 434.068 487.82 433.735 488.14C433.415 488.447 433.008 488.6 432.515 488.6ZM433.895 489.92V501H431.095V489.92H433.895ZM435.941 495.46C435.941 494.313 436.175 493.313 436.641 492.46C437.108 491.593 437.755 490.927 438.581 490.46C439.408 489.98 440.355 489.74 441.421 489.74C442.795 489.74 443.928 490.087 444.821 490.78C445.728 491.46 446.335 492.42 446.641 493.66H443.621C443.461 493.18 443.188 492.807 442.801 492.54C442.428 492.26 441.961 492.12 441.401 492.12C440.601 492.12 439.968 492.413 439.501 493C439.035 493.573 438.801 494.393 438.801 495.46C438.801 496.513 439.035 497.333 439.501 497.92C439.968 498.493 440.601 498.78 441.401 498.78C442.535 498.78 443.275 498.273 443.621 497.26H446.641C446.335 498.46 445.728 499.413 444.821 500.12C443.915 500.827 442.781 501.18 441.421 501.18C440.355 501.18 439.408 500.947 438.581 500.48C437.755 500 437.108 499.333 436.641 498.48C436.175 497.613 435.941 496.607 435.941 495.46ZM447.972 495.42C447.972 494.3 448.192 493.307 448.632 492.44C449.086 491.573 449.693 490.907 450.453 490.44C451.226 489.973 452.086 489.74 453.033 489.74C453.859 489.74 454.579 489.907 455.193 490.24C455.819 490.573 456.319 490.993 456.693 491.5V489.92H459.513V501H456.693V499.38C456.333 499.9 455.833 500.333 455.193 500.68C454.566 501.013 453.839 501.18 453.013 501.18C452.079 501.18 451.226 500.94 450.453 500.46C449.693 499.98 449.086 499.307 448.632 498.44C448.192 497.56 447.972 496.553 447.972 495.42ZM456.693 495.46C456.693 494.78 456.559 494.2 456.293 493.72C456.026 493.227 455.666 492.853 455.213 492.6C454.759 492.333 454.273 492.2 453.753 492.2C453.233 492.2 452.753 492.327 452.312 492.58C451.873 492.833 451.513 493.207 451.233 493.7C450.966 494.18 450.833 494.753 450.833 495.42C450.833 496.087 450.966 496.673 451.233 497.18C451.513 497.673 451.873 498.053 452.312 498.32C452.766 498.587 453.246 498.72 453.753 498.72C454.273 498.72 454.759 498.593 455.213 498.34C455.666 498.073 456.026 497.7 456.293 497.22C456.559 496.727 456.693 496.14 456.693 495.46ZM465.507 492.22V497.58C465.507 497.953 465.594 498.227 465.767 498.4C465.954 498.56 466.261 498.64 466.687 498.64H467.987V501H466.227C463.867 501 462.687 499.853 462.687 497.56V492.22H461.367V489.92H462.687V487.18H465.507V489.92H467.987V492.22H465.507ZM480.301 495.22C480.301 495.62 480.274 495.98 480.221 496.3H472.121C472.188 497.1 472.468 497.727 472.961 498.18C473.454 498.633 474.061 498.86 474.781 498.86C475.821 498.86 476.561 498.413 477.001 497.52H480.021C479.701 498.587 479.088 499.467 478.181 500.16C477.274 500.84 476.161 501.18 474.841 501.18C473.774 501.18 472.814 500.947 471.961 500.48C471.121 500 470.461 499.327 469.981 498.46C469.514 497.593 469.281 496.593 469.281 495.46C469.281 494.313 469.514 493.307 469.981 492.44C470.448 491.573 471.101 490.907 471.941 490.44C472.781 489.973 473.748 489.74 474.841 489.74C475.894 489.74 476.834 489.967 477.661 490.42C478.501 490.873 479.148 491.52 479.601 492.36C480.068 493.187 480.301 494.14 480.301 495.22ZM477.401 494.42C477.388 493.7 477.128 493.127 476.621 492.7C476.114 492.26 475.494 492.04 474.761 492.04C474.068 492.04 473.481 492.253 473.001 492.68C472.534 493.093 472.248 493.673 472.141 494.42H477.401ZM481.625 495.42C481.625 494.3 481.845 493.307 482.285 492.44C482.738 491.573 483.352 490.907 484.125 490.44C484.898 489.973 485.758 489.74 486.705 489.74C487.425 489.74 488.112 489.9 488.765 490.22C489.418 490.527 489.938 490.94 490.325 491.46V486.2H493.165V501H490.325V499.36C489.978 499.907 489.492 500.347 488.865 500.68C488.238 501.013 487.512 501.18 486.685 501.18C485.752 501.18 484.898 500.94 484.125 500.46C483.352 499.98 482.738 499.307 482.285 498.44C481.845 497.56 481.625 496.553 481.625 495.42ZM490.345 495.46C490.345 494.78 490.212 494.2 489.945 493.72C489.678 493.227 489.318 492.853 488.865 492.6C488.412 492.333 487.925 492.2 487.405 492.2C486.885 492.2 486.405 492.327 485.965 492.58C485.525 492.833 485.165 493.207 484.885 493.7C484.618 494.18 484.485 494.753 484.485 495.42C484.485 496.087 484.618 496.673 484.885 497.18C485.165 497.673 485.525 498.053 485.965 498.32C486.418 498.587 486.898 498.72 487.405 498.72C487.925 498.72 488.412 498.593 488.865 498.34C489.318 498.073 489.678 497.7 489.945 497.22C490.212 496.727 490.345 496.14 490.345 495.46ZM427.694 515.04V529H424.894V523.06H418.914V529H416.114V515.04H418.914V520.78H424.894V515.04H427.694ZM435.37 529.18C434.304 529.18 433.344 528.947 432.49 528.48C431.637 528 430.964 527.327 430.47 526.46C429.99 525.593 429.75 524.593 429.75 523.46C429.75 522.327 429.997 521.327 430.49 520.46C430.997 519.593 431.684 518.927 432.55 518.46C433.417 517.98 434.384 517.74 435.45 517.74C436.517 517.74 437.484 517.98 438.35 518.46C439.217 518.927 439.897 519.593 440.39 520.46C440.897 521.327 441.15 522.327 441.15 523.46C441.15 524.593 440.89 525.593 440.37 526.46C439.864 527.327 439.17 528 438.29 528.48C437.424 528.947 436.45 529.18 435.37 529.18ZM435.37 526.74C435.877 526.74 436.35 526.62 436.79 526.38C437.244 526.127 437.604 525.753 437.87 525.26C438.137 524.767 438.27 524.167 438.27 523.46C438.27 522.407 437.99 521.6 437.43 521.04C436.884 520.467 436.21 520.18 435.41 520.18C434.61 520.18 433.937 520.467 433.39 521.04C432.857 521.6 432.59 522.407 432.59 523.46C432.59 524.513 432.85 525.327 433.37 525.9C433.904 526.46 434.57 526.74 435.37 526.74ZM453.664 517.92V529H450.844V527.6C450.484 528.08 450.011 528.46 449.424 528.74C448.851 529.007 448.224 529.14 447.544 529.14C446.678 529.14 445.911 528.96 445.244 528.6C444.578 528.227 444.051 527.687 443.664 526.98C443.291 526.26 443.104 525.407 443.104 524.42V517.92H445.904V524.02C445.904 524.9 446.124 525.58 446.564 526.06C447.004 526.527 447.604 526.76 448.364 526.76C449.138 526.76 449.744 526.527 450.184 526.06C450.624 525.58 450.844 524.9 450.844 524.02V517.92H453.664ZM459.227 519.64C459.587 519.053 460.054 518.593 460.627 518.26C461.214 517.927 461.88 517.76 462.627 517.76V520.7H461.887C461.007 520.7 460.34 520.907 459.887 521.32C459.447 521.733 459.227 522.453 459.227 523.48V529H456.427V517.92H459.227V519.64ZM468.753 529.18C467.846 529.18 467.033 529.02 466.313 528.7C465.593 528.367 465.019 527.92 464.593 527.36C464.179 526.8 463.953 526.18 463.913 525.5H466.733C466.786 525.927 466.993 526.28 467.353 526.56C467.726 526.84 468.186 526.98 468.733 526.98C469.266 526.98 469.679 526.873 469.973 526.66C470.279 526.447 470.433 526.173 470.433 525.84C470.433 525.48 470.246 525.213 469.873 525.04C469.513 524.853 468.933 524.653 468.133 524.44C467.306 524.24 466.626 524.033 466.093 523.82C465.573 523.607 465.119 523.28 464.733 522.84C464.359 522.4 464.173 521.807 464.173 521.06C464.173 520.447 464.346 519.887 464.693 519.38C465.053 518.873 465.559 518.473 466.213 518.18C466.879 517.887 467.659 517.74 468.553 517.74C469.873 517.74 470.926 518.073 471.713 518.74C472.499 519.393 472.933 520.28 473.013 521.4H470.333C470.293 520.96 470.106 520.613 469.773 520.36C469.453 520.093 469.019 519.96 468.473 519.96C467.966 519.96 467.573 520.053 467.293 520.24C467.026 520.427 466.893 520.687 466.893 521.02C466.893 521.393 467.079 521.68 467.453 521.88C467.826 522.067 468.406 522.26 469.193 522.46C469.993 522.66 470.653 522.867 471.173 523.08C471.693 523.293 472.139 523.627 472.513 524.08C472.899 524.52 473.099 525.107 473.113 525.84C473.113 526.48 472.933 527.053 472.573 527.56C472.226 528.067 471.719 528.467 471.053 528.76C470.399 529.04 469.633 529.18 468.753 529.18Z" fill="white"/>
<path d="M380.484 403.224C380.644 400.024 381.764 397.56 383.844 395.832C385.956 394.072 388.724 393.192 392.148 393.192C394.484 393.192 396.484 393.608 398.148 394.44C399.812 395.24 401.06 396.344 401.892 397.752C402.756 399.128 403.188 400.696 403.188 402.456C403.188 404.472 402.66 406.184 401.604 407.592C400.58 408.968 399.348 409.896 397.908 410.376V410.568C399.764 411.144 401.204 412.168 402.228 413.64C403.284 415.112 403.812 417 403.812 419.304C403.812 421.224 403.364 422.936 402.468 424.44C401.604 425.944 400.308 427.128 398.58 427.992C396.884 428.824 394.836 429.24 392.436 429.24C388.82 429.24 385.876 428.328 383.604 426.504C381.332 424.68 380.132 421.992 380.004 418.44H386.532C386.596 420.008 387.124 421.272 388.116 422.232C389.14 423.16 390.532 423.624 392.292 423.624C393.924 423.624 395.172 423.176 396.036 422.28C396.932 421.352 397.38 420.168 397.38 418.728C397.38 416.808 396.772 415.432 395.556 414.6C394.34 413.768 392.452 413.352 389.892 413.352H388.5V407.832H389.892C394.436 407.832 396.708 406.312 396.708 403.272C396.708 401.896 396.292 400.824 395.46 400.056C394.66 399.288 393.492 398.904 391.956 398.904C390.452 398.904 389.284 399.32 388.452 400.152C387.652 400.952 387.188 401.976 387.06 403.224H380.484ZM414.978 410.472C411.778 408.808 410.178 406.232 410.178 402.744C410.178 401.016 410.61 399.448 411.474 398.04C412.37 396.6 413.698 395.464 415.458 394.632C417.25 393.768 419.426 393.336 421.986 393.336C424.546 393.336 426.706 393.768 428.466 394.632C430.258 395.464 431.586 396.6 432.45 398.04C433.346 399.448 433.794 401.016 433.794 402.744C433.794 404.504 433.362 406.056 432.498 407.4C431.634 408.712 430.482 409.736 429.042 410.472C430.802 411.24 432.178 412.36 433.17 413.832C434.162 415.304 434.658 417.048 434.658 419.064C434.658 421.24 434.098 423.144 432.978 424.776C431.89 426.376 430.386 427.608 428.466 428.472C426.546 429.336 424.386 429.768 421.986 429.768C419.586 429.768 417.426 429.336 415.506 428.472C413.618 427.608 412.114 426.376 410.994 424.776C409.906 423.144 409.362 421.24 409.362 419.064C409.362 417.048 409.858 415.304 410.85 413.832C411.842 412.328 413.218 411.208 414.978 410.472ZM427.266 403.704C427.266 402.136 426.786 400.92 425.826 400.056C424.898 399.192 423.618 398.76 421.986 398.76C420.386 398.76 419.106 399.192 418.146 400.056C417.218 400.92 416.754 402.152 416.754 403.752C416.754 405.192 417.234 406.344 418.194 407.208C419.186 408.072 420.45 408.504 421.986 408.504C423.522 408.504 424.786 408.072 425.778 407.208C426.77 406.312 427.266 405.144 427.266 403.704ZM421.986 413.4C420.162 413.4 418.674 413.864 417.522 414.792C416.402 415.72 415.842 417.048 415.842 418.776C415.842 420.376 416.386 421.688 417.474 422.712C418.594 423.704 420.098 424.2 421.986 424.2C423.874 424.2 425.362 423.688 426.45 422.664C427.538 421.64 428.082 420.344 428.082 418.776C428.082 417.08 427.522 415.768 426.402 414.84C425.282 413.88 423.81 413.4 421.986 413.4ZM458.11 402.744C457.79 401.4 457.23 400.392 456.43 399.72C455.662 399.048 454.542 398.712 453.07 398.712C450.862 398.712 449.23 399.608 448.174 401.4C447.15 403.16 446.622 406.04 446.59 410.04C447.358 408.76 448.478 407.768 449.95 407.064C451.422 406.328 453.022 405.96 454.75 405.96C456.83 405.96 458.67 406.408 460.27 407.304C461.87 408.2 463.118 409.512 464.014 411.24C464.91 412.936 465.358 414.984 465.358 417.384C465.358 419.656 464.894 421.688 463.966 423.48C463.07 425.24 461.742 426.616 459.982 427.608C458.222 428.6 456.126 429.096 453.694 429.096C450.366 429.096 447.742 428.36 445.822 426.888C443.934 425.416 442.606 423.368 441.838 420.744C441.102 418.088 440.734 414.824 440.734 410.952C440.734 405.096 441.742 400.68 443.758 397.704C445.774 394.696 448.958 393.192 453.31 393.192C456.67 393.192 459.278 394.104 461.134 395.928C462.99 397.752 464.062 400.024 464.35 402.744H458.11ZM453.214 411.48C451.518 411.48 450.094 411.976 448.942 412.968C447.79 413.96 447.214 415.4 447.214 417.288C447.214 419.176 447.742 420.664 448.798 421.752C449.886 422.84 451.406 423.384 453.358 423.384C455.086 423.384 456.446 422.856 457.438 421.8C458.462 420.744 458.974 419.32 458.974 417.528C458.974 415.672 458.478 414.2 457.486 413.112C456.526 412.024 455.102 411.48 453.214 411.48ZM470.669 411.048C470.669 405.512 471.661 401.176 473.645 398.04C475.661 394.904 478.989 393.336 483.629 393.336C488.269 393.336 491.581 394.904 493.565 398.04C495.581 401.176 496.589 405.512 496.589 411.048C496.589 416.616 495.581 420.984 493.565 424.152C491.581 427.32 488.269 428.904 483.629 428.904C478.989 428.904 475.661 427.32 473.645 424.152C471.661 420.984 470.669 416.616 470.669 411.048ZM489.965 411.048C489.965 408.68 489.805 406.696 489.485 405.096C489.197 403.464 488.589 402.136 487.661 401.112C486.765 400.088 485.421 399.576 483.629 399.576C481.837 399.576 480.477 400.088 479.549 401.112C478.653 402.136 478.045 403.464 477.725 405.096C477.437 406.696 477.293 408.68 477.293 411.048C477.293 413.48 477.437 415.528 477.725 417.192C478.013 418.824 478.621 420.152 479.549 421.176C480.477 422.168 481.837 422.664 483.629 422.664C485.421 422.664 486.781 422.168 487.709 421.176C488.637 420.152 489.245 418.824 489.533 417.192C489.821 415.528 489.965 413.48 489.965 411.048Z" fill="white"/>
<path d="M490.215 345.784C517.102 357.633 539.049 378.438 552.316 404.654C565.583 430.871 569.35 460.876 562.974 489.558C556.598 518.24 540.475 543.824 517.35 561.951C494.226 580.078 465.532 589.626 436.158 588.968C406.783 588.311 378.545 577.488 356.255 558.344C333.965 539.201 319.003 512.921 313.917 483.982C308.831 455.044 313.937 425.237 328.364 399.641C342.791 374.045 365.647 354.243 393.037 343.609L401.9 366.436C379.79 375.019 361.341 391.003 349.696 411.664C338.05 432.325 333.929 456.385 338.034 479.744C342.139 503.103 354.217 524.316 372.209 539.768C390.201 555.221 412.995 563.957 436.706 564.487C460.417 565.018 483.578 557.311 502.244 542.679C520.909 528.048 533.924 507.396 539.07 484.245C544.217 461.093 541.177 436.873 530.467 415.711C519.758 394.55 502.043 377.756 480.34 368.192L490.215 345.784Z" fill="#F5F5F5"/>
<circle cx="442" cy="342" r="36" fill="#F3F6FC"/>
<path d="M441.983 325.333C432.783 325.333 425.333 332.8 425.333 342C425.333 351.2 432.783 358.667 441.983 358.667C451.2 358.667 458.667 351.2 458.667 342C458.667 332.8 451.2 325.333 441.983 325.333ZM442 355.333C434.633 355.333 428.667 349.367 428.667 342C428.667 334.633 434.633 328.667 442 328.667C449.367 328.667 455.333 334.633 455.333 342C455.333 349.367 449.367 355.333 442 355.333ZM442.833 333.667H440.333V343.667L449.083 348.917L450.333 346.867L442.833 342.417V333.667Z" fill="#022A62"/>
</g>
<defs>
<filter id="filter0_dd_2380_8352" x="-0.000228882" y="0" width="264" height="293" filterUnits="userSpaceOnUse" color-interpolation-filters="sRGB">
<feFlood flood-opacity="0" result="BackgroundImageFix"/>
<feColorMatrix in="SourceAlpha" type="matrix" values="0 0 0 0 0 0 0 0 0 0 0 0 0 0 0 0 0 0 127 0" result="hardAlpha"/>
<feMorphology radius="2" operator="erode" in="SourceAlpha" result="effect1_dropShadow_2380_8352"/>
<feOffset dy="2"/>
<feGaussianBlur stdDeviation="2"/>
<feComposite in2="hardAlpha" operator="out"/>
<feColorMatrix type="matrix" values="0 0 0 0 0 0 0 0 0 0 0 0 0 0 0 0 0 0 0.1 0"/>
<feBlend mode="normal" in2="BackgroundImageFix" result="effect1_dropShadow_2380_8352"/>
<feColorMatrix in="SourceAlpha" type="matrix" values="0 0 0 0 0 0 0 0 0 0 0 0 0 0 0 0 0 0 127 0" result="hardAlpha"/>
<feMorphology radius="1" operator="erode" in="SourceAlpha" result="effect2_dropShadow_2380_8352"/>
<feOffset dy="4"/>
<feGaussianBlur stdDeviation="3"/>
<feComposite in2="hardAlpha" operator="out"/>
<feColorMatrix type="matrix" values="0 0 0 0 0 0 0 0 0 0 0 0 0 0 0 0 0 0 0.1 0"/>
<feBlend mode="normal" in2="effect1_dropShadow_2380_8352" result="effect2_dropShadow_2380_8352"/>
<feBlend mode="normal" in="SourceGraphic" in2="effect2_dropShadow_2380_8352" result="shape"/>
</filter>
<filter id="filter1_dd_2380_8352" x="307" y="0" width="264" height="293" filterUnits="userSpaceOnUse" color-interpolation-filters="sRGB">
<feFlood flood-opacity="0" result="BackgroundImageFix"/>
<feColorMatrix in="SourceAlpha" type="matrix" values="0 0 0 0 0 0 0 0 0 0 0 0 0 0 0 0 0 0 127 0" result="hardAlpha"/>
<feMorphology radius="2" operator="erode" in="SourceAlpha" result="effect1_dropShadow_2380_8352"/>
<feOffset dy="2"/>
<feGaussianBlur stdDeviation="2"/>
<feComposite in2="hardAlpha" operator="out"/>
<feColorMatrix type="matrix" values="0 0 0 0 0 0 0 0 0 0 0 0 0 0 0 0 0 0 0.1 0"/>
<feBlend mode="normal" in2="BackgroundImageFix" result="effect1_dropShadow_2380_8352"/>
<feColorMatrix in="SourceAlpha" type="matrix" values="0 0 0 0 0 0 0 0 0 0 0 0 0 0 0 0 0 0 127 0" result="hardAlpha"/>
<feMorphology radius="1" operator="erode" in="SourceAlpha" result="effect2_dropShadow_2380_8352"/>
<feOffset dy="4"/>
<feGaussianBlur stdDeviation="3"/>
<feComposite in2="hardAlpha" operator="out"/>
<feColorMatrix type="matrix" values="0 0 0 0 0 0 0 0 0 0 0 0 0 0 0 0 0 0 0.1 0"/>
<feBlend mode="normal" in2="effect1_dropShadow_2380_8352" result="effect2_dropShadow_2380_8352"/>
<feBlend mode="normal" in="SourceGraphic" in2="effect2_dropShadow_2380_8352" result="shape"/>
</filter>
<filter id="filter2_dd_2380_8352" x="-0.000228882" y="305" width="264" height="293" filterUnits="userSpaceOnUse" color-interpolation-filters="sRGB">
<feFlood flood-opacity="0" result="BackgroundImageFix"/>
<feColorMatrix in="SourceAlpha" type="matrix" values="0 0 0 0 0 0 0 0 0 0 0 0 0 0 0 0 0 0 127 0" result="hardAlpha"/>
<feMorphology radius="2" operator="erode" in="SourceAlpha" result="effect1_dropShadow_2380_8352"/>
<feOffset dy="2"/>
<feGaussianBlur stdDeviation="2"/>
<feComposite in2="hardAlpha" operator="out"/>
<feColorMatrix type="matrix" values="0 0 0 0 0 0 0 0 0 0 0 0 0 0 0 0 0 0 0.1 0"/>
<feBlend mode="normal" in2="BackgroundImageFix" result="effect1_dropShadow_2380_8352"/>
<feColorMatrix in="SourceAlpha" type="matrix" values="0 0 0 0 0 0 0 0 0 0 0 0 0 0 0 0 0 0 127 0" result="hardAlpha"/>
<feMorphology radius="1" operator="erode" in="SourceAlpha" result="effect2_dropShadow_2380_8352"/>
<feOffset dy="4"/>
<feGaussianBlur stdDeviation="3"/>
<feComposite in2="hardAlpha" operator="out"/>
<feColorMatrix type="matrix" values="0 0 0 0 0 0 0 0 0 0 0 0 0 0 0 0 0 0 0.1 0"/>
<feBlend mode="normal" in2="effect1_dropShadow_2380_8352" result="effect2_dropShadow_2380_8352"/>
<feBlend mode="normal" in="SourceGraphic" in2="effect2_dropShadow_2380_8352" result="shape"/>
</filter>
<filter id="filter3_dd_2380_8352" x="307" y="305" width="264" height="293" filterUnits="userSpaceOnUse" color-interpolation-filters="sRGB">
<feFlood flood-opacity="0" result="BackgroundImageFix"/>
<feColorMatrix in="SourceAlpha" type="matrix" values="0 0 0 0 0 0 0 0 0 0 0 0 0 0 0 0 0 0 127 0" result="hardAlpha"/>
<feMorphology radius="2" operator="erode" in="SourceAlpha" result="effect1_dropShadow_2380_8352"/>
<feOffset dy="2"/>
<feGaussianBlur stdDeviation="2"/>
<feComposite in2="hardAlpha" operator="out"/>
<feColorMatrix type="matrix" values="0 0 0 0 0 0 0 0 0 0 0 0 0 0 0 0 0 0 0.1 0"/>
<feBlend mode="normal" in2="BackgroundImageFix" result="effect1_dropShadow_2380_8352"/>
<feColorMatrix in="SourceAlpha" type="matrix" values="0 0 0 0 0 0 0 0 0 0 0 0 0 0 0 0 0 0 127 0" result="hardAlpha"/>
<feMorphology radius="1" operator="erode" in="SourceAlpha" result="effect2_dropShadow_2380_8352"/>
<feOffset dy="4"/>
<feGaussianBlur stdDeviation="3"/>
<feComposite in2="hardAlpha" operator="out"/>
<feColorMatrix type="matrix" values="0 0 0 0 0 0 0 0 0 0 0 0 0 0 0 0 0 0 0.1 0"/>
<feBlend mode="normal" in2="effect1_dropShadow_2380_8352" result="effect2_dropShadow_2380_8352"/>
<feBlend mode="normal" in="SourceGraphic" in2="effect2_dropShadow_2380_8352" result="shape"/>
</filter>
</defs>
</svg>
