<svg width="264" height="293" viewBox="0 0 264 293" fill="none" xmlns="http://www.w3.org/2000/svg">
<g filter="url(#filter0_dd_1812_103879)">
<circle cx="132" cy="153" r="116" fill="url(#paint0_linear_1812_103879)"/>
<path d="M248 150C248 119.235 235.779 89.7298 214.024 67.9756C192.27 46.2214 162.765 34 132 34C101.235 34 71.7298 46.2214 49.9756 67.9756C28.2214 89.7298 16 119.235 16 150L132 150H248Z" fill="#0FCABF"/>
<path d="M100.127 177.04V179.3H94.307V182.88H98.767V185.1H94.307V191H91.507V177.04H100.127ZM103.532 178.6C103.039 178.6 102.626 178.447 102.292 178.14C101.972 177.82 101.812 177.427 101.812 176.96C101.812 176.493 101.972 176.107 102.292 175.8C102.626 175.48 103.039 175.32 103.532 175.32C104.026 175.32 104.432 175.48 104.752 175.8C105.086 176.107 105.252 176.493 105.252 176.96C105.252 177.427 105.086 177.82 104.752 178.14C104.432 178.447 104.026 178.6 103.532 178.6ZM104.912 179.92V191H102.112V179.92H104.912ZM113.819 179.76C115.139 179.76 116.205 180.18 117.019 181.02C117.832 181.847 118.239 183.007 118.239 184.5V191H115.439V184.88C115.439 184 115.219 183.327 114.779 182.86C114.339 182.38 113.739 182.14 112.979 182.14C112.205 182.14 111.592 182.38 111.139 182.86C110.699 183.327 110.479 184 110.479 184.88V191H107.679V179.92H110.479V181.3C110.852 180.82 111.325 180.447 111.899 180.18C112.485 179.9 113.125 179.76 113.819 179.76ZM122.321 178.6C121.828 178.6 121.415 178.447 121.081 178.14C120.761 177.82 120.601 177.427 120.601 176.96C120.601 176.493 120.761 176.107 121.081 175.8C121.415 175.48 121.828 175.32 122.321 175.32C122.815 175.32 123.221 175.48 123.541 175.8C123.875 176.107 124.041 176.493 124.041 176.96C124.041 177.427 123.875 177.82 123.541 178.14C123.221 178.447 122.815 178.6 122.321 178.6ZM123.701 179.92V191H120.901V179.92H123.701ZM130.708 191.18C129.801 191.18 128.988 191.02 128.268 190.7C127.548 190.367 126.975 189.92 126.548 189.36C126.135 188.8 125.908 188.18 125.868 187.5H128.688C128.741 187.927 128.948 188.28 129.308 188.56C129.681 188.84 130.141 188.98 130.688 188.98C131.221 188.98 131.635 188.873 131.928 188.66C132.235 188.447 132.388 188.173 132.388 187.84C132.388 187.48 132.201 187.213 131.828 187.04C131.468 186.853 130.888 186.653 130.088 186.44C129.261 186.24 128.581 186.033 128.048 185.82C127.528 185.607 127.075 185.28 126.688 184.84C126.315 184.4 126.128 183.807 126.128 183.06C126.128 182.447 126.301 181.887 126.648 181.38C127.008 180.873 127.515 180.473 128.168 180.18C128.835 179.887 129.615 179.74 130.508 179.74C131.828 179.74 132.881 180.073 133.668 180.74C134.455 181.393 134.888 182.28 134.968 183.4H132.288C132.248 182.96 132.061 182.613 131.728 182.36C131.408 182.093 130.975 181.96 130.428 181.96C129.921 181.96 129.528 182.053 129.248 182.24C128.981 182.427 128.848 182.687 128.848 183.02C128.848 183.393 129.035 183.68 129.408 183.88C129.781 184.067 130.361 184.26 131.148 184.46C131.948 184.66 132.608 184.867 133.128 185.08C133.648 185.293 134.095 185.627 134.468 186.08C134.855 186.52 135.055 187.107 135.068 187.84C135.068 188.48 134.888 189.053 134.528 189.56C134.181 190.067 133.675 190.467 133.008 190.76C132.355 191.04 131.588 191.18 130.708 191.18ZM143.606 179.76C144.446 179.76 145.193 179.947 145.846 180.32C146.5 180.68 147.006 181.22 147.366 181.94C147.74 182.647 147.926 183.5 147.926 184.5V191H145.126V184.88C145.126 184 144.906 183.327 144.466 182.86C144.026 182.38 143.426 182.14 142.666 182.14C141.893 182.14 141.28 182.38 140.826 182.86C140.386 183.327 140.166 184 140.166 184.88V191H137.366V176.2H140.166V181.3C140.526 180.82 141.006 180.447 141.606 180.18C142.206 179.9 142.873 179.76 143.606 179.76ZM160.889 185.22C160.889 185.62 160.862 185.98 160.809 186.3H152.709C152.776 187.1 153.056 187.727 153.549 188.18C154.042 188.633 154.649 188.86 155.369 188.86C156.409 188.86 157.149 188.413 157.589 187.52H160.609C160.289 188.587 159.676 189.467 158.769 190.16C157.862 190.84 156.749 191.18 155.429 191.18C154.362 191.18 153.402 190.947 152.549 190.48C151.709 190 151.049 189.327 150.569 188.46C150.102 187.593 149.869 186.593 149.869 185.46C149.869 184.313 150.102 183.307 150.569 182.44C151.036 181.573 151.689 180.907 152.529 180.44C153.369 179.973 154.336 179.74 155.429 179.74C156.482 179.74 157.422 179.967 158.249 180.42C159.089 180.873 159.736 181.52 160.189 182.36C160.656 183.187 160.889 184.14 160.889 185.22ZM157.989 184.42C157.976 183.7 157.716 183.127 157.209 182.7C156.702 182.26 156.082 182.04 155.349 182.04C154.656 182.04 154.069 182.253 153.589 182.68C153.122 183.093 152.836 183.673 152.729 184.42H157.989ZM162.213 185.42C162.213 184.3 162.433 183.307 162.873 182.44C163.326 181.573 163.939 180.907 164.713 180.44C165.486 179.973 166.346 179.74 167.293 179.74C168.013 179.74 168.699 179.9 169.353 180.22C170.006 180.527 170.526 180.94 170.913 181.46V176.2H173.753V191H170.913V189.36C170.566 189.907 170.079 190.347 169.453 190.68C168.826 191.013 168.099 191.18 167.273 191.18C166.339 191.18 165.486 190.94 164.713 190.46C163.939 189.98 163.326 189.307 162.873 188.44C162.433 187.56 162.213 186.553 162.213 185.42ZM170.933 185.46C170.933 184.78 170.799 184.2 170.533 183.72C170.266 183.227 169.906 182.853 169.453 182.6C168.999 182.333 168.513 182.2 167.993 182.2C167.473 182.2 166.993 182.327 166.553 182.58C166.113 182.833 165.753 183.207 165.473 183.7C165.206 184.18 165.073 184.753 165.073 185.42C165.073 186.087 165.206 186.673 165.473 187.18C165.753 187.673 166.113 188.053 166.553 188.32C167.006 188.587 167.486 188.72 167.993 188.72C168.513 188.72 168.999 188.593 169.453 188.34C169.906 188.073 170.266 187.7 170.533 187.22C170.799 186.727 170.933 186.14 170.933 185.46ZM105.759 209.36C105.759 210.107 105.579 210.807 105.219 211.46C104.873 212.113 104.319 212.64 103.559 213.04C102.813 213.44 101.866 213.64 100.719 213.64H98.3792V219H95.5792V205.04H100.719C101.799 205.04 102.719 205.227 103.479 205.6C104.239 205.973 104.806 206.487 105.179 207.14C105.566 207.793 105.759 208.533 105.759 209.36ZM100.599 211.38C101.373 211.38 101.946 211.207 102.319 210.86C102.693 210.5 102.879 210 102.879 209.36C102.879 208 102.119 207.32 100.599 207.32H98.3792V211.38H100.599ZM110.547 209.64C110.907 209.053 111.374 208.593 111.947 208.26C112.534 207.927 113.201 207.76 113.947 207.76V210.7H113.207C112.327 210.7 111.661 210.907 111.207 211.32C110.767 211.733 110.547 212.453 110.547 213.48V219H107.747V207.92H110.547V209.64ZM120.753 219.18C119.686 219.18 118.726 218.947 117.873 218.48C117.02 218 116.346 217.327 115.853 216.46C115.373 215.593 115.133 214.593 115.133 213.46C115.133 212.327 115.38 211.327 115.873 210.46C116.38 209.593 117.066 208.927 117.933 208.46C118.8 207.98 119.766 207.74 120.833 207.74C121.9 207.74 122.866 207.98 123.733 208.46C124.6 208.927 125.28 209.593 125.773 210.46C126.28 211.327 126.533 212.327 126.533 213.46C126.533 214.593 126.273 215.593 125.753 216.46C125.246 217.327 124.553 218 123.673 218.48C122.806 218.947 121.833 219.18 120.753 219.18ZM120.753 216.74C121.26 216.74 121.733 216.62 122.173 216.38C122.626 216.127 122.986 215.753 123.253 215.26C123.52 214.767 123.653 214.167 123.653 213.46C123.653 212.407 123.373 211.6 122.813 211.04C122.266 210.467 121.593 210.18 120.793 210.18C119.993 210.18 119.32 210.467 118.773 211.04C118.24 211.6 117.973 212.407 117.973 213.46C117.973 214.513 118.233 215.327 118.753 215.9C119.286 216.46 119.953 216.74 120.753 216.74ZM130.007 206.6C129.5 206.6 129.08 206.447 128.747 206.14C128.427 205.82 128.267 205.427 128.267 204.96C128.267 204.493 128.427 204.107 128.747 203.8C129.08 203.48 129.5 203.32 130.007 203.32C130.5 203.32 130.907 203.48 131.227 203.8C131.547 204.107 131.707 204.493 131.707 204.96C131.707 205.427 131.547 205.82 131.227 206.14C130.907 206.447 130.5 206.6 130.007 206.6ZM131.387 220.82C131.387 222.047 131.08 222.927 130.467 223.46C129.867 224.007 129 224.28 127.867 224.28H126.627V221.9H127.427C127.854 221.9 128.154 221.813 128.327 221.64C128.5 221.48 128.587 221.213 128.587 220.84V207.92H131.387V220.82ZM144.453 213.22C144.453 213.62 144.427 213.98 144.373 214.3H136.273C136.34 215.1 136.62 215.727 137.113 216.18C137.607 216.633 138.213 216.86 138.933 216.86C139.973 216.86 140.713 216.413 141.153 215.52H144.173C143.853 216.587 143.24 217.467 142.333 218.16C141.427 218.84 140.313 219.18 138.993 219.18C137.927 219.18 136.967 218.947 136.113 218.48C135.273 218 134.613 217.327 134.133 216.46C133.667 215.593 133.433 214.593 133.433 213.46C133.433 212.313 133.667 211.307 134.133 210.44C134.6 209.573 135.253 208.907 136.093 208.44C136.933 207.973 137.9 207.74 138.993 207.74C140.047 207.74 140.987 207.967 141.813 208.42C142.653 208.873 143.3 209.52 143.753 210.36C144.22 211.187 144.453 212.14 144.453 213.22ZM141.553 212.42C141.54 211.7 141.28 211.127 140.773 210.7C140.267 210.26 139.647 210.04 138.913 210.04C138.22 210.04 137.633 210.253 137.153 210.68C136.687 211.093 136.4 211.673 136.293 212.42H141.553ZM145.777 213.46C145.777 212.313 146.011 211.313 146.477 210.46C146.944 209.593 147.591 208.927 148.417 208.46C149.244 207.98 150.191 207.74 151.257 207.74C152.631 207.74 153.764 208.087 154.657 208.78C155.564 209.46 156.171 210.42 156.477 211.66H153.457C153.297 211.18 153.024 210.807 152.637 210.54C152.264 210.26 151.797 210.12 151.237 210.12C150.437 210.12 149.804 210.413 149.337 211C148.871 211.573 148.637 212.393 148.637 213.46C148.637 214.513 148.871 215.333 149.337 215.92C149.804 216.493 150.437 216.78 151.237 216.78C152.371 216.78 153.111 216.273 153.457 215.26H156.477C156.171 216.46 155.564 217.413 154.657 218.12C153.751 218.827 152.617 219.18 151.257 219.18C150.191 219.18 149.244 218.947 148.417 218.48C147.591 218 146.944 217.333 146.477 216.48C146.011 215.613 145.777 214.607 145.777 213.46ZM161.788 210.22V215.58C161.788 215.953 161.875 216.227 162.048 216.4C162.235 216.56 162.542 216.64 162.968 216.64H164.268V219H162.508C160.148 219 158.968 217.853 158.968 215.56V210.22H157.648V207.92H158.968V205.18H161.788V207.92H164.268V210.22H161.788ZM170.522 219.18C169.616 219.18 168.802 219.02 168.082 218.7C167.362 218.367 166.789 217.92 166.362 217.36C165.949 216.8 165.722 216.18 165.682 215.5H168.502C168.556 215.927 168.762 216.28 169.122 216.56C169.496 216.84 169.956 216.98 170.502 216.98C171.036 216.98 171.449 216.873 171.742 216.66C172.049 216.447 172.202 216.173 172.202 215.84C172.202 215.48 172.016 215.213 171.642 215.04C171.282 214.853 170.702 214.653 169.902 214.44C169.076 214.24 168.396 214.033 167.862 213.82C167.342 213.607 166.889 213.28 166.502 212.84C166.129 212.4 165.942 211.807 165.942 211.06C165.942 210.447 166.116 209.887 166.462 209.38C166.822 208.873 167.329 208.473 167.982 208.18C168.649 207.887 169.429 207.74 170.322 207.74C171.642 207.74 172.696 208.073 173.482 208.74C174.269 209.393 174.702 210.28 174.782 211.4H172.102C172.062 210.96 171.876 210.613 171.542 210.36C171.222 210.093 170.789 209.96 170.242 209.96C169.736 209.96 169.342 210.053 169.062 210.24C168.796 210.427 168.662 210.687 168.662 211.02C168.662 211.393 168.849 211.68 169.222 211.88C169.596 212.067 170.176 212.26 170.962 212.46C171.762 212.66 172.422 212.867 172.942 213.08C173.462 213.293 173.909 213.627 174.282 214.08C174.669 214.52 174.869 215.107 174.882 215.84C174.882 216.48 174.702 217.053 174.342 217.56C173.996 218.067 173.489 218.467 172.822 218.76C172.169 219.04 171.402 219.18 170.522 219.18Z" fill="white"/>
<path d="M98.3452 95.2V89.008H109.913V124H103.001V95.2H98.3452ZM116.552 106.048C116.552 100.512 117.544 96.176 119.528 93.04C121.544 89.904 124.872 88.336 129.512 88.336C134.152 88.336 137.464 89.904 139.448 93.04C141.464 96.176 142.472 100.512 142.472 106.048C142.472 111.616 141.464 115.984 139.448 119.152C137.464 122.32 134.152 123.904 129.512 123.904C124.872 123.904 121.544 122.32 119.528 119.152C117.544 115.984 116.552 111.616 116.552 106.048ZM135.848 106.048C135.848 103.68 135.688 101.696 135.368 100.096C135.08 98.464 134.472 97.136 133.544 96.112C132.648 95.088 131.304 94.576 129.512 94.576C127.72 94.576 126.36 95.088 125.432 96.112C124.536 97.136 123.928 98.464 123.608 100.096C123.32 101.696 123.176 103.68 123.176 106.048C123.176 108.48 123.32 110.528 123.608 112.192C123.896 113.824 124.504 115.152 125.432 116.176C126.36 117.168 127.72 117.664 129.512 117.664C131.304 117.664 132.664 117.168 133.592 116.176C134.52 115.152 135.128 113.824 135.416 112.192C135.704 110.528 135.848 108.48 135.848 106.048ZM173.455 109.84H164.383V119.152H158.047V109.84H148.975V103.984H158.047V94.672H164.383V103.984H173.455V109.84Z" fill="white"/>
<path d="M183.215 40.7845C210.102 52.6333 232.049 73.4383 245.316 99.6545C258.583 125.871 262.35 155.876 255.974 184.558C249.598 213.24 233.475 238.824 210.35 256.951C187.226 275.078 158.532 284.626 129.158 283.968C99.7828 283.311 71.5448 272.488 49.255 253.344C26.9652 234.201 12.0027 207.921 6.91694 178.982C1.83119 150.044 6.93685 120.237 21.364 94.6408C35.7911 69.0446 58.6471 49.2426 86.0374 38.6089L94.8995 61.436C72.7903 70.0194 54.3412 86.0033 42.6958 106.664C31.0503 127.325 26.9291 151.385 31.0343 174.744C35.1394 198.103 47.217 219.316 65.2091 234.768C83.2012 250.221 105.995 258.957 129.706 259.487C153.417 260.018 176.578 252.311 195.244 237.679C213.909 223.048 226.924 202.396 232.07 179.245C237.217 156.093 234.177 131.873 223.467 110.711C212.758 89.5498 195.043 72.7563 173.34 63.1921L183.215 40.7845Z" fill="#4249B3"/>
<circle cx="135" cy="37" r="36" fill="white"/>
<path d="M133.333 28H130V24.6666H133.333V28ZM140 24.6666H136.667V28H140V24.6666ZM130 41.3333H133.333V38H130V41.3333ZM146.667 34.6666V31.3333H143.333V34.6666H146.667ZM146.667 41.3333V38H143.333V41.3333H146.667ZM136.667 41.3333H140V38H136.667V41.3333ZM146.667 24.6666H143.333V28H146.667V24.6666ZM136.667 31.3333V28H133.333V31.3333H136.667ZM126.667 34.6666V31.3333H130V28H126.667V24.6666H123.333V51.3333H126.667V38H130V34.6666H126.667ZM140 38H143.333V34.6666H140V38ZM133.333 34.6666V38H136.667V34.6666H133.333ZM130 31.3333V34.6666H133.333V31.3333H130ZM136.667 34.6666H140V31.3333H136.667V34.6666ZM140 28V31.3333H143.333V28H140Z" fill="#022A62"/>
</g>
<defs>
<filter id="filter0_dd_1812_103879" x="-0.000228882" y="0" width="264" height="293" filterUnits="userSpaceOnUse" color-interpolation-filters="sRGB">
<feFlood flood-opacity="0" result="BackgroundImageFix"/>
<feColorMatrix in="SourceAlpha" type="matrix" values="0 0 0 0 0 0 0 0 0 0 0 0 0 0 0 0 0 0 127 0" result="hardAlpha"/>
<feMorphology radius="2" operator="erode" in="SourceAlpha" result="effect1_dropShadow_1812_103879"/>
<feOffset dy="2"/>
<feGaussianBlur stdDeviation="2"/>
<feComposite in2="hardAlpha" operator="out"/>
<feColorMatrix type="matrix" values="0 0 0 0 0 0 0 0 0 0 0 0 0 0 0 0 0 0 0.1 0"/>
<feBlend mode="normal" in2="BackgroundImageFix" result="effect1_dropShadow_1812_103879"/>
<feColorMatrix in="SourceAlpha" type="matrix" values="0 0 0 0 0 0 0 0 0 0 0 0 0 0 0 0 0 0 127 0" result="hardAlpha"/>
<feMorphology radius="1" operator="erode" in="SourceAlpha" result="effect2_dropShadow_1812_103879"/>
<feOffset dy="4"/>
<feGaussianBlur stdDeviation="3"/>
<feComposite in2="hardAlpha" operator="out"/>
<feColorMatrix type="matrix" values="0 0 0 0 0 0 0 0 0 0 0 0 0 0 0 0 0 0 0.1 0"/>
<feBlend mode="normal" in2="effect1_dropShadow_1812_103879" result="effect2_dropShadow_1812_103879"/>
<feBlend mode="normal" in="SourceGraphic" in2="effect2_dropShadow_1812_103879" result="shape"/>
</filter>
<linearGradient id="paint0_linear_1812_103879" x1="132" y1="37" x2="132" y2="269" gradientUnits="userSpaceOnUse">
<stop stop-color="#1964D6"/>
<stop offset="1" stop-color="#3783F5"/>
</linearGradient>
</defs>
</svg>
