<?xml version="1.0" encoding="UTF-8"?>
<svg xmlns="http://www.w3.org/2000/svg" width="37" height="49" viewBox="0 0 37 49" fill="none">
  <g opacity="0.5">
    <path d="M4.95557 0H7.11959V2.13802H9.09961V0H11.2636V6.47207H9.09961V4.30605H7.11959V6.47207H4.95757V0H4.95557ZM14.1077 2.14602H12.2036V0H18.1777V2.14602H16.2717V6.47207H14.1077V2.14602ZM19.1257 0H21.3817L22.7698 2.27402L24.1558 0H26.4118V6.47207H24.2578V3.26403L22.7698 5.56606H22.7318L21.2417 3.26603V6.47207H19.1257V0ZM27.4878 0H29.6538V4.33405H32.6939V6.47407H27.4878V0Z" fill="#9EA2A4"></path>
    <path fill-rule="evenodd" clip-rule="evenodd" d="M4.88794 44.1457L0.795898 9.4353H36.7963L32.7022 44.1417L18.7761 48.0017L4.88794 44.1457ZM13.162 25.1455L12.774 20.7854H29.0642L29.4442 16.5294H8.12397L9.27199 29.4035H24.0261L23.5321 34.9236L18.7841 36.2076H18.7801L14.04 34.9276L13.736 31.5335H9.45999L10.056 38.2176L18.7761 40.6376L27.5102 38.2176L28.5742 26.2895L28.6782 25.1475H13.162V25.1455Z" fill="#9EA2A4"></path>
  </g>
</svg>
