<svg width="235" height="125" viewBox="0 0 235 125" fill="none" xmlns="http://www.w3.org/2000/svg">
<path d="M190.039 2.83106C163.143 -5.29097 135.688 4.54208 120.104 27.9259L117.162 32.3249L114.231 27.9259C98.6262 4.54208 71.2236 -5.35434 44.2751 2.84162C17.3847 10.9795 0 34.4056 0 62.5106C0 90.6103 17.3847 114.026 44.2751 122.169C71.1655 130.339 98.6156 120.479 114.231 97.0847L117.162 92.6804L120.104 97.0847C120.758 98.0669 121.429 99.0228 122.126 99.9522C134.135 116.08 152.106 124.989 171.307 124.989C177.475 124.989 183.77 124.075 190.049 122.18C216.94 114.026 234.319 90.6103 234.319 62.5106C234.319 34.395 216.94 10.9795 190.039 2.83106ZM86.3798 78.517C77.6188 91.6453 63.9201 93.1609 53.9709 90.1297C44.0692 87.1354 33.4757 78.3005 33.4757 62.5106C33.4757 46.7101 44.0692 37.8699 53.9814 34.8756C56.7064 34.0465 59.7165 33.5554 62.8322 33.5554C71.0599 33.5554 80.0163 36.9563 86.3798 46.4936L97.0578 62.5L86.3798 78.517ZM180.338 90.1297C170.457 93.1504 156.716 91.6559 147.955 78.517L142.231 69.9302L137.277 62.5L147.955 46.4936C156.706 33.36 170.378 31.8444 180.338 34.8756C190.255 37.8699 200.849 46.7101 200.849 62.5106C200.849 78.3005 190.255 87.1354 180.338 90.1297Z" fill="url(#paint0_linear_2693_215496)"/>
<path d="M142.231 69.9302L122.126 99.9522C121.429 99.0227 120.758 98.0669 120.104 97.0846L117.162 92.6804L137.277 62.5L142.231 69.9302Z" fill="#07B1A7"/>
<path d="M117.156 32.3196L97.0519 62.3416C96.3549 61.4121 95.6842 60.4563 95.0294 59.4741L92.0879 55.0698L112.203 24.8894L117.156 32.3196Z" fill="#07B1A7"/>
<defs>
<linearGradient id="paint0_linear_2693_215496" x1="117.16" y1="0.0010376" x2="117.16" y2="125" gradientUnits="userSpaceOnUse">
<stop stop-color="#0BBAB0"/>
<stop offset="1" stop-color="#26FAED"/>
</linearGradient>
</defs>
</svg>
