<svg width="54" height="53" viewBox="0 0 54 53" fill="none" xmlns="http://www.w3.org/2000/svg">
<path d="M53.9334 0.11084H0.86084V52.8885H53.9334V0.11084Z" fill="#F7DF1E"/>
<path d="M36.5121 41.3436C37.5811 43.0794 38.972 44.3553 41.4318 44.3553C43.4983 44.3553 44.8184 43.3282 44.8184 41.9091C44.8184 40.2085 43.4621 39.6062 41.1875 38.6168L39.9408 38.0848C36.3419 36.5601 33.9511 34.6501 33.9511 30.6122C33.9511 26.8926 36.8011 24.061 41.2549 24.061C44.4258 24.061 46.7054 25.1585 48.3481 28.0319L44.4646 30.5116C43.6095 28.987 42.6871 28.3863 41.2549 28.3863C39.7942 28.3863 38.8684 29.3078 38.8684 30.5116C38.8684 31.9995 39.795 32.6018 41.9348 33.5233L43.1816 34.0545C47.4189 35.8615 49.8114 37.7037 49.8114 41.8454C49.8114 46.3106 46.2842 48.7568 41.5473 48.7568C36.9156 48.7568 33.9233 46.5619 32.4592 43.6851L36.5121 41.3436ZM18.8945 41.7734C19.678 43.1557 20.3907 44.3243 22.1042 44.3243C23.7427 44.3243 24.7763 43.6868 24.7763 41.2079V24.3442H29.7635V41.2749C29.7635 46.4103 26.7358 48.7476 22.3165 48.7476C18.3234 48.7476 16.0109 46.6926 14.8349 44.2175L18.8945 41.7734Z" fill="#08182F"/>
</svg>
