<svg width="50" height="50" viewBox="0 0 50 50" fill="none" xmlns="http://www.w3.org/2000/svg">
<path d="M8.63002 47.504L7.06382 43.357L18.4111 28.8158L18.5808 41.2775L8.63002 47.504Z" fill="#07B1A7"/>
<path d="M8.50945 47.6818C8.45685 47.6559 8.41219 47.6097 8.39244 47.5612L6.82378 43.4179C6.8002 43.3579 6.81085 43.2905 6.84971 43.2418L18.1927 28.6985C18.2512 28.6208 18.3657 28.59 18.47 28.6172C18.5744 28.6444 18.6462 28.7282 18.6501 28.8173L18.8241 41.2811C18.8247 41.3492 18.7897 41.4094 18.7289 41.4473L8.77811 47.6738C8.71486 47.7152 8.62641 47.7249 8.55328 47.7034C8.54013 47.697 8.5226 47.6883 8.50945 47.6818ZM7.33672 43.3946L8.76059 47.1566L18.3325 41.1697L18.1684 29.5098L7.33672 43.3946Z" fill="#07B1A7"/>
<path d="M39.0485 47.6985L40.5002 43.5847L28.7462 28.7896L28.9221 41.2513L39.0485 47.6985Z" fill="#07B1A7"/>
<path d="M39.1731 47.879C39.225 47.8542 39.2684 47.809 39.2868 47.7609L40.741 43.6508C40.763 43.5913 40.7504 43.5236 40.7102 43.4741L28.9606 28.6769C28.8998 28.5979 28.7845 28.5646 28.6809 28.5895C28.5772 28.6144 28.5077 28.6967 28.5063 28.7857L28.6778 41.2495C28.6791 41.3176 28.7158 41.3786 28.7777 41.4178L38.9041 47.865C38.9685 47.9079 39.0573 47.9195 39.1298 47.8996C39.1428 47.8935 39.1601 47.8852 39.1731 47.879ZM40.2273 43.6162L38.9073 47.3481L29.1665 41.1488L29.0073 29.489L40.2273 43.6162Z" fill="#07B1A7"/>
<path d="M18.0259 41.9792L30.0431 41.9792L30.0431 43.9792L29.8458 44.0778C26.1676 45.9163 21.8365 45.9062 18.167 44.0505L18.0259 43.9792L18.0259 41.9792Z" fill="#0FCABF"/>
<path d="M17.5745 42.005L15.1157 21.7907C14.1151 13.5784 17.079 5.75497 23.5091 0.433387L23.5412 0.463708C29.7531 5.926 33.2423 13.5822 32.4922 21.5131L30.5477 42.149L17.5745 42.005Z" fill="url(#paint0_linear_1822_105789)"/>
<ellipse cx="23.4995" cy="14.4928" rx="4.5" ry="4.49777" fill="#F5F5F5"/>
<defs>
<linearGradient id="paint0_linear_1822_105789" x1="36.3147" y1="6.74198" x2="18.6753" y2="42.5473" gradientUnits="userSpaceOnUse">
<stop stop-color="#0BBAB0"/>
<stop offset="1" stop-color="#26FAED"/>
</linearGradient>
</defs>
</svg>
