<svg width="119" height="156" viewBox="0 0 119 156" fill="none" xmlns="http://www.w3.org/2000/svg">
<g clip-path="url(#clip0_2102_104791)">
<path d="M25.2982 136.733C23.968 136.733 22.6442 136.439 21.6323 135.853L2.17024 124.604C1.15831 124.017 0.604614 123.233 0.604614 122.386C0.604614 121.538 1.15831 120.747 2.17024 120.167L21.626 108.918C23.6498 107.752 26.9402 107.752 28.964 108.918L48.4197 120.167C49.4317 120.754 49.9854 121.538 49.9854 122.386C49.9854 123.233 49.4253 124.024 48.4197 124.604L28.964 135.853C27.9584 136.439 26.6283 136.733 25.2982 136.733ZM25.2982 108.37C24.0317 108.37 22.7652 108.65 21.7978 109.205L2.34207 120.461C1.4447 120.983 0.948287 121.665 0.948287 122.386C0.948287 123.106 1.4447 123.788 2.34207 124.31L21.7978 135.56C23.7262 136.675 26.8638 136.675 28.7922 135.56L48.2479 124.31C49.1453 123.788 49.6417 123.106 49.6417 122.386C49.6417 121.665 49.1453 120.983 48.2479 120.461L28.7922 109.211C27.8312 108.65 26.5647 108.37 25.2982 108.37Z" fill="#42E8E0"/>
<path opacity="0.4" d="M50.5963 118.064V111.391L49.3744 110.709C49.0307 112.793 46.5804 114.164 44.5311 114.45L30.5869 122.615L24.5026 124.814L5.08509 114.782L5.53696 114.52C3.87587 113.743 2.98486 111.965 2.0875 110.346L0.782811 111.13L0 111.346V118.134C0 119.001 0.572789 119.862 1.70564 120.524L21.1614 131.774C23.4398 133.093 27.1438 133.093 29.4222 131.774L48.878 120.524C49.9981 119.874 50.5709 119.027 50.5836 118.179C50.5963 118.141 50.5963 118.102 50.5963 118.064Z" fill="#42E8E0"/>
<path d="M50.5963 112.13V107.713L49.3744 107.031C49.0307 109.115 46.5804 110.486 44.5311 110.773L30.5869 118.937L24.5026 121.136L5.08509 111.11L5.53696 110.849C3.87587 110.071 2.98486 108.293 2.0875 106.674L0.782811 107.458L0 107.675V112.2C0 113.067 0.572789 113.928 1.70564 114.59L21.1614 125.84C23.4398 127.159 27.1438 127.159 29.4222 125.84L48.878 114.59C49.9981 113.94 50.5709 113.093 50.5836 112.245C50.5963 112.207 50.5963 112.168 50.5963 112.13Z" fill="url(#paint0_linear_2102_104791)"/>
<path opacity="0.3" d="M44.5375 110.779L30.5933 118.944L25.2982 120.856V126.828C26.7938 126.828 28.2894 126.496 29.4286 125.84L48.8843 114.59C50.0044 113.94 50.5772 113.093 50.59 112.245C50.59 112.207 50.59 112.168 50.59 112.13V107.713L49.4762 107.095H49.3616C48.9861 109.147 46.5677 110.498 44.5375 110.779Z" fill="#0F054C"/>
<path d="M5.53694 110.849L23.9744 100.186C24.7063 99.7653 25.89 99.7653 26.6219 100.186L44.7411 110.664L44.5375 110.779C46.5868 110.492 49.0307 109.122 49.3807 107.038L29.0467 95.7117L23.1279 94.1438L18.3101 96.9801L2.08112 106.674C2.98485 108.293 3.87585 110.072 5.53694 110.849Z" fill="url(#paint1_linear_2102_104791)"/>
<path opacity="0.3" d="M25.2981 94.7238L23.1279 94.1501L18.3101 96.9864L2.08112 106.681C2.97848 108.3 3.87585 110.078 5.53058 110.855L23.968 100.192C24.3308 99.982 24.8145 99.8737 25.2918 99.8737V94.7238H25.2981Z" fill="#0F054C"/>
<path d="M21.1677 121.359L1.70565 110.11C-0.57278 108.79 -0.57278 106.649 1.70565 105.33L21.1614 94.0801C23.4398 92.7607 27.1438 92.7607 29.4222 94.0801L48.878 105.33C51.1564 106.649 51.1564 108.79 48.878 110.11L29.4222 121.359C27.1502 122.672 23.4462 122.672 21.1677 121.359ZM26.622 95.7054C25.8901 95.2847 24.7063 95.2847 23.9744 95.7054L4.51867 106.955C3.78678 107.375 3.78678 108.064 4.51867 108.485L23.9744 119.734C24.7063 120.155 25.8901 120.155 26.622 119.734L46.0777 108.485C46.8096 108.064 46.8096 107.375 46.0777 106.955L26.622 95.7054Z" fill="url(#paint2_linear_2102_104791)"/>
<path d="M46.0777 106.955L26.622 95.7054C25.8901 95.2847 24.7063 95.2847 23.9744 95.7054L4.51872 106.955C4.03503 107.235 3.86956 107.637 4.03503 107.994C4.11777 107.815 4.27687 107.643 4.51872 107.503L23.9744 96.2535C24.7063 95.8329 25.8901 95.8329 26.622 96.2535L46.0777 107.503C46.3196 107.643 46.4787 107.815 46.5614 107.994C46.7269 107.63 46.5678 107.235 46.0777 106.955Z" fill="white"/>
<path d="M48.8907 110.11L29.435 121.359C27.1566 122.679 23.4525 122.679 21.1741 121.359L1.70567 110.11C0.687377 109.523 0.127317 108.765 0.0191231 107.994C-0.114528 108.95 0.445533 109.931 1.70567 110.658L21.1614 121.907C23.4398 123.227 27.1438 123.227 29.4223 121.907L48.878 110.658C50.1381 109.931 50.6982 108.95 50.5645 107.994C50.4691 108.765 49.909 109.517 48.8907 110.11Z" fill="white"/>
<path d="M21.7151 121.041L2.25937 109.791C0.286429 108.65 0.286429 106.789 2.25937 105.648L21.7151 94.3989C23.688 93.258 26.902 93.258 28.8813 94.3989L48.337 105.648C50.31 106.789 50.31 108.65 48.337 109.791L28.8813 121.041C26.9084 122.182 23.6944 122.182 21.7151 121.041ZM27.1693 95.3868C26.1383 94.7877 24.4581 94.7877 23.4271 95.3868L3.965 106.636C2.93398 107.235 2.93398 108.204 3.965 108.803L23.4207 120.053C24.4517 120.652 26.1319 120.652 27.1629 120.053L46.6187 108.803C47.6497 108.204 47.6497 107.235 46.6187 106.636L27.1693 95.3868Z" fill="url(#paint3_linear_2102_104791)"/>
<path opacity="0.4" d="M26.6219 95.7054C25.89 95.2847 24.7063 95.2847 23.9744 95.7054L4.51865 106.955C3.78675 107.376 3.78675 108.064 4.51865 108.485L23.9744 119.734C24.7063 120.155 25.89 120.155 26.6219 119.734L46.0776 108.485C46.8095 108.064 46.8095 107.376 46.0776 106.955L26.6219 95.7054Z" fill="#42E8E0"/>
<path d="M25.2982 115.61C23.968 115.61 22.6442 115.317 21.6323 114.731L2.17024 103.488C1.15831 102.901 0.604614 102.117 0.604614 101.27C0.604614 100.422 1.15831 99.6381 2.17024 99.0518L21.626 87.8023C23.6498 86.6359 26.9402 86.6359 28.964 87.8023L48.4197 99.0518C49.4317 99.6381 49.9854 100.422 49.9854 101.27C49.9854 102.117 49.4317 102.908 48.4197 103.488L28.964 114.737C27.9584 115.324 26.6283 115.61 25.2982 115.61ZM25.2982 87.2541C24.0317 87.2541 22.7652 87.5346 21.8042 88.0891L2.34207 99.3449C1.4447 99.8676 0.948287 100.55 0.948287 101.27C0.948287 101.99 1.4447 102.672 2.34207 103.195L21.7978 114.444C23.7262 115.559 26.8638 115.559 28.7922 114.444L48.2479 103.195C49.1453 102.672 49.6417 101.99 49.6417 101.27C49.6417 100.55 49.1453 99.8676 48.2479 99.3449L28.7922 88.0955C27.8312 87.5346 26.5647 87.2541 25.2982 87.2541Z" fill="#42E8E0"/>
<path opacity="0.4" d="M50.5963 96.9485V90.2753L49.3744 89.5933C49.0307 91.6775 46.5804 93.0478 44.5311 93.3346L30.5869 101.499L24.5026 103.698L5.08509 93.666L5.53696 93.4047C3.87587 92.6271 2.98486 90.8489 2.0875 89.23L0.782811 90.0139L0 90.2306V97.0186C0 97.8854 0.572789 98.7458 1.70564 99.4087L21.1614 110.658C23.4398 111.978 27.1438 111.978 29.4222 110.658L48.878 99.4087C49.9981 98.7586 50.5709 97.9109 50.5836 97.0632C50.5963 97.0249 50.5963 96.9867 50.5963 96.9485Z" fill="#42E8E0"/>
<path d="M50.5963 91.0144V86.5975L49.3744 85.9155C49.0307 87.9997 46.5804 89.37 44.5311 89.6568L30.5869 97.8215L24.5026 100.02L5.08509 89.9946L5.53696 89.7333C3.87587 88.9557 2.98486 87.1775 2.0875 85.5586L0.782811 86.3425L0 86.5593V91.0845C0 91.9514 0.572789 92.8118 1.70564 93.4747L21.1614 104.724C23.4398 106.043 27.1438 106.043 29.4222 104.724L48.878 93.4747C49.9981 92.8245 50.5709 91.9768 50.5836 91.1292C50.5963 91.0909 50.5963 91.0527 50.5963 91.0144Z" fill="url(#paint4_linear_2102_104791)"/>
<path opacity="0.3" d="M44.5375 89.6634L30.5933 97.8281L25.2982 99.7465V105.719C26.7938 105.719 28.2894 105.387 29.4286 104.731L48.8843 93.4812C50.0044 92.8311 50.5772 91.9834 50.59 91.1357C50.59 91.0975 50.59 91.0593 50.59 91.021V86.6041L49.4762 85.9858H49.3616C48.9861 88.0318 46.5677 89.383 44.5375 89.6634Z" fill="#0F054C"/>
<path d="M5.53698 89.7334L23.9744 79.0703C24.7063 78.6496 25.8901 78.6496 26.622 79.0703L44.7412 89.5486L44.5375 89.6633C46.5868 89.3765 49.0307 88.0061 49.3808 85.922L29.0468 74.596L23.128 73.0281L18.3102 75.8643L2.08752 85.5587C2.98489 87.1776 3.8759 88.9558 5.53698 89.7334Z" fill="url(#paint5_linear_2102_104791)"/>
<path opacity="0.3" d="M25.2982 73.6081L23.128 73.0344L18.3102 75.8707L2.08752 85.5586C2.98489 87.1775 3.88226 88.9558 5.53698 89.7334L23.9744 79.0703C24.3372 78.8599 24.8209 78.7516 25.2982 78.7516V73.6081Z" fill="#0F054C"/>
<path d="M21.1677 100.244L1.70565 88.9877C-0.57278 87.6684 -0.57278 85.5268 1.70565 84.2075L21.1614 72.958C23.4398 71.6387 27.1438 71.6387 29.4222 72.958L48.878 84.2075C51.1564 85.5268 51.1564 87.6684 48.878 88.9877L29.4222 100.237C27.1502 101.557 23.4462 101.557 21.1677 100.244ZM26.622 74.5833C25.8901 74.1626 24.7063 74.1626 23.9744 74.5833L4.51867 85.8391C3.78678 86.2598 3.78678 86.9482 4.51867 87.3688L23.9744 98.6183C24.7063 99.039 25.8901 99.039 26.622 98.6183L46.0777 87.3688C46.8096 86.9482 46.8096 86.2598 46.0777 85.8391L26.622 74.5833Z" fill="url(#paint6_linear_2102_104791)"/>
<path d="M46.0777 85.8391L26.622 74.5897C25.8901 74.169 24.7063 74.169 23.9744 74.5897L4.51872 85.8391C4.03503 86.1196 3.86956 86.5211 4.03503 86.878C4.11777 86.6996 4.27687 86.5275 4.51872 86.3873L23.9744 75.1378C24.7063 74.7171 25.8901 74.7171 26.622 75.1378L46.0777 86.3873C46.3196 86.5275 46.4787 86.6996 46.5614 86.878C46.7269 86.5147 46.5678 86.1196 46.0777 85.8391Z" fill="white"/>
<path d="M48.8907 88.9876L29.435 100.237C27.1566 101.556 23.4525 101.556 21.1741 100.237L1.70567 88.9876C0.687377 88.4013 0.127317 87.6428 0.0191231 86.8716C-0.114528 87.8276 0.445533 88.8092 1.70567 89.5358L21.1614 100.785C23.4398 102.105 27.1438 102.105 29.4223 100.785L48.878 89.5358C50.1381 88.8092 50.6982 87.8276 50.5645 86.8716C50.4691 87.6492 49.909 88.4013 48.8907 88.9876Z" fill="white"/>
<path d="M21.7151 99.925L2.25937 88.6755C0.286429 87.5346 0.286429 85.6735 2.25937 84.5326L21.7151 73.2832C23.688 72.1423 26.902 72.1423 28.8813 73.2832L48.337 84.5326C50.31 85.6735 50.31 87.5346 48.337 88.6755L28.8813 99.925C26.9084 101.066 23.6944 101.066 21.7151 99.925ZM27.1693 74.2711C26.1383 73.6719 24.4581 73.6719 23.4271 74.2711L3.965 85.5205C2.93398 86.1197 2.93398 87.0885 3.965 87.6876L23.4207 98.9371C24.4517 99.5362 26.1319 99.5362 27.1629 98.9371L46.6187 87.6876C47.6497 87.0885 47.6497 86.1197 46.6187 85.5205L27.1693 74.2711Z" fill="url(#paint7_linear_2102_104791)"/>
<path opacity="0.4" d="M26.6219 74.5833C25.89 74.1627 24.7063 74.1627 23.9744 74.5833L4.51865 85.8392C3.78675 86.2598 3.78675 86.9482 4.51865 87.3688L23.9744 98.6183C24.7063 99.039 25.89 99.039 26.6219 98.6183L46.0776 87.3688C46.8095 86.9482 46.8095 86.2598 46.0776 85.8392L26.6219 74.5833Z" fill="#42E8E0"/>
<path d="M25.2982 94.4945C23.968 94.4945 22.6442 94.2013 21.6323 93.615L2.17024 82.3655C1.15831 81.7791 0.604614 80.9952 0.604614 80.1475C0.604614 79.2998 1.15831 78.5158 2.17024 77.9294L21.626 66.68C23.6498 65.5136 26.9402 65.5136 28.964 66.68L48.4197 77.9294C49.4317 78.5158 49.9854 79.2998 49.9854 80.1475C49.9854 80.9952 49.4317 81.7855 48.4197 82.3655L28.964 93.615C27.9584 94.2013 26.6283 94.4945 25.2982 94.4945ZM25.2982 66.1382C24.0317 66.1382 22.7652 66.4186 21.7978 66.9731L2.34207 78.229C1.4447 78.7516 0.948287 79.4336 0.948287 80.1538C0.948287 80.8741 1.4447 81.556 2.34207 82.0787L21.7978 93.3282C23.7262 94.4435 26.8638 94.4435 28.7922 93.3282L48.2479 82.0787C49.1516 81.556 49.6417 80.8741 49.6417 80.1538C49.6417 79.4336 49.1453 78.7516 48.2479 78.229L28.7922 66.9795C27.8312 66.4186 26.5647 66.1382 25.2982 66.1382Z" fill="#42E8E0"/>
<path opacity="0.4" d="M50.5963 75.8325V69.1593L49.3744 68.4773C49.0307 70.5615 46.5804 71.9318 44.5311 72.2186L30.5869 80.3833L24.5026 82.5822L5.08509 72.5501L5.53696 72.2888C3.87587 71.5112 2.98486 69.7329 2.0875 68.114L0.782811 68.898L0 69.1147V75.9026C0 76.7694 0.572789 77.6299 1.70564 78.2927L21.1614 89.5422C23.4398 90.8615 27.1438 90.8615 29.4222 89.5422L48.878 78.2927C49.9981 77.6426 50.5709 76.7949 50.5836 75.9472C50.5963 75.909 50.5963 75.8707 50.5963 75.8325Z" fill="#42E8E0"/>
<path d="M50.5963 69.8985V65.4816L49.3744 64.7996C49.0307 66.8838 46.5804 68.2541 44.5311 68.5409L30.5869 76.7055L24.5026 78.9044L5.08509 68.8723L5.53696 68.611C3.87587 67.8334 2.98486 66.0552 2.0875 64.4363L0.782811 65.2202L0 65.4433V69.9686C0 70.8354 0.572789 71.6959 1.70564 72.3587L21.1614 83.6082C23.4398 84.9275 27.1438 84.9275 29.4222 83.6082L48.878 72.3587C49.9981 71.7086 50.5709 70.8609 50.5836 70.0132C50.5963 69.975 50.5963 69.9367 50.5963 69.8985Z" fill="url(#paint8_linear_2102_104791)"/>
<path opacity="0.3" d="M44.5375 68.5475L30.5933 76.7121L25.2982 78.6306V84.6027C26.7938 84.6027 28.2894 84.2712 29.4286 83.6148L48.8843 72.3653C50.0044 71.7152 50.5772 70.8675 50.59 70.0198C50.59 69.9815 50.59 69.9433 50.59 69.905V65.4881L49.4762 64.8699H49.3616C48.9861 66.9158 46.5677 68.267 44.5375 68.5475Z" fill="#0F054C"/>
<path d="M5.53694 68.6174L23.9744 57.9543C24.7063 57.5337 25.89 57.5337 26.6219 57.9543L44.7411 68.4326L44.5375 68.5473C46.5868 68.2605 49.0307 66.8902 49.3807 64.806L29.0467 53.48L23.1279 51.9121L18.3101 54.7484L2.08112 64.4427C2.98485 66.0616 3.87585 67.8398 5.53694 68.6174Z" fill="url(#paint9_linear_2102_104791)"/>
<path opacity="0.3" d="M25.2981 52.4857L23.1279 51.9121L18.3101 54.7484L2.08112 64.4427C2.97848 66.0616 3.87585 67.8398 5.53058 68.6174L23.968 57.9543C24.3308 57.744 24.8145 57.6356 25.2918 57.6356V52.4857H25.2981Z" fill="#0F054C"/>
<path d="M21.1677 79.1212L1.70565 67.8718C-0.57278 66.5524 -0.57278 64.4109 1.70565 63.0915L21.1614 51.842C23.4398 50.5227 27.1438 50.5227 29.4222 51.842L48.878 63.0915C51.1564 64.4109 51.1564 66.5524 48.878 67.8718L29.4286 79.1212C27.1502 80.4406 23.4462 80.4406 21.1677 79.1212ZM26.622 53.4673C25.8901 53.0467 24.7063 53.0467 23.9744 53.4673L4.51867 64.7168C3.78678 65.1375 3.78678 65.8258 4.51867 66.2465L23.9744 77.496C24.7063 77.9166 25.8901 77.9166 26.622 77.496L46.0777 66.2465C46.8096 65.8258 46.8096 65.1375 46.0777 64.7168L26.622 53.4673Z" fill="url(#paint10_linear_2102_104791)"/>
<path d="M46.0777 64.7168L26.622 53.4674C25.8901 53.0467 24.7063 53.0467 23.9744 53.4674L4.51872 64.7168C4.03503 64.9973 3.86956 65.3988 4.03503 65.7557C4.11777 65.5773 4.27687 65.4052 4.51872 65.265L23.9744 54.0155C24.7063 53.5948 25.8901 53.5948 26.622 54.0155L46.0777 65.265C46.3196 65.4052 46.4787 65.5773 46.5614 65.7557C46.7269 65.3988 46.5678 65.0036 46.0777 64.7168Z" fill="white"/>
<path d="M48.8907 67.8717L29.4286 79.1211C27.1502 80.4405 23.4462 80.4405 21.1677 79.1211L1.70567 67.8717C0.687377 67.2853 0.127317 66.5268 0.0191231 65.7556C-0.114528 66.7117 0.445533 67.6932 1.70567 68.4198L21.1614 79.6693C23.4398 80.9886 27.1438 80.9886 29.4223 79.6693L48.878 68.4198C50.1381 67.6932 50.6982 66.7117 50.5645 65.7556C50.4691 66.5332 49.909 67.2853 48.8907 67.8717Z" fill="white"/>
<path d="M21.7151 78.809L2.25937 67.5532C0.286429 66.4123 0.286429 64.5512 2.25937 63.4103L21.7151 52.1608C23.688 51.02 26.902 51.02 28.8813 52.1608L48.337 63.4103C50.31 64.5512 50.31 66.4123 48.337 67.5532L28.8813 78.8027C26.9084 79.9499 23.6944 79.9499 21.7151 78.809ZM27.1693 53.1488C26.1383 52.5496 24.4581 52.5496 23.4271 53.1488L3.965 64.4046C2.93398 65.0037 2.93398 65.9725 3.965 66.5716L23.4207 77.8211C24.4517 78.4202 26.1319 78.4202 27.1629 77.8211L46.6187 66.5716C47.6497 65.9725 47.6497 65.0037 46.6187 64.4046L27.1693 53.1488Z" fill="url(#paint11_linear_2102_104791)"/>
<path opacity="0.4" d="M26.6219 53.4674C25.89 53.0467 24.7063 53.0467 23.9744 53.4674L4.51865 64.7168C3.78675 65.1375 3.78675 65.8258 4.51865 66.2465L23.9744 77.496C24.7063 77.9166 25.89 77.9166 26.6219 77.496L46.0776 66.2465C46.8095 65.8258 46.8095 65.1375 46.0776 64.7168L26.6219 53.4674Z" fill="#42E8E0"/>
<path d="M93.7018 134.948C92.3717 134.948 91.0479 134.655 90.036 134.068L70.5803 122.819C69.5683 122.232 69.0146 121.449 69.0146 120.601C69.0146 119.753 69.5683 118.969 70.5803 118.383L90.036 107.133C92.0598 105.967 95.3502 105.967 97.374 107.133L116.83 118.383C117.842 118.969 118.395 119.753 118.395 120.601C118.395 121.449 117.842 122.239 116.83 122.819L97.374 134.068C96.3557 134.655 95.0256 134.948 93.7018 134.948ZM93.6955 106.592C92.429 106.592 91.1625 106.872 90.2015 107.427L70.7457 118.676C69.8484 119.199 69.352 119.881 69.352 120.601C69.352 121.321 69.8484 122.003 70.7457 122.526L90.2015 133.775C92.1298 134.891 95.2675 134.891 97.1958 133.775L116.652 122.526C117.549 122.003 118.045 121.321 118.045 120.601C118.045 119.881 117.549 119.199 116.652 118.676L97.1958 107.427C96.2348 106.866 94.9683 106.592 93.6955 106.592Z" fill="#42E8E0"/>
<path opacity="0.4" d="M119 116.28V109.606L117.778 108.924C117.434 111.009 114.984 112.379 112.935 112.666L98.9906 120.83L92.9063 123.029L73.4824 112.991L73.9343 112.729C72.2732 111.952 71.3822 110.174 70.4848 108.555L69.1801 109.339L68.4037 109.555V116.343C68.4037 117.21 68.9765 118.071 70.1157 118.733L89.5714 129.983C91.8498 131.302 95.5539 131.302 97.8323 129.983L117.288 118.733C118.408 118.083 118.981 117.236 118.994 116.388C119 116.356 119 116.318 119 116.28Z" fill="#42E8E0"/>
<path d="M119 110.352V105.935L117.778 105.253C117.434 107.337 114.984 108.707 112.935 108.994L98.9906 117.159L92.9063 119.358L73.4824 109.319L73.9343 109.058C72.2732 108.28 71.3822 106.502 70.4848 104.883L69.1801 105.667L68.4037 105.884V110.409C68.4037 111.276 68.9765 112.137 70.1157 112.799L89.5714 124.049C91.8498 125.368 95.5539 125.368 97.8323 124.049L117.288 112.799C118.408 112.149 118.981 111.302 118.994 110.454C119 110.422 119 110.384 119 110.352Z" fill="url(#paint12_linear_2102_104791)"/>
<path opacity="0.3" d="M112.941 108.994L98.997 117.159L93.7018 119.078V125.05C95.1975 125.05 96.6931 124.718 97.8323 124.062L117.288 112.812C118.408 112.162 118.981 111.314 118.994 110.467C118.994 110.429 118.994 110.39 118.994 110.352V105.935L117.88 105.317H117.765C117.39 107.363 114.965 108.714 112.941 108.994Z" fill="#0F054C"/>
<path d="M73.9343 109.064L92.3717 98.4013C93.1036 97.9807 94.2874 97.9807 95.0193 98.4013L113.138 108.88L112.935 108.994C114.984 108.708 117.428 107.337 117.778 105.253L97.4441 93.927L91.5253 92.3591L86.7075 95.1954L70.4785 104.89C71.3822 106.515 72.2796 108.287 73.9343 109.064Z" fill="url(#paint13_linear_2102_104791)"/>
<path opacity="0.3" d="M93.7018 92.9391L91.5316 92.3655L86.7138 95.2017L70.4848 104.896C71.3822 106.515 72.2795 108.293 73.9343 109.071L92.3717 98.4077C92.7345 98.1974 93.2181 98.089 93.6955 98.089V92.9391H93.7018Z" fill="#0F054C"/>
<path d="M89.565 119.575L70.1093 108.325C67.8309 107.006 67.8309 104.864 70.1093 103.545L89.565 92.2954C91.8435 90.9761 95.5475 90.9761 97.8259 92.2954L117.282 103.545C119.56 104.864 119.56 107.006 117.282 108.325L97.8259 119.575C95.5539 120.894 91.8435 120.894 89.565 119.575ZM95.0193 93.9207C94.2874 93.5 93.1036 93.5 92.3717 93.9207L72.916 105.17C72.1841 105.591 72.1841 106.279 72.916 106.7L92.3717 117.949C93.1036 118.37 94.2874 118.37 95.0193 117.949L114.475 106.7C115.207 106.279 115.207 105.591 114.475 105.17L95.0193 93.9207Z" fill="url(#paint14_linear_2102_104791)"/>
<path d="M114.481 105.17L95.0256 93.9207C94.2937 93.5001 93.11 93.5001 92.3781 93.9207L72.9223 105.17C72.4387 105.451 72.2732 105.852 72.4387 106.209C72.5214 106.031 72.6805 105.859 72.9223 105.718L92.3781 94.4689C93.11 94.0482 94.2937 94.0482 95.0256 94.4689L114.481 105.718C114.723 105.859 114.882 106.031 114.965 106.209C115.13 105.852 114.965 105.451 114.481 105.17Z" fill="white"/>
<path d="M117.288 108.325L97.8323 119.575C95.5539 120.894 91.8498 120.894 89.5714 119.575L70.1157 108.325C69.0974 107.739 68.5374 106.98 68.4292 106.209C68.2955 107.165 68.8556 108.147 70.1157 108.873L89.5714 120.123C91.8498 121.442 95.5539 121.442 97.8323 120.123L117.288 108.873C118.548 108.147 119.108 107.165 118.975 106.209C118.873 106.98 118.306 107.732 117.288 108.325Z" fill="white"/>
<path d="M90.1188 119.256L70.6631 108.007C68.6901 106.866 68.6901 105.005 70.6631 103.864L90.1188 92.6142C92.0917 91.4733 95.3057 91.4733 97.285 92.6142L116.741 103.864C118.714 105.005 118.714 106.866 116.741 108.007L97.285 119.256C95.3057 120.397 92.0917 120.397 90.1188 119.256ZM95.573 93.6021C94.542 93.003 92.8618 93.003 91.8308 93.6021L72.3751 104.852C71.344 105.451 71.344 106.42 72.3751 107.019L91.8308 118.268C92.8618 118.867 94.542 118.867 95.573 118.268L115.029 107.019C116.06 106.42 116.06 105.451 115.029 104.852L95.573 93.6021Z" fill="url(#paint15_linear_2102_104791)"/>
<path opacity="0.4" d="M95.0193 93.9207C94.2874 93.5001 93.1036 93.5001 92.3717 93.9207L72.916 105.17C72.1841 105.591 72.1841 106.279 72.916 106.7L92.3717 117.949C93.1036 118.37 94.2874 118.37 95.0193 117.949L114.475 106.7C115.207 106.279 115.207 105.591 114.475 105.17L95.0193 93.9207Z" fill="#42E8E0"/>
<path d="M93.7018 113.832C92.3717 113.832 91.0479 113.539 90.036 112.953L70.5803 101.703C69.5683 101.117 69.0146 100.333 69.0146 99.4851C69.0146 98.6374 69.5683 97.8535 70.5803 97.2671L90.036 86.0176C92.0598 84.8512 95.3502 84.8512 97.374 86.0176L116.83 97.2671C117.842 97.8535 118.395 98.6374 118.395 99.4851C118.395 100.333 117.842 101.123 116.83 101.703L97.374 112.953C96.3557 113.539 95.0256 113.832 93.7018 113.832ZM93.7018 85.4695C92.4353 85.4695 91.1688 85.7499 90.2015 86.3044L70.7457 97.5539C69.8484 98.0765 69.352 98.7585 69.352 99.4787C69.352 100.199 69.8484 100.881 70.7457 101.404L90.2015 112.653C92.1298 113.768 95.2675 113.768 97.1958 112.653L116.652 101.404C117.555 100.881 118.045 100.199 118.045 99.4787C118.045 98.7585 117.549 98.0765 116.652 97.5539L97.1958 86.3044C96.2348 85.7499 94.9683 85.4695 93.7018 85.4695Z" fill="#42E8E0"/>
<path opacity="0.4" d="M119 95.1638V88.4906L117.778 87.8086C117.434 89.8928 114.984 91.2631 112.935 91.55L98.9906 99.7146L92.9063 101.914L73.4824 91.875L73.9343 91.6137C72.2732 90.8361 71.3822 89.0579 70.4848 87.439L69.1801 88.2229L68.4037 88.4396V95.2276C68.4037 96.0944 68.9765 96.9548 70.1157 97.6177L89.5714 108.867C91.8498 110.186 95.5539 110.186 97.8323 108.867L117.288 97.6177C118.408 96.9676 118.981 96.1199 118.994 95.2722C119 95.2403 119 95.2021 119 95.1638Z" fill="#42E8E0"/>
<path d="M119 89.2298V84.8129L117.778 84.1309C117.434 86.2151 114.984 87.5854 112.935 87.8722L98.9906 96.0369L92.9063 98.2358L73.4824 88.1973L73.9343 87.936C72.2732 87.1584 71.3822 85.3801 70.4848 83.7612L69.1801 84.5452L68.4037 84.7619V89.2872C68.4037 90.154 68.9765 91.0144 70.1157 91.6773L89.5714 102.927C91.8498 104.246 95.5539 104.246 97.8323 102.927L117.288 91.6773C118.408 91.0272 118.981 90.1795 118.994 89.3318C119 89.3063 119 89.2681 119 89.2298Z" fill="url(#paint16_linear_2102_104791)"/>
<path opacity="0.3" d="M112.941 87.8788L98.997 96.0434L93.7018 97.9619V103.934C95.1975 103.934 96.6931 103.603 97.8323 102.946L117.288 91.6966C118.408 91.0465 118.981 90.1988 118.994 89.3511C118.994 89.3128 118.994 89.2746 118.994 89.2363V84.8194L117.88 84.2012H117.765C117.39 86.2471 114.965 87.5983 112.941 87.8788Z" fill="#0F054C"/>
<path d="M73.9343 87.9487L92.3717 77.2856C93.1036 76.865 94.2874 76.865 95.0193 77.2856L113.138 87.7639L112.935 87.8786C114.984 87.5918 117.428 86.2215 117.778 84.1373L97.4441 72.8113L91.5253 71.2434L86.7075 74.0797L70.4785 83.774C71.3822 85.3929 72.2796 87.1711 73.9343 87.9487Z" fill="url(#paint17_linear_2102_104791)"/>
<path opacity="0.3" d="M93.7018 71.8234L91.5316 71.2498L86.7138 74.086L70.4848 83.7803C71.3822 85.3992 72.2795 87.1775 73.9343 87.9551L92.3717 77.292C92.7345 77.0816 93.2181 76.9733 93.6955 76.9733V71.8234H93.7018Z" fill="#0F054C"/>
<path d="M89.565 98.4589L70.1093 87.2094C67.8309 85.8901 67.8309 83.7485 70.1093 82.4292L89.565 71.1797C91.8435 69.8603 95.5475 69.8603 97.8259 71.1797L117.282 82.4292C119.56 83.7485 119.56 85.8901 117.282 87.2094L97.8259 98.4589C95.5539 99.7719 91.8435 99.7719 89.565 98.4589ZM95.0193 72.805C94.2874 72.3843 93.1036 72.3843 92.3717 72.805L72.916 84.0545C72.1841 84.4751 72.1841 85.1635 72.916 85.5841L92.3717 96.8336C93.1036 97.2543 94.2874 97.2543 95.0193 96.8336L114.475 85.5841C115.207 85.1635 115.207 84.4751 114.475 84.0545L95.0193 72.805Z" fill="url(#paint18_linear_2102_104791)"/>
<path d="M114.481 84.0545L95.0256 72.805C94.2937 72.3843 93.11 72.3843 92.3781 72.805L72.9223 84.0545C72.4387 84.3349 72.2732 84.7365 72.4387 85.0934C72.5214 84.9149 72.6805 84.7428 72.9223 84.6026L92.3781 73.3531C93.11 72.9325 94.2937 72.9325 95.0256 73.3531L114.481 84.6026C114.723 84.7428 114.882 84.9149 114.965 85.0934C115.13 84.7301 114.965 84.3349 114.481 84.0545Z" fill="white"/>
<path d="M117.288 87.2093L97.8323 98.4588C95.5539 99.7781 91.8498 99.7781 89.5714 98.4588L70.1157 87.2093C69.0974 86.6229 68.5374 85.8645 68.4292 85.0933C68.2955 86.0493 68.8556 87.0309 70.1157 87.7574L89.5714 99.0069C91.8498 100.326 95.5539 100.326 97.8323 99.0069L117.288 87.7574C118.548 87.0309 119.108 86.0493 118.975 85.0933C118.873 85.8645 118.306 86.6166 117.288 87.2093Z" fill="white"/>
<path d="M90.1188 98.1403L70.6631 86.8908C68.6901 85.75 68.6901 83.8889 70.6631 82.748L90.1188 71.4985C92.0917 70.3576 95.3057 70.3576 97.285 71.4985L116.741 82.748C118.714 83.8889 118.714 85.75 116.741 86.8908L97.285 98.1403C95.3057 99.2812 92.0917 99.2812 90.1188 98.1403ZM95.573 72.4864C94.542 71.8873 92.8618 71.8873 91.8308 72.4864L72.3751 83.7359C71.344 84.335 71.344 85.3038 72.3751 85.9029L91.8308 97.1524C92.8618 97.7515 94.542 97.7515 95.573 97.1524L115.029 85.9029C116.06 85.3038 116.06 84.335 115.029 83.7359L95.573 72.4864Z" fill="url(#paint19_linear_2102_104791)"/>
<path opacity="0.4" d="M95.0193 72.805C94.2874 72.3843 93.1036 72.3843 92.3717 72.805L72.916 84.0545C72.1841 84.4751 72.1841 85.1635 72.916 85.5842L92.3717 96.8336C93.1036 97.2543 94.2874 97.2543 95.0193 96.8336L114.475 85.5842C115.207 85.1635 115.207 84.4751 114.475 84.0545L95.0193 72.805Z" fill="#42E8E0"/>
<path d="M93.7018 92.7099C92.3717 92.7099 91.0479 92.4167 90.036 91.8303L70.5803 80.5808C69.5683 79.9944 69.0146 79.2105 69.0146 78.3628C69.0146 77.5151 69.5683 76.7248 70.5803 76.1448L90.036 64.8953C92.0598 63.7289 95.3502 63.7289 97.374 64.8953L116.83 76.1448C117.842 76.7311 118.395 77.5151 118.395 78.3628C118.395 79.2105 117.842 79.9944 116.83 80.5808L97.374 91.8303C96.3557 92.4167 95.0256 92.7099 93.7018 92.7099ZM93.7018 64.3535C92.4353 64.3535 91.1688 64.634 90.2015 65.1885L70.7457 76.438C69.8484 76.9606 69.352 77.6426 69.352 78.3628C69.352 79.083 69.8484 79.765 70.7457 80.2876L90.2015 91.5371C92.1298 92.6525 95.2675 92.6525 97.1958 91.5371L116.652 80.2876C117.549 79.765 118.045 79.083 118.045 78.3628C118.045 77.6426 117.549 76.9606 116.652 76.438L97.1958 65.1885C96.2348 64.634 94.9683 64.3535 93.7018 64.3535Z" fill="#42E8E0"/>
<path opacity="0.4" d="M119 74.0478V67.3747L117.778 66.6927C117.434 68.7769 114.984 70.1472 112.935 70.434L98.9906 78.5986L92.9063 80.7975L73.4824 70.7591L73.9343 70.4977C72.2732 69.7202 71.3822 67.9419 70.4848 66.323L69.1801 67.107L68.4037 67.3237V74.1116C68.4037 74.9784 68.9765 75.8388 70.1157 76.5017L89.5714 87.7512C91.8498 89.0705 95.5539 89.0705 97.8323 87.7512L117.288 76.5017C118.408 75.8516 118.981 75.0039 118.994 74.1562C119 74.1243 119 74.0861 119 74.0478Z" fill="#42E8E0"/>
<path d="M119 68.1138V63.6969L117.778 63.0149C117.434 65.0991 114.984 66.4695 112.935 66.7563L98.9906 74.9209L92.9063 77.1198L73.4824 67.0813L73.9343 66.82C72.2732 66.0424 71.3822 64.2642 70.4848 62.6453L69.1801 63.4292L68.4037 63.6459V68.1712C68.4037 69.038 68.9765 69.8985 70.1157 70.5613L89.5714 81.8108C91.8498 83.1302 95.5539 83.1302 97.8323 81.8108L117.288 70.5613C118.408 69.9112 118.981 69.0635 118.994 68.2158C119 68.1903 119 68.1521 119 68.1138Z" fill="url(#paint20_linear_2102_104791)"/>
<path opacity="0.3" d="M112.941 66.7626L98.997 74.9272L93.7018 76.8457V82.8178C95.1975 82.8178 96.6931 82.4863 97.8323 81.8298L117.288 70.5804C118.408 69.9303 118.981 69.0826 118.994 68.2349C118.994 68.1966 118.994 68.1584 118.994 68.1201V63.7032L117.88 63.085H117.765C117.39 65.1309 114.965 66.4821 112.941 66.7626Z" fill="#0F054C"/>
<path d="M73.9343 66.8328L92.3717 56.1697C93.1036 55.749 94.2874 55.749 95.0193 56.1697L113.138 66.6479L112.935 66.7626C114.984 66.4758 117.428 65.1055 117.778 63.0213L97.4441 51.6954L91.5253 50.1274L86.7075 52.9637L70.4785 62.658C71.3822 64.2769 72.2796 66.0552 73.9343 66.8328Z" fill="url(#paint21_linear_2102_104791)"/>
<path opacity="0.3" d="M93.7018 50.7074L91.5316 50.1338L86.7138 52.9701L70.4848 62.6644C71.3822 64.2833 72.2795 66.0615 73.9343 66.8391L92.3717 56.176C92.7345 55.9657 93.2181 55.8573 93.6955 55.8573V50.7074H93.7018Z" fill="#0F054C"/>
<path d="M89.565 77.3429L70.1093 66.0934C67.8309 64.7741 67.8309 62.6325 70.1093 61.3132L89.565 50.0637C91.8435 48.7444 95.5475 48.7444 97.8259 50.0637L117.282 61.3132C119.56 62.6325 119.56 64.7741 117.282 66.0934L97.8259 77.3429C95.5539 78.6559 91.8435 78.6559 89.565 77.3429ZM95.0193 51.6826C94.2874 51.262 93.1036 51.262 92.3717 51.6826L72.916 62.9321C72.1841 63.3528 72.1841 64.0411 72.916 64.4618L92.3717 75.7113C93.1036 76.1319 94.2874 76.1319 95.0193 75.7113L114.475 64.4618C115.207 64.0411 115.207 63.3528 114.475 62.9321L95.0193 51.6826Z" fill="url(#paint22_linear_2102_104791)"/>
<path d="M114.481 62.9385L95.0256 51.689C94.2937 51.2684 93.11 51.2684 92.3781 51.689L72.9223 62.9385C72.4387 63.219 72.2732 63.6205 72.4387 63.9774C72.5214 63.799 72.6805 63.6269 72.9223 63.4866L92.3781 52.2372C93.11 51.8165 94.2937 51.8165 95.0256 52.2372L114.481 63.4866C114.723 63.6269 114.882 63.799 114.965 63.9774C115.13 63.6141 114.965 63.219 114.481 62.9385Z" fill="white"/>
<path d="M117.288 66.087L97.8323 77.3365C95.5539 78.6558 91.8498 78.6558 89.5714 77.3365L70.1157 66.087C69.0974 65.5006 68.5374 64.7422 68.4292 63.9709C68.2955 64.927 68.8556 65.9085 70.1157 66.6351L89.5714 77.8846C91.8498 79.204 95.5539 79.204 97.8323 77.8846L117.288 66.6351C118.548 65.9085 119.108 64.927 118.975 63.9709C118.873 64.7485 118.306 65.5006 117.288 66.087Z" fill="white"/>
<path d="M90.1188 77.0243L70.6631 65.7749C68.6901 64.634 68.6901 62.7729 70.6631 61.632L90.1188 50.3825C92.0917 49.2416 95.3057 49.2416 97.285 50.3825L116.741 61.632C118.714 62.7729 118.714 64.634 116.741 65.7749L97.285 77.0243C95.3057 78.1652 92.0917 78.1652 90.1188 77.0243ZM95.573 51.3704C94.542 50.7713 92.8618 50.7713 91.8308 51.3704L72.3751 62.6199C71.344 63.219 71.344 64.1878 72.3751 64.7869L91.8308 76.0364C92.8618 76.6355 94.542 76.6355 95.573 76.0364L115.029 64.7806C116.06 64.1814 116.06 63.2127 115.029 62.6135L95.573 51.3704Z" fill="url(#paint23_linear_2102_104791)"/>
<path opacity="0.4" d="M95.0193 51.6827C94.2874 51.262 93.1036 51.262 92.3717 51.6827L72.916 62.9322C72.1841 63.3528 72.1841 64.0412 72.916 64.4618L92.3717 75.7113C93.1036 76.132 94.2874 76.132 95.0193 75.7113L114.475 64.4618C115.207 64.0412 115.207 63.3528 114.475 62.9322L95.0193 51.6827Z" fill="#42E8E0"/>
<path d="M59.1118 156C57.7816 156 56.4578 155.707 55.4459 155.12L35.9838 143.877C34.9719 143.291 34.4182 142.507 34.4182 141.659C34.4182 140.811 34.9719 140.028 35.9838 139.441L55.4395 128.192C57.4634 127.025 60.7538 127.025 62.7712 128.192L82.2333 139.441C83.2453 140.028 83.7989 140.811 83.7989 141.659C83.7989 142.507 83.2453 143.291 82.2333 143.877L62.7776 155.127C61.7657 155.713 60.4419 156 59.1118 156ZM59.1118 127.644C57.8453 127.644 56.5788 127.924 55.6177 128.478L36.1557 139.734C35.2583 140.257 34.7619 140.939 34.7619 141.659C34.7619 142.379 35.2583 143.061 36.1557 143.584L55.6114 154.834C57.5398 155.949 60.6774 155.949 62.6058 154.834L82.0615 143.584C82.9589 143.061 83.4553 142.379 83.4553 141.659C83.4553 140.939 82.9589 140.257 82.0615 139.734L62.5994 128.485C61.6448 127.924 60.3783 127.644 59.1118 127.644Z" fill="#42E8E0"/>
<path opacity="0.4" d="M84.4099 137.338V130.665L83.188 129.983C82.8443 132.067 80.394 133.437 78.3447 133.724L64.4005 141.889L58.3162 144.088L38.8923 134.049L39.3442 133.788C37.6831 133.01 36.7921 131.232 35.8947 129.613L34.59 130.397L33.8136 130.614V137.402C33.8136 138.268 34.3864 139.129 35.5256 139.792L54.9813 151.041C57.2597 152.361 60.9638 152.361 63.2422 151.041L82.6979 139.792C83.818 139.142 84.3908 138.294 84.4035 137.446C84.4099 137.414 84.4099 137.376 84.4099 137.338Z" fill="#42E8E0"/>
<path d="M84.4099 131.404V126.987L83.188 126.305C82.8443 128.389 80.394 129.759 78.3447 130.046L64.4005 138.211L58.3162 140.41L38.8923 130.371L39.3442 130.11C37.6831 129.332 36.7921 127.554 35.8947 125.935L34.59 126.719L33.8136 126.936V131.461C33.8136 132.328 34.3864 133.189 35.5256 133.851L54.9813 145.101C57.2597 146.42 60.9638 146.42 63.2422 145.101L82.6979 133.851C83.818 133.201 84.3908 132.354 84.4035 131.506C84.4099 131.48 84.4099 131.442 84.4099 131.404Z" fill="url(#paint24_linear_2102_104791)"/>
<path opacity="0.3" d="M78.3511 130.053L64.4069 138.217L59.1118 140.136V146.108C60.6074 146.108 62.103 145.776 63.2422 145.12L82.6979 133.87C83.818 133.22 84.3908 132.373 84.4036 131.525C84.4036 131.487 84.4036 131.448 84.4036 131.41V126.993L83.2898 126.375H83.1752C82.7997 128.421 80.3749 129.772 78.3511 130.053Z" fill="#0F054C"/>
<path d="M39.3505 130.123L57.788 119.46C58.5199 119.039 59.7036 119.039 60.4355 119.46L78.5547 129.938L78.3511 130.053C80.4004 129.766 82.8443 128.396 83.1943 126.311L62.8603 114.985L56.9415 113.417L52.1237 116.254L35.8947 125.948C36.7921 127.567 37.6895 129.345 39.3505 130.123Z" fill="url(#paint25_linear_2102_104791)"/>
<path opacity="0.3" d="M59.1117 113.997L56.9415 113.424L52.1237 116.26L35.8947 125.954C36.7921 127.573 37.6895 129.352 39.3442 130.129L57.7816 119.466C58.1444 119.256 58.6281 119.147 59.1054 119.147V113.997H59.1117Z" fill="#0F054C"/>
<path d="M54.9816 140.633L35.5259 129.383C33.2475 128.064 33.2475 125.923 35.5259 124.603L54.9816 113.354C57.26 112.034 60.9641 112.034 63.2425 113.354L82.6982 124.603C84.9766 125.923 84.9766 128.064 82.6982 129.383L63.2425 140.633C60.9641 141.946 57.26 141.946 54.9816 140.633ZM60.4358 114.973C59.7039 114.552 58.5202 114.552 57.7883 114.973L38.3326 126.222C37.6007 126.643 37.6007 127.331 38.3326 127.752L57.7883 139.001C58.5202 139.422 59.7039 139.422 60.4358 139.001L79.8916 127.752C80.6234 127.331 80.6234 126.643 79.8916 126.222L60.4358 114.973Z" fill="url(#paint26_linear_2102_104791)"/>
<path d="M79.8912 126.229L60.4355 114.979C59.7036 114.558 58.5199 114.558 57.788 114.979L38.3323 126.229C37.8486 126.509 37.6831 126.911 37.8486 127.267C37.9313 127.089 38.0904 126.917 38.3323 126.777L57.788 115.527C58.5199 115.107 59.7036 115.107 60.4355 115.527L79.8912 126.777C80.1331 126.917 80.2922 127.089 80.3749 127.267C80.5404 126.904 80.3813 126.509 79.8912 126.229Z" fill="white"/>
<path d="M82.6979 129.377L63.2422 140.627C60.9638 141.946 57.2598 141.946 54.9813 140.627L35.5256 129.377C34.5073 128.791 33.9473 128.032 33.8391 127.261C33.7054 128.217 34.2655 129.199 35.5256 129.925L54.9813 141.175C57.2598 142.494 60.9638 142.494 63.2422 141.175L82.6979 129.925C83.9581 129.199 84.5181 128.217 84.3845 127.261C84.2826 128.039 83.7162 128.791 82.6979 129.377Z" fill="white"/>
<path d="M55.5286 140.314L36.0729 129.065C34.1 127.924 34.1 126.063 36.0729 124.922L55.5286 113.673C57.5016 112.532 60.7155 112.532 62.6948 113.673L82.1506 124.922C84.1235 126.063 84.1235 127.924 82.1506 129.065L62.6948 140.314C60.7155 141.455 57.5016 141.455 55.5286 140.314ZM60.9828 114.66C59.9518 114.061 58.2716 114.061 57.2406 114.66L37.7849 125.91C36.7539 126.509 36.7539 127.478 37.7849 128.077L57.2406 139.326C58.2716 139.926 59.9518 139.926 60.9828 139.326L80.4386 128.077C81.4696 127.478 81.4696 126.509 80.4386 125.91L60.9828 114.66Z" fill="url(#paint27_linear_2102_104791)"/>
<path opacity="0.4" d="M60.4355 114.973C59.7036 114.552 58.5199 114.552 57.788 114.973L38.3322 126.222C37.6004 126.643 37.6004 127.331 38.3322 127.752L57.788 139.001C58.5199 139.422 59.7036 139.422 60.4355 139.001L79.8912 127.752C80.6231 127.331 80.6231 126.643 79.8912 126.222L60.4355 114.973Z" fill="#42E8E0"/>
<path d="M59.1117 113.768C57.7816 113.768 56.4578 113.475 55.4459 112.889L35.9902 101.639C34.9783 101.053 34.4246 100.269 34.4246 99.4211C34.4246 98.5735 34.9783 97.7831 35.9902 97.2031L55.4459 85.9536C57.4698 84.7873 60.7601 84.7873 62.7776 85.9536L82.2397 97.2031C83.2516 97.7895 83.8053 98.5735 83.8053 99.4211C83.8053 100.269 83.2452 101.059 82.2397 101.639L62.784 112.889C61.7657 113.475 60.4419 113.768 59.1117 113.768ZM55.6114 112.595C57.5398 113.711 60.6774 113.711 62.6058 112.595L82.0615 101.346C82.9588 100.823 83.4553 100.141 83.4553 99.4211C83.4553 98.7009 82.9588 98.0189 82.0615 97.4963L62.5994 86.2468C60.671 85.1314 57.5334 85.1314 55.605 86.2468L36.1493 97.4963C35.2519 98.0189 34.7555 98.7009 34.7555 99.4211C34.7555 100.141 35.2519 100.823 36.1493 101.346L55.6114 112.595Z" fill="#42E8E0"/>
<path opacity="0.4" d="M84.4099 95.1062V88.433L83.188 87.751C82.8443 89.8352 80.394 91.2055 78.3447 91.4923L64.4005 99.657L58.3162 101.856L38.8923 91.8174L39.3442 91.5561C37.6831 90.7785 36.7921 89.0003 35.8947 87.3813L34.59 88.1653L33.8136 88.382V95.1699C33.8136 96.0367 34.3864 96.8972 35.5256 97.56L54.9813 108.81C57.2597 110.129 60.9638 110.129 63.2422 108.81L82.6979 97.56C83.818 96.9099 84.3908 96.0622 84.4035 95.2145C84.4099 95.1763 84.4099 95.1381 84.4099 95.1062Z" fill="#42E8E0"/>
<path d="M84.4099 89.1722V84.7553L83.188 84.0733C82.8443 86.1575 80.394 87.5278 78.3447 87.8146L64.4005 95.9792L58.3162 98.1781L38.8923 88.1397L39.3442 87.8784C37.6831 87.1008 36.7921 85.3225 35.8947 83.7036L34.59 84.4876L33.8136 84.7043V89.2296C33.8136 90.0964 34.3864 90.9568 35.5256 91.6197L54.9813 102.869C57.2597 104.188 60.9638 104.188 63.2422 102.869L82.6979 91.6197C83.818 90.9696 84.3908 90.1219 84.4035 89.2742C84.4099 89.2487 84.4099 89.2104 84.4099 89.1722Z" fill="url(#paint28_linear_2102_104791)"/>
<path opacity="0.3" d="M78.3511 87.8211L64.4069 95.9858L59.1118 97.9042V103.876C60.6074 103.876 62.103 103.545 63.2422 102.888L82.6979 91.639C83.818 90.9888 84.3908 90.1412 84.4036 89.2935C84.4036 89.2552 84.4036 89.217 84.4036 89.1787V84.7618L83.2898 84.1436H83.1752C82.7997 86.1895 80.3749 87.5343 78.3511 87.8211Z" fill="#0F054C"/>
<path d="M39.3505 87.8911L57.788 77.228C58.5199 76.8073 59.7036 76.8073 60.4355 77.228L78.5547 87.7063L78.3511 87.821C80.4004 87.5342 82.8443 86.1638 83.1943 84.0797L62.8603 72.7537L56.9415 71.1858L52.1237 74.0221L35.8947 83.7164C36.7921 85.3353 37.6895 87.1135 39.3505 87.8911Z" fill="url(#paint29_linear_2102_104791)"/>
<path opacity="0.3" d="M59.1117 71.7594L56.9415 71.1858L52.1237 74.0221L35.8947 83.7164C36.7921 85.3353 37.6895 87.1135 39.3442 87.8911L57.7816 77.228C58.1444 77.0177 58.6281 76.9093 59.1054 76.9093V71.7594H59.1117Z" fill="#0F054C"/>
<path d="M54.9816 98.3949L35.5259 87.1454C33.2475 85.8261 33.2475 83.6845 35.5259 82.3652L54.9816 71.1157C57.26 69.7964 60.9641 69.7964 63.2425 71.1157L82.6982 82.3652C84.9766 83.6845 84.9766 85.8261 82.6982 87.1454L63.2425 98.3949C60.9641 99.7143 57.26 99.7143 54.9816 98.3949ZM60.4358 72.741C59.7039 72.3203 58.5202 72.3203 57.7883 72.741L38.3326 83.9905C37.6007 84.4111 37.6007 85.0995 38.3326 85.5202L57.7883 96.776C58.5202 97.1967 59.7039 97.1967 60.4358 96.776L79.8916 85.5265C80.6234 85.1059 80.6234 84.4175 79.8916 83.9969L60.4358 72.741Z" fill="url(#paint30_linear_2102_104791)"/>
<path d="M79.8912 83.9905L60.4355 72.741C59.7036 72.3204 58.5199 72.3204 57.788 72.741L38.3323 83.9905C37.8486 84.2709 37.6831 84.6725 37.8486 85.0294C37.9313 84.851 38.0904 84.6789 38.3323 84.5386L57.788 73.2892C58.5199 72.8685 59.7036 72.8685 60.4355 73.2892L79.8912 84.5386C80.1331 84.6789 80.2922 84.851 80.3749 85.0294C80.5404 84.6725 80.3813 84.2709 79.8912 83.9905Z" fill="white"/>
<path d="M82.6979 87.1453L63.2422 98.3948C60.9638 99.7142 57.2598 99.7142 54.9813 98.3948L35.5256 87.1453C34.5073 86.559 33.9473 85.8005 33.8391 85.0293C33.7054 85.9853 34.2655 86.9669 35.5256 87.6935L54.9813 98.943C57.2598 100.262 60.9638 100.262 63.2422 98.943L82.6979 87.6935C83.9581 86.9669 84.5181 85.9853 84.3845 85.0293C84.2826 85.8069 83.7162 86.559 82.6979 87.1453Z" fill="white"/>
<path d="M55.5286 98.0763L36.0729 86.8269C34.1 85.686 34.1 83.8249 36.0729 82.684L55.5286 71.4345C57.5016 70.2936 60.7155 70.2936 62.6948 71.4345L82.1506 82.684C84.1235 83.8249 84.1235 85.686 82.1506 86.8269L62.6948 98.0763C60.7155 99.2236 57.5016 99.2236 55.5286 98.0763ZM60.9828 72.4224C59.9518 71.8233 58.2716 71.8233 57.2406 72.4224L37.7849 83.6719C36.7539 84.271 36.7539 85.2398 37.7849 85.8389L57.2406 97.0884C58.2716 97.6875 59.9518 97.6875 60.9828 97.0884L80.4386 85.8389C81.4696 85.2398 81.4696 84.271 80.4386 83.6719L60.9828 72.4224Z" fill="url(#paint31_linear_2102_104791)"/>
<path opacity="0.4" d="M60.4355 72.741C59.7036 72.3204 58.5199 72.3204 57.788 72.741L38.3322 83.9905C37.6004 84.4112 37.6004 85.0995 38.3322 85.5202L57.788 96.776C58.5199 97.1967 59.7036 97.1967 60.4355 96.776L79.8912 85.5266C80.6231 85.1059 80.6231 84.4175 79.8912 83.9969L60.4355 72.741Z" fill="#42E8E0"/>
<path opacity="0.8" d="M58.819 67.7442C57.1834 67.7442 55.6241 67.4128 54.4595 66.7372L4.72233 37.9793C3.53856 37.2973 2.8894 36.3349 2.8894 35.2769C2.8894 34.0212 3.81223 32.7656 5.41604 31.8351L53.7658 3.88029C56.7124 2.17853 61.1929 1.99369 63.7577 3.47875L113.495 32.2366C114.679 32.9186 115.328 33.881 115.328 34.9391C115.328 36.1947 114.405 37.4503 112.801 38.3808L64.4514 66.3356C62.8476 67.2662 60.7792 67.7442 58.819 67.7442ZM59.3982 3.10271C57.5525 3.10271 55.605 3.55524 54.084 4.4348L5.73425 32.3896C4.32774 33.199 3.52584 34.2507 3.52584 35.2769C3.52584 36.0991 4.0668 36.8639 5.04054 37.4311L54.7777 66.189C57.1643 67.5657 61.3584 67.3873 64.1332 65.7875L112.483 37.8327C113.889 37.0232 114.691 35.9716 114.691 34.9454C114.691 34.1232 114.157 33.3584 113.177 32.7911L63.4395 4.03326C62.3639 3.40864 60.9129 3.10271 59.3982 3.10271Z" fill="url(#paint32_linear_2102_104791)"/>
</g>
<defs>
<linearGradient id="paint0_linear_2102_104791" x1="5.03373" y1="98.944" x2="45.2078" y2="122.105" gradientUnits="userSpaceOnUse">
<stop stop-color="#BCBEFF"/>
<stop offset="0.2271" stop-color="#AAADF8"/>
<stop offset="0.6802" stop-color="#7C83E5"/>
<stop offset="1" stop-color="#5761D7"/>
</linearGradient>
<linearGradient id="paint1_linear_2102_104791" x1="7.44305" y1="97.381" x2="43.2703" y2="118.036" gradientUnits="userSpaceOnUse">
<stop offset="0.2421" stop-color="#5761D7"/>
<stop offset="0.3923" stop-color="#7A82E5"/>
<stop offset="0.5463" stop-color="#979CF0"/>
<stop offset="0.7" stop-color="#ACAFF8"/>
<stop offset="0.8519" stop-color="#B8BAFD"/>
<stop offset="1" stop-color="#BCBEFF"/>
</linearGradient>
<linearGradient id="paint2_linear_2102_104791" x1="1.67822e-05" y1="107.718" x2="50.5974" y2="107.718" gradientUnits="userSpaceOnUse">
<stop stop-color="#E9E9FD"/>
<stop offset="0.3601" stop-color="#D3D2F9"/>
<stop offset="0.7062" stop-color="#C5C4F7"/>
<stop offset="1" stop-color="#C0BFF6"/>
</linearGradient>
<linearGradient id="paint3_linear_2102_104791" x1="0.776863" y1="107.718" x2="49.8206" y2="107.718" gradientUnits="userSpaceOnUse">
<stop stop-color="#E9E9FD"/>
<stop offset="0.3601" stop-color="#D3D2F9"/>
<stop offset="0.7062" stop-color="#C5C4F7"/>
<stop offset="1" stop-color="#C0BFF6"/>
</linearGradient>
<linearGradient id="paint4_linear_2102_104791" x1="5.03373" y1="77.8273" x2="45.2078" y2="100.988" gradientUnits="userSpaceOnUse">
<stop stop-color="#BCBEFF"/>
<stop offset="0.2271" stop-color="#AAADF8"/>
<stop offset="0.6802" stop-color="#7C83E5"/>
<stop offset="1" stop-color="#5761D7"/>
</linearGradient>
<linearGradient id="paint5_linear_2102_104791" x1="7.4431" y1="76.2642" x2="43.2703" y2="96.9189" gradientUnits="userSpaceOnUse">
<stop offset="0.2421" stop-color="#5761D7"/>
<stop offset="0.3923" stop-color="#7A82E5"/>
<stop offset="0.5463" stop-color="#979CF0"/>
<stop offset="0.7" stop-color="#ACAFF8"/>
<stop offset="0.8519" stop-color="#B8BAFD"/>
<stop offset="1" stop-color="#BCBEFF"/>
</linearGradient>
<linearGradient id="paint6_linear_2102_104791" x1="1.67822e-05" y1="86.6013" x2="50.5974" y2="86.6013" gradientUnits="userSpaceOnUse">
<stop stop-color="#E9E9FD"/>
<stop offset="0.3601" stop-color="#D3D2F9"/>
<stop offset="0.7062" stop-color="#C5C4F7"/>
<stop offset="1" stop-color="#C0BFF6"/>
</linearGradient>
<linearGradient id="paint7_linear_2102_104791" x1="0.776863" y1="86.6014" x2="49.8206" y2="86.6014" gradientUnits="userSpaceOnUse">
<stop stop-color="#E9E9FD"/>
<stop offset="0.3601" stop-color="#D3D2F9"/>
<stop offset="0.7062" stop-color="#C5C4F7"/>
<stop offset="1" stop-color="#C0BFF6"/>
</linearGradient>
<linearGradient id="paint8_linear_2102_104791" x1="5.03379" y1="56.7103" x2="45.2078" y2="79.8709" gradientUnits="userSpaceOnUse">
<stop stop-color="#BCBEFF"/>
<stop offset="0.2271" stop-color="#AAADF8"/>
<stop offset="0.6802" stop-color="#7C83E5"/>
<stop offset="1" stop-color="#5761D7"/>
</linearGradient>
<linearGradient id="paint9_linear_2102_104791" x1="7.44305" y1="55.1472" x2="43.2703" y2="75.8018" gradientUnits="userSpaceOnUse">
<stop offset="0.2421" stop-color="#5761D7"/>
<stop offset="0.3923" stop-color="#7A82E5"/>
<stop offset="0.5463" stop-color="#979CF0"/>
<stop offset="0.7" stop-color="#ACAFF8"/>
<stop offset="0.8519" stop-color="#B8BAFD"/>
<stop offset="1" stop-color="#BCBEFF"/>
</linearGradient>
<linearGradient id="paint10_linear_2102_104791" x1="1.67822e-05" y1="65.4843" x2="50.5974" y2="65.4843" gradientUnits="userSpaceOnUse">
<stop stop-color="#E9E9FD"/>
<stop offset="0.3601" stop-color="#D3D2F9"/>
<stop offset="0.7062" stop-color="#C5C4F7"/>
<stop offset="1" stop-color="#C0BFF6"/>
</linearGradient>
<linearGradient id="paint11_linear_2102_104791" x1="0.776863" y1="65.4844" x2="49.8206" y2="65.4844" gradientUnits="userSpaceOnUse">
<stop stop-color="#E9E9FD"/>
<stop offset="0.3601" stop-color="#D3D2F9"/>
<stop offset="0.7062" stop-color="#C5C4F7"/>
<stop offset="1" stop-color="#C0BFF6"/>
</linearGradient>
<linearGradient id="paint12_linear_2102_104791" x1="73.4346" y1="97.1603" x2="113.609" y2="120.321" gradientUnits="userSpaceOnUse">
<stop stop-color="#BCBEFF"/>
<stop offset="0.2271" stop-color="#AAADF8"/>
<stop offset="0.6802" stop-color="#7C83E5"/>
<stop offset="1" stop-color="#5761D7"/>
</linearGradient>
<linearGradient id="paint13_linear_2102_104791" x1="75.844" y1="95.5972" x2="111.671" y2="116.252" gradientUnits="userSpaceOnUse">
<stop offset="0.2421" stop-color="#5761D7"/>
<stop offset="0.3923" stop-color="#7A82E5"/>
<stop offset="0.5463" stop-color="#979CF0"/>
<stop offset="0.7" stop-color="#ACAFF8"/>
<stop offset="0.8519" stop-color="#B8BAFD"/>
<stop offset="1" stop-color="#BCBEFF"/>
</linearGradient>
<linearGradient id="paint14_linear_2102_104791" x1="68.4009" y1="105.934" x2="118.998" y2="105.934" gradientUnits="userSpaceOnUse">
<stop stop-color="#E9E9FD"/>
<stop offset="0.3601" stop-color="#D3D2F9"/>
<stop offset="0.7062" stop-color="#C5C4F7"/>
<stop offset="1" stop-color="#C0BFF6"/>
</linearGradient>
<linearGradient id="paint15_linear_2102_104791" x1="69.1777" y1="105.934" x2="118.221" y2="105.934" gradientUnits="userSpaceOnUse">
<stop stop-color="#E9E9FD"/>
<stop offset="0.3601" stop-color="#D3D2F9"/>
<stop offset="0.7062" stop-color="#C5C4F7"/>
<stop offset="1" stop-color="#C0BFF6"/>
</linearGradient>
<linearGradient id="paint16_linear_2102_104791" x1="73.4346" y1="76.0436" x2="113.609" y2="99.2041" gradientUnits="userSpaceOnUse">
<stop stop-color="#BCBEFF"/>
<stop offset="0.2271" stop-color="#AAADF8"/>
<stop offset="0.6802" stop-color="#7C83E5"/>
<stop offset="1" stop-color="#5761D7"/>
</linearGradient>
<linearGradient id="paint17_linear_2102_104791" x1="75.844" y1="74.4805" x2="111.671" y2="95.1351" gradientUnits="userSpaceOnUse">
<stop offset="0.2421" stop-color="#5761D7"/>
<stop offset="0.3923" stop-color="#7A82E5"/>
<stop offset="0.5463" stop-color="#979CF0"/>
<stop offset="0.7" stop-color="#ACAFF8"/>
<stop offset="0.8519" stop-color="#B8BAFD"/>
<stop offset="1" stop-color="#BCBEFF"/>
</linearGradient>
<linearGradient id="paint18_linear_2102_104791" x1="68.4009" y1="84.8174" x2="118.998" y2="84.8174" gradientUnits="userSpaceOnUse">
<stop stop-color="#E9E9FD"/>
<stop offset="0.3601" stop-color="#D3D2F9"/>
<stop offset="0.7062" stop-color="#C5C4F7"/>
<stop offset="1" stop-color="#C0BFF6"/>
</linearGradient>
<linearGradient id="paint19_linear_2102_104791" x1="69.1777" y1="84.8176" x2="118.221" y2="84.8176" gradientUnits="userSpaceOnUse">
<stop stop-color="#E9E9FD"/>
<stop offset="0.3601" stop-color="#D3D2F9"/>
<stop offset="0.7062" stop-color="#C5C4F7"/>
<stop offset="1" stop-color="#C0BFF6"/>
</linearGradient>
<linearGradient id="paint20_linear_2102_104791" x1="73.4347" y1="54.9266" x2="113.609" y2="78.0871" gradientUnits="userSpaceOnUse">
<stop stop-color="#BCBEFF"/>
<stop offset="0.2271" stop-color="#AAADF8"/>
<stop offset="0.6802" stop-color="#7C83E5"/>
<stop offset="1" stop-color="#5761D7"/>
</linearGradient>
<linearGradient id="paint21_linear_2102_104791" x1="75.844" y1="53.3635" x2="111.671" y2="74.018" gradientUnits="userSpaceOnUse">
<stop offset="0.2421" stop-color="#5761D7"/>
<stop offset="0.3923" stop-color="#7A82E5"/>
<stop offset="0.5463" stop-color="#979CF0"/>
<stop offset="0.7" stop-color="#ACAFF8"/>
<stop offset="0.8519" stop-color="#B8BAFD"/>
<stop offset="1" stop-color="#BCBEFF"/>
</linearGradient>
<linearGradient id="paint22_linear_2102_104791" x1="68.4009" y1="63.7005" x2="118.998" y2="63.7005" gradientUnits="userSpaceOnUse">
<stop stop-color="#E9E9FD"/>
<stop offset="0.3601" stop-color="#D3D2F9"/>
<stop offset="0.7062" stop-color="#C5C4F7"/>
<stop offset="1" stop-color="#C0BFF6"/>
</linearGradient>
<linearGradient id="paint23_linear_2102_104791" x1="69.1777" y1="63.7006" x2="118.221" y2="63.7006" gradientUnits="userSpaceOnUse">
<stop stop-color="#E9E9FD"/>
<stop offset="0.3601" stop-color="#D3D2F9"/>
<stop offset="0.7062" stop-color="#C5C4F7"/>
<stop offset="1" stop-color="#C0BFF6"/>
</linearGradient>
<linearGradient id="paint24_linear_2102_104791" x1="38.8458" y1="118.217" x2="79.0199" y2="141.378" gradientUnits="userSpaceOnUse">
<stop stop-color="#BCBEFF"/>
<stop offset="0.2271" stop-color="#AAADF8"/>
<stop offset="0.6802" stop-color="#7C83E5"/>
<stop offset="1" stop-color="#5761D7"/>
</linearGradient>
<linearGradient id="paint25_linear_2102_104791" x1="41.2551" y1="116.654" x2="77.0824" y2="137.309" gradientUnits="userSpaceOnUse">
<stop offset="0.2421" stop-color="#5761D7"/>
<stop offset="0.3923" stop-color="#7A82E5"/>
<stop offset="0.5463" stop-color="#979CF0"/>
<stop offset="0.7" stop-color="#ACAFF8"/>
<stop offset="0.8519" stop-color="#B8BAFD"/>
<stop offset="1" stop-color="#BCBEFF"/>
</linearGradient>
<linearGradient id="paint26_linear_2102_104791" x1="33.8124" y1="126.991" x2="84.4098" y2="126.991" gradientUnits="userSpaceOnUse">
<stop stop-color="#E9E9FD"/>
<stop offset="0.3601" stop-color="#D3D2F9"/>
<stop offset="0.7062" stop-color="#C5C4F7"/>
<stop offset="1" stop-color="#C0BFF6"/>
</linearGradient>
<linearGradient id="paint27_linear_2102_104791" x1="34.5889" y1="126.991" x2="83.6326" y2="126.991" gradientUnits="userSpaceOnUse">
<stop stop-color="#E9E9FD"/>
<stop offset="0.3601" stop-color="#D3D2F9"/>
<stop offset="0.7062" stop-color="#C5C4F7"/>
<stop offset="1" stop-color="#C0BFF6"/>
</linearGradient>
<linearGradient id="paint28_linear_2102_104791" x1="38.8459" y1="75.9833" x2="79.0198" y2="99.1438" gradientUnits="userSpaceOnUse">
<stop stop-color="#BCBEFF"/>
<stop offset="0.2271" stop-color="#AAADF8"/>
<stop offset="0.6802" stop-color="#7C83E5"/>
<stop offset="1" stop-color="#5761D7"/>
</linearGradient>
<linearGradient id="paint29_linear_2102_104791" x1="41.2551" y1="74.4201" x2="77.0824" y2="95.0748" gradientUnits="userSpaceOnUse">
<stop offset="0.2421" stop-color="#5761D7"/>
<stop offset="0.3923" stop-color="#7A82E5"/>
<stop offset="0.5463" stop-color="#979CF0"/>
<stop offset="0.7" stop-color="#ACAFF8"/>
<stop offset="0.8519" stop-color="#B8BAFD"/>
<stop offset="1" stop-color="#BCBEFF"/>
</linearGradient>
<linearGradient id="paint30_linear_2102_104791" x1="33.8124" y1="84.7572" x2="84.4098" y2="84.7572" gradientUnits="userSpaceOnUse">
<stop stop-color="#E9E9FD"/>
<stop offset="0.3601" stop-color="#D3D2F9"/>
<stop offset="0.7062" stop-color="#C5C4F7"/>
<stop offset="1" stop-color="#C0BFF6"/>
</linearGradient>
<linearGradient id="paint31_linear_2102_104791" x1="34.5889" y1="84.7573" x2="83.6326" y2="84.7573" gradientUnits="userSpaceOnUse">
<stop stop-color="#E9E9FD"/>
<stop offset="0.3601" stop-color="#D3D2F9"/>
<stop offset="0.7062" stop-color="#C5C4F7"/>
<stop offset="1" stop-color="#C0BFF6"/>
</linearGradient>
<linearGradient id="paint32_linear_2102_104791" x1="2.8915" y1="35.1083" x2="115.327" y2="35.1083" gradientUnits="userSpaceOnUse">
<stop stop-color="#42E8E0"/>
<stop offset="0.1055" stop-color="#37B6BF"/>
<stop offset="0.2197" stop-color="#2C87A1"/>
<stop offset="0.338" stop-color="#235F87"/>
<stop offset="0.4587" stop-color="#1C3F72"/>
<stop offset="0.5824" stop-color="#162561"/>
<stop offset="0.7105" stop-color="#121355"/>
<stop offset="0.8458" stop-color="#10084E"/>
<stop offset="1" stop-color="#0F054C"/>
</linearGradient>
<clipPath id="clip0_2102_104791">
<rect width="119" height="156" fill="white"/>
</clipPath>
</defs>
</svg>
