<svg width="41" height="41" viewBox="0 0 41 41" fill="none" xmlns="http://www.w3.org/2000/svg">
<g filter="url(#filter0_d_2779_45951)">
<circle cx="20.5" cy="16.5" r="16.5" fill="white"/>
</g>
<path d="M22.1344 15.5001C22.1344 14.4841 21.6994 13.5096 20.9251 12.7912C20.1509 12.0727 19.1007 11.6691 18.0057 11.6691C16.9107 11.6691 15.8606 12.0727 15.0863 12.7912C14.3121 13.5096 13.8771 14.4841 13.8771 15.5001L22.1344 15.5001Z" fill="#55F5A3"/>
<path d="M16.2924 5.29006C14.6612 5.54638 13.1051 6.16559 11.7344 7.10385L13.8251 10.2861C13.9982 10.1627 14.1783 10.0471 14.3653 9.93933C15.4846 9.30465 16.7637 8.98731 18.2027 8.98731C19.5884 8.98731 20.8232 9.29559 21.9069 9.91213C22.9906 10.5287 23.8344 11.3991 24.4385 12.5234C25.0425 13.6295 25.3445 14.908 25.3445 16.3587C25.3445 16.9208 25.3174 17.3454 25.2463 17.7988H22.5097L21.8683 19.7587H24.9448C24.5007 21.1369 23.6923 22.2702 22.5198 23.1588C21.7313 23.7531 20.8103 24.1445 19.7567 24.3331L20.5568 27.8437C22.1643 27.4621 23.67 26.7244 24.9672 25.6828C26.2644 24.6413 27.3214 23.3214 28.0635 21.8167C28.8055 20.3119 29.2143 18.659 29.2611 16.9751C29.3079 15.2911 28.9914 13.6173 28.3341 12.072C27.6767 10.5268 26.6946 9.1479 25.4573 8.03304C24.22 6.91819 22.7577 6.0946 21.1739 5.62059C19.5902 5.14658 17.9237 5.03375 16.2924 5.29006Z" fill="#07133B"/>
<path d="M13.877 17.7988C13.877 18.9164 14.3318 19.9883 15.1413 20.7786C15.9507 21.5689 17.0486 22.0129 18.1934 22.0129C19.3381 22.0129 20.436 21.5689 21.2455 20.7786C22.0549 19.9883 22.5097 18.9164 22.5097 17.7988H13.877Z" fill="#07133B"/>
<defs>
<filter id="filter0_d_2779_45951" x="0" y="0" width="41" height="41" filterUnits="userSpaceOnUse" color-interpolation-filters="sRGB">
<feFlood flood-opacity="0" result="BackgroundImageFix"/>
<feColorMatrix in="SourceAlpha" type="matrix" values="0 0 0 0 0 0 0 0 0 0 0 0 0 0 0 0 0 0 127 0" result="hardAlpha"/>
<feOffset dy="4"/>
<feGaussianBlur stdDeviation="2"/>
<feComposite in2="hardAlpha" operator="out"/>
<feColorMatrix type="matrix" values="0 0 0 0 0 0 0 0 0 0 0 0 0 0 0 0 0 0 0.25 0"/>
<feBlend mode="normal" in2="BackgroundImageFix" result="effect1_dropShadow_2779_45951"/>
<feBlend mode="normal" in="SourceGraphic" in2="effect1_dropShadow_2779_45951" result="shape"/>
</filter>
</defs>
</svg>
