<svg width="1440" height="767" viewBox="0 0 1440 767" fill="none" xmlns="http://www.w3.org/2000/svg">
<g opacity="0.03">
<path d="M1440 870H0V0H1440V870ZM1.8626 868.208H1438.14V1.79677H1.8626V868.208Z" fill="url(#paint0_linear_1812_104065)"/>
<path d="M1439.07 824.797H0.9313V826.594H1439.07V824.797Z" fill="url(#paint1_linear_1812_104065)"/>
<path d="M1439.07 781.387H0.9313V783.184H1439.07V781.387Z" fill="url(#paint2_linear_1812_104065)"/>
<path d="M1439.07 737.976H0.9313V739.773H1439.07V737.976Z" fill="url(#paint3_linear_1812_104065)"/>
<path d="M1439.07 694.566H0.9313V696.363H1439.07V694.566Z" fill="url(#paint4_linear_1812_104065)"/>
<path d="M1439.07 651.156H0.9313V652.952H1439.07V651.156Z" fill="url(#paint5_linear_1812_104065)"/>
<path d="M1439.07 607.745H0.9313V609.542H1439.07V607.745Z" fill="url(#paint6_linear_1812_104065)"/>
<path d="M1439.07 564.335H0.9313V566.132H1439.07V564.335Z" fill="url(#paint7_linear_1812_104065)"/>
<path d="M1439.07 520.925H0.9313V522.721H1439.07V520.925Z" fill="url(#paint8_linear_1812_104065)"/>
<path d="M1439.07 477.514H0.9313V479.311H1439.07V477.514Z" fill="url(#paint9_linear_1812_104065)"/>
<path d="M1439.07 434.104H720H0.9313V435.901H1439.07V434.104Z" fill="url(#paint10_linear_1812_104065)"/>
<path d="M1439.07 390.693H0.9313V392.49H1439.07V390.693Z" fill="url(#paint11_linear_1812_104065)"/>
<path d="M1439.07 347.283H0.9313V349.08H1439.07V347.283Z" fill="url(#paint12_linear_1812_104065)"/>
<path d="M1439.07 303.873H0.9313V305.669H1439.07V303.873Z" fill="url(#paint13_linear_1812_104065)"/>
<path d="M1439.07 260.462H0.9313V262.259H1439.07V260.462Z" fill="url(#paint14_linear_1812_104065)"/>
<path d="M1439.07 217.052H0.9313V218.849H1439.07V217.052Z" fill="url(#paint15_linear_1812_104065)"/>
<path d="M1439.07 173.642H0.9313V175.438H1439.07V173.642Z" fill="url(#paint16_linear_1812_104065)"/>
<path d="M1439.07 130.231H0.9313V132.028H1439.07V130.231Z" fill="url(#paint17_linear_1812_104065)"/>
<path d="M1439.07 86.8208H0.9313V88.6175H1439.07V86.8208Z" fill="url(#paint18_linear_1812_104065)"/>
<path d="M1439.07 43.4104H0.9313V45.2071H1439.07V43.4104Z" fill="url(#paint19_linear_1812_104065)"/>
<path d="M1396.42 0.898383H1394.56V869.106H1396.42V0.898383Z" fill="url(#paint20_linear_1812_104065)"/>
<path d="M1352.84 0.898383H1350.98V869.106H1352.84V0.898383Z" fill="url(#paint21_linear_1812_104065)"/>
<path d="M1309.26 0.898383H1307.4V869.106H1309.26V0.898383Z" fill="url(#paint22_linear_1812_104065)"/>
<path d="M1265.68 0.898383H1263.82V869.106H1265.68V0.898383Z" fill="url(#paint23_linear_1812_104065)"/>
<path d="M1222.1 0.898383H1220.24V869.106H1222.1V0.898383Z" fill="url(#paint24_linear_1812_104065)"/>
<path d="M1178.52 0.898383H1176.66V869.106H1178.52V0.898383Z" fill="url(#paint25_linear_1812_104065)"/>
<path d="M1134.94 0.898383H1133.08V869.106H1134.94V0.898383Z" fill="url(#paint26_linear_1812_104065)"/>
<path d="M1091.36 0.898383H1089.5V869.106H1091.36V0.898383Z" fill="url(#paint27_linear_1812_104065)"/>
<path d="M1047.78 0.898383H1045.92V869.106H1047.78V0.898383Z" fill="url(#paint28_linear_1812_104065)"/>
<path d="M1004.2 0.898383H1002.34V869.106H1004.2V0.898383Z" fill="url(#paint29_linear_1812_104065)"/>
<path d="M960.621 0.898383H958.758V869.106H960.621V0.898383Z" fill="url(#paint30_linear_1812_104065)"/>
<path d="M917.041 0.898383H915.179V869.106H917.041V0.898383Z" fill="url(#paint31_linear_1812_104065)"/>
<path d="M873.462 0.898383H871.599V869.106H873.462V0.898383Z" fill="url(#paint32_linear_1812_104065)"/>
<path d="M829.882 0.898383H828.02V869.106H829.882V0.898383Z" fill="url(#paint33_linear_1812_104065)"/>
<path d="M786.303 0.898383H784.44V869.106H786.303V0.898383Z" fill="url(#paint34_linear_1812_104065)"/>
<path d="M742.723 0.898383H740.861V869.106H742.723V0.898383Z" fill="url(#paint35_linear_1812_104065)"/>
<path d="M699.139 0.898383H697.277V869.106H699.139V0.898383Z" fill="url(#paint36_linear_1812_104065)"/>
<path d="M655.56 0.898383H653.697V869.106H655.56V0.898383Z" fill="url(#paint37_linear_1812_104065)"/>
<path d="M611.98 0.898383H610.118V869.106H611.98V0.898383Z" fill="url(#paint38_linear_1812_104065)"/>
<path d="M568.401 0.898383H566.538V869.106H568.401V0.898383Z" fill="url(#paint39_linear_1812_104065)"/>
<path d="M524.821 0.898383H522.959V869.106H524.821V0.898383Z" fill="url(#paint40_linear_1812_104065)"/>
<path d="M481.242 0.898383H479.379V869.106H481.242V0.898383Z" fill="url(#paint41_linear_1812_104065)"/>
<path d="M437.662 0.898383H435.8V869.106H437.662V0.898383Z" fill="url(#paint42_linear_1812_104065)"/>
<path d="M394.083 0.898383H392.22V869.106H394.083V0.898383Z" fill="url(#paint43_linear_1812_104065)"/>
<path d="M350.503 0.898383H348.641V869.106H350.503V0.898383Z" fill="url(#paint44_linear_1812_104065)"/>
<path d="M306.924 0.898383H305.061V869.106H306.924V0.898383Z" fill="url(#paint45_linear_1812_104065)"/>
<path d="M263.344 0.898383H261.482V869.106H263.344V0.898383Z" fill="url(#paint46_linear_1812_104065)"/>
<path d="M219.765 0.898383H217.902V869.106H219.765V0.898383Z" fill="url(#paint47_linear_1812_104065)"/>
<path d="M176.185 0.898383H174.323V869.106H176.185V0.898383Z" fill="url(#paint48_linear_1812_104065)"/>
<path d="M132.601 0.898383H130.739V869.106H132.601V0.898383Z" fill="url(#paint49_linear_1812_104065)"/>
<path d="M89.0216 0.898383H87.159V869.106H89.0216V0.898383Z" fill="url(#paint50_linear_1812_104065)"/>
<path d="M45.4421 0.898383H43.5795V869.106H45.4421V0.898383Z" fill="url(#paint51_linear_1812_104065)"/>
</g>
<defs>
<linearGradient id="paint0_linear_1812_104065" x1="720" y1="0" x2="720" y2="870" gradientUnits="userSpaceOnUse">
<stop stop-color="#0C286D"/>
<stop offset="0.541667" stop-color="#4B44F7"/>
<stop offset="1" stop-color="#5737FF"/>
</linearGradient>
<linearGradient id="paint1_linear_1812_104065" x1="720" y1="0" x2="720" y2="870" gradientUnits="userSpaceOnUse">
<stop stop-color="#0C286D"/>
<stop offset="0.541667" stop-color="#4B44F7"/>
<stop offset="1" stop-color="#5737FF"/>
</linearGradient>
<linearGradient id="paint2_linear_1812_104065" x1="720" y1="0" x2="720" y2="870" gradientUnits="userSpaceOnUse">
<stop stop-color="#0C286D"/>
<stop offset="0.541667" stop-color="#4B44F7"/>
<stop offset="1" stop-color="#5737FF"/>
</linearGradient>
<linearGradient id="paint3_linear_1812_104065" x1="720" y1="0" x2="720" y2="870" gradientUnits="userSpaceOnUse">
<stop stop-color="#0C286D"/>
<stop offset="0.541667" stop-color="#4B44F7"/>
<stop offset="1" stop-color="#5737FF"/>
</linearGradient>
<linearGradient id="paint4_linear_1812_104065" x1="720" y1="0" x2="720" y2="870" gradientUnits="userSpaceOnUse">
<stop stop-color="#0C286D"/>
<stop offset="0.541667" stop-color="#4B44F7"/>
<stop offset="1" stop-color="#5737FF"/>
</linearGradient>
<linearGradient id="paint5_linear_1812_104065" x1="720" y1="0" x2="720" y2="870" gradientUnits="userSpaceOnUse">
<stop stop-color="#0C286D"/>
<stop offset="0.541667" stop-color="#4B44F7"/>
<stop offset="1" stop-color="#5737FF"/>
</linearGradient>
<linearGradient id="paint6_linear_1812_104065" x1="720" y1="0" x2="720" y2="870" gradientUnits="userSpaceOnUse">
<stop stop-color="#0C286D"/>
<stop offset="0.541667" stop-color="#4B44F7"/>
<stop offset="1" stop-color="#5737FF"/>
</linearGradient>
<linearGradient id="paint7_linear_1812_104065" x1="720" y1="0" x2="720" y2="870" gradientUnits="userSpaceOnUse">
<stop stop-color="#0C286D"/>
<stop offset="0.541667" stop-color="#4B44F7"/>
<stop offset="1" stop-color="#5737FF"/>
</linearGradient>
<linearGradient id="paint8_linear_1812_104065" x1="720" y1="0" x2="720" y2="870" gradientUnits="userSpaceOnUse">
<stop stop-color="#0C286D"/>
<stop offset="0.541667" stop-color="#4B44F7"/>
<stop offset="1" stop-color="#5737FF"/>
</linearGradient>
<linearGradient id="paint9_linear_1812_104065" x1="720" y1="0" x2="720" y2="870" gradientUnits="userSpaceOnUse">
<stop stop-color="#0C286D"/>
<stop offset="0.541667" stop-color="#4B44F7"/>
<stop offset="1" stop-color="#5737FF"/>
</linearGradient>
<linearGradient id="paint10_linear_1812_104065" x1="720" y1="0" x2="720" y2="870" gradientUnits="userSpaceOnUse">
<stop stop-color="#0C286D"/>
<stop offset="0.541667" stop-color="#4B44F7"/>
<stop offset="1" stop-color="#5737FF"/>
</linearGradient>
<linearGradient id="paint11_linear_1812_104065" x1="720" y1="0" x2="720" y2="870" gradientUnits="userSpaceOnUse">
<stop stop-color="#0C286D"/>
<stop offset="0.541667" stop-color="#4B44F7"/>
<stop offset="1" stop-color="#5737FF"/>
</linearGradient>
<linearGradient id="paint12_linear_1812_104065" x1="720" y1="0" x2="720" y2="870" gradientUnits="userSpaceOnUse">
<stop stop-color="#0C286D"/>
<stop offset="0.541667" stop-color="#4B44F7"/>
<stop offset="1" stop-color="#5737FF"/>
</linearGradient>
<linearGradient id="paint13_linear_1812_104065" x1="720" y1="0" x2="720" y2="870" gradientUnits="userSpaceOnUse">
<stop stop-color="#0C286D"/>
<stop offset="0.541667" stop-color="#4B44F7"/>
<stop offset="1" stop-color="#5737FF"/>
</linearGradient>
<linearGradient id="paint14_linear_1812_104065" x1="720" y1="0" x2="720" y2="870" gradientUnits="userSpaceOnUse">
<stop stop-color="#0C286D"/>
<stop offset="0.541667" stop-color="#4B44F7"/>
<stop offset="1" stop-color="#5737FF"/>
</linearGradient>
<linearGradient id="paint15_linear_1812_104065" x1="720" y1="0" x2="720" y2="870" gradientUnits="userSpaceOnUse">
<stop stop-color="#0C286D"/>
<stop offset="0.541667" stop-color="#4B44F7"/>
<stop offset="1" stop-color="#5737FF"/>
</linearGradient>
<linearGradient id="paint16_linear_1812_104065" x1="720" y1="0" x2="720" y2="870" gradientUnits="userSpaceOnUse">
<stop stop-color="#0C286D"/>
<stop offset="0.541667" stop-color="#4B44F7"/>
<stop offset="1" stop-color="#5737FF"/>
</linearGradient>
<linearGradient id="paint17_linear_1812_104065" x1="720" y1="0" x2="720" y2="870" gradientUnits="userSpaceOnUse">
<stop stop-color="#0C286D"/>
<stop offset="0.541667" stop-color="#4B44F7"/>
<stop offset="1" stop-color="#5737FF"/>
</linearGradient>
<linearGradient id="paint18_linear_1812_104065" x1="720" y1="0" x2="720" y2="870" gradientUnits="userSpaceOnUse">
<stop stop-color="#0C286D"/>
<stop offset="0.541667" stop-color="#4B44F7"/>
<stop offset="1" stop-color="#5737FF"/>
</linearGradient>
<linearGradient id="paint19_linear_1812_104065" x1="720" y1="0" x2="720" y2="870" gradientUnits="userSpaceOnUse">
<stop stop-color="#0C286D"/>
<stop offset="0.541667" stop-color="#4B44F7"/>
<stop offset="1" stop-color="#5737FF"/>
</linearGradient>
<linearGradient id="paint20_linear_1812_104065" x1="720" y1="0" x2="720" y2="870" gradientUnits="userSpaceOnUse">
<stop stop-color="#0C286D"/>
<stop offset="0.541667" stop-color="#4B44F7"/>
<stop offset="1" stop-color="#5737FF"/>
</linearGradient>
<linearGradient id="paint21_linear_1812_104065" x1="720" y1="0" x2="720" y2="870" gradientUnits="userSpaceOnUse">
<stop stop-color="#0C286D"/>
<stop offset="0.541667" stop-color="#4B44F7"/>
<stop offset="1" stop-color="#5737FF"/>
</linearGradient>
<linearGradient id="paint22_linear_1812_104065" x1="720" y1="0" x2="720" y2="870" gradientUnits="userSpaceOnUse">
<stop stop-color="#0C286D"/>
<stop offset="0.541667" stop-color="#4B44F7"/>
<stop offset="1" stop-color="#5737FF"/>
</linearGradient>
<linearGradient id="paint23_linear_1812_104065" x1="720" y1="0" x2="720" y2="870" gradientUnits="userSpaceOnUse">
<stop stop-color="#0C286D"/>
<stop offset="0.541667" stop-color="#4B44F7"/>
<stop offset="1" stop-color="#5737FF"/>
</linearGradient>
<linearGradient id="paint24_linear_1812_104065" x1="720" y1="0" x2="720" y2="870" gradientUnits="userSpaceOnUse">
<stop stop-color="#0C286D"/>
<stop offset="0.541667" stop-color="#4B44F7"/>
<stop offset="1" stop-color="#5737FF"/>
</linearGradient>
<linearGradient id="paint25_linear_1812_104065" x1="720" y1="0" x2="720" y2="870" gradientUnits="userSpaceOnUse">
<stop stop-color="#0C286D"/>
<stop offset="0.541667" stop-color="#4B44F7"/>
<stop offset="1" stop-color="#5737FF"/>
</linearGradient>
<linearGradient id="paint26_linear_1812_104065" x1="720" y1="0" x2="720" y2="870" gradientUnits="userSpaceOnUse">
<stop stop-color="#0C286D"/>
<stop offset="0.541667" stop-color="#4B44F7"/>
<stop offset="1" stop-color="#5737FF"/>
</linearGradient>
<linearGradient id="paint27_linear_1812_104065" x1="720" y1="0" x2="720" y2="870" gradientUnits="userSpaceOnUse">
<stop stop-color="#0C286D"/>
<stop offset="0.541667" stop-color="#4B44F7"/>
<stop offset="1" stop-color="#5737FF"/>
</linearGradient>
<linearGradient id="paint28_linear_1812_104065" x1="720" y1="0" x2="720" y2="870" gradientUnits="userSpaceOnUse">
<stop stop-color="#0C286D"/>
<stop offset="0.541667" stop-color="#4B44F7"/>
<stop offset="1" stop-color="#5737FF"/>
</linearGradient>
<linearGradient id="paint29_linear_1812_104065" x1="720" y1="0" x2="720" y2="870" gradientUnits="userSpaceOnUse">
<stop stop-color="#0C286D"/>
<stop offset="0.541667" stop-color="#4B44F7"/>
<stop offset="1" stop-color="#5737FF"/>
</linearGradient>
<linearGradient id="paint30_linear_1812_104065" x1="720" y1="0" x2="720" y2="870" gradientUnits="userSpaceOnUse">
<stop stop-color="#0C286D"/>
<stop offset="0.541667" stop-color="#4B44F7"/>
<stop offset="1" stop-color="#5737FF"/>
</linearGradient>
<linearGradient id="paint31_linear_1812_104065" x1="720" y1="0" x2="720" y2="870" gradientUnits="userSpaceOnUse">
<stop stop-color="#0C286D"/>
<stop offset="0.541667" stop-color="#4B44F7"/>
<stop offset="1" stop-color="#5737FF"/>
</linearGradient>
<linearGradient id="paint32_linear_1812_104065" x1="720" y1="0" x2="720" y2="870" gradientUnits="userSpaceOnUse">
<stop stop-color="#0C286D"/>
<stop offset="0.541667" stop-color="#4B44F7"/>
<stop offset="1" stop-color="#5737FF"/>
</linearGradient>
<linearGradient id="paint33_linear_1812_104065" x1="720" y1="0" x2="720" y2="870" gradientUnits="userSpaceOnUse">
<stop stop-color="#0C286D"/>
<stop offset="0.541667" stop-color="#4B44F7"/>
<stop offset="1" stop-color="#5737FF"/>
</linearGradient>
<linearGradient id="paint34_linear_1812_104065" x1="720" y1="0" x2="720" y2="870" gradientUnits="userSpaceOnUse">
<stop stop-color="#0C286D"/>
<stop offset="0.541667" stop-color="#4B44F7"/>
<stop offset="1" stop-color="#5737FF"/>
</linearGradient>
<linearGradient id="paint35_linear_1812_104065" x1="720" y1="0" x2="720" y2="870" gradientUnits="userSpaceOnUse">
<stop stop-color="#0C286D"/>
<stop offset="0.541667" stop-color="#4B44F7"/>
<stop offset="1" stop-color="#5737FF"/>
</linearGradient>
<linearGradient id="paint36_linear_1812_104065" x1="720" y1="0" x2="720" y2="870" gradientUnits="userSpaceOnUse">
<stop stop-color="#0C286D"/>
<stop offset="0.541667" stop-color="#4B44F7"/>
<stop offset="1" stop-color="#5737FF"/>
</linearGradient>
<linearGradient id="paint37_linear_1812_104065" x1="720" y1="0" x2="720" y2="870" gradientUnits="userSpaceOnUse">
<stop stop-color="#0C286D"/>
<stop offset="0.541667" stop-color="#4B44F7"/>
<stop offset="1" stop-color="#5737FF"/>
</linearGradient>
<linearGradient id="paint38_linear_1812_104065" x1="720" y1="0" x2="720" y2="870" gradientUnits="userSpaceOnUse">
<stop stop-color="#0C286D"/>
<stop offset="0.541667" stop-color="#4B44F7"/>
<stop offset="1" stop-color="#5737FF"/>
</linearGradient>
<linearGradient id="paint39_linear_1812_104065" x1="720" y1="0" x2="720" y2="870" gradientUnits="userSpaceOnUse">
<stop stop-color="#0C286D"/>
<stop offset="0.541667" stop-color="#4B44F7"/>
<stop offset="1" stop-color="#5737FF"/>
</linearGradient>
<linearGradient id="paint40_linear_1812_104065" x1="720" y1="0" x2="720" y2="870" gradientUnits="userSpaceOnUse">
<stop stop-color="#0C286D"/>
<stop offset="0.541667" stop-color="#4B44F7"/>
<stop offset="1" stop-color="#5737FF"/>
</linearGradient>
<linearGradient id="paint41_linear_1812_104065" x1="720" y1="0" x2="720" y2="870" gradientUnits="userSpaceOnUse">
<stop stop-color="#0C286D"/>
<stop offset="0.541667" stop-color="#4B44F7"/>
<stop offset="1" stop-color="#5737FF"/>
</linearGradient>
<linearGradient id="paint42_linear_1812_104065" x1="720" y1="0" x2="720" y2="870" gradientUnits="userSpaceOnUse">
<stop stop-color="#0C286D"/>
<stop offset="0.541667" stop-color="#4B44F7"/>
<stop offset="1" stop-color="#5737FF"/>
</linearGradient>
<linearGradient id="paint43_linear_1812_104065" x1="720" y1="0" x2="720" y2="870" gradientUnits="userSpaceOnUse">
<stop stop-color="#0C286D"/>
<stop offset="0.541667" stop-color="#4B44F7"/>
<stop offset="1" stop-color="#5737FF"/>
</linearGradient>
<linearGradient id="paint44_linear_1812_104065" x1="720" y1="0" x2="720" y2="870" gradientUnits="userSpaceOnUse">
<stop stop-color="#0C286D"/>
<stop offset="0.541667" stop-color="#4B44F7"/>
<stop offset="1" stop-color="#5737FF"/>
</linearGradient>
<linearGradient id="paint45_linear_1812_104065" x1="720" y1="0" x2="720" y2="870" gradientUnits="userSpaceOnUse">
<stop stop-color="#0C286D"/>
<stop offset="0.541667" stop-color="#4B44F7"/>
<stop offset="1" stop-color="#5737FF"/>
</linearGradient>
<linearGradient id="paint46_linear_1812_104065" x1="720" y1="0" x2="720" y2="870" gradientUnits="userSpaceOnUse">
<stop stop-color="#0C286D"/>
<stop offset="0.541667" stop-color="#4B44F7"/>
<stop offset="1" stop-color="#5737FF"/>
</linearGradient>
<linearGradient id="paint47_linear_1812_104065" x1="720" y1="0" x2="720" y2="870" gradientUnits="userSpaceOnUse">
<stop stop-color="#0C286D"/>
<stop offset="0.541667" stop-color="#4B44F7"/>
<stop offset="1" stop-color="#5737FF"/>
</linearGradient>
<linearGradient id="paint48_linear_1812_104065" x1="720" y1="0" x2="720" y2="870" gradientUnits="userSpaceOnUse">
<stop stop-color="#0C286D"/>
<stop offset="0.541667" stop-color="#4B44F7"/>
<stop offset="1" stop-color="#5737FF"/>
</linearGradient>
<linearGradient id="paint49_linear_1812_104065" x1="720" y1="0" x2="720" y2="870" gradientUnits="userSpaceOnUse">
<stop stop-color="#0C286D"/>
<stop offset="0.541667" stop-color="#4B44F7"/>
<stop offset="1" stop-color="#5737FF"/>
</linearGradient>
<linearGradient id="paint50_linear_1812_104065" x1="720" y1="0" x2="720" y2="870" gradientUnits="userSpaceOnUse">
<stop stop-color="#0C286D"/>
<stop offset="0.541667" stop-color="#4B44F7"/>
<stop offset="1" stop-color="#5737FF"/>
</linearGradient>
<linearGradient id="paint51_linear_1812_104065" x1="720" y1="0" x2="720" y2="870" gradientUnits="userSpaceOnUse">
<stop stop-color="#0C286D"/>
<stop offset="0.541667" stop-color="#4B44F7"/>
<stop offset="1" stop-color="#5737FF"/>
</linearGradient>
</defs>
</svg>
