<svg width="50" height="50" viewBox="0 0 50 50" fill="none" xmlns="http://www.w3.org/2000/svg">
<path d="M12.766 0C12.18 0 11.7022 0.522348 11.7022 1.16279C11.7022 1.80323 12.18 2.32558 12.766 2.32558H19.7474L1.36306 22.4201C0.947502 22.8743 0.947502 23.6374 1.36306 24.0916C1.57084 24.3187 1.85342 24.4186 2.12769 24.4186C2.40196 24.4186 2.68454 24.3187 2.89232 24.0916L21.2766 3.99709V11.6279C21.2766 12.2683 21.7545 12.7907 22.3405 12.7907C22.9264 12.7907 23.4043 12.2683 23.4043 11.6279V0H12.766Z" fill="#05F3DB"/>
<path d="M35.1064 4.65118V50H50V4.65118H35.1064Z" fill="#07B1A7"/>
<path d="M18.0851 19.7675V50H32.9788V19.7675H18.0851Z" fill="#0BBAB0"/>
<path d="M1.06384 32.5582V50H15.9575V32.5582H1.06384Z" fill="#0FCABF"/>
</svg>
