<svg width="264" height="293" viewBox="0 0 264 293" fill="none" xmlns="http://www.w3.org/2000/svg">
<g filter="url(#filter0_dd_1812_103895)">
<circle cx="132" cy="153" r="116" fill="#3783F5"/>
<path d="M248 150C248 119.235 235.779 89.7298 214.024 67.9756C192.27 46.2214 162.765 34 132 34C101.235 34 71.7298 46.2214 49.9756 67.9756C28.2214 89.7298 16 119.235 16 150L132 150H248Z" fill="#0FCABF"/>
<path d="M106.759 181.36C106.759 182.107 106.579 182.807 106.219 183.46C105.873 184.113 105.319 184.64 104.559 185.04C103.813 185.44 102.866 185.64 101.719 185.64H99.3792V191H96.5792V177.04H101.719C102.799 177.04 103.719 177.227 104.479 177.6C105.239 177.973 105.806 178.487 106.179 179.14C106.566 179.793 106.759 180.533 106.759 181.36ZM101.599 183.38C102.373 183.38 102.946 183.207 103.319 182.86C103.693 182.5 103.879 182 103.879 181.36C103.879 180 103.119 179.32 101.599 179.32H99.3792V183.38H101.599ZM111.547 181.64C111.907 181.053 112.374 180.593 112.947 180.26C113.534 179.927 114.201 179.76 114.947 179.76V182.7H114.207C113.327 182.7 112.661 182.907 112.207 183.32C111.767 183.733 111.547 184.453 111.547 185.48V191H108.747V179.92H111.547V181.64ZM121.753 191.18C120.686 191.18 119.726 190.947 118.873 190.48C118.02 190 117.346 189.327 116.853 188.46C116.373 187.593 116.133 186.593 116.133 185.46C116.133 184.327 116.38 183.327 116.873 182.46C117.38 181.593 118.066 180.927 118.933 180.46C119.8 179.98 120.766 179.74 121.833 179.74C122.9 179.74 123.866 179.98 124.733 180.46C125.6 180.927 126.28 181.593 126.773 182.46C127.28 183.327 127.533 184.327 127.533 185.46C127.533 186.593 127.273 187.593 126.753 188.46C126.246 189.327 125.553 190 124.673 190.48C123.806 190.947 122.833 191.18 121.753 191.18ZM121.753 188.74C122.26 188.74 122.733 188.62 123.173 188.38C123.626 188.127 123.986 187.753 124.253 187.26C124.52 186.767 124.653 186.167 124.653 185.46C124.653 184.407 124.373 183.6 123.813 183.04C123.266 182.467 122.593 182.18 121.793 182.18C120.993 182.18 120.32 182.467 119.773 183.04C119.24 183.6 118.973 184.407 118.973 185.46C118.973 186.513 119.233 187.327 119.753 187.9C120.286 188.46 120.953 188.74 121.753 188.74ZM131.007 178.6C130.5 178.6 130.08 178.447 129.747 178.14C129.427 177.82 129.267 177.427 129.267 176.96C129.267 176.493 129.427 176.107 129.747 175.8C130.08 175.48 130.5 175.32 131.007 175.32C131.5 175.32 131.907 175.48 132.227 175.8C132.547 176.107 132.707 176.493 132.707 176.96C132.707 177.427 132.547 177.82 132.227 178.14C131.907 178.447 131.5 178.6 131.007 178.6ZM132.387 192.82C132.387 194.047 132.08 194.927 131.467 195.46C130.867 196.007 130 196.28 128.867 196.28H127.627V193.9H128.427C128.854 193.9 129.154 193.813 129.327 193.64C129.5 193.48 129.587 193.213 129.587 192.84V179.92H132.387V192.82ZM145.453 185.22C145.453 185.62 145.427 185.98 145.373 186.3H137.273C137.34 187.1 137.62 187.727 138.113 188.18C138.607 188.633 139.213 188.86 139.933 188.86C140.973 188.86 141.713 188.413 142.153 187.52H145.173C144.853 188.587 144.24 189.467 143.333 190.16C142.427 190.84 141.313 191.18 139.993 191.18C138.927 191.18 137.967 190.947 137.113 190.48C136.273 190 135.613 189.327 135.133 188.46C134.667 187.593 134.433 186.593 134.433 185.46C134.433 184.313 134.667 183.307 135.133 182.44C135.6 181.573 136.253 180.907 137.093 180.44C137.933 179.973 138.9 179.74 139.993 179.74C141.047 179.74 141.987 179.967 142.813 180.42C143.653 180.873 144.3 181.52 144.753 182.36C145.22 183.187 145.453 184.14 145.453 185.22ZM142.553 184.42C142.54 183.7 142.28 183.127 141.773 182.7C141.267 182.26 140.647 182.04 139.913 182.04C139.22 182.04 138.633 182.253 138.153 182.68C137.687 183.093 137.4 183.673 137.293 184.42H142.553ZM146.777 185.46C146.777 184.313 147.011 183.313 147.477 182.46C147.944 181.593 148.591 180.927 149.417 180.46C150.244 179.98 151.191 179.74 152.257 179.74C153.631 179.74 154.764 180.087 155.657 180.78C156.564 181.46 157.171 182.42 157.477 183.66H154.457C154.297 183.18 154.024 182.807 153.637 182.54C153.264 182.26 152.797 182.12 152.237 182.12C151.437 182.12 150.804 182.413 150.337 183C149.871 183.573 149.637 184.393 149.637 185.46C149.637 186.513 149.871 187.333 150.337 187.92C150.804 188.493 151.437 188.78 152.237 188.78C153.371 188.78 154.111 188.273 154.457 187.26H157.477C157.171 188.46 156.564 189.413 155.657 190.12C154.751 190.827 153.617 191.18 152.257 191.18C151.191 191.18 150.244 190.947 149.417 190.48C148.591 190 147.944 189.333 147.477 188.48C147.011 187.613 146.777 186.607 146.777 185.46ZM162.788 182.22V187.58C162.788 187.953 162.875 188.227 163.048 188.4C163.235 188.56 163.542 188.64 163.968 188.64H165.268V191H163.508C161.148 191 159.968 189.853 159.968 187.56V182.22H158.648V179.92H159.968V177.18H162.788V179.92H165.268V182.22H162.788ZM171.522 191.18C170.616 191.18 169.802 191.02 169.082 190.7C168.362 190.367 167.789 189.92 167.362 189.36C166.949 188.8 166.722 188.18 166.682 187.5H169.502C169.556 187.927 169.762 188.28 170.122 188.56C170.496 188.84 170.956 188.98 171.502 188.98C172.036 188.98 172.449 188.873 172.742 188.66C173.049 188.447 173.202 188.173 173.202 187.84C173.202 187.48 173.016 187.213 172.642 187.04C172.282 186.853 171.702 186.653 170.902 186.44C170.076 186.24 169.396 186.033 168.862 185.82C168.342 185.607 167.889 185.28 167.502 184.84C167.129 184.4 166.942 183.807 166.942 183.06C166.942 182.447 167.116 181.887 167.462 181.38C167.822 180.873 168.329 180.473 168.982 180.18C169.649 179.887 170.429 179.74 171.322 179.74C172.642 179.74 173.696 180.073 174.482 180.74C175.269 181.393 175.702 182.28 175.782 183.4H173.102C173.062 182.96 172.876 182.613 172.542 182.36C172.222 182.093 171.789 181.96 171.242 181.96C170.736 181.96 170.342 182.053 170.062 182.24C169.796 182.427 169.662 182.687 169.662 183.02C169.662 183.393 169.849 183.68 170.222 183.88C170.596 184.067 171.176 184.26 171.962 184.46C172.762 184.66 173.422 184.867 173.942 185.08C174.462 185.293 174.909 185.627 175.282 186.08C175.669 186.52 175.869 187.107 175.882 187.84C175.882 188.48 175.702 189.053 175.342 189.56C174.996 190.067 174.489 190.467 173.822 190.76C173.169 191.04 172.402 191.18 171.522 191.18ZM84.0081 205.04V219H81.2081V205.04H84.0081ZM92.9145 207.76C94.2345 207.76 95.3012 208.18 96.1145 209.02C96.9279 209.847 97.3345 211.007 97.3345 212.5V219H94.5345V212.88C94.5345 212 94.3145 211.327 93.8745 210.86C93.4345 210.38 92.8345 210.14 92.0745 210.14C91.3012 210.14 90.6879 210.38 90.2345 210.86C89.7945 211.327 89.5745 212 89.5745 212.88V219H86.7745V207.92H89.5745V209.3C89.9479 208.82 90.4212 208.447 90.9945 208.18C91.5812 207.9 92.2212 207.76 92.9145 207.76ZM114.943 209.36C114.943 210.107 114.763 210.807 114.403 211.46C114.056 212.113 113.503 212.64 112.743 213.04C111.996 213.44 111.049 213.64 109.903 213.64H107.563V219H104.763V205.04H109.903C110.983 205.04 111.903 205.227 112.663 205.6C113.423 205.973 113.989 206.487 114.363 207.14C114.749 207.793 114.943 208.533 114.943 209.36ZM109.783 211.38C110.556 211.38 111.129 211.207 111.503 210.86C111.876 210.5 112.063 210 112.063 209.36C112.063 208 111.303 207.32 109.783 207.32H107.563V211.38H109.783ZM119.731 209.64C120.091 209.053 120.557 208.593 121.131 208.26C121.717 207.927 122.384 207.76 123.131 207.76V210.7H122.391C121.511 210.7 120.844 210.907 120.391 211.32C119.951 211.733 119.731 212.453 119.731 213.48V219H116.931V207.92H119.731V209.64ZM129.937 219.18C128.87 219.18 127.91 218.947 127.057 218.48C126.203 218 125.53 217.327 125.037 216.46C124.557 215.593 124.317 214.593 124.317 213.46C124.317 212.327 124.563 211.327 125.057 210.46C125.563 209.593 126.25 208.927 127.117 208.46C127.983 207.98 128.95 207.74 130.017 207.74C131.083 207.74 132.05 207.98 132.917 208.46C133.783 208.927 134.463 209.593 134.957 210.46C135.463 211.327 135.717 212.327 135.717 213.46C135.717 214.593 135.457 215.593 134.937 216.46C134.43 217.327 133.737 218 132.857 218.48C131.99 218.947 131.017 219.18 129.937 219.18ZM129.937 216.74C130.443 216.74 130.917 216.62 131.357 216.38C131.81 216.127 132.17 215.753 132.437 215.26C132.703 214.767 132.837 214.167 132.837 213.46C132.837 212.407 132.557 211.6 131.997 211.04C131.45 210.467 130.777 210.18 129.977 210.18C129.177 210.18 128.503 210.467 127.957 211.04C127.423 211.6 127.157 212.407 127.157 213.46C127.157 214.513 127.417 215.327 127.937 215.9C128.47 216.46 129.137 216.74 129.937 216.74ZM142.111 207.74C142.937 207.74 143.664 207.907 144.291 208.24C144.917 208.56 145.411 208.98 145.771 209.5V207.92H148.591V219.08C148.591 220.107 148.384 221.02 147.971 221.82C147.557 222.633 146.937 223.273 146.111 223.74C145.284 224.22 144.284 224.46 143.111 224.46C141.537 224.46 140.244 224.093 139.231 223.36C138.231 222.627 137.664 221.627 137.531 220.36H140.311C140.457 220.867 140.771 221.267 141.251 221.56C141.744 221.867 142.337 222.02 143.031 222.02C143.844 222.02 144.504 221.773 145.011 221.28C145.517 220.8 145.771 220.067 145.771 219.08V217.36C145.411 217.88 144.911 218.313 144.271 218.66C143.644 219.007 142.924 219.18 142.111 219.18C141.177 219.18 140.324 218.94 139.551 218.46C138.777 217.98 138.164 217.307 137.711 216.44C137.271 215.56 137.051 214.553 137.051 213.42C137.051 212.3 137.271 211.307 137.711 210.44C138.164 209.573 138.771 208.907 139.531 208.44C140.304 207.973 141.164 207.74 142.111 207.74ZM145.771 213.46C145.771 212.78 145.637 212.2 145.371 211.72C145.104 211.227 144.744 210.853 144.291 210.6C143.837 210.333 143.351 210.2 142.831 210.2C142.311 210.2 141.831 210.327 141.391 210.58C140.951 210.833 140.591 211.207 140.311 211.7C140.044 212.18 139.911 212.753 139.911 213.42C139.911 214.087 140.044 214.673 140.311 215.18C140.591 215.673 140.951 216.053 141.391 216.32C141.844 216.587 142.324 216.72 142.831 216.72C143.351 216.72 143.837 216.593 144.291 216.34C144.744 216.073 145.104 215.7 145.371 215.22C145.637 214.727 145.771 214.14 145.771 213.46ZM154.125 209.64C154.485 209.053 154.952 208.593 155.525 208.26C156.112 207.927 156.779 207.76 157.525 207.76V210.7H156.785C155.905 210.7 155.239 210.907 154.785 211.32C154.345 211.733 154.125 212.453 154.125 213.48V219H151.325V207.92H154.125V209.64ZM169.711 213.22C169.711 213.62 169.685 213.98 169.631 214.3H161.531C161.598 215.1 161.878 215.727 162.371 216.18C162.865 216.633 163.471 216.86 164.191 216.86C165.231 216.86 165.971 216.413 166.411 215.52H169.431C169.111 216.587 168.498 217.467 167.591 218.16C166.685 218.84 165.571 219.18 164.251 219.18C163.185 219.18 162.225 218.947 161.371 218.48C160.531 218 159.871 217.327 159.391 216.46C158.925 215.593 158.691 214.593 158.691 213.46C158.691 212.313 158.925 211.307 159.391 210.44C159.858 209.573 160.511 208.907 161.351 208.44C162.191 207.973 163.158 207.74 164.251 207.74C165.305 207.74 166.245 207.967 167.071 208.42C167.911 208.873 168.558 209.52 169.011 210.36C169.478 211.187 169.711 212.14 169.711 213.22ZM166.811 212.42C166.798 211.7 166.538 211.127 166.031 210.7C165.525 210.26 164.905 210.04 164.171 210.04C163.478 210.04 162.891 210.253 162.411 210.68C161.945 211.093 161.658 211.673 161.551 212.42H166.811ZM175.995 219.18C175.088 219.18 174.275 219.02 173.555 218.7C172.835 218.367 172.262 217.92 171.835 217.36C171.422 216.8 171.195 216.18 171.155 215.5H173.975C174.028 215.927 174.235 216.28 174.595 216.56C174.968 216.84 175.428 216.98 175.975 216.98C176.508 216.98 176.922 216.873 177.215 216.66C177.522 216.447 177.675 216.173 177.675 215.84C177.675 215.48 177.488 215.213 177.115 215.04C176.755 214.853 176.175 214.653 175.375 214.44C174.548 214.24 173.868 214.033 173.335 213.82C172.815 213.607 172.362 213.28 171.975 212.84C171.602 212.4 171.415 211.807 171.415 211.06C171.415 210.447 171.588 209.887 171.935 209.38C172.295 208.873 172.802 208.473 173.455 208.18C174.122 207.887 174.902 207.74 175.795 207.74C177.115 207.74 178.168 208.073 178.955 208.74C179.742 209.393 180.175 210.28 180.255 211.4H177.575C177.535 210.96 177.348 210.613 177.015 210.36C176.695 210.093 176.262 209.96 175.715 209.96C175.208 209.96 174.815 210.053 174.535 210.24C174.268 210.427 174.135 210.687 174.135 211.02C174.135 211.393 174.322 211.68 174.695 211.88C175.068 212.067 175.648 212.26 176.435 212.46C177.235 212.66 177.895 212.867 178.415 213.08C178.935 213.293 179.382 213.627 179.755 214.08C180.142 214.52 180.342 215.107 180.355 215.84C180.355 216.48 180.175 217.053 179.815 217.56C179.468 218.067 178.962 218.467 178.295 218.76C177.642 219.04 176.875 219.18 175.995 219.18ZM186.893 219.18C185.987 219.18 185.173 219.02 184.453 218.7C183.733 218.367 183.16 217.92 182.733 217.36C182.32 216.8 182.093 216.18 182.053 215.5H184.873C184.927 215.927 185.133 216.28 185.493 216.56C185.867 216.84 186.327 216.98 186.873 216.98C187.407 216.98 187.82 216.873 188.113 216.66C188.42 216.447 188.573 216.173 188.573 215.84C188.573 215.48 188.387 215.213 188.013 215.04C187.653 214.853 187.073 214.653 186.273 214.44C185.447 214.24 184.767 214.033 184.233 213.82C183.713 213.607 183.26 213.28 182.873 212.84C182.5 212.4 182.313 211.807 182.313 211.06C182.313 210.447 182.487 209.887 182.833 209.38C183.193 208.873 183.7 208.473 184.353 208.18C185.02 207.887 185.8 207.74 186.693 207.74C188.013 207.74 189.067 208.073 189.853 208.74C190.64 209.393 191.073 210.28 191.153 211.4H188.473C188.433 210.96 188.247 210.613 187.913 210.36C187.593 210.093 187.16 209.96 186.613 209.96C186.107 209.96 185.713 210.053 185.433 210.24C185.167 210.427 185.033 210.687 185.033 211.02C185.033 211.393 185.22 211.68 185.593 211.88C185.967 212.067 186.547 212.26 187.333 212.46C188.133 212.66 188.793 212.867 189.313 213.08C189.833 213.293 190.28 213.627 190.653 214.08C191.04 214.52 191.24 215.107 191.253 215.84C191.253 216.48 191.073 217.053 190.713 217.56C190.367 218.067 189.86 218.467 189.193 218.76C188.54 219.04 187.773 219.18 186.893 219.18Z" fill="white"/>
<path d="M108.101 98.224C108.261 95.024 109.381 92.56 111.461 90.832C113.573 89.072 116.341 88.192 119.765 88.192C122.101 88.192 124.101 88.608 125.765 89.44C127.429 90.24 128.677 91.344 129.509 92.752C130.373 94.128 130.805 95.696 130.805 97.456C130.805 99.472 130.277 101.184 129.221 102.592C128.197 103.968 126.965 104.896 125.525 105.376V105.568C127.381 106.144 128.821 107.168 129.845 108.64C130.901 110.112 131.429 112 131.429 114.304C131.429 116.224 130.981 117.936 130.085 119.44C129.221 120.944 127.925 122.128 126.197 122.992C124.501 123.824 122.453 124.24 120.053 124.24C116.437 124.24 113.493 123.328 111.221 121.504C108.949 119.68 107.749 116.992 107.621 113.44H114.149C114.213 115.008 114.741 116.272 115.733 117.232C116.757 118.16 118.149 118.624 119.909 118.624C121.541 118.624 122.789 118.176 123.653 117.28C124.549 116.352 124.997 115.168 124.997 113.728C124.997 111.808 124.389 110.432 123.173 109.6C121.957 108.768 120.069 108.352 117.509 108.352H116.117V102.832H117.509C122.053 102.832 124.325 101.312 124.325 98.272C124.325 96.896 123.909 95.824 123.077 95.056C122.277 94.288 121.109 93.904 119.573 93.904C118.069 93.904 116.901 94.32 116.069 95.152C115.269 95.952 114.805 96.976 114.677 98.224H108.101ZM162.611 109.84H153.539V119.152H147.203V109.84H138.131V103.984H147.203V94.672H153.539V103.984H162.611V109.84Z" fill="white"/>
<path d="M183.215 40.7845C210.102 52.6333 232.049 73.4383 245.316 99.6545C258.583 125.871 262.35 155.876 255.974 184.558C249.598 213.24 233.475 238.824 210.35 256.951C187.226 275.078 158.532 284.626 129.158 283.968C99.7828 283.311 71.5448 272.488 49.255 253.344C26.9652 234.201 12.0027 207.921 6.91694 178.982C1.83119 150.044 6.93685 120.237 21.364 94.6408C35.7911 69.0446 58.6471 49.2426 86.0374 38.6089L94.8995 61.436C72.7903 70.0194 54.3412 86.0033 42.6958 106.664C31.0503 127.325 26.9291 151.385 31.0343 174.744C35.1394 198.103 47.217 219.316 65.2091 234.768C83.2012 250.221 105.995 258.957 129.706 259.487C153.417 260.018 176.578 252.311 195.244 237.679C213.909 223.048 226.924 202.396 232.07 179.245C237.217 156.093 234.177 131.873 223.467 110.711C212.758 89.5498 195.043 72.7563 173.34 63.1921L183.215 40.7845Z" fill="#4249B3"/>
<circle cx="136" cy="37" r="36" fill="#F3F6FC"/>
<path d="M143.067 29.9167C142.14 28.9859 141.039 28.2475 139.826 27.7441C138.614 27.2407 137.313 26.9821 136 26.9833V36.9833L128.933 44.05C132.833 47.95 139.167 47.95 143.083 44.05C144.011 43.1216 144.747 42.0192 145.249 40.806C145.751 39.5929 146.008 38.2927 146.006 36.9799C146.005 35.6671 145.744 34.3675 145.24 33.1555C144.736 31.9435 143.997 30.8429 143.067 29.9167ZM136 20.3167C126.8 20.3167 119.333 27.7833 119.333 36.9833C119.333 46.1833 126.8 53.65 136 53.65C145.2 53.65 152.667 46.1833 152.667 36.9833C152.667 27.7833 145.2 20.3167 136 20.3167ZM136 50.3167C128.633 50.3167 122.667 44.35 122.667 36.9833C122.667 29.6167 128.633 23.65 136 23.65C143.367 23.65 149.333 29.6167 149.333 36.9833C149.333 44.35 143.367 50.3167 136 50.3167Z" fill="#022A62"/>
</g>
<defs>
<filter id="filter0_dd_1812_103895" x="-0.000228882" y="0" width="264" height="293" filterUnits="userSpaceOnUse" color-interpolation-filters="sRGB">
<feFlood flood-opacity="0" result="BackgroundImageFix"/>
<feColorMatrix in="SourceAlpha" type="matrix" values="0 0 0 0 0 0 0 0 0 0 0 0 0 0 0 0 0 0 127 0" result="hardAlpha"/>
<feMorphology radius="2" operator="erode" in="SourceAlpha" result="effect1_dropShadow_1812_103895"/>
<feOffset dy="2"/>
<feGaussianBlur stdDeviation="2"/>
<feComposite in2="hardAlpha" operator="out"/>
<feColorMatrix type="matrix" values="0 0 0 0 0 0 0 0 0 0 0 0 0 0 0 0 0 0 0.1 0"/>
<feBlend mode="normal" in2="BackgroundImageFix" result="effect1_dropShadow_1812_103895"/>
<feColorMatrix in="SourceAlpha" type="matrix" values="0 0 0 0 0 0 0 0 0 0 0 0 0 0 0 0 0 0 127 0" result="hardAlpha"/>
<feMorphology radius="1" operator="erode" in="SourceAlpha" result="effect2_dropShadow_1812_103895"/>
<feOffset dy="4"/>
<feGaussianBlur stdDeviation="3"/>
<feComposite in2="hardAlpha" operator="out"/>
<feColorMatrix type="matrix" values="0 0 0 0 0 0 0 0 0 0 0 0 0 0 0 0 0 0 0.1 0"/>
<feBlend mode="normal" in2="effect1_dropShadow_1812_103895" result="effect2_dropShadow_1812_103895"/>
<feBlend mode="normal" in="SourceGraphic" in2="effect2_dropShadow_1812_103895" result="shape"/>
</filter>
</defs>
</svg>
