<svg width="65" height="57" viewBox="0 0 65 57" fill="none" xmlns="http://www.w3.org/2000/svg">
<path d="M32.8154 34.0347C35.8892 34.0347 38.381 31.5568 38.381 28.5001C38.381 25.4434 35.8892 22.9655 32.8154 22.9655C29.7417 22.9655 27.2499 25.4434 27.2499 28.5001C27.2499 31.5568 29.7417 34.0347 32.8154 34.0347Z" fill="#61DAFB"/>
<path fill-rule="evenodd" clip-rule="evenodd" d="M6.64628 25.5879C5.38416 26.7209 4.96931 27.7088 4.96931 28.5001C4.96931 29.2914 5.38416 30.2792 6.64628 31.4122C7.90754 32.5445 9.8465 33.6566 12.4147 34.6317C17.5368 36.5766 24.7491 37.8215 32.8154 37.8215C40.8818 37.8215 48.094 36.5766 53.2161 34.6317C55.7843 33.6566 57.7233 32.5445 58.9845 31.4122C60.2466 30.2792 60.6615 29.2914 60.6615 28.5001C60.6615 27.7088 60.2466 26.7209 58.9845 25.5879C57.7233 24.4557 55.7843 23.3436 53.2161 22.3685C48.094 20.4236 40.8818 19.1787 32.8154 19.1787C24.7491 19.1787 17.5368 20.4236 12.4147 22.3685C9.8465 23.3436 7.90754 24.4557 6.64628 25.5879ZM10.9821 18.5956C16.6686 16.4364 24.3883 15.143 32.8154 15.143C41.2425 15.143 48.9622 16.4364 54.6487 18.5956C57.4848 19.6724 59.9193 21.0038 61.6805 22.5847C63.4407 24.165 64.6972 26.1601 64.6972 28.5001C64.6972 30.84 63.4407 32.8352 61.6805 34.4154C59.9193 35.9964 57.4848 37.3277 54.6487 38.4046C48.9622 40.5637 41.2425 41.8572 32.8154 41.8572C24.3883 41.8572 16.6686 40.5637 10.9821 38.4046C8.14598 37.3277 5.71147 35.9964 3.95034 34.4154C2.19006 32.8352 0.933594 30.84 0.933594 28.5001C0.933594 26.1601 2.19006 24.165 3.95034 22.5847C5.71147 21.0038 8.14598 19.6724 10.9821 18.5956Z" fill="#61DAFB"/>
<path fill-rule="evenodd" clip-rule="evenodd" d="M22.2832 4.51106C20.6675 3.99127 19.5942 4.1253 18.8965 4.52588C18.1988 4.92645 17.5455 5.78374 17.1903 7.4351C16.8351 9.08658 16.8361 11.3109 17.2707 14.0085C18.1376 19.3892 20.6584 26.2202 24.6904 33.165C28.7223 40.1097 33.4108 45.6962 37.6632 49.1331C39.7951 50.8562 41.7317 51.9692 43.3475 52.4891C44.9633 53.0089 46.0365 52.8748 46.7342 52.4742C47.4319 52.0737 48.0852 51.2164 48.4404 49.565C48.7956 47.9135 48.7946 45.6892 48.36 42.9916C47.4931 37.6109 44.9723 30.7799 40.9404 23.8352C36.9084 16.8904 32.2199 11.304 27.9675 7.86704C25.8356 6.14396 23.899 5.03089 22.2832 4.51106ZM30.5115 4.74249C35.2374 8.56211 40.2255 14.5661 44.4403 21.8257C48.655 29.0853 51.3896 36.3831 52.353 42.363C52.8336 45.3457 52.8914 48.1095 52.395 50.4176C51.8985 52.7258 50.7897 54.7993 48.7605 55.9644C46.7313 57.1294 44.3711 57.0476 42.1127 56.321C39.8545 55.5945 37.4765 54.1628 35.1193 52.2576C30.3933 48.438 25.4052 42.434 21.1905 35.1744C16.9757 27.9148 14.2411 20.617 13.2777 14.6371C12.7972 11.6545 12.7393 8.89061 13.2358 6.58255C13.7322 4.27438 14.841 2.20078 16.8702 1.03573C18.8994 -0.129319 21.2597 -0.0474417 23.518 0.679089C25.7762 1.40558 28.1542 2.83731 30.5115 4.74249Z" fill="#61DAFB"/>
<path fill-rule="evenodd" clip-rule="evenodd" d="M48.4404 7.43509C48.0853 5.78373 47.4319 4.92644 46.7342 4.52587C46.0365 4.12529 44.9633 3.99127 43.3476 4.51106C41.7318 5.03088 39.7952 6.14395 37.6632 7.86704C33.4108 11.304 28.7224 16.8904 24.6904 23.8351C20.6584 30.7799 18.1377 37.6109 17.2708 42.9916C16.8362 45.6892 16.8351 47.9135 17.1903 49.565C17.5455 51.2164 18.1989 52.0737 18.8966 52.4742C19.5943 52.8748 20.6675 53.0088 22.2832 52.4891C23.899 51.9692 25.8356 50.8562 27.9676 49.1331C32.22 45.6962 36.9084 40.1097 40.9404 33.165C44.9724 26.2202 47.4931 19.3892 48.36 14.0085C48.7946 11.3109 48.7957 9.08658 48.4404 7.43509ZM52.3531 14.6371C51.3896 20.617 48.655 27.9148 44.4403 35.1744C40.2255 42.434 35.2374 48.438 30.5115 52.2576C28.1543 54.1628 25.7762 55.5945 23.518 56.321C21.2597 57.0476 18.8995 57.1294 16.8703 55.9644C14.8411 54.7993 13.7323 52.7257 13.2358 50.4176C12.7394 48.1095 12.7972 45.3457 13.2777 42.363C14.2411 36.3831 16.9758 29.0853 21.1905 21.8257C25.4052 14.5661 30.3934 8.5621 35.1193 4.74248C37.4765 2.8373 39.8545 1.40557 42.1128 0.67908C44.3711 -0.047451 46.7313 -0.129328 48.7605 1.03572C50.7897 2.20077 51.8985 4.27437 52.395 6.58254C52.8914 8.8906 52.8336 11.6544 52.3531 14.6371Z" fill="#61DAFB"/>
</svg>
