<svg width="157" height="47" viewBox="0 0 157 47" fill="none" xmlns="http://www.w3.org/2000/svg">
<path d="M147 1H10C5.02944 1 1 5.02944 1 10V37C1 41.9706 5.02944 46 10 46H147C151.971 46 156 41.9706 156 37V10C156 5.02944 151.971 1 147 1Z" stroke="#08182F" stroke-width="2"/>
<path d="M20.104 30L17.448 25.44H15.688V30H14.232V18.848H17.832C18.6747 18.848 19.384 18.992 19.96 19.28C20.5467 19.568 20.984 19.9573 21.272 20.448C21.56 20.9387 21.704 21.4987 21.704 22.128C21.704 22.896 21.48 23.5733 21.032 24.16C20.5947 24.7467 19.9333 25.136 19.048 25.328L21.848 30H20.104ZM15.688 24.272H17.832C18.6213 24.272 19.2133 24.08 19.608 23.696C20.0027 23.3013 20.2 22.7787 20.2 22.128C20.2 21.4667 20.0027 20.9547 19.608 20.592C19.224 20.2293 18.632 20.048 17.832 20.048H15.688V24.272ZM31.9664 25.28C31.9664 25.5573 31.9504 25.8507 31.9184 26.16H24.9104C24.9637 27.024 25.257 27.7013 25.7904 28.192C26.3344 28.672 26.9904 28.912 27.7584 28.912C28.3877 28.912 28.9104 28.768 29.3264 28.48C29.753 28.1813 30.0517 27.7867 30.2224 27.296H31.7904C31.5557 28.1387 31.0864 28.8267 30.3824 29.36C29.6784 29.8827 28.8037 30.144 27.7584 30.144C26.9264 30.144 26.1797 29.9573 25.5184 29.584C24.8677 29.2107 24.3557 28.6827 23.9824 28C23.609 27.3067 23.4224 26.5067 23.4224 25.6C23.4224 24.6933 23.6037 23.8987 23.9664 23.216C24.329 22.5333 24.8357 22.0107 25.4864 21.648C26.1477 21.2747 26.905 21.088 27.7584 21.088C28.5904 21.088 29.3264 21.2693 29.9664 21.632C30.6064 21.9947 31.097 22.496 31.4384 23.136C31.7904 23.7653 31.9664 24.48 31.9664 25.28ZM30.4624 24.976C30.4624 24.4213 30.3397 23.9467 30.0944 23.552C29.849 23.1467 29.513 22.8427 29.0864 22.64C28.6704 22.4267 28.2064 22.32 27.6944 22.32C26.9584 22.32 26.329 22.5547 25.8064 23.024C25.2944 23.4933 25.001 24.144 24.9264 24.976H30.4624ZM33.3443 25.584C33.3443 24.688 33.5256 23.904 33.8883 23.232C34.2509 22.5493 34.7469 22.0213 35.3763 21.648C36.0163 21.2747 36.7309 21.088 37.5203 21.088C38.2776 21.088 38.9389 21.2587 39.5043 21.6C40.0803 21.9307 40.5016 22.3413 40.7683 22.832V21.232H42.2403V34.16H40.7683V28.384C40.4909 28.8747 40.0643 29.2907 39.4883 29.632C38.9123 29.9733 38.2403 30.144 37.4723 30.144C36.7043 30.144 36.0056 29.952 35.3763 29.568C34.7469 29.184 34.2509 28.6453 33.8883 27.952C33.5256 27.2587 33.3443 26.4693 33.3443 25.584ZM40.7683 25.6C40.7683 24.9387 40.6349 24.3627 40.3683 23.872C40.1016 23.3813 39.7389 23.008 39.2803 22.752C38.8323 22.4853 38.3363 22.352 37.7923 22.352C37.2483 22.352 36.7523 22.48 36.3043 22.736C35.8563 22.992 35.4989 23.3653 35.2323 23.856C34.9656 24.3467 34.8323 24.9227 34.8323 25.584C34.8323 26.256 34.9656 26.8427 35.2323 27.344C35.4989 27.8347 35.8563 28.2133 36.3043 28.48C36.7523 28.736 37.2483 28.864 37.7923 28.864C38.3363 28.864 38.8323 28.736 39.2803 28.48C39.7389 28.2133 40.1016 27.8347 40.3683 27.344C40.6349 26.8427 40.7683 26.2613 40.7683 25.6ZM52.4768 21.232V30H51.0208V28.704C50.7434 29.152 50.3541 29.504 49.8528 29.76C49.3621 30.0053 48.8181 30.128 48.2208 30.128C47.5381 30.128 46.9248 29.9893 46.3808 29.712C45.8368 29.424 45.4048 28.9973 45.0848 28.432C44.7754 27.8667 44.6208 27.1787 44.6208 26.368V21.232H46.0608V26.176C46.0608 27.04 46.2794 27.7067 46.7168 28.176C47.1541 28.6347 47.7514 28.864 48.5088 28.864C49.2874 28.864 49.9008 28.624 50.3488 28.144C50.7968 27.664 51.0208 26.9653 51.0208 26.048V21.232H52.4768ZM62.9351 25.28C62.9351 25.5573 62.9191 25.8507 62.8871 26.16H55.8791C55.9325 27.024 56.2258 27.7013 56.7591 28.192C57.3031 28.672 57.9591 28.912 58.7271 28.912C59.3565 28.912 59.8791 28.768 60.2951 28.48C60.7218 28.1813 61.0205 27.7867 61.1911 27.296H62.7591C62.5245 28.1387 62.0551 28.8267 61.3511 29.36C60.6471 29.8827 59.7725 30.144 58.7271 30.144C57.8951 30.144 57.1485 29.9573 56.4871 29.584C55.8365 29.2107 55.3245 28.6827 54.9511 28C54.5778 27.3067 54.3911 26.5067 54.3911 25.6C54.3911 24.6933 54.5725 23.8987 54.9351 23.216C55.2978 22.5333 55.8045 22.0107 56.4551 21.648C57.1165 21.2747 57.8738 21.088 58.7271 21.088C59.5591 21.088 60.2951 21.2693 60.9351 21.632C61.5751 21.9947 62.0658 22.496 62.4071 23.136C62.7591 23.7653 62.9351 24.48 62.9351 25.28ZM61.4311 24.976C61.4311 24.4213 61.3085 23.9467 61.0631 23.552C60.8178 23.1467 60.4818 22.8427 60.0551 22.64C59.6391 22.4267 59.1751 22.32 58.6631 22.32C57.9271 22.32 57.2978 22.5547 56.7751 23.024C56.2631 23.4933 55.9698 24.144 55.8951 24.976H61.4311ZM67.961 30.144C67.289 30.144 66.6863 30.032 66.153 29.808C65.6197 29.5733 65.1983 29.2533 64.889 28.848C64.5797 28.432 64.409 27.9573 64.377 27.424H65.881C65.9237 27.8613 66.1263 28.2187 66.489 28.496C66.8623 28.7733 67.3477 28.912 67.945 28.912C68.4997 28.912 68.937 28.7893 69.257 28.544C69.577 28.2987 69.737 27.9893 69.737 27.616C69.737 27.232 69.5663 26.9493 69.225 26.768C68.8837 26.576 68.3557 26.3893 67.641 26.208C66.9903 26.0373 66.457 25.8667 66.041 25.696C65.6357 25.5147 65.2837 25.2533 64.985 24.912C64.697 24.56 64.553 24.1013 64.553 23.536C64.553 23.088 64.6863 22.6773 64.953 22.304C65.2197 21.9307 65.5983 21.6373 66.089 21.424C66.5797 21.2 67.1397 21.088 67.769 21.088C68.7397 21.088 69.5237 21.3333 70.121 21.824C70.7183 22.3147 71.0383 22.9867 71.081 23.84H69.625C69.593 23.3813 69.4063 23.0133 69.065 22.736C68.7343 22.4587 68.2863 22.32 67.721 22.32C67.1983 22.32 66.7823 22.432 66.473 22.656C66.1637 22.88 66.009 23.1733 66.009 23.536C66.009 23.824 66.0997 24.064 66.281 24.256C66.473 24.4373 66.7077 24.5867 66.985 24.704C67.273 24.8107 67.6677 24.9333 68.169 25.072C68.7983 25.2427 69.3103 25.4133 69.705 25.584C70.0997 25.744 70.4357 25.9893 70.713 26.32C71.001 26.6507 71.1503 27.0827 71.161 27.616C71.161 28.096 71.0277 28.528 70.761 28.912C70.4943 29.296 70.1157 29.6 69.625 29.824C69.145 30.0373 68.5903 30.144 67.961 30.144ZM74.9924 22.432V27.6C74.9924 28.0267 75.083 28.3307 75.2644 28.512C75.4457 28.6827 75.7604 28.768 76.2084 28.768H77.2804V30H75.9684C75.1577 30 74.5497 29.8133 74.1444 29.44C73.739 29.0667 73.5364 28.4533 73.5364 27.6V22.432H72.4004V21.232H73.5364V19.024H74.9924V21.232H77.2804V22.432H74.9924ZM82.7661 25.584C82.7661 24.688 82.9475 23.904 83.3101 23.232C83.6728 22.5493 84.1688 22.0213 84.7981 21.648C85.4381 21.2747 86.1475 21.088 86.9261 21.088C87.6941 21.088 88.3608 21.2533 88.9261 21.584C89.4915 21.9147 89.9128 22.3307 90.1901 22.832V21.232H91.6621V30H90.1901V28.368C89.9021 28.88 89.4701 29.3067 88.8941 29.648C88.3288 29.9787 87.6675 30.144 86.9101 30.144C86.1315 30.144 85.4275 29.952 84.7981 29.568C84.1688 29.184 83.6728 28.6453 83.3101 27.952C82.9475 27.2587 82.7661 26.4693 82.7661 25.584ZM90.1901 25.6C90.1901 24.9387 90.0568 24.3627 89.7901 23.872C89.5235 23.3813 89.1608 23.008 88.7021 22.752C88.2541 22.4853 87.7581 22.352 87.2141 22.352C86.6701 22.352 86.1741 22.48 85.7261 22.736C85.2781 22.992 84.9208 23.3653 84.6541 23.856C84.3875 24.3467 84.2541 24.9227 84.2541 25.584C84.2541 26.256 84.3875 26.8427 84.6541 27.344C84.9208 27.8347 85.2781 28.2133 85.7261 28.48C86.1741 28.736 86.6701 28.864 87.2141 28.864C87.7581 28.864 88.2541 28.736 88.7021 28.48C89.1608 28.2133 89.5235 27.8347 89.7901 27.344C90.0568 26.8427 90.1901 26.2613 90.1901 25.6ZM101.86 18.848C103.076 18.848 104.127 19.0773 105.012 19.536C105.908 19.984 106.591 20.6293 107.06 21.472C107.54 22.3147 107.78 23.3067 107.78 24.448C107.78 25.5893 107.54 26.5813 107.06 27.424C106.591 28.256 105.908 28.896 105.012 29.344C104.127 29.7813 103.076 30 101.86 30H98.3883V18.848H101.86ZM101.86 28.8C103.3 28.8 104.399 28.4213 105.156 27.664C105.914 26.896 106.292 25.824 106.292 24.448C106.292 23.0613 105.908 21.9787 105.14 21.2C104.383 20.4213 103.29 20.032 101.86 20.032H99.8443V28.8H101.86ZM117.701 25.28C117.701 25.5573 117.685 25.8507 117.653 26.16H110.645C110.698 27.024 110.991 27.7013 111.525 28.192C112.069 28.672 112.725 28.912 113.493 28.912C114.122 28.912 114.645 28.768 115.061 28.48C115.487 28.1813 115.786 27.7867 115.957 27.296H117.525C117.29 28.1387 116.821 28.8267 116.117 29.36C115.413 29.8827 114.538 30.144 113.493 30.144C112.661 30.144 111.914 29.9573 111.253 29.584C110.602 29.2107 110.09 28.6827 109.717 28C109.343 27.3067 109.157 26.5067 109.157 25.6C109.157 24.6933 109.338 23.8987 109.701 23.216C110.063 22.5333 110.57 22.0107 111.221 21.648C111.882 21.2747 112.639 21.088 113.493 21.088C114.325 21.088 115.061 21.2693 115.701 21.632C116.341 21.9947 116.831 22.496 117.173 23.136C117.525 23.7653 117.701 24.48 117.701 25.28ZM116.197 24.976C116.197 24.4213 116.074 23.9467 115.829 23.552C115.583 23.1467 115.247 22.8427 114.821 22.64C114.405 22.4267 113.941 22.32 113.429 22.32C112.693 22.32 112.063 22.5547 111.541 23.024C111.029 23.4933 110.735 24.144 110.661 24.976H116.197ZM130.167 21.072C130.849 21.072 131.457 21.216 131.991 21.504C132.524 21.7813 132.945 22.2027 133.255 22.768C133.564 23.3333 133.719 24.0213 133.719 24.832V30H132.279V25.04C132.279 24.1653 132.06 23.4987 131.623 23.04C131.196 22.5707 130.615 22.336 129.879 22.336C129.121 22.336 128.519 22.5813 128.071 23.072C127.623 23.552 127.399 24.2507 127.399 25.168V30H125.959V25.04C125.959 24.1653 125.74 23.4987 125.303 23.04C124.876 22.5707 124.295 22.336 123.559 22.336C122.801 22.336 122.199 22.5813 121.751 23.072C121.303 23.552 121.079 24.2507 121.079 25.168V30H119.623V21.232H121.079V22.496C121.367 22.0373 121.751 21.6853 122.231 21.44C122.721 21.1947 123.26 21.072 123.847 21.072C124.583 21.072 125.233 21.2373 125.799 21.568C126.364 21.8987 126.785 22.384 127.063 23.024C127.308 22.4053 127.713 21.9253 128.279 21.584C128.844 21.2427 129.473 21.072 130.167 21.072ZM139.931 30.144C139.11 30.144 138.363 29.9573 137.691 29.584C137.03 29.2107 136.507 28.6827 136.123 28C135.75 27.3067 135.563 26.5067 135.563 25.6C135.563 24.704 135.755 23.9147 136.139 23.232C136.534 22.5387 137.067 22.0107 137.739 21.648C138.411 21.2747 139.163 21.088 139.995 21.088C140.827 21.088 141.579 21.2747 142.251 21.648C142.923 22.0107 143.451 22.5333 143.835 23.216C144.23 23.8987 144.427 24.6933 144.427 25.6C144.427 26.5067 144.224 27.3067 143.819 28C143.424 28.6827 142.886 29.2107 142.203 29.584C141.52 29.9573 140.763 30.144 139.931 30.144ZM139.931 28.864C140.454 28.864 140.944 28.7413 141.403 28.496C141.862 28.2507 142.23 27.8827 142.507 27.392C142.795 26.9013 142.939 26.304 142.939 25.6C142.939 24.896 142.8 24.2987 142.523 23.808C142.246 23.3173 141.883 22.9547 141.435 22.72C140.987 22.4747 140.502 22.352 139.979 22.352C139.446 22.352 138.955 22.4747 138.507 22.72C138.07 22.9547 137.718 23.3173 137.451 23.808C137.184 24.2987 137.051 24.896 137.051 25.6C137.051 26.3147 137.179 26.9173 137.435 27.408C137.702 27.8987 138.054 28.2667 138.491 28.512C138.928 28.7467 139.408 28.864 139.931 28.864Z" fill="#152946"/>
</svg>
