<svg width="264" height="293" viewBox="0 0 264 293" fill="none" xmlns="http://www.w3.org/2000/svg">
<g filter="url(#filter0_dd_1812_103887)">
<circle cx="132" cy="153" r="116" fill="#3783F5"/>
<path d="M248 150C248 119.235 235.779 89.7298 214.024 67.9756C192.27 46.2214 162.765 34 132 34C101.235 34 71.7298 46.2214 49.9756 67.9756C28.2214 89.7298 16 119.235 16 150L132 150H248Z" fill="#0FCABF"/>
<path d="M94.657 191.14C93.6837 191.14 92.8037 190.973 92.017 190.64C91.2437 190.307 90.6304 189.827 90.177 189.2C89.7237 188.573 89.4904 187.833 89.477 186.98H92.477C92.517 187.553 92.717 188.007 93.077 188.34C93.4504 188.673 93.957 188.84 94.597 188.84C95.2504 188.84 95.7637 188.687 96.137 188.38C96.5104 188.06 96.697 187.647 96.697 187.14C96.697 186.727 96.5704 186.387 96.317 186.12C96.0637 185.853 95.7437 185.647 95.357 185.5C94.9837 185.34 94.4637 185.167 93.797 184.98C92.8904 184.713 92.1504 184.453 91.577 184.2C91.017 183.933 90.5304 183.54 90.117 183.02C89.717 182.487 89.517 181.78 89.517 180.9C89.517 180.073 89.7237 179.353 90.137 178.74C90.5504 178.127 91.1304 177.66 91.877 177.34C92.6237 177.007 93.477 176.84 94.437 176.84C95.877 176.84 97.0437 177.193 97.937 177.9C98.8437 178.593 99.3437 179.567 99.437 180.82H96.357C96.3304 180.34 96.1237 179.947 95.737 179.64C95.3637 179.32 94.8637 179.16 94.237 179.16C93.6904 179.16 93.2504 179.3 92.917 179.58C92.597 179.86 92.437 180.267 92.437 180.8C92.437 181.173 92.557 181.487 92.797 181.74C93.0504 181.98 93.357 182.18 93.717 182.34C94.0904 182.487 94.6104 182.66 95.277 182.86C96.1837 183.127 96.9237 183.393 97.497 183.66C98.0704 183.927 98.5637 184.327 98.977 184.86C99.3904 185.393 99.597 186.093 99.597 186.96C99.597 187.707 99.4037 188.4 99.017 189.04C98.6304 189.68 98.0637 190.193 97.317 190.58C96.5704 190.953 95.6837 191.14 94.657 191.14ZM101.305 185.42C101.305 184.3 101.525 183.307 101.965 182.44C102.418 181.573 103.025 180.907 103.785 180.44C104.558 179.973 105.418 179.74 106.365 179.74C107.191 179.74 107.911 179.907 108.525 180.24C109.151 180.573 109.651 180.993 110.025 181.5V179.92H112.845V191H110.025V189.38C109.665 189.9 109.165 190.333 108.525 190.68C107.898 191.013 107.171 191.18 106.345 191.18C105.411 191.18 104.558 190.94 103.785 190.46C103.025 189.98 102.418 189.307 101.965 188.44C101.525 187.56 101.305 186.553 101.305 185.42ZM110.025 185.46C110.025 184.78 109.891 184.2 109.625 183.72C109.358 183.227 108.998 182.853 108.545 182.6C108.091 182.333 107.605 182.2 107.085 182.2C106.565 182.2 106.085 182.327 105.645 182.58C105.205 182.833 104.845 183.207 104.565 183.7C104.298 184.18 104.165 184.753 104.165 185.42C104.165 186.087 104.298 186.673 104.565 187.18C104.845 187.673 105.205 188.053 105.645 188.32C106.098 188.587 106.578 188.72 107.085 188.72C107.605 188.72 108.091 188.593 108.545 188.34C108.998 188.073 109.358 187.7 109.625 187.22C109.891 186.727 110.025 186.14 110.025 185.46ZM118.839 182.22V187.58C118.839 187.953 118.926 188.227 119.099 188.4C119.286 188.56 119.593 188.64 120.019 188.64H121.319V191H119.559C117.199 191 116.019 189.853 116.019 187.56V182.22H114.699V179.92H116.019V177.18H118.839V179.92H121.319V182.22H118.839ZM124.753 178.6C124.26 178.6 123.846 178.447 123.513 178.14C123.193 177.82 123.033 177.427 123.033 176.96C123.033 176.493 123.193 176.107 123.513 175.8C123.846 175.48 124.26 175.32 124.753 175.32C125.246 175.32 125.653 175.48 125.973 175.8C126.306 176.107 126.473 176.493 126.473 176.96C126.473 177.427 126.306 177.82 125.973 178.14C125.653 178.447 125.246 178.6 124.753 178.6ZM126.133 179.92V191H123.333V179.92H126.133ZM133.14 191.18C132.233 191.18 131.42 191.02 130.7 190.7C129.98 190.367 129.406 189.92 128.98 189.36C128.566 188.8 128.34 188.18 128.3 187.5H131.12C131.173 187.927 131.38 188.28 131.74 188.56C132.113 188.84 132.573 188.98 133.12 188.98C133.653 188.98 134.066 188.873 134.36 188.66C134.666 188.447 134.82 188.173 134.82 187.84C134.82 187.48 134.633 187.213 134.26 187.04C133.9 186.853 133.32 186.653 132.52 186.44C131.693 186.24 131.013 186.033 130.48 185.82C129.96 185.607 129.506 185.28 129.12 184.84C128.746 184.4 128.56 183.807 128.56 183.06C128.56 182.447 128.733 181.887 129.08 181.38C129.44 180.873 129.946 180.473 130.6 180.18C131.266 179.887 132.046 179.74 132.94 179.74C134.26 179.74 135.313 180.073 136.1 180.74C136.886 181.393 137.32 182.28 137.4 183.4H134.72C134.68 182.96 134.493 182.613 134.16 182.36C133.84 182.093 133.406 181.96 132.86 181.96C132.353 181.96 131.96 182.053 131.68 182.24C131.413 182.427 131.28 182.687 131.28 183.02C131.28 183.393 131.466 183.68 131.84 183.88C132.213 184.067 132.793 184.26 133.58 184.46C134.38 184.66 135.04 184.867 135.56 185.08C136.08 185.293 136.526 185.627 136.9 186.08C137.286 186.52 137.486 187.107 137.5 187.84C137.5 188.48 137.32 189.053 136.96 189.56C136.613 190.067 136.106 190.467 135.44 190.76C134.786 191.04 134.02 191.18 133.14 191.18ZM144.878 182.22H142.938V191H140.098V182.22H138.838V179.92H140.098V179.36C140.098 178 140.485 177 141.258 176.36C142.031 175.72 143.198 175.42 144.758 175.46V177.82C144.078 177.807 143.605 177.92 143.338 178.16C143.071 178.4 142.938 178.833 142.938 179.46V179.92H144.878V182.22ZM148.113 178.6C147.619 178.6 147.206 178.447 146.873 178.14C146.553 177.82 146.393 177.427 146.393 176.96C146.393 176.493 146.553 176.107 146.873 175.8C147.206 175.48 147.619 175.32 148.113 175.32C148.606 175.32 149.013 175.48 149.333 175.8C149.666 176.107 149.833 176.493 149.833 176.96C149.833 177.427 149.666 177.82 149.333 178.14C149.013 178.447 148.606 178.6 148.113 178.6ZM149.493 179.92V191H146.693V179.92H149.493ZM162.559 185.22C162.559 185.62 162.532 185.98 162.479 186.3H154.379C154.446 187.1 154.726 187.727 155.219 188.18C155.712 188.633 156.319 188.86 157.039 188.86C158.079 188.86 158.819 188.413 159.259 187.52H162.279C161.959 188.587 161.346 189.467 160.439 190.16C159.532 190.84 158.419 191.18 157.099 191.18C156.032 191.18 155.072 190.947 154.219 190.48C153.379 190 152.719 189.327 152.239 188.46C151.772 187.593 151.539 186.593 151.539 185.46C151.539 184.313 151.772 183.307 152.239 182.44C152.706 181.573 153.359 180.907 154.199 180.44C155.039 179.973 156.006 179.74 157.099 179.74C158.152 179.74 159.092 179.967 159.919 180.42C160.759 180.873 161.406 181.52 161.859 182.36C162.326 183.187 162.559 184.14 162.559 185.22ZM159.659 184.42C159.646 183.7 159.386 183.127 158.879 182.7C158.372 182.26 157.752 182.04 157.019 182.04C156.326 182.04 155.739 182.253 155.259 182.68C154.792 183.093 154.506 183.673 154.399 184.42H159.659ZM163.883 185.42C163.883 184.3 164.103 183.307 164.543 182.44C164.996 181.573 165.609 180.907 166.383 180.44C167.156 179.973 168.016 179.74 168.963 179.74C169.683 179.74 170.369 179.9 171.023 180.22C171.676 180.527 172.196 180.94 172.583 181.46V176.2H175.423V191H172.583V189.36C172.236 189.907 171.749 190.347 171.123 190.68C170.496 191.013 169.769 191.18 168.943 191.18C168.009 191.18 167.156 190.94 166.383 190.46C165.609 189.98 164.996 189.307 164.543 188.44C164.103 187.56 163.883 186.553 163.883 185.42ZM172.603 185.46C172.603 184.78 172.469 184.2 172.203 183.72C171.936 183.227 171.576 182.853 171.123 182.6C170.669 182.333 170.183 182.2 169.663 182.2C169.143 182.2 168.663 182.327 168.223 182.58C167.783 182.833 167.423 183.207 167.143 183.7C166.876 184.18 166.743 184.753 166.743 185.42C166.743 186.087 166.876 186.673 167.143 187.18C167.423 187.673 167.783 188.053 168.223 188.32C168.676 188.587 169.156 188.72 169.663 188.72C170.183 188.72 170.669 188.593 171.123 188.34C171.576 188.073 171.936 187.7 172.203 187.22C172.469 186.727 172.603 186.14 172.603 185.46ZM100.348 212C100.348 210.627 100.655 209.4 101.268 208.32C101.895 207.227 102.742 206.38 103.808 205.78C104.888 205.167 106.095 204.86 107.428 204.86C108.988 204.86 110.355 205.26 111.528 206.06C112.702 206.86 113.522 207.967 113.988 209.38H110.768C110.448 208.713 109.995 208.213 109.408 207.88C108.835 207.547 108.168 207.38 107.408 207.38C106.595 207.38 105.868 207.573 105.228 207.96C104.602 208.333 104.108 208.867 103.748 209.56C103.402 210.253 103.228 211.067 103.228 212C103.228 212.92 103.402 213.733 103.748 214.44C104.108 215.133 104.602 215.673 105.228 216.06C105.868 216.433 106.595 216.62 107.408 216.62C108.168 216.62 108.835 216.453 109.408 216.12C109.995 215.773 110.448 215.267 110.768 214.6H113.988C113.522 216.027 112.702 217.14 111.528 217.94C110.368 218.727 109.002 219.12 107.428 219.12C106.095 219.12 104.888 218.82 103.808 218.22C102.742 217.607 101.895 216.76 101.268 215.68C100.655 214.6 100.348 213.373 100.348 212ZM119.18 204.2V219H116.38V204.2H119.18ZM123.366 206.6C122.873 206.6 122.46 206.447 122.126 206.14C121.806 205.82 121.646 205.427 121.646 204.96C121.646 204.493 121.806 204.107 122.126 203.8C122.46 203.48 122.873 203.32 123.366 203.32C123.86 203.32 124.266 203.48 124.586 203.8C124.92 204.107 125.086 204.493 125.086 204.96C125.086 205.427 124.92 205.82 124.586 206.14C124.266 206.447 123.86 206.6 123.366 206.6ZM124.746 207.92V219H121.946V207.92H124.746ZM137.813 213.22C137.813 213.62 137.786 213.98 137.733 214.3H129.633C129.699 215.1 129.979 215.727 130.473 216.18C130.966 216.633 131.573 216.86 132.293 216.86C133.333 216.86 134.073 216.413 134.513 215.52H137.533C137.213 216.587 136.599 217.467 135.693 218.16C134.786 218.84 133.673 219.18 132.353 219.18C131.286 219.18 130.326 218.947 129.473 218.48C128.633 218 127.973 217.327 127.493 216.46C127.026 215.593 126.793 214.593 126.793 213.46C126.793 212.313 127.026 211.307 127.493 210.44C127.959 209.573 128.613 208.907 129.453 208.44C130.293 207.973 131.259 207.74 132.353 207.74C133.406 207.74 134.346 207.967 135.173 208.42C136.013 208.873 136.659 209.52 137.113 210.36C137.579 211.187 137.813 212.14 137.813 213.22ZM134.913 212.42C134.899 211.7 134.639 211.127 134.133 210.7C133.626 210.26 133.006 210.04 132.273 210.04C131.579 210.04 130.993 210.253 130.513 210.68C130.046 211.093 129.759 211.673 129.653 212.42H134.913ZM145.997 207.76C147.317 207.76 148.383 208.18 149.197 209.02C150.01 209.847 150.417 211.007 150.417 212.5V219H147.617V212.88C147.617 212 147.397 211.327 146.957 210.86C146.517 210.38 145.917 210.14 145.157 210.14C144.383 210.14 143.77 210.38 143.317 210.86C142.877 211.327 142.657 212 142.657 212.88V219H139.857V207.92H142.657V209.3C143.03 208.82 143.503 208.447 144.077 208.18C144.663 207.9 145.303 207.76 145.997 207.76ZM156.339 210.22V215.58C156.339 215.953 156.426 216.227 156.599 216.4C156.786 216.56 157.093 216.64 157.519 216.64H158.819V219H157.059C154.699 219 153.519 217.853 153.519 215.56V210.22H152.199V207.92H153.519V205.18H156.339V207.92H158.819V210.22H156.339ZM165.073 219.18C164.166 219.18 163.353 219.02 162.633 218.7C161.913 218.367 161.34 217.92 160.913 217.36C160.5 216.8 160.273 216.18 160.233 215.5H163.053C163.106 215.927 163.313 216.28 163.673 216.56C164.046 216.84 164.506 216.98 165.053 216.98C165.586 216.98 166 216.873 166.293 216.66C166.6 216.447 166.753 216.173 166.753 215.84C166.753 215.48 166.566 215.213 166.193 215.04C165.833 214.853 165.253 214.653 164.453 214.44C163.626 214.24 162.946 214.033 162.413 213.82C161.893 213.607 161.44 213.28 161.053 212.84C160.68 212.4 160.493 211.807 160.493 211.06C160.493 210.447 160.666 209.887 161.013 209.38C161.373 208.873 161.88 208.473 162.533 208.18C163.2 207.887 163.98 207.74 164.873 207.74C166.193 207.74 167.246 208.073 168.033 208.74C168.82 209.393 169.253 210.28 169.333 211.4H166.653C166.613 210.96 166.426 210.613 166.093 210.36C165.773 210.093 165.34 209.96 164.793 209.96C164.286 209.96 163.893 210.053 163.613 210.24C163.346 210.427 163.213 210.687 163.213 211.02C163.213 211.393 163.4 211.68 163.773 211.88C164.146 212.067 164.726 212.26 165.513 212.46C166.313 212.66 166.973 212.867 167.493 213.08C168.013 213.293 168.46 213.627 168.833 214.08C169.22 214.52 169.42 215.107 169.433 215.84C169.433 216.48 169.253 217.053 168.893 217.56C168.546 218.067 168.04 218.467 167.373 218.76C166.72 219.04 165.953 219.18 165.073 219.18Z" fill="white"/>
<path d="M85.531 116.416C88.603 113.856 91.051 111.728 92.875 110.032C94.699 108.304 96.219 106.512 97.435 104.656C98.651 102.8 99.259 100.976 99.259 99.184C99.259 97.552 98.875 96.272 98.107 95.344C97.339 94.416 96.155 93.952 94.555 93.952C92.955 93.952 91.723 94.496 90.859 95.584C89.995 96.64 89.547 98.096 89.515 99.952H82.987C83.115 96.112 84.251 93.2 86.395 91.216C88.571 89.232 91.323 88.24 94.651 88.24C98.299 88.24 101.099 89.216 103.051 91.168C105.003 93.088 105.979 95.632 105.979 98.8C105.979 101.296 105.307 103.68 103.963 105.952C102.619 108.224 101.083 110.208 99.355 111.904C97.627 113.568 95.371 115.584 92.587 117.952H106.747V123.52H83.035V118.528L85.531 116.416ZM118.758 114.16C119.014 115.568 119.59 116.656 120.486 117.424C121.414 118.16 122.646 118.528 124.182 118.528C126.166 118.528 127.606 117.712 128.502 116.08C129.398 114.416 129.846 111.632 129.846 107.728C129.11 108.752 128.07 109.552 126.726 110.128C125.414 110.704 123.99 110.992 122.454 110.992C120.406 110.992 118.55 110.576 116.886 109.744C115.254 108.88 113.958 107.616 112.998 105.952C112.038 104.256 111.558 102.208 111.558 99.808C111.558 96.256 112.614 93.44 114.726 91.36C116.838 89.248 119.718 88.192 123.366 88.192C127.91 88.192 131.11 89.648 132.966 92.56C134.854 95.472 135.798 99.856 135.798 105.712C135.798 109.872 135.43 113.28 134.694 115.936C133.99 118.592 132.758 120.608 130.998 121.984C129.27 123.36 126.902 124.048 123.894 124.048C121.526 124.048 119.51 123.6 117.846 122.704C116.182 121.776 114.902 120.576 114.006 119.104C113.142 117.6 112.646 115.952 112.518 114.16H118.758ZM123.846 105.52C125.51 105.52 126.822 105.008 127.782 103.984C128.742 102.96 129.222 101.584 129.222 99.856C129.222 97.968 128.71 96.512 127.686 95.488C126.694 94.432 125.334 93.904 123.606 93.904C121.878 93.904 120.502 94.448 119.478 95.536C118.486 96.592 117.99 98 117.99 99.76C117.99 101.456 118.47 102.848 119.43 103.936C120.422 104.992 121.894 105.52 123.846 105.52ZM163.3 94.096L150.532 124H143.716L156.58 94.864H140.164V89.104H163.3V94.096ZM193.197 109.84H184.125V119.152H177.789V109.84H168.717V103.984H177.789V94.672H184.125V103.984H193.197V109.84Z" fill="white"/>
<path d="M183.215 40.7845C210.102 52.6333 232.049 73.4383 245.316 99.6545C258.583 125.871 262.35 155.876 255.974 184.558C249.598 213.24 233.475 238.824 210.35 256.951C187.226 275.078 158.532 284.626 129.158 283.968C99.7828 283.311 71.5448 272.488 49.255 253.344C26.9652 234.201 12.0027 207.921 6.91694 178.982C1.83119 150.044 6.93685 120.237 21.364 94.6408C35.7911 69.0446 58.6471 49.2426 86.0374 38.6089L94.8995 61.436C72.7903 70.0194 54.3412 86.0033 42.6958 106.664C31.0503 127.325 26.9291 151.385 31.0343 174.744C35.1394 198.103 47.217 219.316 65.2091 234.768C83.2012 250.221 105.995 258.957 129.706 259.487C153.417 260.018 176.578 252.311 195.244 237.679C213.909 223.048 226.924 202.396 232.07 179.245C237.217 156.093 234.177 131.873 223.467 110.711C212.758 89.5498 195.043 72.7563 173.34 63.1921L183.215 40.7845Z" fill="#4249B3"/>
<circle cx="135" cy="37" r="36" fill="#F3F6FC"/>
<path d="M150 31.3333H139.483L141.067 23.7166L141.117 23.1833C141.117 22.5 140.833 21.8666 140.383 21.4166L138.617 19.6666L127.65 30.65C127.033 31.25 126.667 32.0833 126.667 33V49.6666C126.667 51.5 128.167 53 130 53H145C146.383 53 147.567 52.1666 148.067 50.9666L153.1 39.2166C153.25 38.8333 153.333 38.4333 153.333 38V34.6666C153.333 32.8333 151.833 31.3333 150 31.3333ZM150 38L145 49.6666H130V33L137.233 25.7666L135.383 34.6666H150V38ZM116.667 33H123.333V53H116.667V33Z" fill="#022A62"/>
</g>
<defs>
<filter id="filter0_dd_1812_103887" x="-0.000213623" y="0" width="264" height="293" filterUnits="userSpaceOnUse" color-interpolation-filters="sRGB">
<feFlood flood-opacity="0" result="BackgroundImageFix"/>
<feColorMatrix in="SourceAlpha" type="matrix" values="0 0 0 0 0 0 0 0 0 0 0 0 0 0 0 0 0 0 127 0" result="hardAlpha"/>
<feMorphology radius="2" operator="erode" in="SourceAlpha" result="effect1_dropShadow_1812_103887"/>
<feOffset dy="2"/>
<feGaussianBlur stdDeviation="2"/>
<feComposite in2="hardAlpha" operator="out"/>
<feColorMatrix type="matrix" values="0 0 0 0 0 0 0 0 0 0 0 0 0 0 0 0 0 0 0.1 0"/>
<feBlend mode="normal" in2="BackgroundImageFix" result="effect1_dropShadow_1812_103887"/>
<feColorMatrix in="SourceAlpha" type="matrix" values="0 0 0 0 0 0 0 0 0 0 0 0 0 0 0 0 0 0 127 0" result="hardAlpha"/>
<feMorphology radius="1" operator="erode" in="SourceAlpha" result="effect2_dropShadow_1812_103887"/>
<feOffset dy="4"/>
<feGaussianBlur stdDeviation="3"/>
<feComposite in2="hardAlpha" operator="out"/>
<feColorMatrix type="matrix" values="0 0 0 0 0 0 0 0 0 0 0 0 0 0 0 0 0 0 0.1 0"/>
<feBlend mode="normal" in2="effect1_dropShadow_1812_103887" result="effect2_dropShadow_1812_103887"/>
<feBlend mode="normal" in="SourceGraphic" in2="effect2_dropShadow_1812_103887" result="shape"/>
</filter>
</defs>
</svg>
