<svg width="531" height="288" viewBox="0 0 531 288" fill="none" xmlns="http://www.w3.org/2000/svg">
<g filter="url(#filter0_dd_2209_1452)">
<path d="M5 17C5 8.16344 12.1634 1 21 1H510C518.837 1 526 8.16344 526 17V263C526 271.837 518.837 279 510 279H21C12.1634 279 5 271.837 5 263V17Z" fill="white"/>
</g>
<path d="M26.048 47.336H34.832V50H22.772V24.908H26.048V47.336ZM46.9151 50.324C45.0671 50.324 43.3871 49.904 41.8751 49.064C40.3871 48.224 39.2111 47.036 38.3471 45.5C37.5071 43.94 37.0871 42.14 37.0871 40.1C37.0871 38.084 37.5191 36.308 38.3831 34.772C39.2711 33.212 40.4711 32.024 41.9831 31.208C43.4951 30.368 45.1871 29.948 47.0591 29.948C48.9311 29.948 50.6231 30.368 52.1351 31.208C53.6471 32.024 54.8351 33.2 55.6991 34.736C56.5871 36.272 57.0311 38.06 57.0311 40.1C57.0311 42.14 56.5751 43.94 55.6631 45.5C54.7751 47.036 53.5631 48.224 52.0271 49.064C50.4911 49.904 48.7871 50.324 46.9151 50.324ZM46.9151 47.444C48.0911 47.444 49.1951 47.168 50.2271 46.616C51.2591 46.064 52.0871 45.236 52.7111 44.132C53.3591 43.028 53.6831 41.684 53.6831 40.1C53.6831 38.516 53.3711 37.172 52.7471 36.068C52.1231 34.964 51.3071 34.148 50.2991 33.62C49.2911 33.068 48.1991 32.792 47.0231 32.792C45.8231 32.792 44.7191 33.068 43.7111 33.62C42.7271 34.148 41.9351 34.964 41.3351 36.068C40.7351 37.172 40.4351 38.516 40.4351 40.1C40.4351 41.708 40.7231 43.064 41.2991 44.168C41.8991 45.272 42.6911 46.1 43.6751 46.652C44.6591 47.18 45.7391 47.444 46.9151 47.444ZM68.3224 50.324C66.8104 50.324 65.4544 50.072 64.2544 49.568C63.0544 49.04 62.1064 48.32 61.4104 47.408C60.7144 46.472 60.3304 45.404 60.2584 44.204H63.6424C63.7384 45.188 64.1944 45.992 65.0104 46.616C65.8504 47.24 66.9424 47.552 68.2864 47.552C69.5344 47.552 70.5184 47.276 71.2384 46.724C71.9584 46.172 72.3184 45.476 72.3184 44.636C72.3184 43.772 71.9344 43.136 71.1664 42.728C70.3984 42.296 69.2104 41.876 67.6024 41.468C66.1384 41.084 64.9384 40.7 64.0024 40.316C63.0904 39.908 62.2984 39.32 61.6264 38.552C60.9784 37.76 60.6544 36.728 60.6544 35.456C60.6544 34.448 60.9544 33.524 61.5544 32.684C62.1544 31.844 63.0064 31.184 64.1104 30.704C65.2144 30.2 66.4744 29.948 67.8904 29.948C70.0744 29.948 71.8384 30.5 73.1824 31.604C74.5264 32.708 75.2464 34.22 75.3424 36.14H72.0664C71.9944 35.108 71.5744 34.28 70.8064 33.656C70.0624 33.032 69.0544 32.72 67.7824 32.72C66.6064 32.72 65.6704 32.972 64.9744 33.476C64.2784 33.98 63.9304 34.64 63.9304 35.456C63.9304 36.104 64.1344 36.644 64.5424 37.076C64.9744 37.484 65.5024 37.82 66.1264 38.084C66.7744 38.324 67.6624 38.6 68.7904 38.912C70.2064 39.296 71.3584 39.68 72.2464 40.064C73.1344 40.424 73.8904 40.976 74.5144 41.72C75.1624 42.464 75.4984 43.436 75.5224 44.636C75.5224 45.716 75.2224 46.688 74.6224 47.552C74.0224 48.416 73.1704 49.1 72.0664 49.604C70.9864 50.084 69.7384 50.324 68.3224 50.324ZM104.577 44.42H93.6327L91.6167 50H88.1607L97.2327 25.052H101.013L110.049 50H106.593L104.577 44.42ZM103.641 41.756L99.1047 29.084L94.5687 41.756H103.641ZM123.614 29.912C126.014 29.912 127.958 30.644 129.446 32.108C130.934 33.548 131.678 35.636 131.678 38.372V50H128.438V38.84C128.438 36.872 127.946 35.372 126.962 34.34C125.978 33.284 124.634 32.756 122.93 32.756C121.202 32.756 119.822 33.296 118.79 34.376C117.782 35.456 117.278 37.028 117.278 39.092V50H114.002V30.272H117.278V33.08C117.926 32.072 118.802 31.292 119.906 30.74C121.034 30.188 122.27 29.912 123.614 29.912ZM145.166 29.948C146.87 29.948 148.358 30.32 149.63 31.064C150.926 31.808 151.886 32.744 152.51 33.872V30.272H155.822V50.432C155.822 52.232 155.438 53.828 154.67 55.22C153.902 56.636 152.798 57.74 151.358 58.532C149.942 59.324 148.286 59.72 146.39 59.72C143.798 59.72 141.638 59.108 139.91 57.884C138.182 56.66 137.162 54.992 136.85 52.88H140.09C140.45 54.08 141.194 55.04 142.322 55.76C143.45 56.504 144.806 56.876 146.39 56.876C148.19 56.876 149.654 56.312 150.782 55.184C151.934 54.056 152.51 52.472 152.51 50.432V46.292C151.862 47.444 150.902 48.404 149.63 49.172C148.358 49.94 146.87 50.324 145.166 50.324C143.414 50.324 141.818 49.892 140.378 49.028C138.962 48.164 137.846 46.952 137.03 45.392C136.214 43.832 135.806 42.056 135.806 40.064C135.806 38.048 136.214 36.284 137.03 34.772C137.846 33.236 138.962 32.048 140.378 31.208C141.818 30.368 143.414 29.948 145.166 29.948ZM152.51 40.1C152.51 38.612 152.21 37.316 151.61 36.212C151.01 35.108 150.194 34.268 149.162 33.692C148.154 33.092 147.038 32.792 145.814 32.792C144.59 32.792 143.474 33.08 142.466 33.656C141.458 34.232 140.654 35.072 140.054 36.176C139.454 37.28 139.154 38.576 139.154 40.064C139.154 41.576 139.454 42.896 140.054 44.024C140.654 45.128 141.458 45.98 142.466 46.58C143.474 47.156 144.59 47.444 145.814 47.444C147.038 47.444 148.154 47.156 149.162 46.58C150.194 45.98 151.01 45.128 151.61 44.024C152.21 42.896 152.51 41.588 152.51 40.1ZM179.358 39.38C179.358 40.004 179.322 40.664 179.25 41.36H163.482C163.602 43.304 164.262 44.828 165.462 45.932C166.686 47.012 168.162 47.552 169.89 47.552C171.306 47.552 172.482 47.228 173.418 46.58C174.378 45.908 175.05 45.02 175.434 43.916H178.962C178.434 45.812 177.378 47.36 175.794 48.56C174.21 49.736 172.242 50.324 169.89 50.324C168.018 50.324 166.338 49.904 164.85 49.064C163.386 48.224 162.234 47.036 161.394 45.5C160.554 43.94 160.134 42.14 160.134 40.1C160.134 38.06 160.542 36.272 161.358 34.736C162.174 33.2 163.314 32.024 164.778 31.208C166.266 30.368 167.97 29.948 169.89 29.948C171.762 29.948 173.418 30.356 174.858 31.172C176.298 31.988 177.402 33.116 178.17 34.556C178.962 35.972 179.358 37.58 179.358 39.38ZM175.974 38.696C175.974 37.448 175.698 36.38 175.146 35.492C174.594 34.58 173.838 33.896 172.878 33.44C171.942 32.96 170.898 32.72 169.746 32.72C168.09 32.72 166.674 33.248 165.498 34.304C164.346 35.36 163.686 36.824 163.518 38.696H175.974ZM186.958 23.36V50H183.682V23.36H186.958ZM210.542 39.38C210.542 40.004 210.506 40.664 210.434 41.36H194.666C194.786 43.304 195.446 44.828 196.646 45.932C197.87 47.012 199.346 47.552 201.074 47.552C202.49 47.552 203.666 47.228 204.602 46.58C205.562 45.908 206.234 45.02 206.618 43.916H210.146C209.618 45.812 208.562 47.36 206.978 48.56C205.394 49.736 203.426 50.324 201.074 50.324C199.202 50.324 197.522 49.904 196.034 49.064C194.57 48.224 193.418 47.036 192.578 45.5C191.738 43.94 191.318 42.14 191.318 40.1C191.318 38.06 191.726 36.272 192.542 34.736C193.358 33.2 194.498 32.024 195.962 31.208C197.45 30.368 199.154 29.948 201.074 29.948C202.946 29.948 204.602 30.356 206.042 31.172C207.482 31.988 208.586 33.116 209.354 34.556C210.146 35.972 210.542 37.58 210.542 39.38ZM207.158 38.696C207.158 37.448 206.882 36.38 206.33 35.492C205.778 34.58 205.022 33.896 204.062 33.44C203.126 32.96 202.082 32.72 200.93 32.72C199.274 32.72 197.858 33.248 196.682 34.304C195.53 35.36 194.87 36.824 194.702 38.696H207.158ZM221.85 50.324C220.338 50.324 218.982 50.072 217.782 49.568C216.582 49.04 215.634 48.32 214.938 47.408C214.242 46.472 213.858 45.404 213.786 44.204H217.17C217.266 45.188 217.722 45.992 218.538 46.616C219.378 47.24 220.47 47.552 221.814 47.552C223.062 47.552 224.046 47.276 224.766 46.724C225.486 46.172 225.846 45.476 225.846 44.636C225.846 43.772 225.462 43.136 224.694 42.728C223.926 42.296 222.738 41.876 221.13 41.468C219.666 41.084 218.466 40.7 217.53 40.316C216.618 39.908 215.826 39.32 215.154 38.552C214.506 37.76 214.182 36.728 214.182 35.456C214.182 34.448 214.482 33.524 215.082 32.684C215.682 31.844 216.534 31.184 217.638 30.704C218.742 30.2 220.002 29.948 221.418 29.948C223.602 29.948 225.366 30.5 226.71 31.604C228.054 32.708 228.774 34.22 228.87 36.14H225.594C225.522 35.108 225.102 34.28 224.334 33.656C223.59 33.032 222.582 32.72 221.31 32.72C220.134 32.72 219.198 32.972 218.502 33.476C217.806 33.98 217.458 34.64 217.458 35.456C217.458 36.104 217.662 36.644 218.07 37.076C218.502 37.484 219.03 37.82 219.654 38.084C220.302 38.324 221.19 38.6 222.318 38.912C223.734 39.296 224.886 39.68 225.774 40.064C226.662 40.424 227.418 40.976 228.042 41.72C228.69 42.464 229.026 43.436 229.05 44.636C229.05 45.716 228.75 46.688 228.15 47.552C227.55 48.416 226.698 49.1 225.594 49.604C224.514 50.084 223.266 50.324 221.85 50.324ZM237.058 45.464L233.026 55.148H230.83L233.458 45.464H237.058ZM253.613 24.908V40.784C253.613 43.016 254.153 44.672 255.233 45.752C256.337 46.832 257.861 47.372 259.805 47.372C261.725 47.372 263.225 46.832 264.305 45.752C265.409 44.672 265.961 43.016 265.961 40.784V24.908H269.237V40.748C269.237 42.836 268.817 44.6 267.977 46.04C267.137 47.456 265.997 48.512 264.557 49.208C263.141 49.904 261.545 50.252 259.769 50.252C257.993 50.252 256.385 49.904 254.945 49.208C253.529 48.512 252.401 47.456 251.561 46.04C250.745 44.6 250.337 42.836 250.337 40.748V24.908H253.613ZM282.658 50.252C281.002 50.252 279.514 49.964 278.194 49.388C276.898 48.788 275.878 47.972 275.134 46.94C274.39 45.884 274.006 44.672 273.982 43.304H277.474C277.594 44.48 278.074 45.476 278.914 46.292C279.778 47.084 281.026 47.48 282.658 47.48C284.218 47.48 285.442 47.096 286.33 46.328C287.242 45.536 287.698 44.528 287.698 43.304C287.698 42.344 287.434 41.564 286.906 40.964C286.378 40.364 285.718 39.908 284.926 39.596C284.134 39.284 283.066 38.948 281.722 38.588C280.066 38.156 278.734 37.724 277.726 37.292C276.742 36.86 275.89 36.188 275.17 35.276C274.474 34.34 274.126 33.092 274.126 31.532C274.126 30.164 274.474 28.952 275.17 27.896C275.866 26.84 276.838 26.024 278.086 25.448C279.358 24.872 280.81 24.584 282.442 24.584C284.794 24.584 286.714 25.172 288.202 26.348C289.714 27.524 290.566 29.084 290.758 31.028H287.158C287.038 30.068 286.534 29.228 285.646 28.508C284.758 27.764 283.582 27.392 282.118 27.392C280.75 27.392 279.634 27.752 278.77 28.472C277.906 29.168 277.474 30.152 277.474 31.424C277.474 32.336 277.726 33.08 278.23 33.656C278.758 34.232 279.394 34.676 280.138 34.988C280.906 35.276 281.974 35.612 283.342 35.996C284.998 36.452 286.33 36.908 287.338 37.364C288.346 37.796 289.21 38.48 289.93 39.416C290.65 40.328 291.01 41.576 291.01 43.16C291.01 44.384 290.686 45.536 290.038 46.616C289.39 47.696 288.43 48.572 287.158 49.244C285.886 49.916 284.386 50.252 282.658 50.252ZM310.663 44.42H299.719L297.703 50H294.247L303.319 25.052H307.099L316.135 50H312.679L310.663 44.42ZM309.727 41.756L305.191 29.084L300.655 41.756H309.727Z" fill="#08182F"/>
<g clip-path="url(#clip0_2209_1452)">
<path d="M32 103C27.59 103 24 106.59 24 111C24 116.57 30.96 124.34 31.26 124.67L32 125.49L32.74 124.67C33.04 124.34 40 116.57 40 111C40 106.59 36.41 103 32 103ZM32 122.47C29.82 119.86 26 114.54 26 111C26 107.69 28.69 105 32 105C35.31 105 38 107.69 38 111C38 114.83 33.75 120.36 32 122.47ZM30.47 113.17L28.71 111.4L27.29 112.82L30.47 116L36.48 109.99L35.07 108.57L30.47 113.17Z" fill="#323232"/>
</g>
<path d="M52.4504 116.9C52.5571 117.487 52.7971 117.94 53.1704 118.26C53.5571 118.567 54.0704 118.72 54.7104 118.72C55.5371 118.72 56.1371 118.38 56.5104 117.7C56.8837 117.007 57.0704 115.847 57.0704 114.22C56.7637 114.647 56.3304 114.98 55.7704 115.22C55.2237 115.46 54.6304 115.58 53.9904 115.58C53.1371 115.58 52.3637 115.407 51.6704 115.06C50.9904 114.7 50.4504 114.173 50.0504 113.48C49.6504 112.773 49.4504 111.92 49.4504 110.92C49.4504 109.44 49.8904 108.267 50.7704 107.4C51.6504 106.52 52.8504 106.08 54.3704 106.08C56.2637 106.08 57.5971 106.687 58.3704 107.9C59.1571 109.113 59.5504 110.94 59.5504 113.38C59.5504 115.113 59.3971 116.533 59.0904 117.64C58.7971 118.747 58.2837 119.587 57.5504 120.16C56.8304 120.733 55.8437 121.02 54.5904 121.02C53.6037 121.02 52.7637 120.833 52.0704 120.46C51.3771 120.073 50.8437 119.573 50.4704 118.96C50.1104 118.333 49.9037 117.647 49.8504 116.9H52.4504ZM54.5704 113.3C55.2637 113.3 55.8104 113.087 56.2104 112.66C56.6104 112.233 56.8104 111.66 56.8104 110.94C56.8104 110.153 56.5971 109.547 56.1704 109.12C55.7571 108.68 55.1904 108.46 54.4704 108.46C53.7504 108.46 53.1771 108.687 52.7504 109.14C52.3371 109.58 52.1304 110.167 52.1304 110.9C52.1304 111.607 52.3304 112.187 52.7304 112.64C53.1437 113.08 53.7571 113.3 54.5704 113.3ZM61.3899 109V106.42H66.2099V121H63.3299V109H61.3899ZM68.976 113.52C68.976 111.213 69.3893 109.407 70.216 108.1C71.056 106.793 72.4427 106.14 74.376 106.14C76.3093 106.14 77.6893 106.793 78.516 108.1C79.356 109.407 79.776 111.213 79.776 113.52C79.776 115.84 79.356 117.66 78.516 118.98C77.6893 120.3 76.3093 120.96 74.376 120.96C72.4427 120.96 71.056 120.3 70.216 118.98C69.3893 117.66 68.976 115.84 68.976 113.52ZM77.016 113.52C77.016 112.533 76.9493 111.707 76.816 111.04C76.696 110.36 76.4427 109.807 76.056 109.38C75.6827 108.953 75.1227 108.74 74.376 108.74C73.6293 108.74 73.0627 108.953 72.676 109.38C72.3027 109.807 72.0493 110.36 71.916 111.04C71.796 111.707 71.736 112.533 71.736 113.52C71.736 114.533 71.796 115.387 71.916 116.08C72.036 116.76 72.2893 117.313 72.676 117.74C73.0627 118.153 73.6293 118.36 74.376 118.36C75.1227 118.36 75.6893 118.153 76.076 117.74C76.4627 117.313 76.716 116.76 76.836 116.08C76.956 115.387 77.016 114.533 77.016 113.52ZM91.8113 121.14C90.838 121.14 89.958 120.973 89.1713 120.64C88.398 120.307 87.7847 119.827 87.3313 119.2C86.878 118.573 86.6447 117.833 86.6313 116.98H89.6313C89.6713 117.553 89.8713 118.007 90.2313 118.34C90.6047 118.673 91.1113 118.84 91.7513 118.84C92.4047 118.84 92.918 118.687 93.2913 118.38C93.6647 118.06 93.8513 117.647 93.8513 117.14C93.8513 116.727 93.7247 116.387 93.4713 116.12C93.218 115.853 92.898 115.647 92.5113 115.5C92.138 115.34 91.618 115.167 90.9513 114.98C90.0447 114.713 89.3047 114.453 88.7313 114.2C88.1713 113.933 87.6847 113.54 87.2713 113.02C86.8713 112.487 86.6713 111.78 86.6713 110.9C86.6713 110.073 86.878 109.353 87.2913 108.74C87.7047 108.127 88.2847 107.66 89.0313 107.34C89.778 107.007 90.6313 106.84 91.5913 106.84C93.0313 106.84 94.198 107.193 95.0913 107.9C95.998 108.593 96.498 109.567 96.5913 110.82H93.5113C93.4847 110.34 93.278 109.947 92.8913 109.64C92.518 109.32 92.018 109.16 91.3913 109.16C90.8447 109.16 90.4047 109.3 90.0713 109.58C89.7513 109.86 89.5913 110.267 89.5913 110.8C89.5913 111.173 89.7113 111.487 89.9513 111.74C90.2047 111.98 90.5113 112.18 90.8713 112.34C91.2447 112.487 91.7647 112.66 92.4313 112.86C93.338 113.127 94.078 113.393 94.6513 113.66C95.2247 113.927 95.718 114.327 96.1313 114.86C96.5447 115.393 96.7513 116.093 96.7513 116.96C96.7513 117.707 96.558 118.4 96.1713 119.04C95.7847 119.68 95.218 120.193 94.4713 120.58C93.7247 120.953 92.838 121.14 91.8113 121.14ZM108.764 121.14C107.791 121.14 106.911 120.973 106.124 120.64C105.351 120.307 104.738 119.827 104.284 119.2C103.831 118.573 103.598 117.833 103.584 116.98H106.584C106.624 117.553 106.824 118.007 107.184 118.34C107.558 118.673 108.064 118.84 108.704 118.84C109.358 118.84 109.871 118.687 110.244 118.38C110.618 118.06 110.804 117.647 110.804 117.14C110.804 116.727 110.678 116.387 110.424 116.12C110.171 115.853 109.851 115.647 109.464 115.5C109.091 115.34 108.571 115.167 107.904 114.98C106.998 114.713 106.258 114.453 105.684 114.2C105.124 113.933 104.638 113.54 104.224 113.02C103.824 112.487 103.624 111.78 103.624 110.9C103.624 110.073 103.831 109.353 104.244 108.74C104.658 108.127 105.238 107.66 105.984 107.34C106.731 107.007 107.584 106.84 108.544 106.84C109.984 106.84 111.151 107.193 112.044 107.9C112.951 108.593 113.451 109.567 113.544 110.82H110.464C110.438 110.34 110.231 109.947 109.844 109.64C109.471 109.32 108.971 109.16 108.344 109.16C107.798 109.16 107.358 109.3 107.024 109.58C106.704 109.86 106.544 110.267 106.544 110.8C106.544 111.173 106.664 111.487 106.904 111.74C107.158 111.98 107.464 112.18 107.824 112.34C108.198 112.487 108.718 112.66 109.384 112.86C110.291 113.127 111.031 113.393 111.604 113.66C112.178 113.927 112.671 114.327 113.084 114.86C113.498 115.393 113.704 116.093 113.704 116.96C113.704 117.707 113.511 118.4 113.124 119.04C112.738 119.68 112.171 120.193 111.424 120.58C110.678 120.953 109.791 121.14 108.764 121.14ZM126.592 109.92V121H123.772V119.6C123.412 120.08 122.939 120.46 122.352 120.74C121.779 121.007 121.152 121.14 120.472 121.14C119.605 121.14 118.839 120.96 118.172 120.6C117.505 120.227 116.979 119.687 116.592 118.98C116.219 118.26 116.032 117.407 116.032 116.42V109.92H118.832V116.02C118.832 116.9 119.052 117.58 119.492 118.06C119.932 118.527 120.532 118.76 121.292 118.76C122.065 118.76 122.672 118.527 123.112 118.06C123.552 117.58 123.772 116.9 123.772 116.02V109.92H126.592ZM135.495 109.76C136.815 109.76 137.881 110.18 138.695 111.02C139.508 111.847 139.915 113.007 139.915 114.5V121H137.115V114.88C137.115 114 136.895 113.327 136.455 112.86C136.015 112.38 135.415 112.14 134.655 112.14C133.881 112.14 133.268 112.38 132.815 112.86C132.375 113.327 132.155 114 132.155 114.88V121H129.355V109.92H132.155V111.3C132.528 110.82 133.001 110.447 133.575 110.18C134.161 109.9 134.801 109.76 135.495 109.76ZM146.817 121.18C145.911 121.18 145.097 121.02 144.377 120.7C143.657 120.367 143.084 119.92 142.657 119.36C142.244 118.8 142.017 118.18 141.977 117.5H144.797C144.851 117.927 145.057 118.28 145.417 118.56C145.791 118.84 146.251 118.98 146.797 118.98C147.331 118.98 147.744 118.873 148.037 118.66C148.344 118.447 148.497 118.173 148.497 117.84C148.497 117.48 148.311 117.213 147.937 117.04C147.577 116.853 146.997 116.653 146.197 116.44C145.371 116.24 144.691 116.033 144.157 115.82C143.637 115.607 143.184 115.28 142.797 114.84C142.424 114.4 142.237 113.807 142.237 113.06C142.237 112.447 142.411 111.887 142.757 111.38C143.117 110.873 143.624 110.473 144.277 110.18C144.944 109.887 145.724 109.74 146.617 109.74C147.937 109.74 148.991 110.073 149.777 110.74C150.564 111.393 150.997 112.28 151.077 113.4H148.397C148.357 112.96 148.171 112.613 147.837 112.36C147.517 112.093 147.084 111.96 146.537 111.96C146.031 111.96 145.637 112.053 145.357 112.24C145.091 112.427 144.957 112.687 144.957 113.02C144.957 113.393 145.144 113.68 145.517 113.88C145.891 114.067 146.471 114.26 147.257 114.46C148.057 114.66 148.717 114.867 149.237 115.08C149.757 115.293 150.204 115.627 150.577 116.08C150.964 116.52 151.164 117.107 151.177 117.84C151.177 118.48 150.997 119.053 150.637 119.56C150.291 120.067 149.784 120.467 149.117 120.76C148.464 121.04 147.697 121.18 146.817 121.18ZM163.776 115.22C163.776 115.62 163.749 115.98 163.696 116.3H155.596C155.662 117.1 155.942 117.727 156.436 118.18C156.929 118.633 157.536 118.86 158.256 118.86C159.296 118.86 160.036 118.413 160.476 117.52H163.496C163.176 118.587 162.562 119.467 161.656 120.16C160.749 120.84 159.636 121.18 158.316 121.18C157.249 121.18 156.289 120.947 155.436 120.48C154.596 120 153.936 119.327 153.456 118.46C152.989 117.593 152.756 116.593 152.756 115.46C152.756 114.313 152.989 113.307 153.456 112.44C153.922 111.573 154.576 110.907 155.416 110.44C156.256 109.973 157.222 109.74 158.316 109.74C159.369 109.74 160.309 109.967 161.136 110.42C161.976 110.873 162.622 111.52 163.076 112.36C163.542 113.187 163.776 114.14 163.776 115.22ZM160.876 114.42C160.862 113.7 160.602 113.127 160.096 112.7C159.589 112.26 158.969 112.04 158.236 112.04C157.542 112.04 156.956 112.253 156.476 112.68C156.009 113.093 155.722 113.673 155.616 114.42H160.876ZM169.079 112.22V117.58C169.079 117.953 169.166 118.227 169.339 118.4C169.526 118.56 169.833 118.64 170.259 118.64H171.559V121H169.799C167.439 121 166.259 119.853 166.259 117.56V112.22H164.939V109.92H166.259V107.18H169.079V109.92H171.559V112.22H169.079ZM186.899 118.34H181.339L180.419 121H177.479L182.499 107.02H185.759L190.779 121H187.819L186.899 118.34ZM186.139 116.1L184.119 110.26L182.099 116.1H186.139ZM197.275 118.42L200.075 109.92H203.055L198.955 121H195.555L191.475 109.92H194.475L197.275 118.42ZM214.928 115.22C214.928 115.62 214.901 115.98 214.848 116.3H206.748C206.815 117.1 207.095 117.727 207.588 118.18C208.081 118.633 208.688 118.86 209.408 118.86C210.448 118.86 211.188 118.413 211.628 117.52H214.648C214.328 118.587 213.715 119.467 212.808 120.16C211.901 120.84 210.788 121.18 209.468 121.18C208.401 121.18 207.441 120.947 206.588 120.48C205.748 120 205.088 119.327 204.608 118.46C204.141 117.593 203.908 116.593 203.908 115.46C203.908 114.313 204.141 113.307 204.608 112.44C205.075 111.573 205.728 110.907 206.568 110.44C207.408 109.973 208.375 109.74 209.468 109.74C210.521 109.74 211.461 109.967 212.288 110.42C213.128 110.873 213.775 111.52 214.228 112.36C214.695 113.187 214.928 114.14 214.928 115.22ZM212.028 114.42C212.015 113.7 211.755 113.127 211.248 112.7C210.741 112.26 210.121 112.04 209.388 112.04C208.695 112.04 208.108 112.253 207.628 112.68C207.161 113.093 206.875 113.673 206.768 114.42H212.028ZM220.032 118.06L217.692 123.68H215.892L217.192 118.06H220.032ZM245.476 107.04L241.576 121H238.276L235.656 111.06L232.916 121L229.636 121.02L225.876 107.04H228.876L231.336 117.88L234.176 107.04H237.296L239.976 117.82L242.456 107.04H245.476ZM257.604 115.22C257.604 115.62 257.577 115.98 257.524 116.3H249.424C249.49 117.1 249.77 117.727 250.264 118.18C250.757 118.633 251.364 118.86 252.084 118.86C253.124 118.86 253.864 118.413 254.304 117.52H257.324C257.004 118.587 256.39 119.467 255.484 120.16C254.577 120.84 253.464 121.18 252.144 121.18C251.077 121.18 250.117 120.947 249.264 120.48C248.424 120 247.764 119.327 247.284 118.46C246.817 117.593 246.584 116.593 246.584 115.46C246.584 114.313 246.817 113.307 247.284 112.44C247.75 111.573 248.404 110.907 249.244 110.44C250.084 109.973 251.05 109.74 252.144 109.74C253.197 109.74 254.137 109.967 254.964 110.42C255.804 110.873 256.45 111.52 256.904 112.36C257.37 113.187 257.604 114.14 257.604 115.22ZM254.704 114.42C254.69 113.7 254.43 113.127 253.924 112.7C253.417 112.26 252.797 112.04 252.064 112.04C251.37 112.04 250.784 112.253 250.304 112.68C249.837 113.093 249.55 113.673 249.444 114.42H254.704ZM263.888 121.18C262.981 121.18 262.168 121.02 261.448 120.7C260.728 120.367 260.154 119.92 259.728 119.36C259.314 118.8 259.088 118.18 259.048 117.5H261.868C261.921 117.927 262.128 118.28 262.488 118.56C262.861 118.84 263.321 118.98 263.868 118.98C264.401 118.98 264.814 118.873 265.108 118.66C265.414 118.447 265.568 118.173 265.568 117.84C265.568 117.48 265.381 117.213 265.008 117.04C264.648 116.853 264.068 116.653 263.268 116.44C262.441 116.24 261.761 116.033 261.228 115.82C260.708 115.607 260.254 115.28 259.868 114.84C259.494 114.4 259.308 113.807 259.308 113.06C259.308 112.447 259.481 111.887 259.828 111.38C260.188 110.873 260.694 110.473 261.348 110.18C262.014 109.887 262.794 109.74 263.688 109.74C265.008 109.74 266.061 110.073 266.848 110.74C267.634 111.393 268.068 112.28 268.148 113.4H265.468C265.428 112.96 265.241 112.613 264.908 112.36C264.588 112.093 264.154 111.96 263.608 111.96C263.101 111.96 262.708 112.053 262.428 112.24C262.161 112.427 262.028 112.687 262.028 113.02C262.028 113.393 262.214 113.68 262.588 113.88C262.961 114.067 263.541 114.26 264.328 114.46C265.128 114.66 265.788 114.867 266.308 115.08C266.828 115.293 267.274 115.627 267.648 116.08C268.034 116.52 268.234 117.107 268.248 117.84C268.248 118.48 268.068 119.053 267.708 119.56C267.361 120.067 266.854 120.467 266.188 120.76C265.534 121.04 264.768 121.18 263.888 121.18ZM273.806 112.22V117.58C273.806 117.953 273.893 118.227 274.066 118.4C274.253 118.56 274.559 118.64 274.986 118.64H276.286V121H274.526C272.166 121 270.986 119.853 270.986 117.56V112.22H269.666V109.92H270.986V107.18H273.806V109.92H276.286V112.22H273.806ZM282.386 114C282.386 112.627 282.692 111.4 283.306 110.32C283.932 109.227 284.779 108.38 285.846 107.78C286.926 107.167 288.132 106.86 289.466 106.86C291.026 106.86 292.392 107.26 293.566 108.06C294.739 108.86 295.559 109.967 296.026 111.38H292.806C292.486 110.713 292.032 110.213 291.446 109.88C290.872 109.547 290.206 109.38 289.446 109.38C288.632 109.38 287.906 109.573 287.266 109.96C286.639 110.333 286.146 110.867 285.786 111.56C285.439 112.253 285.266 113.067 285.266 114C285.266 114.92 285.439 115.733 285.786 116.44C286.146 117.133 286.639 117.673 287.266 118.06C287.906 118.433 288.632 118.62 289.446 118.62C290.206 118.62 290.872 118.453 291.446 118.12C292.032 117.773 292.486 117.267 292.806 116.6H296.026C295.559 118.027 294.739 119.14 293.566 119.94C292.406 120.727 291.039 121.12 289.466 121.12C288.132 121.12 286.926 120.82 285.846 120.22C284.779 119.607 283.932 118.76 283.306 117.68C282.692 116.6 282.386 115.373 282.386 114ZM303.337 121.18C302.27 121.18 301.31 120.947 300.457 120.48C299.604 120 298.93 119.327 298.437 118.46C297.957 117.593 297.717 116.593 297.717 115.46C297.717 114.327 297.964 113.327 298.457 112.46C298.964 111.593 299.65 110.927 300.517 110.46C301.384 109.98 302.35 109.74 303.417 109.74C304.484 109.74 305.45 109.98 306.317 110.46C307.184 110.927 307.864 111.593 308.357 112.46C308.864 113.327 309.117 114.327 309.117 115.46C309.117 116.593 308.857 117.593 308.337 118.46C307.83 119.327 307.137 120 306.257 120.48C305.39 120.947 304.417 121.18 303.337 121.18ZM303.337 118.74C303.844 118.74 304.317 118.62 304.757 118.38C305.21 118.127 305.57 117.753 305.837 117.26C306.104 116.767 306.237 116.167 306.237 115.46C306.237 114.407 305.957 113.6 305.397 113.04C304.85 112.467 304.177 112.18 303.377 112.18C302.577 112.18 301.904 112.467 301.357 113.04C300.824 113.6 300.557 114.407 300.557 115.46C300.557 116.513 300.817 117.327 301.337 117.9C301.87 118.46 302.537 118.74 303.337 118.74ZM315.791 118.42L318.591 109.92H321.571L317.471 121H314.071L309.991 109.92H312.991L315.791 118.42ZM324.564 108.6C324.07 108.6 323.657 108.447 323.324 108.14C323.004 107.82 322.844 107.427 322.844 106.96C322.844 106.493 323.004 106.107 323.324 105.8C323.657 105.48 324.07 105.32 324.564 105.32C325.057 105.32 325.464 105.48 325.784 105.8C326.117 106.107 326.284 106.493 326.284 106.96C326.284 107.427 326.117 107.82 325.784 108.14C325.464 108.447 325.057 108.6 324.564 108.6ZM325.944 109.92V121H323.144V109.92H325.944ZM334.85 109.76C336.17 109.76 337.237 110.18 338.05 111.02C338.863 111.847 339.27 113.007 339.27 114.5V121H336.47V114.88C336.47 114 336.25 113.327 335.81 112.86C335.37 112.38 334.77 112.14 334.01 112.14C333.237 112.14 332.623 112.38 332.17 112.86C331.73 113.327 331.51 114 331.51 114.88V121H328.71V109.92H331.51V111.3C331.883 110.82 332.357 110.447 332.93 110.18C333.517 109.9 334.157 109.76 334.85 109.76ZM341.213 115.42C341.213 114.3 341.433 113.307 341.873 112.44C342.326 111.573 342.933 110.907 343.693 110.44C344.466 109.973 345.326 109.74 346.273 109.74C347.099 109.74 347.819 109.907 348.433 110.24C349.059 110.573 349.559 110.993 349.933 111.5V109.92H352.753V121H349.933V119.38C349.573 119.9 349.073 120.333 348.433 120.68C347.806 121.013 347.079 121.18 346.253 121.18C345.319 121.18 344.466 120.94 343.693 120.46C342.933 119.98 342.326 119.307 341.873 118.44C341.433 117.56 341.213 116.553 341.213 115.42ZM349.933 115.46C349.933 114.78 349.799 114.2 349.533 113.72C349.266 113.227 348.906 112.853 348.453 112.6C347.999 112.333 347.513 112.2 346.993 112.2C346.473 112.2 345.993 112.327 345.553 112.58C345.113 112.833 344.753 113.207 344.473 113.7C344.206 114.18 344.073 114.753 344.073 115.42C344.073 116.087 344.206 116.673 344.473 117.18C344.753 117.673 345.113 118.053 345.553 118.32C346.006 118.587 346.486 118.72 346.993 118.72C347.513 118.72 347.999 118.593 348.453 118.34C348.906 118.073 349.266 117.7 349.533 117.22C349.799 116.727 349.933 116.14 349.933 115.46ZM358.547 118.06L356.207 123.68H354.407L355.707 118.06H358.547ZM364.651 114C364.651 112.627 364.958 111.4 365.571 110.32C366.198 109.227 367.045 108.38 368.111 107.78C369.191 107.167 370.398 106.86 371.731 106.86C373.291 106.86 374.658 107.26 375.831 108.06C377.005 108.86 377.825 109.967 378.291 111.38H375.071C374.751 110.713 374.298 110.213 373.711 109.88C373.138 109.547 372.471 109.38 371.711 109.38C370.898 109.38 370.171 109.573 369.531 109.96C368.905 110.333 368.411 110.867 368.051 111.56C367.705 112.253 367.531 113.067 367.531 114C367.531 114.92 367.705 115.733 368.051 116.44C368.411 117.133 368.905 117.673 369.531 118.06C370.171 118.433 370.898 118.62 371.711 118.62C372.471 118.62 373.138 118.453 373.711 118.12C374.298 117.773 374.751 117.267 375.071 116.6H378.291C377.825 118.027 377.005 119.14 375.831 119.94C374.671 120.727 373.305 121.12 371.731 121.12C370.398 121.12 369.191 120.82 368.111 120.22C367.045 119.607 366.198 118.76 365.571 117.68C364.958 116.6 364.651 115.373 364.651 114ZM389.243 118.34H383.683L382.763 121H379.823L384.843 107.02H388.103L393.123 121H390.163L389.243 118.34ZM388.483 116.1L386.463 110.26L384.443 116.1H388.483ZM402.685 116.9C402.791 117.487 403.031 117.94 403.405 118.26C403.791 118.567 404.305 118.72 404.945 118.72C405.771 118.72 406.371 118.38 406.745 117.7C407.118 117.007 407.305 115.847 407.305 114.22C406.998 114.647 406.565 114.98 406.005 115.22C405.458 115.46 404.865 115.58 404.225 115.58C403.371 115.58 402.598 115.407 401.905 115.06C401.225 114.7 400.685 114.173 400.285 113.48C399.885 112.773 399.685 111.92 399.685 110.92C399.685 109.44 400.125 108.267 401.005 107.4C401.885 106.52 403.085 106.08 404.605 106.08C406.498 106.08 407.831 106.687 408.605 107.9C409.391 109.113 409.785 110.94 409.785 113.38C409.785 115.113 409.631 116.533 409.325 117.64C409.031 118.747 408.518 119.587 407.785 120.16C407.065 120.733 406.078 121.02 404.825 121.02C403.838 121.02 402.998 120.833 402.305 120.46C401.611 120.073 401.078 119.573 400.705 118.96C400.345 118.333 400.138 117.647 400.085 116.9H402.685ZM404.805 113.3C405.498 113.3 406.045 113.087 406.445 112.66C406.845 112.233 407.045 111.66 407.045 110.94C407.045 110.153 406.831 109.547 406.405 109.12C405.991 108.68 405.425 108.46 404.705 108.46C403.985 108.46 403.411 108.687 402.985 109.14C402.571 109.58 402.365 110.167 402.365 110.9C402.365 111.607 402.565 112.187 402.965 112.64C403.378 113.08 403.991 113.3 404.805 113.3ZM411.624 109V106.42H416.444V121H413.564V109H411.624ZM428.49 108.54L423.17 121H420.33L425.69 108.86H418.85V106.46H428.49V108.54ZM433.407 116.9C433.514 117.487 433.754 117.94 434.127 118.26C434.514 118.567 435.027 118.72 435.667 118.72C436.494 118.72 437.094 118.38 437.467 117.7C437.841 117.007 438.027 115.847 438.027 114.22C437.721 114.647 437.287 114.98 436.727 115.22C436.181 115.46 435.587 115.58 434.947 115.58C434.094 115.58 433.321 115.407 432.627 115.06C431.947 114.7 431.407 114.173 431.007 113.48C430.607 112.773 430.407 111.92 430.407 110.92C430.407 109.44 430.847 108.267 431.727 107.4C432.607 106.52 433.807 106.08 435.327 106.08C437.221 106.08 438.554 106.687 439.327 107.9C440.114 109.113 440.507 110.94 440.507 113.38C440.507 115.113 440.354 116.533 440.047 117.64C439.754 118.747 439.241 119.587 438.507 120.16C437.787 120.733 436.801 121.02 435.547 121.02C434.561 121.02 433.721 120.833 433.027 120.46C432.334 120.073 431.801 119.573 431.427 118.96C431.067 118.333 430.861 117.647 430.807 116.9H433.407ZM435.527 113.3C436.221 113.3 436.767 113.087 437.167 112.66C437.567 112.233 437.767 111.66 437.767 110.94C437.767 110.153 437.554 109.547 437.127 109.12C436.714 108.68 436.147 108.46 435.427 108.46C434.707 108.46 434.134 108.687 433.707 109.14C433.294 109.58 433.087 110.167 433.087 110.9C433.087 111.607 433.287 112.187 433.687 112.64C434.101 113.08 434.714 113.3 435.527 113.3ZM442.687 113.52C442.687 111.213 443.1 109.407 443.927 108.1C444.767 106.793 446.154 106.14 448.087 106.14C450.02 106.14 451.4 106.793 452.227 108.1C453.067 109.407 453.487 111.213 453.487 113.52C453.487 115.84 453.067 117.66 452.227 118.98C451.4 120.3 450.02 120.96 448.087 120.96C446.154 120.96 444.767 120.3 443.927 118.98C443.1 117.66 442.687 115.84 442.687 113.52ZM450.727 113.52C450.727 112.533 450.66 111.707 450.527 111.04C450.407 110.36 450.154 109.807 449.767 109.38C449.394 108.953 448.834 108.74 448.087 108.74C447.34 108.74 446.774 108.953 446.387 109.38C446.014 109.807 445.76 110.36 445.627 111.04C445.507 111.707 445.447 112.533 445.447 113.52C445.447 114.533 445.507 115.387 445.627 116.08C445.747 116.76 446 117.313 446.387 117.74C446.774 118.153 447.34 118.36 448.087 118.36C448.834 118.36 449.4 118.153 449.787 117.74C450.174 117.313 450.427 116.76 450.547 116.08C450.667 115.387 450.727 114.533 450.727 113.52ZM458.997 118.06L456.657 123.68H454.857L456.157 118.06H458.997ZM468.54 107.04V115.68C468.54 116.627 468.787 117.353 469.28 117.86C469.774 118.353 470.467 118.6 471.36 118.6C472.267 118.6 472.967 118.353 473.46 117.86C473.954 117.353 474.2 116.627 474.2 115.68V107.04H477.02V115.66C477.02 116.847 476.76 117.853 476.24 118.68C475.734 119.493 475.047 120.107 474.18 120.52C473.327 120.933 472.374 121.14 471.32 121.14C470.28 121.14 469.334 120.933 468.48 120.52C467.64 120.107 466.974 119.493 466.48 118.68C465.987 117.853 465.74 116.847 465.74 115.66V107.04H468.54ZM484.546 121.14C483.572 121.14 482.692 120.973 481.906 120.64C481.132 120.307 480.519 119.827 480.066 119.2C479.612 118.573 479.379 117.833 479.366 116.98H482.366C482.406 117.553 482.606 118.007 482.966 118.34C483.339 118.673 483.846 118.84 484.486 118.84C485.139 118.84 485.652 118.687 486.026 118.38C486.399 118.06 486.586 117.647 486.586 117.14C486.586 116.727 486.459 116.387 486.206 116.12C485.952 115.853 485.632 115.647 485.246 115.5C484.872 115.34 484.352 115.167 483.686 114.98C482.779 114.713 482.039 114.453 481.466 114.2C480.906 113.933 480.419 113.54 480.006 113.02C479.606 112.487 479.406 111.78 479.406 110.9C479.406 110.073 479.612 109.353 480.026 108.74C480.439 108.127 481.019 107.66 481.766 107.34C482.512 107.007 483.366 106.84 484.326 106.84C485.766 106.84 486.932 107.193 487.826 107.9C488.732 108.593 489.232 109.567 489.326 110.82H486.246C486.219 110.34 486.012 109.947 485.626 109.64C485.252 109.32 484.752 109.16 484.126 109.16C483.579 109.16 483.139 109.3 482.806 109.58C482.486 109.86 482.326 110.267 482.326 110.8C482.326 111.173 482.446 111.487 482.686 111.74C482.939 111.98 483.246 112.18 483.606 112.34C483.979 112.487 484.499 112.66 485.166 112.86C486.072 113.127 486.812 113.393 487.386 113.66C487.959 113.927 488.452 114.327 488.866 114.86C489.279 115.393 489.486 116.093 489.486 116.96C489.486 117.707 489.292 118.4 488.906 119.04C488.519 119.68 487.952 120.193 487.206 120.58C486.459 120.953 485.572 121.14 484.546 121.14ZM500.473 118.34H494.913L493.993 121H491.053L496.073 107.02H499.333L504.353 121H501.393L500.473 118.34ZM499.713 116.1L497.693 110.26L495.673 116.1H499.713Z" fill="#3783F5"/>
<path d="M48.1504 123H504.853V124H48.1504V123Z" fill="#3783F5"/>
<a href="https://910 S Sunset Ave, West Covina, CA 91790, USA">
<rect fill="black" fill-opacity="0" x="0.150391" y="-1" width="456.703" height="30"/>
</a>
<g clip-path="url(#clip1_2209_1452)">
<path d="M26.54 154C26.6 154.89 26.75 155.76 26.99 156.59L25.79 157.79C25.38 156.59 25.12 155.32 25.03 154H26.54ZM36.4 166.02C37.25 166.26 38.12 166.41 39 166.47V167.96C37.68 167.87 36.41 167.61 35.2 167.21L36.4 166.02ZM27.5 152H24C23.45 152 23 152.45 23 153C23 162.39 30.61 170 40 170C40.55 170 41 169.55 41 169V165.51C41 164.96 40.55 164.51 40 164.51C38.76 164.51 37.55 164.31 36.43 163.94C36.33 163.9 36.22 163.89 36.12 163.89C35.86 163.89 35.61 163.99 35.41 164.18L33.21 166.38C30.38 164.93 28.06 162.62 26.62 159.79L28.82 157.59C29.1 157.31 29.18 156.92 29.07 156.57C28.7 155.45 28.5 154.25 28.5 153C28.5 152.45 28.05 152 27.5 152Z" fill="#323232"/>
</g>
<path d="M59.84 160.1H56.06V163.98H53.42V160.1H49.64V157.66H53.42V153.78H56.06V157.66H59.84V160.1ZM62.1966 154V151.42H67.0166V166H64.1366V154H62.1966ZM82.1083 155.06C81.9749 154.5 81.7416 154.08 81.4083 153.8C81.0883 153.52 80.6216 153.38 80.0083 153.38C79.0883 153.38 78.4083 153.753 77.9683 154.5C77.5416 155.233 77.3216 156.433 77.3083 158.1C77.6283 157.567 78.0949 157.153 78.7083 156.86C79.3216 156.553 79.9883 156.4 80.7083 156.4C81.5749 156.4 82.3416 156.587 83.0083 156.96C83.6749 157.333 84.1949 157.88 84.5683 158.6C84.9416 159.307 85.1283 160.16 85.1283 161.16C85.1283 162.107 84.9349 162.953 84.5483 163.7C84.1749 164.433 83.6216 165.007 82.8883 165.42C82.1549 165.833 81.2816 166.04 80.2683 166.04C78.8816 166.04 77.7883 165.733 76.9883 165.12C76.2016 164.507 75.6483 163.653 75.3283 162.56C75.0216 161.453 74.8683 160.093 74.8683 158.48C74.8683 156.04 75.2883 154.2 76.1283 152.96C76.9683 151.707 78.2949 151.08 80.1083 151.08C81.5083 151.08 82.5949 151.46 83.3683 152.22C84.1416 152.98 84.5883 153.927 84.7083 155.06H82.1083ZM80.0683 158.7C79.3616 158.7 78.7683 158.907 78.2883 159.32C77.8083 159.733 77.5683 160.333 77.5683 161.12C77.5683 161.907 77.7883 162.527 78.2283 162.98C78.6816 163.433 79.3149 163.66 80.1283 163.66C80.8483 163.66 81.4149 163.44 81.8283 163C82.2549 162.56 82.4683 161.967 82.4683 161.22C82.4683 160.447 82.2616 159.833 81.8483 159.38C81.4483 158.927 80.8549 158.7 80.0683 158.7ZM88.2213 162.84C89.5013 161.773 90.5213 160.887 91.2812 160.18C92.0413 159.46 92.6746 158.713 93.1813 157.94C93.6879 157.167 93.9413 156.407 93.9413 155.66C93.9413 154.98 93.7813 154.447 93.4613 154.06C93.1413 153.673 92.6479 153.48 91.9813 153.48C91.3146 153.48 90.8013 153.707 90.4413 154.16C90.0813 154.6 89.8946 155.207 89.8813 155.98H87.1613C87.2146 154.38 87.6879 153.167 88.5813 152.34C89.4879 151.513 90.6346 151.1 92.0213 151.1C93.5413 151.1 94.7079 151.507 95.5213 152.32C96.3346 153.12 96.7413 154.18 96.7413 155.5C96.7413 156.54 96.4613 157.533 95.9013 158.48C95.3413 159.427 94.7013 160.253 93.9813 160.96C93.2613 161.653 92.3213 162.493 91.1613 163.48H97.0613V165.8H87.1813V163.72L88.2213 162.84ZM106.386 155.06C106.252 154.5 106.019 154.08 105.686 153.8C105.366 153.52 104.899 153.38 104.286 153.38C103.366 153.38 102.686 153.753 102.246 154.5C101.819 155.233 101.599 156.433 101.586 158.1C101.906 157.567 102.372 157.153 102.986 156.86C103.599 156.553 104.266 156.4 104.986 156.4C105.852 156.4 106.619 156.587 107.286 156.96C107.952 157.333 108.472 157.88 108.846 158.6C109.219 159.307 109.406 160.16 109.406 161.16C109.406 162.107 109.212 162.953 108.826 163.7C108.452 164.433 107.899 165.007 107.166 165.42C106.432 165.833 105.559 166.04 104.546 166.04C103.159 166.04 102.066 165.733 101.266 165.12C100.479 164.507 99.9256 163.653 99.6056 162.56C99.299 161.453 99.1456 160.093 99.1456 158.48C99.1456 156.04 99.5656 154.2 100.406 152.96C101.246 151.707 102.572 151.08 104.386 151.08C105.786 151.08 106.872 151.46 107.646 152.22C108.419 152.98 108.866 153.927 108.986 155.06H106.386ZM104.346 158.7C103.639 158.7 103.046 158.907 102.566 159.32C102.086 159.733 101.846 160.333 101.846 161.12C101.846 161.907 102.066 162.527 102.506 162.98C102.959 163.433 103.592 163.66 104.406 163.66C105.126 163.66 105.692 163.44 106.106 163C106.532 162.56 106.746 161.967 106.746 161.22C106.746 160.447 106.539 159.833 106.126 159.38C105.726 158.927 105.132 158.7 104.346 158.7ZM125.664 153.54L120.344 166H117.504L122.864 153.86H116.024V151.46H125.664V153.54ZM129.781 158.28C128.448 157.587 127.781 156.513 127.781 155.06C127.781 154.34 127.961 153.687 128.321 153.1C128.695 152.5 129.248 152.027 129.981 151.68C130.728 151.32 131.635 151.14 132.701 151.14C133.768 151.14 134.668 151.32 135.401 151.68C136.148 152.027 136.701 152.5 137.061 153.1C137.435 153.687 137.621 154.34 137.621 155.06C137.621 155.793 137.441 156.44 137.081 157C136.721 157.547 136.241 157.973 135.641 158.28C136.375 158.6 136.948 159.067 137.361 159.68C137.775 160.293 137.981 161.02 137.981 161.86C137.981 162.767 137.748 163.56 137.281 164.24C136.828 164.907 136.201 165.42 135.401 165.78C134.601 166.14 133.701 166.32 132.701 166.32C131.701 166.32 130.801 166.14 130.001 165.78C129.215 165.42 128.588 164.907 128.121 164.24C127.668 163.56 127.441 162.767 127.441 161.86C127.441 161.02 127.648 160.293 128.061 159.68C128.475 159.053 129.048 158.587 129.781 158.28ZM134.901 155.46C134.901 154.807 134.701 154.3 134.301 153.94C133.915 153.58 133.381 153.4 132.701 153.4C132.035 153.4 131.501 153.58 131.101 153.94C130.715 154.3 130.521 154.813 130.521 155.48C130.521 156.08 130.721 156.56 131.121 156.92C131.535 157.28 132.061 157.46 132.701 157.46C133.341 157.46 133.868 157.28 134.281 156.92C134.695 156.547 134.901 156.06 134.901 155.46ZM132.701 159.5C131.941 159.5 131.321 159.693 130.841 160.08C130.375 160.467 130.141 161.02 130.141 161.74C130.141 162.407 130.368 162.953 130.821 163.38C131.288 163.793 131.915 164 132.701 164C133.488 164 134.108 163.787 134.561 163.36C135.015 162.933 135.241 162.393 135.241 161.74C135.241 161.033 135.008 160.487 134.541 160.1C134.075 159.7 133.461 159.5 132.701 159.5ZM142.633 158.28C141.299 157.587 140.633 156.513 140.633 155.06C140.633 154.34 140.813 153.687 141.173 153.1C141.546 152.5 142.099 152.027 142.833 151.68C143.579 151.32 144.486 151.14 145.553 151.14C146.619 151.14 147.519 151.32 148.253 151.68C148.999 152.027 149.553 152.5 149.913 153.1C150.286 153.687 150.473 154.34 150.473 155.06C150.473 155.793 150.293 156.44 149.933 157C149.573 157.547 149.093 157.973 148.493 158.28C149.226 158.6 149.799 159.067 150.213 159.68C150.626 160.293 150.833 161.02 150.833 161.86C150.833 162.767 150.599 163.56 150.133 164.24C149.679 164.907 149.053 165.42 148.253 165.78C147.453 166.14 146.553 166.32 145.553 166.32C144.553 166.32 143.653 166.14 142.853 165.78C142.066 165.42 141.439 164.907 140.973 164.24C140.519 163.56 140.293 162.767 140.293 161.86C140.293 161.02 140.499 160.293 140.913 159.68C141.326 159.053 141.899 158.587 142.633 158.28ZM147.753 155.46C147.753 154.807 147.553 154.3 147.153 153.94C146.766 153.58 146.233 153.4 145.553 153.4C144.886 153.4 144.353 153.58 143.953 153.94C143.566 154.3 143.373 154.813 143.373 155.48C143.373 156.08 143.573 156.56 143.973 156.92C144.386 157.28 144.913 157.46 145.553 157.46C146.193 157.46 146.719 157.28 147.133 156.92C147.546 156.547 147.753 156.06 147.753 155.46ZM145.553 159.5C144.793 159.5 144.173 159.693 143.693 160.08C143.226 160.467 142.993 161.02 142.993 161.74C142.993 162.407 143.219 162.953 143.673 163.38C144.139 163.793 144.766 164 145.553 164C146.339 164 146.959 163.787 147.413 163.36C147.866 162.933 148.093 162.393 148.093 161.74C148.093 161.033 147.859 160.487 147.393 160.1C146.926 159.7 146.313 159.5 145.553 159.5ZM157.47 154V151.42H162.29V166H159.41V154H157.47ZM165.936 162.84C167.216 161.773 168.236 160.887 168.996 160.18C169.756 159.46 170.389 158.713 170.896 157.94C171.403 157.167 171.656 156.407 171.656 155.66C171.656 154.98 171.496 154.447 171.176 154.06C170.856 153.673 170.363 153.48 169.696 153.48C169.029 153.48 168.516 153.707 168.156 154.16C167.796 154.6 167.609 155.207 167.596 155.98H164.876C164.929 154.38 165.403 153.167 166.296 152.34C167.203 151.513 168.349 151.1 169.736 151.1C171.256 151.1 172.423 151.507 173.236 152.32C174.049 153.12 174.456 154.18 174.456 155.5C174.456 156.54 174.176 157.533 173.616 158.48C173.056 159.427 172.416 160.253 171.696 160.96C170.976 161.653 170.036 162.493 168.876 163.48H174.776V165.8H164.896V163.72L165.936 162.84ZM177.42 162.84C178.7 161.773 179.72 160.887 180.48 160.18C181.24 159.46 181.874 158.713 182.38 157.94C182.887 157.167 183.14 156.407 183.14 155.66C183.14 154.98 182.98 154.447 182.66 154.06C182.34 153.673 181.847 153.48 181.18 153.48C180.514 153.48 180 153.707 179.64 154.16C179.28 154.6 179.094 155.207 179.08 155.98H176.36C176.414 154.38 176.887 153.167 177.78 152.34C178.687 151.513 179.834 151.1 181.22 151.1C182.74 151.1 183.907 151.507 184.72 152.32C185.534 153.12 185.94 154.18 185.94 155.5C185.94 156.54 185.66 157.533 185.1 158.48C184.54 159.427 183.9 160.253 183.18 160.96C182.46 161.653 181.52 162.493 180.36 163.48H186.26V165.8H176.38V163.72L177.42 162.84ZM188.065 155.26C188.132 153.927 188.598 152.9 189.465 152.18C190.345 151.447 191.498 151.08 192.925 151.08C193.898 151.08 194.732 151.253 195.425 151.6C196.118 151.933 196.638 152.393 196.985 152.98C197.345 153.553 197.525 154.207 197.525 154.94C197.525 155.78 197.305 156.493 196.865 157.08C196.438 157.653 195.925 158.04 195.325 158.24V158.32C196.098 158.56 196.698 158.987 197.125 159.6C197.565 160.213 197.785 161 197.785 161.96C197.785 162.76 197.598 163.473 197.225 164.1C196.865 164.727 196.325 165.22 195.605 165.58C194.898 165.927 194.045 166.1 193.045 166.1C191.538 166.1 190.312 165.72 189.365 164.96C188.418 164.2 187.918 163.08 187.865 161.6H190.585C190.612 162.253 190.832 162.78 191.245 163.18C191.672 163.567 192.252 163.76 192.985 163.76C193.665 163.76 194.185 163.573 194.545 163.2C194.918 162.813 195.105 162.32 195.105 161.72C195.105 160.92 194.852 160.347 194.345 160C193.838 159.653 193.052 159.48 191.985 159.48H191.405V157.18H191.985C193.878 157.18 194.825 156.547 194.825 155.28C194.825 154.707 194.652 154.26 194.305 153.94C193.972 153.62 193.485 153.46 192.845 153.46C192.218 153.46 191.732 153.633 191.385 153.98C191.052 154.313 190.858 154.74 190.805 155.26H188.065Z" fill="black"/>
<a href="tel:+16267366373">
<rect fill="black" fill-opacity="0" y="-1" width="150.945" height="30"/>
</a>
<g clip-path="url(#clip2_2209_1452)">
<path d="M32 195.95C26.48 195.95 22 200.43 22 205.95C22 211.47 26.48 215.95 32 215.95H37V213.95H32C27.66 213.95 24 210.29 24 205.95C24 201.61 27.66 197.95 32 197.95C36.34 197.95 40 201.61 40 205.95V207.38C40 208.17 39.29 208.95 38.5 208.95C37.71 208.95 37 208.17 37 207.38V205.95C37 203.19 34.76 200.95 32 200.95C29.24 200.95 27 203.19 27 205.95C27 208.71 29.24 210.95 32 210.95C33.38 210.95 34.64 210.39 35.54 209.48C36.19 210.37 37.31 210.95 38.5 210.95C40.47 210.95 42 209.35 42 207.38V205.95C42 200.43 37.52 195.95 32 195.95ZM32 208.95C30.34 208.95 29 207.61 29 205.95C29 204.29 30.34 202.95 32 202.95C33.66 202.95 35 204.29 35 205.95C35 207.61 33.66 208.95 32 208.95Z" fill="#323232"/>
</g>
<path d="M50.8 198.6C50.3067 198.6 49.8933 198.447 49.56 198.14C49.24 197.82 49.08 197.427 49.08 196.96C49.08 196.493 49.24 196.107 49.56 195.8C49.8933 195.48 50.3067 195.32 50.8 195.32C51.2933 195.32 51.7 195.48 52.02 195.8C52.3533 196.107 52.52 196.493 52.52 196.96C52.52 197.427 52.3533 197.82 52.02 198.14C51.7 198.447 51.2933 198.6 50.8 198.6ZM52.18 199.92V211H49.38V199.92H52.18ZM61.0864 199.76C62.4064 199.76 63.4731 200.18 64.2864 201.02C65.0997 201.847 65.5064 203.007 65.5064 204.5V211H62.7064V204.88C62.7064 204 62.4864 203.327 62.0464 202.86C61.6064 202.38 61.0064 202.14 60.2464 202.14C59.4731 202.14 58.8597 202.38 58.4064 202.86C57.9664 203.327 57.7464 204 57.7464 204.88V211H54.9464V199.92H57.7464V201.3C58.1197 200.82 58.5931 200.447 59.1664 200.18C59.7531 199.9 60.3931 199.76 61.0864 199.76ZM73.2491 202.22H71.3091V211H68.4691V202.22H67.2091V199.92H68.4691V199.36C68.4691 198 68.8557 197 69.6291 196.36C70.4024 195.72 71.5691 195.42 73.1291 195.46V197.82C72.4491 197.807 71.9757 197.92 71.7091 198.16C71.4424 198.4 71.3091 198.833 71.3091 199.46V199.92H73.2491V202.22ZM79.9836 211.18C78.9169 211.18 77.9569 210.947 77.1036 210.48C76.2503 210 75.5769 209.327 75.0836 208.46C74.6036 207.593 74.3636 206.593 74.3636 205.46C74.3636 204.327 74.6103 203.327 75.1036 202.46C75.6103 201.593 76.2969 200.927 77.1636 200.46C78.0303 199.98 78.9969 199.74 80.0636 199.74C81.1303 199.74 82.0969 199.98 82.9636 200.46C83.8303 200.927 84.5103 201.593 85.0036 202.46C85.5103 203.327 85.7636 204.327 85.7636 205.46C85.7636 206.593 85.5036 207.593 84.9836 208.46C84.4769 209.327 83.7836 210 82.9036 210.48C82.0369 210.947 81.0636 211.18 79.9836 211.18ZM79.9836 208.74C80.4903 208.74 80.9636 208.62 81.4036 208.38C81.8569 208.127 82.2169 207.753 82.4836 207.26C82.7503 206.767 82.8836 206.167 82.8836 205.46C82.8836 204.407 82.6036 203.6 82.0436 203.04C81.4969 202.467 80.8236 202.18 80.0236 202.18C79.2236 202.18 78.5503 202.467 78.0036 203.04C77.4703 203.6 77.2036 204.407 77.2036 205.46C77.2036 206.513 77.4636 207.327 77.9836 207.9C78.5169 208.46 79.1836 208.74 79.9836 208.74ZM98.4775 197.88C100.024 197.88 101.364 198.167 102.498 198.74C103.631 199.313 104.498 200.12 105.098 201.16C105.711 202.2 106.018 203.4 106.018 204.76C106.018 205.853 105.824 206.887 105.438 207.86C105.064 208.833 104.518 209.62 103.798 210.22C103.078 210.82 102.224 211.12 101.238 211.12C100.544 211.12 99.9842 210.98 99.5575 210.7C99.1308 210.407 98.8575 209.993 98.7375 209.46C98.3508 209.98 97.8508 210.393 97.2375 210.7C96.6242 210.993 95.9775 211.14 95.2975 211.14C94.2842 211.14 93.4908 210.84 92.9175 210.24C92.3442 209.627 92.0575 208.793 92.0575 207.74C92.0575 206.74 92.2642 205.807 92.6775 204.94C93.0908 204.073 93.6642 203.38 94.3975 202.86C95.1308 202.327 95.9575 202.06 96.8775 202.06C98.0242 202.06 98.8108 202.46 99.2375 203.26L99.4175 202.22H101.758L100.818 207.62C100.778 207.873 100.758 208.107 100.758 208.32C100.758 208.64 100.824 208.88 100.958 209.04C101.091 209.2 101.318 209.28 101.638 209.28C102.118 209.28 102.518 209.053 102.838 208.6C103.171 208.147 103.418 207.58 103.578 206.9C103.751 206.22 103.838 205.54 103.838 204.86C103.838 203.247 103.344 202 102.358 201.12C101.371 200.227 99.9775 199.78 98.1775 199.78C96.6442 199.78 95.2575 200.153 94.0175 200.9C92.7775 201.633 91.8042 202.64 91.0975 203.92C90.4042 205.187 90.0575 206.6 90.0575 208.16C90.0575 209.813 90.5442 211.087 91.5175 211.98C92.5042 212.873 93.8975 213.32 95.6975 213.32C96.9908 213.32 98.1308 213.087 99.1175 212.62L99.5175 214.46C98.2508 214.993 96.8442 215.26 95.2975 215.26C93.8042 215.26 92.4975 214.973 91.3775 214.4C90.2575 213.84 89.3908 213.04 88.7775 212C88.1642 210.96 87.8575 209.753 87.8575 208.38C87.8575 206.42 88.3108 204.64 89.2175 203.04C90.1375 201.44 91.4042 200.18 93.0175 199.26C94.6442 198.34 96.4642 197.88 98.4775 197.88ZM96.1775 209.06C96.6575 209.06 97.0975 208.92 97.4975 208.64C97.8975 208.36 98.2108 207.987 98.4375 207.52C98.6775 207.053 98.7975 206.553 98.7975 206.02C98.7975 205.46 98.6442 205.007 98.3375 204.66C98.0308 204.313 97.6042 204.14 97.0575 204.14C96.5642 204.14 96.1308 204.293 95.7575 204.6C95.3842 204.893 95.0908 205.28 94.8775 205.76C94.6775 206.24 94.5775 206.747 94.5775 207.28C94.5775 207.827 94.7108 208.26 94.9775 208.58C95.2442 208.9 95.6442 209.06 96.1775 209.06ZM119.133 205.22C119.133 205.62 119.106 205.98 119.053 206.3H110.953C111.02 207.1 111.3 207.727 111.793 208.18C112.286 208.633 112.893 208.86 113.613 208.86C114.653 208.86 115.393 208.413 115.833 207.52H118.853C118.533 208.587 117.92 209.467 117.013 210.16C116.106 210.84 114.993 211.18 113.673 211.18C112.606 211.18 111.646 210.947 110.793 210.48C109.953 210 109.293 209.327 108.813 208.46C108.346 207.593 108.113 206.593 108.113 205.46C108.113 204.313 108.346 203.307 108.813 202.44C109.28 201.573 109.933 200.907 110.773 200.44C111.613 199.973 112.58 199.74 113.673 199.74C114.726 199.74 115.666 199.967 116.493 200.42C117.333 200.873 117.98 201.52 118.433 202.36C118.9 203.187 119.133 204.14 119.133 205.22ZM116.233 204.42C116.22 203.7 115.96 203.127 115.453 202.7C114.946 202.26 114.326 202.04 113.593 202.04C112.9 202.04 112.313 202.253 111.833 202.68C111.366 203.093 111.08 203.673 110.973 204.42H116.233ZM123.977 196.2V211H121.177V196.2H123.977ZM128.163 198.6C127.67 198.6 127.257 198.447 126.923 198.14C126.603 197.82 126.443 197.427 126.443 196.96C126.443 196.493 126.603 196.107 126.923 195.8C127.257 195.48 127.67 195.32 128.163 195.32C128.657 195.32 129.063 195.48 129.383 195.8C129.717 196.107 129.883 196.493 129.883 196.96C129.883 197.427 129.717 197.82 129.383 198.14C129.063 198.447 128.657 198.6 128.163 198.6ZM129.543 199.92V211H126.743V199.92H129.543ZM137.39 202.22H135.45V211H132.61V202.22H131.35V199.92H132.61V199.36C132.61 198 132.996 197 133.77 196.36C134.543 195.72 135.71 195.42 137.27 195.46V197.82C136.59 197.807 136.116 197.92 135.85 198.16C135.583 198.4 135.45 198.833 135.45 199.46V199.92H137.39V202.22ZM149.504 205.22C149.504 205.62 149.478 205.98 149.424 206.3H141.324C141.391 207.1 141.671 207.727 142.164 208.18C142.658 208.633 143.264 208.86 143.984 208.86C145.024 208.86 145.764 208.413 146.204 207.52H149.224C148.904 208.587 148.291 209.467 147.384 210.16C146.478 210.84 145.364 211.18 144.044 211.18C142.978 211.18 142.018 210.947 141.164 210.48C140.324 210 139.664 209.327 139.184 208.46C138.718 207.593 138.484 206.593 138.484 205.46C138.484 204.313 138.718 203.307 139.184 202.44C139.651 201.573 140.304 200.907 141.144 200.44C141.984 199.973 142.951 199.74 144.044 199.74C145.098 199.74 146.038 199.967 146.864 200.42C147.704 200.873 148.351 201.52 148.804 202.36C149.271 203.187 149.504 204.14 149.504 205.22ZM146.604 204.42C146.591 203.7 146.331 203.127 145.824 202.7C145.318 202.26 144.698 202.04 143.964 202.04C143.271 202.04 142.684 202.253 142.204 202.68C141.738 203.093 141.451 203.673 141.344 204.42H146.604ZM150.828 205.42C150.828 204.3 151.048 203.307 151.488 202.44C151.941 201.573 152.548 200.907 153.308 200.44C154.081 199.973 154.941 199.74 155.888 199.74C156.715 199.74 157.435 199.907 158.048 200.24C158.675 200.573 159.175 200.993 159.548 201.5V199.92H162.368V211H159.548V209.38C159.188 209.9 158.688 210.333 158.048 210.68C157.421 211.013 156.695 211.18 155.868 211.18C154.935 211.18 154.081 210.94 153.308 210.46C152.548 209.98 151.941 209.307 151.488 208.44C151.048 207.56 150.828 206.553 150.828 205.42ZM159.548 205.46C159.548 204.78 159.415 204.2 159.148 203.72C158.881 203.227 158.521 202.853 158.068 202.6C157.615 202.333 157.128 202.2 156.608 202.2C156.088 202.2 155.608 202.327 155.168 202.58C154.728 202.833 154.368 203.207 154.088 203.7C153.821 204.18 153.688 204.753 153.688 205.42C153.688 206.087 153.821 206.673 154.088 207.18C154.368 207.673 154.728 208.053 155.168 208.32C155.621 208.587 156.101 208.72 156.608 208.72C157.128 208.72 157.615 208.593 158.068 208.34C158.521 208.073 158.881 207.7 159.148 207.22C159.415 206.727 159.548 206.14 159.548 205.46ZM178.863 199.76C180.223 199.76 181.316 200.18 182.143 201.02C182.983 201.847 183.403 203.007 183.403 204.5V211H180.603V204.88C180.603 204.013 180.383 203.353 179.943 202.9C179.503 202.433 178.903 202.2 178.143 202.2C177.383 202.2 176.776 202.433 176.323 202.9C175.883 203.353 175.663 204.013 175.663 204.88V211H172.863V204.88C172.863 204.013 172.643 203.353 172.203 202.9C171.763 202.433 171.163 202.2 170.403 202.2C169.629 202.2 169.016 202.433 168.563 202.9C168.123 203.353 167.903 204.013 167.903 204.88V211H165.103V199.92H167.903V201.26C168.263 200.793 168.723 200.427 169.283 200.16C169.856 199.893 170.483 199.76 171.163 199.76C172.029 199.76 172.803 199.947 173.483 200.32C174.163 200.68 174.689 201.2 175.063 201.88C175.423 201.24 175.943 200.727 176.623 200.34C177.316 199.953 178.063 199.76 178.863 199.76ZM196.36 205.22C196.36 205.62 196.333 205.98 196.28 206.3H188.18C188.246 207.1 188.526 207.727 189.02 208.18C189.513 208.633 190.12 208.86 190.84 208.86C191.88 208.86 192.62 208.413 193.06 207.52H196.08C195.76 208.587 195.146 209.467 194.24 210.16C193.333 210.84 192.22 211.18 190.9 211.18C189.833 211.18 188.873 210.947 188.02 210.48C187.18 210 186.52 209.327 186.04 208.46C185.573 207.593 185.34 206.593 185.34 205.46C185.34 204.313 185.573 203.307 186.04 202.44C186.506 201.573 187.16 200.907 188 200.44C188.84 199.973 189.806 199.74 190.9 199.74C191.953 199.74 192.893 199.967 193.72 200.42C194.56 200.873 195.206 201.52 195.66 202.36C196.126 203.187 196.36 204.14 196.36 205.22ZM193.46 204.42C193.446 203.7 193.186 203.127 192.68 202.7C192.173 202.26 191.553 202.04 190.82 202.04C190.126 202.04 189.54 202.253 189.06 202.68C188.593 203.093 188.306 203.673 188.2 204.42H193.46ZM201.203 201.64C201.563 201.053 202.03 200.593 202.603 200.26C203.19 199.927 203.857 199.76 204.603 199.76V202.7H203.863C202.983 202.7 202.317 202.907 201.863 203.32C201.423 203.733 201.203 204.453 201.203 205.48V211H198.403V199.92H201.203V201.64ZM207.909 198.6C207.416 198.6 207.003 198.447 206.669 198.14C206.349 197.82 206.189 197.427 206.189 196.96C206.189 196.493 206.349 196.107 206.669 195.8C207.003 195.48 207.416 195.32 207.909 195.32C208.403 195.32 208.809 195.48 209.129 195.8C209.463 196.107 209.629 196.493 209.629 196.96C209.629 197.427 209.463 197.82 209.129 198.14C208.809 198.447 208.403 198.6 207.909 198.6ZM209.289 199.92V211H206.489V199.92H209.289ZM211.336 205.46C211.336 204.313 211.569 203.313 212.036 202.46C212.502 201.593 213.149 200.927 213.976 200.46C214.802 199.98 215.749 199.74 216.816 199.74C218.189 199.74 219.322 200.087 220.216 200.78C221.122 201.46 221.729 202.42 222.036 203.66H219.016C218.856 203.18 218.582 202.807 218.196 202.54C217.822 202.26 217.356 202.12 216.796 202.12C215.996 202.12 215.362 202.413 214.896 203C214.429 203.573 214.196 204.393 214.196 205.46C214.196 206.513 214.429 207.333 214.896 207.92C215.362 208.493 215.996 208.78 216.796 208.78C217.929 208.78 218.669 208.273 219.016 207.26H222.036C221.729 208.46 221.122 209.413 220.216 210.12C219.309 210.827 218.176 211.18 216.816 211.18C215.749 211.18 214.802 210.947 213.976 210.48C213.149 210 212.502 209.333 212.036 208.48C211.569 207.613 211.336 206.607 211.336 205.46ZM223.367 205.42C223.367 204.3 223.587 203.307 224.027 202.44C224.48 201.573 225.087 200.907 225.847 200.44C226.62 199.973 227.48 199.74 228.427 199.74C229.254 199.74 229.974 199.907 230.587 200.24C231.214 200.573 231.714 200.993 232.087 201.5V199.92H234.907V211H232.087V209.38C231.727 209.9 231.227 210.333 230.587 210.68C229.96 211.013 229.234 211.18 228.407 211.18C227.474 211.18 226.62 210.94 225.847 210.46C225.087 209.98 224.48 209.307 224.027 208.44C223.587 207.56 223.367 206.553 223.367 205.42ZM232.087 205.46C232.087 204.78 231.954 204.2 231.687 203.72C231.42 203.227 231.06 202.853 230.607 202.6C230.154 202.333 229.667 202.2 229.147 202.2C228.627 202.2 228.147 202.327 227.707 202.58C227.267 202.833 226.907 203.207 226.627 203.7C226.36 204.18 226.227 204.753 226.227 205.42C226.227 206.087 226.36 206.673 226.627 207.18C226.907 207.673 227.267 208.053 227.707 208.32C228.16 208.587 228.64 208.72 229.147 208.72C229.667 208.72 230.154 208.593 230.607 208.34C231.06 208.073 231.42 207.7 231.687 207.22C231.954 206.727 232.087 206.14 232.087 205.46ZM238.882 211.14C238.375 211.14 237.955 210.987 237.622 210.68C237.302 210.36 237.142 209.967 237.142 209.5C237.142 209.033 237.302 208.647 237.622 208.34C237.955 208.02 238.375 207.86 238.882 207.86C239.375 207.86 239.782 208.02 240.102 208.34C240.422 208.647 240.582 209.033 240.582 209.5C240.582 209.967 240.422 210.36 240.102 210.68C239.782 210.987 239.375 211.14 238.882 211.14ZM242.117 205.46C242.117 204.313 242.35 203.313 242.817 202.46C243.284 201.593 243.93 200.927 244.757 200.46C245.584 199.98 246.53 199.74 247.597 199.74C248.97 199.74 250.104 200.087 250.997 200.78C251.904 201.46 252.51 202.42 252.817 203.66H249.797C249.637 203.18 249.364 202.807 248.977 202.54C248.604 202.26 248.137 202.12 247.577 202.12C246.777 202.12 246.144 202.413 245.677 203C245.21 203.573 244.977 204.393 244.977 205.46C244.977 206.513 245.21 207.333 245.677 207.92C246.144 208.493 246.777 208.78 247.577 208.78C248.71 208.78 249.45 208.273 249.797 207.26H252.817C252.51 208.46 251.904 209.413 250.997 210.12C250.09 210.827 248.957 211.18 247.597 211.18C246.53 211.18 245.584 210.947 244.757 210.48C243.93 210 243.284 209.333 242.817 208.48C242.35 207.613 242.117 206.607 242.117 205.46ZM259.788 211.18C258.722 211.18 257.762 210.947 256.908 210.48C256.055 210 255.382 209.327 254.888 208.46C254.408 207.593 254.168 206.593 254.168 205.46C254.168 204.327 254.415 203.327 254.908 202.46C255.415 201.593 256.102 200.927 256.968 200.46C257.835 199.98 258.802 199.74 259.868 199.74C260.935 199.74 261.902 199.98 262.768 200.46C263.635 200.927 264.315 201.593 264.808 202.46C265.315 203.327 265.568 204.327 265.568 205.46C265.568 206.593 265.308 207.593 264.788 208.46C264.282 209.327 263.588 210 262.708 210.48C261.842 210.947 260.868 211.18 259.788 211.18ZM259.788 208.74C260.295 208.74 260.768 208.62 261.208 208.38C261.662 208.127 262.022 207.753 262.288 207.26C262.555 206.767 262.688 206.167 262.688 205.46C262.688 204.407 262.408 203.6 261.848 203.04C261.302 202.467 260.628 202.18 259.828 202.18C259.028 202.18 258.355 202.467 257.808 203.04C257.275 203.6 257.008 204.407 257.008 205.46C257.008 206.513 257.268 207.327 257.788 207.9C258.322 208.46 258.988 208.74 259.788 208.74ZM281.382 199.76C282.742 199.76 283.836 200.18 284.662 201.02C285.502 201.847 285.922 203.007 285.922 204.5V211H283.122V204.88C283.122 204.013 282.902 203.353 282.462 202.9C282.022 202.433 281.422 202.2 280.662 202.2C279.902 202.2 279.296 202.433 278.842 202.9C278.402 203.353 278.182 204.013 278.182 204.88V211H275.382V204.88C275.382 204.013 275.162 203.353 274.722 202.9C274.282 202.433 273.682 202.2 272.922 202.2C272.149 202.2 271.536 202.433 271.082 202.9C270.642 203.353 270.422 204.013 270.422 204.88V211H267.622V199.92H270.422V201.26C270.782 200.793 271.242 200.427 271.802 200.16C272.376 199.893 273.002 199.76 273.682 199.76C274.549 199.76 275.322 199.947 276.002 200.32C276.682 200.68 277.209 201.2 277.582 201.88C277.942 201.24 278.462 200.727 279.142 200.34C279.836 199.953 280.582 199.76 281.382 199.76Z" fill="black"/>
<defs>
<filter id="filter0_dd_2209_1452" x="0" y="0" width="531" height="288" filterUnits="userSpaceOnUse" color-interpolation-filters="sRGB">
<feFlood flood-opacity="0" result="BackgroundImageFix"/>
<feColorMatrix in="SourceAlpha" type="matrix" values="0 0 0 0 0 0 0 0 0 0 0 0 0 0 0 0 0 0 127 0" result="hardAlpha"/>
<feMorphology radius="2" operator="erode" in="SourceAlpha" result="effect1_dropShadow_2209_1452"/>
<feOffset dy="2"/>
<feGaussianBlur stdDeviation="2"/>
<feComposite in2="hardAlpha" operator="out"/>
<feColorMatrix type="matrix" values="0 0 0 0 0 0 0 0 0 0 0 0 0 0 0 0 0 0 0.1 0"/>
<feBlend mode="normal" in2="BackgroundImageFix" result="effect1_dropShadow_2209_1452"/>
<feColorMatrix in="SourceAlpha" type="matrix" values="0 0 0 0 0 0 0 0 0 0 0 0 0 0 0 0 0 0 127 0" result="hardAlpha"/>
<feMorphology radius="1" operator="erode" in="SourceAlpha" result="effect2_dropShadow_2209_1452"/>
<feOffset dy="4"/>
<feGaussianBlur stdDeviation="3"/>
<feComposite in2="hardAlpha" operator="out"/>
<feColorMatrix type="matrix" values="0 0 0 0 0 0 0 0 0 0 0 0 0 0 0 0 0 0 0.1 0"/>
<feBlend mode="normal" in2="effect1_dropShadow_2209_1452" result="effect2_dropShadow_2209_1452"/>
<feBlend mode="normal" in="SourceGraphic" in2="effect2_dropShadow_2209_1452" result="shape"/>
</filter>
<clipPath id="clip0_2209_1452">
<rect width="24" height="24" fill="white" transform="translate(20 102)"/>
</clipPath>
<clipPath id="clip1_2209_1452">
<rect width="24" height="24" fill="white" transform="translate(20 149)"/>
</clipPath>
<clipPath id="clip2_2209_1452">
<rect width="24" height="24" fill="white" transform="translate(20 194)"/>
</clipPath>
</defs>
</svg>
